%TF.GenerationSoftware,KiCad,Pcbnew,10.0.6*%
%TF.CreationDate,2026-09-14T00:18:00-06:00*%
%TF.ProjectId,aam_bom_pcb,61616d5f-626f-46d5-9f70-63622e6b6963,rev?*%
%TF.SameCoordinates,Original*%
%TF.FileFunction,Copper,L4,Bot*%
%TF.FilePolarity,Positive*%
%FSLAX46Y46*%
G04 Gerber Fmt 4.6, Leading zero omitted, Abs format (unit mm)*
G04 Created by KiCad (PCBNEW 10.0.6) date 2026-09-14 00:18:00*
%MOMM*%
%LPD*%
G01*
G04 APERTURE LIST*
%TA.AperFunction,ComponentPad*%
%ADD10C,2.080000*%
%TD*%
%TA.AperFunction,ComponentPad*%
%ADD11C,0.508000*%
%TD*%
%TA.AperFunction,ComponentPad*%
%ADD12O,2.100000X1.000000*%
%TD*%
%TA.AperFunction,ComponentPad*%
%ADD13O,1.600000X1.000000*%
%TD*%
%TA.AperFunction,ViaPad*%
%ADD14C,0.300000*%
%TD*%
%TA.AperFunction,ViaPad*%
%ADD15C,0.600000*%
%TD*%
%TA.AperFunction,Conductor*%
%ADD16C,0.127000*%
%TD*%
G04 APERTURE END LIST*
D10*
%TO.P,MK1,5,GND_5*%
%TO.N,GND*%
X196000000Y-49000000D03*
%TD*%
D11*
%TO.P,U4,25,EPAD_25*%
%TO.N,GND*%
X186187400Y-55837400D03*
X186187400Y-55050000D03*
X186187400Y-54262600D03*
X185400000Y-55837400D03*
X185400000Y-55050000D03*
X185400000Y-54262600D03*
X184612600Y-55837400D03*
X184612600Y-55050000D03*
X184612600Y-54262600D03*
%TD*%
D12*
%TO.P,J1,SH,SHIELD_SH*%
%TO.N,Net-(J1-SHIELD)*%
X168357789Y-53030000D03*
D13*
X164177789Y-53030000D03*
D12*
X168357789Y-61670000D03*
D13*
X164177789Y-61670000D03*
%TD*%
D14*
%TO.N,Net-(U1-TS)*%
X176800000Y-51000000D03*
X178100000Y-54600000D03*
%TO.N,I2C_SCL*%
X188100000Y-52800000D03*
%TO.N,I2C_SDA*%
X186000000Y-52250000D03*
%TO.N,+1V8*%
X200500000Y-55000000D03*
X203000000Y-55250000D03*
X190750000Y-58500000D03*
X188500000Y-51200000D03*
X186186500Y-59100000D03*
X195100000Y-53300000D03*
%TO.N,GND*%
X194200000Y-51700000D03*
%TO.N,PDM_DATA*%
X199000000Y-50000000D03*
%TO.N,GND*%
X192700000Y-57800000D03*
X191700000Y-56500000D03*
X190300000Y-56300000D03*
D15*
%TO.N,Net-(J1-SHIELD)*%
X164750000Y-51250000D03*
X168500000Y-63370000D03*
X165000000Y-63370000D03*
X168500000Y-51330000D03*
D14*
%TO.N,GND*%
X174000000Y-50900000D03*
X205400000Y-54300000D03*
D15*
X170770000Y-54000000D03*
D14*
X197250000Y-46750000D03*
X176000000Y-50850000D03*
X176200000Y-52100000D03*
X192800000Y-48150000D03*
X166800000Y-49900000D03*
X212800000Y-56300000D03*
X186550000Y-58050000D03*
X177400000Y-53300000D03*
X210149998Y-58800000D03*
X214900000Y-62800000D03*
X179250000Y-60050000D03*
X210700000Y-54400000D03*
X181200000Y-54500000D03*
X205500000Y-51700000D03*
X175200000Y-50850000D03*
X202300000Y-63100000D03*
X173900000Y-47550000D03*
X180400000Y-47400000D03*
D15*
X170770000Y-60550000D03*
D14*
X183704544Y-58051769D03*
D15*
X194000000Y-49500000D03*
D14*
X212800000Y-55800000D03*
X175500000Y-47500000D03*
X200000000Y-52500000D03*
X212800000Y-56700000D03*
X212800000Y-57200000D03*
X182159500Y-54300000D03*
X185392389Y-58107611D03*
X197400000Y-54000000D03*
X188600000Y-56900000D03*
X182800000Y-59950000D03*
X204100000Y-61700000D03*
X179100000Y-47650000D03*
%TO.N,Net-(J1-CC2)*%
X170750000Y-58750000D03*
%TO.N,Net-(U4-\u002ARESET)*%
X184201387Y-58548613D03*
%TO.N,+1V8*%
X205600000Y-62600000D03*
X183850000Y-51650000D03*
X186000000Y-58100000D03*
X197600000Y-52500000D03*
X187200000Y-57950000D03*
X204000000Y-55000000D03*
X174600000Y-47550000D03*
D15*
X172750000Y-46750000D03*
D14*
X206100000Y-54300000D03*
X182159500Y-53800000D03*
X188500000Y-58000000D03*
X182600000Y-46600000D03*
X176750000Y-49200000D03*
X197750000Y-51250000D03*
%TO.N,/SWCLK*%
X204000000Y-59300000D03*
%TO.N,/SWDIO*%
X204000000Y-58700000D03*
%TO.N,PDM_DATA*%
X204100000Y-60200000D03*
%TO.N,PDM_CLK*%
X212800000Y-60300000D03*
%TO.N,/SWD_NRST*%
X208500000Y-54300000D03*
%TO.N,Net-(U3-VDDA)*%
X210000000Y-54400000D03*
X200000000Y-54000000D03*
X211300000Y-54400000D03*
%TO.N,Net-(D1-K)*%
X171000000Y-55000000D03*
X170750000Y-59750000D03*
%TO.N,I2C_SDA*%
X207900000Y-54300000D03*
X176800000Y-48300000D03*
%TO.N,Net-(U3-PH3-BOOT0)*%
X207284778Y-54300000D03*
%TO.N,I2C_SCL*%
X176674423Y-47750385D03*
X206700000Y-54300000D03*
%TO.N,/I2S_DIN*%
X203900000Y-56200000D03*
X188500000Y-54800000D03*
%TO.N,/I2S_BCLK*%
X188500000Y-55800000D03*
X204100000Y-57100000D03*
%TO.N,/I2S_WCLK*%
X188500000Y-55300000D03*
X208300000Y-62600000D03*
%TO.N,VBAT*%
X174600000Y-50900000D03*
X176917389Y-52232611D03*
X178050000Y-52550000D03*
%TO.N,Net-(J1-CC1)*%
X171000000Y-56000000D03*
D15*
X172750000Y-56000000D03*
D14*
%TO.N,Net-(U1-LS{slash}LDO)*%
X175500000Y-46999997D03*
%TO.N,Net-(U4-INR)*%
X182159500Y-55350000D03*
%TO.N,Net-(U4-REF)*%
X182159500Y-55850003D03*
%TO.N,Net-(C6-Pad1)*%
X173250000Y-49100000D03*
%TO.N,Net-(U1-SW)*%
X173250000Y-48249615D03*
%TD*%
%TO.N,Net-(U1-TS)*%
D16*
X176900000Y-51000000D02*
X176800000Y-51000000D01*
X177500000Y-51600000D02*
X176900000Y-51000000D01*
X177500000Y-52600000D02*
X177500000Y-51600000D01*
X178100000Y-53200000D02*
X177500000Y-52600000D01*
X178100000Y-54600000D02*
X178100000Y-53200000D01*
%TO.N,I2C_SCL*%
X190063500Y-50836500D02*
X188100000Y-52800000D01*
X198163500Y-50594278D02*
X197921278Y-50836500D01*
X198163500Y-50251722D02*
X198163500Y-50594278D01*
X198828722Y-49586500D02*
X198163500Y-50251722D01*
X201986500Y-49586500D02*
X198828722Y-49586500D01*
X197921278Y-50836500D02*
X190063500Y-50836500D01*
X206700000Y-54300000D02*
X201986500Y-49586500D01*
%TO.N,I2C_SDA*%
X207900000Y-50000000D02*
X207900000Y-54300000D01*
X206800000Y-48900000D02*
X207900000Y-50000000D01*
X197800000Y-49100000D02*
X198000000Y-48900000D01*
X197800000Y-50300000D02*
X197800000Y-49100000D01*
X197686500Y-50413500D02*
X197800000Y-50300000D01*
X187113500Y-50413500D02*
X197686500Y-50413500D01*
X186400000Y-49700000D02*
X187113500Y-50413500D01*
X198000000Y-48900000D02*
X206800000Y-48900000D01*
X186000000Y-50100000D02*
X186400000Y-49700000D01*
X186000000Y-52250000D02*
X186000000Y-50100000D01*
%TO.N,Net-(D1-K)*%
X171413500Y-55413500D02*
X171000000Y-55000000D01*
X171413500Y-59086500D02*
X171413500Y-55413500D01*
X170750000Y-59750000D02*
X171413500Y-59086500D01*
%TO.N,PDM_DATA*%
X200800000Y-50000000D02*
X199000000Y-50000000D01*
X201000000Y-57100000D02*
X201000000Y-50200000D01*
X204100000Y-60200000D02*
X201000000Y-57100000D01*
X201000000Y-50200000D02*
X200800000Y-50000000D01*
%TO.N,/I2S_WCLK*%
X201800000Y-64200000D02*
X206700000Y-64200000D01*
X206700000Y-64200000D02*
X208300000Y-62600000D01*
X192900000Y-55300000D02*
X201800000Y-64200000D01*
X188500000Y-55300000D02*
X192900000Y-55300000D01*
%TD*%
M02*
