M48
; DRILL file KiCad 10.0.6 date 2026-09-14T00:21:38
; FORMAT={-:-/ absolute / metric / decimal}
; #@! TF.CreationDate,2026-09-14T00:21:38-06:00
; #@! TF.GenerationSoftware,Kicad,Pcbnew,10.0.6
; #@! TF.FileFunction,Plated,1,4,PTH
FMAT,2
METRIC
; #@! TA.AperFunction,Plated,PTH,ViaDrill
T1C0.150
; #@! TA.AperFunction,Plated,PTH,ComponentDrill
T2C0.254
; #@! TA.AperFunction,Plated,PTH,ViaDrill
T3C0.300
; #@! TA.AperFunction,Plated,PTH,ComponentDrill
T4C0.600
; #@! TA.AperFunction,Plated,PTH,ComponentDrill
T5C1.160
%
G90
G05
T1
X166.8Y-49.9
X170.75Y-58.75
X170.75Y-59.75
X171.0Y-55.0
X171.0Y-56.0
X173.25Y-48.25
X173.25Y-49.1
X173.9Y-47.55
X174.0Y-50.9
X174.6Y-47.55
X174.6Y-50.9
X175.2Y-50.85
X175.5Y-47.0
X175.5Y-47.5
X176.0Y-50.85
X176.2Y-52.1
X176.674Y-47.75
X176.75Y-49.2
X176.8Y-48.3
X176.8Y-51.0
X176.917Y-52.233
X177.4Y-53.3
X178.05Y-52.55
X178.1Y-54.6
X179.1Y-47.65
X179.25Y-60.05
X180.4Y-47.4
X181.2Y-54.5
X182.159Y-53.8
X182.159Y-54.3
X182.159Y-55.35
X182.159Y-55.85
X182.6Y-46.6
X182.8Y-59.95
X183.705Y-58.052
X183.85Y-51.65
X184.201Y-58.549
X185.392Y-58.108
X186.0Y-52.25
X186.0Y-58.1
X186.186Y-59.1
X186.55Y-58.05
X187.2Y-57.95
X188.1Y-52.8
X188.5Y-51.2
X188.5Y-54.8
X188.5Y-55.3
X188.5Y-55.8
X188.5Y-58.0
X188.6Y-56.9
X190.3Y-56.3
X190.75Y-58.5
X191.7Y-56.5
X192.7Y-57.8
X192.8Y-48.15
X194.2Y-51.7
X195.1Y-53.3
X197.25Y-46.75
X197.4Y-54.0
X197.6Y-52.5
X197.75Y-51.25
X199.0Y-50.0
X200.0Y-52.5
X200.0Y-54.0
X200.5Y-55.0
X202.3Y-63.1
X203.0Y-55.25
X203.9Y-56.2
X204.0Y-55.0
X204.0Y-58.7
X204.0Y-59.3
X204.1Y-57.1
X204.1Y-60.2
X204.1Y-61.7
X205.4Y-54.3
X205.5Y-51.7
X205.6Y-62.6
X206.1Y-54.3
X206.7Y-54.3
X207.285Y-54.3
X207.9Y-54.3
X208.3Y-62.6
X208.5Y-54.3
X210.0Y-54.4
X210.15Y-58.8
X210.7Y-54.4
X211.3Y-54.4
X212.8Y-55.8
X212.8Y-56.3
X212.8Y-56.7
X212.8Y-57.2
X212.8Y-60.3
X214.9Y-62.8
T2
X184.613Y-54.263
X184.613Y-55.05
X184.613Y-55.837
X185.4Y-54.263
X185.4Y-55.05
X185.4Y-55.837
X186.187Y-54.263
X186.187Y-55.05
X186.187Y-55.837
T3
X164.75Y-51.25
X165.0Y-63.37
X168.5Y-51.33
X168.5Y-63.37
X170.77Y-54.0
X170.77Y-60.55
X172.75Y-46.75
X172.75Y-56.0
X194.0Y-49.5
T5
X196.0Y-49.0
T4
G00X164.478Y-53.03
M15
G01X163.878Y-53.03
M16
G05
G00X164.478Y-61.67
M15
G01X163.878Y-61.67
M16
G05
G00X168.908Y-53.03
M15
G01X167.808Y-53.03
M16
G05
G00X168.908Y-61.67
M15
G01X167.808Y-61.67
M16
G05
M30
