%TF.GenerationSoftware,KiCad,Pcbnew,10.0.6*%
%TF.CreationDate,2026-09-14T00:18:00-06:00*%
%TF.ProjectId,aam_bom_pcb,61616d5f-626f-46d5-9f70-63622e6b6963,rev?*%
%TF.SameCoordinates,Original*%
%TF.FileFunction,Legend,Top*%
%TF.FilePolarity,Positive*%
%FSLAX46Y46*%
G04 Gerber Fmt 4.6, Leading zero omitted, Abs format (unit mm)*
G04 Created by KiCad (PCBNEW 10.0.6) date 2026-09-14 00:18:00*
%MOMM*%
%LPD*%
G01*
G04 APERTURE LIST*
G04 Aperture macros list*
%AMRoundRect*
0 Rectangle with rounded corners*
0 $1 Rounding radius*
0 $2 $3 $4 $5 $6 $7 $8 $9 X,Y pos of 4 corners*
0 Add a 4 corners polygon primitive as box body*
4,1,4,$2,$3,$4,$5,$6,$7,$8,$9,$2,$3,0*
0 Add four circle primitives for the rounded corners*
1,1,$1+$1,$2,$3*
1,1,$1+$1,$4,$5*
1,1,$1+$1,$6,$7*
1,1,$1+$1,$8,$9*
0 Add four rect primitives between the rounded corners*
20,1,$1+$1,$2,$3,$4,$5,0*
20,1,$1+$1,$4,$5,$6,$7,0*
20,1,$1+$1,$6,$7,$8,$9,0*
20,1,$1+$1,$8,$9,$2,$3,0*%
G04 Aperture macros list end*
%ADD10C,0.150000*%
%ADD11C,0.254000*%
%ADD12C,0.120000*%
%ADD13C,0.200000*%
%ADD14C,0.100000*%
%ADD15C,0.152400*%
%ADD16C,0.000000*%
%ADD17C,0.127000*%
%ADD18C,0.165000*%
%ADD19RoundRect,0.140000X-0.170000X0.140000X-0.170000X-0.140000X0.170000X-0.140000X0.170000X0.140000X0*%
%ADD20RoundRect,0.135000X-0.185000X0.135000X-0.185000X-0.135000X0.185000X-0.135000X0.185000X0.135000X0*%
%ADD21R,1.500000X1.500000*%
%ADD22RoundRect,0.135000X-0.135000X-0.185000X0.135000X-0.185000X0.135000X0.185000X-0.135000X0.185000X0*%
%ADD23C,1.500000*%
%ADD24RoundRect,0.140000X0.140000X0.170000X-0.140000X0.170000X-0.140000X-0.170000X0.140000X-0.170000X0*%
%ADD25R,0.450000X0.750000*%
%ADD26C,2.080000*%
%ADD27RoundRect,0.140000X0.170000X-0.140000X0.170000X0.140000X-0.170000X0.140000X-0.170000X-0.140000X0*%
%ADD28RoundRect,0.140000X-0.140000X-0.170000X0.140000X-0.170000X0.140000X0.170000X-0.140000X0.170000X0*%
%ADD29RoundRect,0.147500X-0.147500X-0.172500X0.147500X-0.172500X0.147500X0.172500X-0.147500X0.172500X0*%
%ADD30RoundRect,0.050000X0.300000X-0.150000X0.300000X0.150000X-0.300000X0.150000X-0.300000X-0.150000X0*%
%ADD31R,0.350000X0.350000*%
%ADD32R,0.300000X0.350000*%
%ADD33R,0.350000X0.300000*%
%ADD34R,0.600000X0.600000*%
%ADD35R,0.430000X0.430000*%
%ADD36RoundRect,0.135000X0.185000X-0.135000X0.185000X0.135000X-0.185000X0.135000X-0.185000X-0.135000X0*%
%ADD37R,0.850000X0.280000*%
%ADD38R,0.280000X0.850000*%
%ADD39C,0.508000*%
%ADD40RoundRect,0.250000X-0.850000X0.375000X-0.850000X-0.375000X0.850000X-0.375000X0.850000X0.375000X0*%
%ADD41RoundRect,0.135000X0.135000X0.185000X-0.135000X0.185000X-0.135000X-0.185000X0.135000X-0.185000X0*%
%ADD42C,0.650000*%
%ADD43RoundRect,0.150000X-0.500000X0.150000X-0.500000X-0.150000X0.500000X-0.150000X0.500000X0.150000X0*%
%ADD44RoundRect,0.075000X-0.575000X0.075000X-0.575000X-0.075000X0.575000X-0.075000X0.575000X0.075000X0*%
%ADD45O,2.100000X1.000000*%
%ADD46O,1.600000X1.000000*%
G04 APERTURE END LIST*
D10*
X184019580Y-54117857D02*
X184067200Y-54165476D01*
X184067200Y-54165476D02*
X184114819Y-54308333D01*
X184114819Y-54308333D02*
X184114819Y-54403571D01*
X184114819Y-54403571D02*
X184067200Y-54546428D01*
X184067200Y-54546428D02*
X183971961Y-54641666D01*
X183971961Y-54641666D02*
X183876723Y-54689285D01*
X183876723Y-54689285D02*
X183686247Y-54736904D01*
X183686247Y-54736904D02*
X183543390Y-54736904D01*
X183543390Y-54736904D02*
X183352914Y-54689285D01*
X183352914Y-54689285D02*
X183257676Y-54641666D01*
X183257676Y-54641666D02*
X183162438Y-54546428D01*
X183162438Y-54546428D02*
X183114819Y-54403571D01*
X183114819Y-54403571D02*
X183114819Y-54308333D01*
X183114819Y-54308333D02*
X183162438Y-54165476D01*
X183162438Y-54165476D02*
X183210057Y-54117857D01*
X184114819Y-53165476D02*
X184114819Y-53736904D01*
X184114819Y-53451190D02*
X183114819Y-53451190D01*
X183114819Y-53451190D02*
X183257676Y-53546428D01*
X183257676Y-53546428D02*
X183352914Y-53641666D01*
X183352914Y-53641666D02*
X183400533Y-53736904D01*
X183114819Y-52832142D02*
X183114819Y-52165476D01*
X183114819Y-52165476D02*
X184114819Y-52594047D01*
X171184580Y-51666666D02*
X171232200Y-51714285D01*
X171232200Y-51714285D02*
X171279819Y-51857142D01*
X171279819Y-51857142D02*
X171279819Y-51952380D01*
X171279819Y-51952380D02*
X171232200Y-52095237D01*
X171232200Y-52095237D02*
X171136961Y-52190475D01*
X171136961Y-52190475D02*
X171041723Y-52238094D01*
X171041723Y-52238094D02*
X170851247Y-52285713D01*
X170851247Y-52285713D02*
X170708390Y-52285713D01*
X170708390Y-52285713D02*
X170517914Y-52238094D01*
X170517914Y-52238094D02*
X170422676Y-52190475D01*
X170422676Y-52190475D02*
X170327438Y-52095237D01*
X170327438Y-52095237D02*
X170279819Y-51952380D01*
X170279819Y-51952380D02*
X170279819Y-51857142D01*
X170279819Y-51857142D02*
X170327438Y-51714285D01*
X170327438Y-51714285D02*
X170375057Y-51666666D01*
X170279819Y-50761904D02*
X170279819Y-51238094D01*
X170279819Y-51238094D02*
X170756009Y-51285713D01*
X170756009Y-51285713D02*
X170708390Y-51238094D01*
X170708390Y-51238094D02*
X170660771Y-51142856D01*
X170660771Y-51142856D02*
X170660771Y-50904761D01*
X170660771Y-50904761D02*
X170708390Y-50809523D01*
X170708390Y-50809523D02*
X170756009Y-50761904D01*
X170756009Y-50761904D02*
X170851247Y-50714285D01*
X170851247Y-50714285D02*
X171089342Y-50714285D01*
X171089342Y-50714285D02*
X171184580Y-50761904D01*
X171184580Y-50761904D02*
X171232200Y-50809523D01*
X171232200Y-50809523D02*
X171279819Y-50904761D01*
X171279819Y-50904761D02*
X171279819Y-51142856D01*
X171279819Y-51142856D02*
X171232200Y-51238094D01*
X171232200Y-51238094D02*
X171184580Y-51285713D01*
X176959580Y-54446666D02*
X177007200Y-54494285D01*
X177007200Y-54494285D02*
X177054819Y-54637142D01*
X177054819Y-54637142D02*
X177054819Y-54732380D01*
X177054819Y-54732380D02*
X177007200Y-54875237D01*
X177007200Y-54875237D02*
X176911961Y-54970475D01*
X176911961Y-54970475D02*
X176816723Y-55018094D01*
X176816723Y-55018094D02*
X176626247Y-55065713D01*
X176626247Y-55065713D02*
X176483390Y-55065713D01*
X176483390Y-55065713D02*
X176292914Y-55018094D01*
X176292914Y-55018094D02*
X176197676Y-54970475D01*
X176197676Y-54970475D02*
X176102438Y-54875237D01*
X176102438Y-54875237D02*
X176054819Y-54732380D01*
X176054819Y-54732380D02*
X176054819Y-54637142D01*
X176054819Y-54637142D02*
X176102438Y-54494285D01*
X176102438Y-54494285D02*
X176150057Y-54446666D01*
X177054819Y-53494285D02*
X177054819Y-54065713D01*
X177054819Y-53779999D02*
X176054819Y-53779999D01*
X176054819Y-53779999D02*
X176197676Y-53875237D01*
X176197676Y-53875237D02*
X176292914Y-53970475D01*
X176292914Y-53970475D02*
X176340533Y-54065713D01*
X174624819Y-61166666D02*
X174148628Y-61499999D01*
X174624819Y-61738094D02*
X173624819Y-61738094D01*
X173624819Y-61738094D02*
X173624819Y-61357142D01*
X173624819Y-61357142D02*
X173672438Y-61261904D01*
X173672438Y-61261904D02*
X173720057Y-61214285D01*
X173720057Y-61214285D02*
X173815295Y-61166666D01*
X173815295Y-61166666D02*
X173958152Y-61166666D01*
X173958152Y-61166666D02*
X174053390Y-61214285D01*
X174053390Y-61214285D02*
X174101009Y-61261904D01*
X174101009Y-61261904D02*
X174148628Y-61357142D01*
X174148628Y-61357142D02*
X174148628Y-61738094D01*
X173958152Y-60309523D02*
X174624819Y-60309523D01*
X173577200Y-60547618D02*
X174291485Y-60785713D01*
X174291485Y-60785713D02*
X174291485Y-60166666D01*
X179188095Y-48256819D02*
X179759523Y-48256819D01*
X179473809Y-49256819D02*
X179473809Y-48256819D01*
X180092857Y-49256819D02*
X180092857Y-48256819D01*
X180092857Y-48256819D02*
X180473809Y-48256819D01*
X180473809Y-48256819D02*
X180569047Y-48304438D01*
X180569047Y-48304438D02*
X180616666Y-48352057D01*
X180616666Y-48352057D02*
X180664285Y-48447295D01*
X180664285Y-48447295D02*
X180664285Y-48590152D01*
X180664285Y-48590152D02*
X180616666Y-48685390D01*
X180616666Y-48685390D02*
X180569047Y-48733009D01*
X180569047Y-48733009D02*
X180473809Y-48780628D01*
X180473809Y-48780628D02*
X180092857Y-48780628D01*
X180997619Y-48256819D02*
X181664285Y-48256819D01*
X181664285Y-48256819D02*
X181235714Y-49256819D01*
X185033333Y-58434819D02*
X184700000Y-57958628D01*
X184461905Y-58434819D02*
X184461905Y-57434819D01*
X184461905Y-57434819D02*
X184842857Y-57434819D01*
X184842857Y-57434819D02*
X184938095Y-57482438D01*
X184938095Y-57482438D02*
X184985714Y-57530057D01*
X184985714Y-57530057D02*
X185033333Y-57625295D01*
X185033333Y-57625295D02*
X185033333Y-57768152D01*
X185033333Y-57768152D02*
X184985714Y-57863390D01*
X184985714Y-57863390D02*
X184938095Y-57911009D01*
X184938095Y-57911009D02*
X184842857Y-57958628D01*
X184842857Y-57958628D02*
X184461905Y-57958628D01*
X185509524Y-58434819D02*
X185700000Y-58434819D01*
X185700000Y-58434819D02*
X185795238Y-58387200D01*
X185795238Y-58387200D02*
X185842857Y-58339580D01*
X185842857Y-58339580D02*
X185938095Y-58196723D01*
X185938095Y-58196723D02*
X185985714Y-58006247D01*
X185985714Y-58006247D02*
X185985714Y-57625295D01*
X185985714Y-57625295D02*
X185938095Y-57530057D01*
X185938095Y-57530057D02*
X185890476Y-57482438D01*
X185890476Y-57482438D02*
X185795238Y-57434819D01*
X185795238Y-57434819D02*
X185604762Y-57434819D01*
X185604762Y-57434819D02*
X185509524Y-57482438D01*
X185509524Y-57482438D02*
X185461905Y-57530057D01*
X185461905Y-57530057D02*
X185414286Y-57625295D01*
X185414286Y-57625295D02*
X185414286Y-57863390D01*
X185414286Y-57863390D02*
X185461905Y-57958628D01*
X185461905Y-57958628D02*
X185509524Y-58006247D01*
X185509524Y-58006247D02*
X185604762Y-58053866D01*
X185604762Y-58053866D02*
X185795238Y-58053866D01*
X185795238Y-58053866D02*
X185890476Y-58006247D01*
X185890476Y-58006247D02*
X185938095Y-57958628D01*
X185938095Y-57958628D02*
X185985714Y-57863390D01*
X199538095Y-61802819D02*
X200109523Y-61802819D01*
X199823809Y-62802819D02*
X199823809Y-61802819D01*
X200442857Y-62802819D02*
X200442857Y-61802819D01*
X200442857Y-61802819D02*
X200823809Y-61802819D01*
X200823809Y-61802819D02*
X200919047Y-61850438D01*
X200919047Y-61850438D02*
X200966666Y-61898057D01*
X200966666Y-61898057D02*
X201014285Y-61993295D01*
X201014285Y-61993295D02*
X201014285Y-62136152D01*
X201014285Y-62136152D02*
X200966666Y-62231390D01*
X200966666Y-62231390D02*
X200919047Y-62279009D01*
X200919047Y-62279009D02*
X200823809Y-62326628D01*
X200823809Y-62326628D02*
X200442857Y-62326628D01*
X201395238Y-61898057D02*
X201442857Y-61850438D01*
X201442857Y-61850438D02*
X201538095Y-61802819D01*
X201538095Y-61802819D02*
X201776190Y-61802819D01*
X201776190Y-61802819D02*
X201871428Y-61850438D01*
X201871428Y-61850438D02*
X201919047Y-61898057D01*
X201919047Y-61898057D02*
X201966666Y-61993295D01*
X201966666Y-61993295D02*
X201966666Y-62088533D01*
X201966666Y-62088533D02*
X201919047Y-62231390D01*
X201919047Y-62231390D02*
X201347619Y-62802819D01*
X201347619Y-62802819D02*
X201966666Y-62802819D01*
X199738095Y-59102819D02*
X200309523Y-59102819D01*
X200023809Y-60102819D02*
X200023809Y-59102819D01*
X200642857Y-60102819D02*
X200642857Y-59102819D01*
X200642857Y-59102819D02*
X201023809Y-59102819D01*
X201023809Y-59102819D02*
X201119047Y-59150438D01*
X201119047Y-59150438D02*
X201166666Y-59198057D01*
X201166666Y-59198057D02*
X201214285Y-59293295D01*
X201214285Y-59293295D02*
X201214285Y-59436152D01*
X201214285Y-59436152D02*
X201166666Y-59531390D01*
X201166666Y-59531390D02*
X201119047Y-59579009D01*
X201119047Y-59579009D02*
X201023809Y-59626628D01*
X201023809Y-59626628D02*
X200642857Y-59626628D01*
X202166666Y-60102819D02*
X201595238Y-60102819D01*
X201880952Y-60102819D02*
X201880952Y-59102819D01*
X201880952Y-59102819D02*
X201785714Y-59245676D01*
X201785714Y-59245676D02*
X201690476Y-59340914D01*
X201690476Y-59340914D02*
X201595238Y-59388533D01*
X192019580Y-58142857D02*
X192067200Y-58190476D01*
X192067200Y-58190476D02*
X192114819Y-58333333D01*
X192114819Y-58333333D02*
X192114819Y-58428571D01*
X192114819Y-58428571D02*
X192067200Y-58571428D01*
X192067200Y-58571428D02*
X191971961Y-58666666D01*
X191971961Y-58666666D02*
X191876723Y-58714285D01*
X191876723Y-58714285D02*
X191686247Y-58761904D01*
X191686247Y-58761904D02*
X191543390Y-58761904D01*
X191543390Y-58761904D02*
X191352914Y-58714285D01*
X191352914Y-58714285D02*
X191257676Y-58666666D01*
X191257676Y-58666666D02*
X191162438Y-58571428D01*
X191162438Y-58571428D02*
X191114819Y-58428571D01*
X191114819Y-58428571D02*
X191114819Y-58333333D01*
X191114819Y-58333333D02*
X191162438Y-58190476D01*
X191162438Y-58190476D02*
X191210057Y-58142857D01*
X192114819Y-57190476D02*
X192114819Y-57761904D01*
X192114819Y-57476190D02*
X191114819Y-57476190D01*
X191114819Y-57476190D02*
X191257676Y-57571428D01*
X191257676Y-57571428D02*
X191352914Y-57666666D01*
X191352914Y-57666666D02*
X191400533Y-57761904D01*
X191114819Y-56857142D02*
X191114819Y-56238095D01*
X191114819Y-56238095D02*
X191495771Y-56571428D01*
X191495771Y-56571428D02*
X191495771Y-56428571D01*
X191495771Y-56428571D02*
X191543390Y-56333333D01*
X191543390Y-56333333D02*
X191591009Y-56285714D01*
X191591009Y-56285714D02*
X191686247Y-56238095D01*
X191686247Y-56238095D02*
X191924342Y-56238095D01*
X191924342Y-56238095D02*
X192019580Y-56285714D01*
X192019580Y-56285714D02*
X192067200Y-56333333D01*
X192067200Y-56333333D02*
X192114819Y-56428571D01*
X192114819Y-56428571D02*
X192114819Y-56714285D01*
X192114819Y-56714285D02*
X192067200Y-56809523D01*
X192067200Y-56809523D02*
X192019580Y-56857142D01*
X203433333Y-64619580D02*
X203385714Y-64667200D01*
X203385714Y-64667200D02*
X203242857Y-64714819D01*
X203242857Y-64714819D02*
X203147619Y-64714819D01*
X203147619Y-64714819D02*
X203004762Y-64667200D01*
X203004762Y-64667200D02*
X202909524Y-64571961D01*
X202909524Y-64571961D02*
X202861905Y-64476723D01*
X202861905Y-64476723D02*
X202814286Y-64286247D01*
X202814286Y-64286247D02*
X202814286Y-64143390D01*
X202814286Y-64143390D02*
X202861905Y-63952914D01*
X202861905Y-63952914D02*
X202909524Y-63857676D01*
X202909524Y-63857676D02*
X203004762Y-63762438D01*
X203004762Y-63762438D02*
X203147619Y-63714819D01*
X203147619Y-63714819D02*
X203242857Y-63714819D01*
X203242857Y-63714819D02*
X203385714Y-63762438D01*
X203385714Y-63762438D02*
X203433333Y-63810057D01*
X203766667Y-63714819D02*
X204433333Y-63714819D01*
X204433333Y-63714819D02*
X204004762Y-64714819D01*
X180778333Y-45259580D02*
X180730714Y-45307200D01*
X180730714Y-45307200D02*
X180587857Y-45354819D01*
X180587857Y-45354819D02*
X180492619Y-45354819D01*
X180492619Y-45354819D02*
X180349762Y-45307200D01*
X180349762Y-45307200D02*
X180254524Y-45211961D01*
X180254524Y-45211961D02*
X180206905Y-45116723D01*
X180206905Y-45116723D02*
X180159286Y-44926247D01*
X180159286Y-44926247D02*
X180159286Y-44783390D01*
X180159286Y-44783390D02*
X180206905Y-44592914D01*
X180206905Y-44592914D02*
X180254524Y-44497676D01*
X180254524Y-44497676D02*
X180349762Y-44402438D01*
X180349762Y-44402438D02*
X180492619Y-44354819D01*
X180492619Y-44354819D02*
X180587857Y-44354819D01*
X180587857Y-44354819D02*
X180730714Y-44402438D01*
X180730714Y-44402438D02*
X180778333Y-44450057D01*
X181159286Y-44450057D02*
X181206905Y-44402438D01*
X181206905Y-44402438D02*
X181302143Y-44354819D01*
X181302143Y-44354819D02*
X181540238Y-44354819D01*
X181540238Y-44354819D02*
X181635476Y-44402438D01*
X181635476Y-44402438D02*
X181683095Y-44450057D01*
X181683095Y-44450057D02*
X181730714Y-44545295D01*
X181730714Y-44545295D02*
X181730714Y-44640533D01*
X181730714Y-44640533D02*
X181683095Y-44783390D01*
X181683095Y-44783390D02*
X181111667Y-45354819D01*
X181111667Y-45354819D02*
X181730714Y-45354819D01*
D11*
X197254318Y-50663095D02*
X195984318Y-50663095D01*
X195984318Y-50663095D02*
X196891461Y-50239761D01*
X196891461Y-50239761D02*
X195984318Y-49816428D01*
X195984318Y-49816428D02*
X197254318Y-49816428D01*
X197254318Y-49211666D02*
X195984318Y-49211666D01*
X197254318Y-48485951D02*
X196528603Y-49030237D01*
X195984318Y-48485951D02*
X196710032Y-49211666D01*
X197254318Y-47276427D02*
X197254318Y-48002142D01*
X197254318Y-47639285D02*
X195984318Y-47639285D01*
X195984318Y-47639285D02*
X196165746Y-47760237D01*
X196165746Y-47760237D02*
X196286699Y-47881189D01*
X196286699Y-47881189D02*
X196347175Y-48002142D01*
D10*
X188449580Y-58142857D02*
X188497200Y-58190476D01*
X188497200Y-58190476D02*
X188544819Y-58333333D01*
X188544819Y-58333333D02*
X188544819Y-58428571D01*
X188544819Y-58428571D02*
X188497200Y-58571428D01*
X188497200Y-58571428D02*
X188401961Y-58666666D01*
X188401961Y-58666666D02*
X188306723Y-58714285D01*
X188306723Y-58714285D02*
X188116247Y-58761904D01*
X188116247Y-58761904D02*
X187973390Y-58761904D01*
X187973390Y-58761904D02*
X187782914Y-58714285D01*
X187782914Y-58714285D02*
X187687676Y-58666666D01*
X187687676Y-58666666D02*
X187592438Y-58571428D01*
X187592438Y-58571428D02*
X187544819Y-58428571D01*
X187544819Y-58428571D02*
X187544819Y-58333333D01*
X187544819Y-58333333D02*
X187592438Y-58190476D01*
X187592438Y-58190476D02*
X187640057Y-58142857D01*
X188544819Y-57190476D02*
X188544819Y-57761904D01*
X188544819Y-57476190D02*
X187544819Y-57476190D01*
X187544819Y-57476190D02*
X187687676Y-57571428D01*
X187687676Y-57571428D02*
X187782914Y-57666666D01*
X187782914Y-57666666D02*
X187830533Y-57761904D01*
X187544819Y-56285714D02*
X187544819Y-56761904D01*
X187544819Y-56761904D02*
X188021009Y-56809523D01*
X188021009Y-56809523D02*
X187973390Y-56761904D01*
X187973390Y-56761904D02*
X187925771Y-56666666D01*
X187925771Y-56666666D02*
X187925771Y-56428571D01*
X187925771Y-56428571D02*
X187973390Y-56333333D01*
X187973390Y-56333333D02*
X188021009Y-56285714D01*
X188021009Y-56285714D02*
X188116247Y-56238095D01*
X188116247Y-56238095D02*
X188354342Y-56238095D01*
X188354342Y-56238095D02*
X188449580Y-56285714D01*
X188449580Y-56285714D02*
X188497200Y-56333333D01*
X188497200Y-56333333D02*
X188544819Y-56428571D01*
X188544819Y-56428571D02*
X188544819Y-56666666D01*
X188544819Y-56666666D02*
X188497200Y-56761904D01*
X188497200Y-56761904D02*
X188449580Y-56809523D01*
X174883333Y-59729819D02*
X174550000Y-59253628D01*
X174311905Y-59729819D02*
X174311905Y-58729819D01*
X174311905Y-58729819D02*
X174692857Y-58729819D01*
X174692857Y-58729819D02*
X174788095Y-58777438D01*
X174788095Y-58777438D02*
X174835714Y-58825057D01*
X174835714Y-58825057D02*
X174883333Y-58920295D01*
X174883333Y-58920295D02*
X174883333Y-59063152D01*
X174883333Y-59063152D02*
X174835714Y-59158390D01*
X174835714Y-59158390D02*
X174788095Y-59206009D01*
X174788095Y-59206009D02*
X174692857Y-59253628D01*
X174692857Y-59253628D02*
X174311905Y-59253628D01*
X175835714Y-59729819D02*
X175264286Y-59729819D01*
X175550000Y-59729819D02*
X175550000Y-58729819D01*
X175550000Y-58729819D02*
X175454762Y-58872676D01*
X175454762Y-58872676D02*
X175359524Y-58967914D01*
X175359524Y-58967914D02*
X175264286Y-59015533D01*
X208557142Y-52299580D02*
X208509523Y-52347200D01*
X208509523Y-52347200D02*
X208366666Y-52394819D01*
X208366666Y-52394819D02*
X208271428Y-52394819D01*
X208271428Y-52394819D02*
X208128571Y-52347200D01*
X208128571Y-52347200D02*
X208033333Y-52251961D01*
X208033333Y-52251961D02*
X207985714Y-52156723D01*
X207985714Y-52156723D02*
X207938095Y-51966247D01*
X207938095Y-51966247D02*
X207938095Y-51823390D01*
X207938095Y-51823390D02*
X207985714Y-51632914D01*
X207985714Y-51632914D02*
X208033333Y-51537676D01*
X208033333Y-51537676D02*
X208128571Y-51442438D01*
X208128571Y-51442438D02*
X208271428Y-51394819D01*
X208271428Y-51394819D02*
X208366666Y-51394819D01*
X208366666Y-51394819D02*
X208509523Y-51442438D01*
X208509523Y-51442438D02*
X208557142Y-51490057D01*
X209509523Y-52394819D02*
X208938095Y-52394819D01*
X209223809Y-52394819D02*
X209223809Y-51394819D01*
X209223809Y-51394819D02*
X209128571Y-51537676D01*
X209128571Y-51537676D02*
X209033333Y-51632914D01*
X209033333Y-51632914D02*
X208938095Y-51680533D01*
X209890476Y-51490057D02*
X209938095Y-51442438D01*
X209938095Y-51442438D02*
X210033333Y-51394819D01*
X210033333Y-51394819D02*
X210271428Y-51394819D01*
X210271428Y-51394819D02*
X210366666Y-51442438D01*
X210366666Y-51442438D02*
X210414285Y-51490057D01*
X210414285Y-51490057D02*
X210461904Y-51585295D01*
X210461904Y-51585295D02*
X210461904Y-51680533D01*
X210461904Y-51680533D02*
X210414285Y-51823390D01*
X210414285Y-51823390D02*
X209842857Y-52394819D01*
X209842857Y-52394819D02*
X210461904Y-52394819D01*
X178638095Y-51806819D02*
X179209523Y-51806819D01*
X178923809Y-52806819D02*
X178923809Y-51806819D01*
X179542857Y-52806819D02*
X179542857Y-51806819D01*
X179542857Y-51806819D02*
X179923809Y-51806819D01*
X179923809Y-51806819D02*
X180019047Y-51854438D01*
X180019047Y-51854438D02*
X180066666Y-51902057D01*
X180066666Y-51902057D02*
X180114285Y-51997295D01*
X180114285Y-51997295D02*
X180114285Y-52140152D01*
X180114285Y-52140152D02*
X180066666Y-52235390D01*
X180066666Y-52235390D02*
X180019047Y-52283009D01*
X180019047Y-52283009D02*
X179923809Y-52330628D01*
X179923809Y-52330628D02*
X179542857Y-52330628D01*
X180971428Y-51806819D02*
X180780952Y-51806819D01*
X180780952Y-51806819D02*
X180685714Y-51854438D01*
X180685714Y-51854438D02*
X180638095Y-51902057D01*
X180638095Y-51902057D02*
X180542857Y-52044914D01*
X180542857Y-52044914D02*
X180495238Y-52235390D01*
X180495238Y-52235390D02*
X180495238Y-52616342D01*
X180495238Y-52616342D02*
X180542857Y-52711580D01*
X180542857Y-52711580D02*
X180590476Y-52759200D01*
X180590476Y-52759200D02*
X180685714Y-52806819D01*
X180685714Y-52806819D02*
X180876190Y-52806819D01*
X180876190Y-52806819D02*
X180971428Y-52759200D01*
X180971428Y-52759200D02*
X181019047Y-52711580D01*
X181019047Y-52711580D02*
X181066666Y-52616342D01*
X181066666Y-52616342D02*
X181066666Y-52378247D01*
X181066666Y-52378247D02*
X181019047Y-52283009D01*
X181019047Y-52283009D02*
X180971428Y-52235390D01*
X180971428Y-52235390D02*
X180876190Y-52187771D01*
X180876190Y-52187771D02*
X180685714Y-52187771D01*
X180685714Y-52187771D02*
X180590476Y-52235390D01*
X180590476Y-52235390D02*
X180542857Y-52283009D01*
X180542857Y-52283009D02*
X180495238Y-52378247D01*
X205666666Y-51761009D02*
X205333333Y-51761009D01*
X205333333Y-52284819D02*
X205333333Y-51284819D01*
X205333333Y-51284819D02*
X205809523Y-51284819D01*
X206523809Y-51761009D02*
X206666666Y-51808628D01*
X206666666Y-51808628D02*
X206714285Y-51856247D01*
X206714285Y-51856247D02*
X206761904Y-51951485D01*
X206761904Y-51951485D02*
X206761904Y-52094342D01*
X206761904Y-52094342D02*
X206714285Y-52189580D01*
X206714285Y-52189580D02*
X206666666Y-52237200D01*
X206666666Y-52237200D02*
X206571428Y-52284819D01*
X206571428Y-52284819D02*
X206190476Y-52284819D01*
X206190476Y-52284819D02*
X206190476Y-51284819D01*
X206190476Y-51284819D02*
X206523809Y-51284819D01*
X206523809Y-51284819D02*
X206619047Y-51332438D01*
X206619047Y-51332438D02*
X206666666Y-51380057D01*
X206666666Y-51380057D02*
X206714285Y-51475295D01*
X206714285Y-51475295D02*
X206714285Y-51570533D01*
X206714285Y-51570533D02*
X206666666Y-51665771D01*
X206666666Y-51665771D02*
X206619047Y-51713390D01*
X206619047Y-51713390D02*
X206523809Y-51761009D01*
X206523809Y-51761009D02*
X206190476Y-51761009D01*
X207714285Y-52284819D02*
X207142857Y-52284819D01*
X207428571Y-52284819D02*
X207428571Y-51284819D01*
X207428571Y-51284819D02*
X207333333Y-51427676D01*
X207333333Y-51427676D02*
X207238095Y-51522914D01*
X207238095Y-51522914D02*
X207142857Y-51570533D01*
X191199580Y-58142857D02*
X191247200Y-58190476D01*
X191247200Y-58190476D02*
X191294819Y-58333333D01*
X191294819Y-58333333D02*
X191294819Y-58428571D01*
X191294819Y-58428571D02*
X191247200Y-58571428D01*
X191247200Y-58571428D02*
X191151961Y-58666666D01*
X191151961Y-58666666D02*
X191056723Y-58714285D01*
X191056723Y-58714285D02*
X190866247Y-58761904D01*
X190866247Y-58761904D02*
X190723390Y-58761904D01*
X190723390Y-58761904D02*
X190532914Y-58714285D01*
X190532914Y-58714285D02*
X190437676Y-58666666D01*
X190437676Y-58666666D02*
X190342438Y-58571428D01*
X190342438Y-58571428D02*
X190294819Y-58428571D01*
X190294819Y-58428571D02*
X190294819Y-58333333D01*
X190294819Y-58333333D02*
X190342438Y-58190476D01*
X190342438Y-58190476D02*
X190390057Y-58142857D01*
X191294819Y-57190476D02*
X191294819Y-57761904D01*
X191294819Y-57476190D02*
X190294819Y-57476190D01*
X190294819Y-57476190D02*
X190437676Y-57571428D01*
X190437676Y-57571428D02*
X190532914Y-57666666D01*
X190532914Y-57666666D02*
X190580533Y-57761904D01*
X190628152Y-56333333D02*
X191294819Y-56333333D01*
X190247200Y-56571428D02*
X190961485Y-56809523D01*
X190961485Y-56809523D02*
X190961485Y-56190476D01*
X172104819Y-54738094D02*
X171104819Y-54738094D01*
X171104819Y-54738094D02*
X171104819Y-54499999D01*
X171104819Y-54499999D02*
X171152438Y-54357142D01*
X171152438Y-54357142D02*
X171247676Y-54261904D01*
X171247676Y-54261904D02*
X171342914Y-54214285D01*
X171342914Y-54214285D02*
X171533390Y-54166666D01*
X171533390Y-54166666D02*
X171676247Y-54166666D01*
X171676247Y-54166666D02*
X171866723Y-54214285D01*
X171866723Y-54214285D02*
X171961961Y-54261904D01*
X171961961Y-54261904D02*
X172057200Y-54357142D01*
X172057200Y-54357142D02*
X172104819Y-54499999D01*
X172104819Y-54499999D02*
X172104819Y-54738094D01*
X172104819Y-53214285D02*
X172104819Y-53785713D01*
X172104819Y-53499999D02*
X171104819Y-53499999D01*
X171104819Y-53499999D02*
X171247676Y-53595237D01*
X171247676Y-53595237D02*
X171342914Y-53690475D01*
X171342914Y-53690475D02*
X171390533Y-53785713D01*
X198513333Y-51699580D02*
X198465714Y-51747200D01*
X198465714Y-51747200D02*
X198322857Y-51794819D01*
X198322857Y-51794819D02*
X198227619Y-51794819D01*
X198227619Y-51794819D02*
X198084762Y-51747200D01*
X198084762Y-51747200D02*
X197989524Y-51651961D01*
X197989524Y-51651961D02*
X197941905Y-51556723D01*
X197941905Y-51556723D02*
X197894286Y-51366247D01*
X197894286Y-51366247D02*
X197894286Y-51223390D01*
X197894286Y-51223390D02*
X197941905Y-51032914D01*
X197941905Y-51032914D02*
X197989524Y-50937676D01*
X197989524Y-50937676D02*
X198084762Y-50842438D01*
X198084762Y-50842438D02*
X198227619Y-50794819D01*
X198227619Y-50794819D02*
X198322857Y-50794819D01*
X198322857Y-50794819D02*
X198465714Y-50842438D01*
X198465714Y-50842438D02*
X198513333Y-50890057D01*
X199084762Y-51223390D02*
X198989524Y-51175771D01*
X198989524Y-51175771D02*
X198941905Y-51128152D01*
X198941905Y-51128152D02*
X198894286Y-51032914D01*
X198894286Y-51032914D02*
X198894286Y-50985295D01*
X198894286Y-50985295D02*
X198941905Y-50890057D01*
X198941905Y-50890057D02*
X198989524Y-50842438D01*
X198989524Y-50842438D02*
X199084762Y-50794819D01*
X199084762Y-50794819D02*
X199275238Y-50794819D01*
X199275238Y-50794819D02*
X199370476Y-50842438D01*
X199370476Y-50842438D02*
X199418095Y-50890057D01*
X199418095Y-50890057D02*
X199465714Y-50985295D01*
X199465714Y-50985295D02*
X199465714Y-51032914D01*
X199465714Y-51032914D02*
X199418095Y-51128152D01*
X199418095Y-51128152D02*
X199370476Y-51175771D01*
X199370476Y-51175771D02*
X199275238Y-51223390D01*
X199275238Y-51223390D02*
X199084762Y-51223390D01*
X199084762Y-51223390D02*
X198989524Y-51271009D01*
X198989524Y-51271009D02*
X198941905Y-51318628D01*
X198941905Y-51318628D02*
X198894286Y-51413866D01*
X198894286Y-51413866D02*
X198894286Y-51604342D01*
X198894286Y-51604342D02*
X198941905Y-51699580D01*
X198941905Y-51699580D02*
X198989524Y-51747200D01*
X198989524Y-51747200D02*
X199084762Y-51794819D01*
X199084762Y-51794819D02*
X199275238Y-51794819D01*
X199275238Y-51794819D02*
X199370476Y-51747200D01*
X199370476Y-51747200D02*
X199418095Y-51699580D01*
X199418095Y-51699580D02*
X199465714Y-51604342D01*
X199465714Y-51604342D02*
X199465714Y-51413866D01*
X199465714Y-51413866D02*
X199418095Y-51318628D01*
X199418095Y-51318628D02*
X199370476Y-51271009D01*
X199370476Y-51271009D02*
X199275238Y-51223390D01*
X216054819Y-59111904D02*
X216864342Y-59111904D01*
X216864342Y-59111904D02*
X216959580Y-59064285D01*
X216959580Y-59064285D02*
X217007200Y-59016666D01*
X217007200Y-59016666D02*
X217054819Y-58921428D01*
X217054819Y-58921428D02*
X217054819Y-58730952D01*
X217054819Y-58730952D02*
X217007200Y-58635714D01*
X217007200Y-58635714D02*
X216959580Y-58588095D01*
X216959580Y-58588095D02*
X216864342Y-58540476D01*
X216864342Y-58540476D02*
X216054819Y-58540476D01*
X216054819Y-58159523D02*
X216054819Y-57540476D01*
X216054819Y-57540476D02*
X216435771Y-57873809D01*
X216435771Y-57873809D02*
X216435771Y-57730952D01*
X216435771Y-57730952D02*
X216483390Y-57635714D01*
X216483390Y-57635714D02*
X216531009Y-57588095D01*
X216531009Y-57588095D02*
X216626247Y-57540476D01*
X216626247Y-57540476D02*
X216864342Y-57540476D01*
X216864342Y-57540476D02*
X216959580Y-57588095D01*
X216959580Y-57588095D02*
X217007200Y-57635714D01*
X217007200Y-57635714D02*
X217054819Y-57730952D01*
X217054819Y-57730952D02*
X217054819Y-58016666D01*
X217054819Y-58016666D02*
X217007200Y-58111904D01*
X217007200Y-58111904D02*
X216959580Y-58159523D01*
X174853333Y-51449580D02*
X174805714Y-51497200D01*
X174805714Y-51497200D02*
X174662857Y-51544819D01*
X174662857Y-51544819D02*
X174567619Y-51544819D01*
X174567619Y-51544819D02*
X174424762Y-51497200D01*
X174424762Y-51497200D02*
X174329524Y-51401961D01*
X174329524Y-51401961D02*
X174281905Y-51306723D01*
X174281905Y-51306723D02*
X174234286Y-51116247D01*
X174234286Y-51116247D02*
X174234286Y-50973390D01*
X174234286Y-50973390D02*
X174281905Y-50782914D01*
X174281905Y-50782914D02*
X174329524Y-50687676D01*
X174329524Y-50687676D02*
X174424762Y-50592438D01*
X174424762Y-50592438D02*
X174567619Y-50544819D01*
X174567619Y-50544819D02*
X174662857Y-50544819D01*
X174662857Y-50544819D02*
X174805714Y-50592438D01*
X174805714Y-50592438D02*
X174853333Y-50640057D01*
X175710476Y-50878152D02*
X175710476Y-51544819D01*
X175472381Y-50497200D02*
X175234286Y-51211485D01*
X175234286Y-51211485D02*
X175853333Y-51211485D01*
X174624819Y-57666666D02*
X174148628Y-57999999D01*
X174624819Y-58238094D02*
X173624819Y-58238094D01*
X173624819Y-58238094D02*
X173624819Y-57857142D01*
X173624819Y-57857142D02*
X173672438Y-57761904D01*
X173672438Y-57761904D02*
X173720057Y-57714285D01*
X173720057Y-57714285D02*
X173815295Y-57666666D01*
X173815295Y-57666666D02*
X173958152Y-57666666D01*
X173958152Y-57666666D02*
X174053390Y-57714285D01*
X174053390Y-57714285D02*
X174101009Y-57761904D01*
X174101009Y-57761904D02*
X174148628Y-57857142D01*
X174148628Y-57857142D02*
X174148628Y-58238094D01*
X173624819Y-57333332D02*
X173624819Y-56714285D01*
X173624819Y-56714285D02*
X174005771Y-57047618D01*
X174005771Y-57047618D02*
X174005771Y-56904761D01*
X174005771Y-56904761D02*
X174053390Y-56809523D01*
X174053390Y-56809523D02*
X174101009Y-56761904D01*
X174101009Y-56761904D02*
X174196247Y-56714285D01*
X174196247Y-56714285D02*
X174434342Y-56714285D01*
X174434342Y-56714285D02*
X174529580Y-56761904D01*
X174529580Y-56761904D02*
X174577200Y-56809523D01*
X174577200Y-56809523D02*
X174624819Y-56904761D01*
X174624819Y-56904761D02*
X174624819Y-57190475D01*
X174624819Y-57190475D02*
X174577200Y-57285713D01*
X174577200Y-57285713D02*
X174529580Y-57333332D01*
X210657142Y-54619580D02*
X210609523Y-54667200D01*
X210609523Y-54667200D02*
X210466666Y-54714819D01*
X210466666Y-54714819D02*
X210371428Y-54714819D01*
X210371428Y-54714819D02*
X210228571Y-54667200D01*
X210228571Y-54667200D02*
X210133333Y-54571961D01*
X210133333Y-54571961D02*
X210085714Y-54476723D01*
X210085714Y-54476723D02*
X210038095Y-54286247D01*
X210038095Y-54286247D02*
X210038095Y-54143390D01*
X210038095Y-54143390D02*
X210085714Y-53952914D01*
X210085714Y-53952914D02*
X210133333Y-53857676D01*
X210133333Y-53857676D02*
X210228571Y-53762438D01*
X210228571Y-53762438D02*
X210371428Y-53714819D01*
X210371428Y-53714819D02*
X210466666Y-53714819D01*
X210466666Y-53714819D02*
X210609523Y-53762438D01*
X210609523Y-53762438D02*
X210657142Y-53810057D01*
X211609523Y-54714819D02*
X211038095Y-54714819D01*
X211323809Y-54714819D02*
X211323809Y-53714819D01*
X211323809Y-53714819D02*
X211228571Y-53857676D01*
X211228571Y-53857676D02*
X211133333Y-53952914D01*
X211133333Y-53952914D02*
X211038095Y-54000533D01*
X212561904Y-54714819D02*
X211990476Y-54714819D01*
X212276190Y-54714819D02*
X212276190Y-53714819D01*
X212276190Y-53714819D02*
X212180952Y-53857676D01*
X212180952Y-53857676D02*
X212085714Y-53952914D01*
X212085714Y-53952914D02*
X211990476Y-54000533D01*
X198057142Y-55519580D02*
X198009523Y-55567200D01*
X198009523Y-55567200D02*
X197866666Y-55614819D01*
X197866666Y-55614819D02*
X197771428Y-55614819D01*
X197771428Y-55614819D02*
X197628571Y-55567200D01*
X197628571Y-55567200D02*
X197533333Y-55471961D01*
X197533333Y-55471961D02*
X197485714Y-55376723D01*
X197485714Y-55376723D02*
X197438095Y-55186247D01*
X197438095Y-55186247D02*
X197438095Y-55043390D01*
X197438095Y-55043390D02*
X197485714Y-54852914D01*
X197485714Y-54852914D02*
X197533333Y-54757676D01*
X197533333Y-54757676D02*
X197628571Y-54662438D01*
X197628571Y-54662438D02*
X197771428Y-54614819D01*
X197771428Y-54614819D02*
X197866666Y-54614819D01*
X197866666Y-54614819D02*
X198009523Y-54662438D01*
X198009523Y-54662438D02*
X198057142Y-54710057D01*
X199009523Y-55614819D02*
X198438095Y-55614819D01*
X198723809Y-55614819D02*
X198723809Y-54614819D01*
X198723809Y-54614819D02*
X198628571Y-54757676D01*
X198628571Y-54757676D02*
X198533333Y-54852914D01*
X198533333Y-54852914D02*
X198438095Y-54900533D01*
X199628571Y-54614819D02*
X199723809Y-54614819D01*
X199723809Y-54614819D02*
X199819047Y-54662438D01*
X199819047Y-54662438D02*
X199866666Y-54710057D01*
X199866666Y-54710057D02*
X199914285Y-54805295D01*
X199914285Y-54805295D02*
X199961904Y-54995771D01*
X199961904Y-54995771D02*
X199961904Y-55233866D01*
X199961904Y-55233866D02*
X199914285Y-55424342D01*
X199914285Y-55424342D02*
X199866666Y-55519580D01*
X199866666Y-55519580D02*
X199819047Y-55567200D01*
X199819047Y-55567200D02*
X199723809Y-55614819D01*
X199723809Y-55614819D02*
X199628571Y-55614819D01*
X199628571Y-55614819D02*
X199533333Y-55567200D01*
X199533333Y-55567200D02*
X199485714Y-55519580D01*
X199485714Y-55519580D02*
X199438095Y-55424342D01*
X199438095Y-55424342D02*
X199390476Y-55233866D01*
X199390476Y-55233866D02*
X199390476Y-54995771D01*
X199390476Y-54995771D02*
X199438095Y-54805295D01*
X199438095Y-54805295D02*
X199485714Y-54710057D01*
X199485714Y-54710057D02*
X199533333Y-54662438D01*
X199533333Y-54662438D02*
X199628571Y-54614819D01*
X178333333Y-45799580D02*
X178285714Y-45847200D01*
X178285714Y-45847200D02*
X178142857Y-45894819D01*
X178142857Y-45894819D02*
X178047619Y-45894819D01*
X178047619Y-45894819D02*
X177904762Y-45847200D01*
X177904762Y-45847200D02*
X177809524Y-45751961D01*
X177809524Y-45751961D02*
X177761905Y-45656723D01*
X177761905Y-45656723D02*
X177714286Y-45466247D01*
X177714286Y-45466247D02*
X177714286Y-45323390D01*
X177714286Y-45323390D02*
X177761905Y-45132914D01*
X177761905Y-45132914D02*
X177809524Y-45037676D01*
X177809524Y-45037676D02*
X177904762Y-44942438D01*
X177904762Y-44942438D02*
X178047619Y-44894819D01*
X178047619Y-44894819D02*
X178142857Y-44894819D01*
X178142857Y-44894819D02*
X178285714Y-44942438D01*
X178285714Y-44942438D02*
X178333333Y-44990057D01*
X178666667Y-44894819D02*
X179285714Y-44894819D01*
X179285714Y-44894819D02*
X178952381Y-45275771D01*
X178952381Y-45275771D02*
X179095238Y-45275771D01*
X179095238Y-45275771D02*
X179190476Y-45323390D01*
X179190476Y-45323390D02*
X179238095Y-45371009D01*
X179238095Y-45371009D02*
X179285714Y-45466247D01*
X179285714Y-45466247D02*
X179285714Y-45704342D01*
X179285714Y-45704342D02*
X179238095Y-45799580D01*
X179238095Y-45799580D02*
X179190476Y-45847200D01*
X179190476Y-45847200D02*
X179095238Y-45894819D01*
X179095238Y-45894819D02*
X178809524Y-45894819D01*
X178809524Y-45894819D02*
X178714286Y-45847200D01*
X178714286Y-45847200D02*
X178666667Y-45799580D01*
X179029819Y-54656666D02*
X178553628Y-54989999D01*
X179029819Y-55228094D02*
X178029819Y-55228094D01*
X178029819Y-55228094D02*
X178029819Y-54847142D01*
X178029819Y-54847142D02*
X178077438Y-54751904D01*
X178077438Y-54751904D02*
X178125057Y-54704285D01*
X178125057Y-54704285D02*
X178220295Y-54656666D01*
X178220295Y-54656666D02*
X178363152Y-54656666D01*
X178363152Y-54656666D02*
X178458390Y-54704285D01*
X178458390Y-54704285D02*
X178506009Y-54751904D01*
X178506009Y-54751904D02*
X178553628Y-54847142D01*
X178553628Y-54847142D02*
X178553628Y-55228094D01*
X178125057Y-54275713D02*
X178077438Y-54228094D01*
X178077438Y-54228094D02*
X178029819Y-54132856D01*
X178029819Y-54132856D02*
X178029819Y-53894761D01*
X178029819Y-53894761D02*
X178077438Y-53799523D01*
X178077438Y-53799523D02*
X178125057Y-53751904D01*
X178125057Y-53751904D02*
X178220295Y-53704285D01*
X178220295Y-53704285D02*
X178315533Y-53704285D01*
X178315533Y-53704285D02*
X178458390Y-53751904D01*
X178458390Y-53751904D02*
X179029819Y-54323332D01*
X179029819Y-54323332D02*
X179029819Y-53704285D01*
X188435000Y-56385819D02*
X188435000Y-56623914D01*
X188196905Y-56528676D02*
X188435000Y-56623914D01*
X188435000Y-56623914D02*
X188673095Y-56528676D01*
X188292143Y-56814390D02*
X188435000Y-56623914D01*
X188435000Y-56623914D02*
X188577857Y-56814390D01*
X188434999Y-57476180D02*
X188434999Y-57238085D01*
X188673094Y-57333323D02*
X188434999Y-57238085D01*
X188434999Y-57238085D02*
X188196904Y-57333323D01*
X188577856Y-57047609D02*
X188434999Y-57238085D01*
X188434999Y-57238085D02*
X188292142Y-57047609D01*
X180124819Y-51366666D02*
X179648628Y-51699999D01*
X180124819Y-51938094D02*
X179124819Y-51938094D01*
X179124819Y-51938094D02*
X179124819Y-51557142D01*
X179124819Y-51557142D02*
X179172438Y-51461904D01*
X179172438Y-51461904D02*
X179220057Y-51414285D01*
X179220057Y-51414285D02*
X179315295Y-51366666D01*
X179315295Y-51366666D02*
X179458152Y-51366666D01*
X179458152Y-51366666D02*
X179553390Y-51414285D01*
X179553390Y-51414285D02*
X179601009Y-51461904D01*
X179601009Y-51461904D02*
X179648628Y-51557142D01*
X179648628Y-51557142D02*
X179648628Y-51938094D01*
X179124819Y-50461904D02*
X179124819Y-50938094D01*
X179124819Y-50938094D02*
X179601009Y-50985713D01*
X179601009Y-50985713D02*
X179553390Y-50938094D01*
X179553390Y-50938094D02*
X179505771Y-50842856D01*
X179505771Y-50842856D02*
X179505771Y-50604761D01*
X179505771Y-50604761D02*
X179553390Y-50509523D01*
X179553390Y-50509523D02*
X179601009Y-50461904D01*
X179601009Y-50461904D02*
X179696247Y-50414285D01*
X179696247Y-50414285D02*
X179934342Y-50414285D01*
X179934342Y-50414285D02*
X180029580Y-50461904D01*
X180029580Y-50461904D02*
X180077200Y-50509523D01*
X180077200Y-50509523D02*
X180124819Y-50604761D01*
X180124819Y-50604761D02*
X180124819Y-50842856D01*
X180124819Y-50842856D02*
X180077200Y-50938094D01*
X180077200Y-50938094D02*
X180029580Y-50985713D01*
X168033333Y-51419580D02*
X167985714Y-51467200D01*
X167985714Y-51467200D02*
X167842857Y-51514819D01*
X167842857Y-51514819D02*
X167747619Y-51514819D01*
X167747619Y-51514819D02*
X167604762Y-51467200D01*
X167604762Y-51467200D02*
X167509524Y-51371961D01*
X167509524Y-51371961D02*
X167461905Y-51276723D01*
X167461905Y-51276723D02*
X167414286Y-51086247D01*
X167414286Y-51086247D02*
X167414286Y-50943390D01*
X167414286Y-50943390D02*
X167461905Y-50752914D01*
X167461905Y-50752914D02*
X167509524Y-50657676D01*
X167509524Y-50657676D02*
X167604762Y-50562438D01*
X167604762Y-50562438D02*
X167747619Y-50514819D01*
X167747619Y-50514819D02*
X167842857Y-50514819D01*
X167842857Y-50514819D02*
X167985714Y-50562438D01*
X167985714Y-50562438D02*
X168033333Y-50610057D01*
X168890476Y-50514819D02*
X168700000Y-50514819D01*
X168700000Y-50514819D02*
X168604762Y-50562438D01*
X168604762Y-50562438D02*
X168557143Y-50610057D01*
X168557143Y-50610057D02*
X168461905Y-50752914D01*
X168461905Y-50752914D02*
X168414286Y-50943390D01*
X168414286Y-50943390D02*
X168414286Y-51324342D01*
X168414286Y-51324342D02*
X168461905Y-51419580D01*
X168461905Y-51419580D02*
X168509524Y-51467200D01*
X168509524Y-51467200D02*
X168604762Y-51514819D01*
X168604762Y-51514819D02*
X168795238Y-51514819D01*
X168795238Y-51514819D02*
X168890476Y-51467200D01*
X168890476Y-51467200D02*
X168938095Y-51419580D01*
X168938095Y-51419580D02*
X168985714Y-51324342D01*
X168985714Y-51324342D02*
X168985714Y-51086247D01*
X168985714Y-51086247D02*
X168938095Y-50991009D01*
X168938095Y-50991009D02*
X168890476Y-50943390D01*
X168890476Y-50943390D02*
X168795238Y-50895771D01*
X168795238Y-50895771D02*
X168604762Y-50895771D01*
X168604762Y-50895771D02*
X168509524Y-50943390D01*
X168509524Y-50943390D02*
X168461905Y-50991009D01*
X168461905Y-50991009D02*
X168414286Y-51086247D01*
X189738095Y-45806819D02*
X190309523Y-45806819D01*
X190023809Y-46806819D02*
X190023809Y-45806819D01*
X190642857Y-46806819D02*
X190642857Y-45806819D01*
X190642857Y-45806819D02*
X191023809Y-45806819D01*
X191023809Y-45806819D02*
X191119047Y-45854438D01*
X191119047Y-45854438D02*
X191166666Y-45902057D01*
X191166666Y-45902057D02*
X191214285Y-45997295D01*
X191214285Y-45997295D02*
X191214285Y-46140152D01*
X191214285Y-46140152D02*
X191166666Y-46235390D01*
X191166666Y-46235390D02*
X191119047Y-46283009D01*
X191119047Y-46283009D02*
X191023809Y-46330628D01*
X191023809Y-46330628D02*
X190642857Y-46330628D01*
X192119047Y-45806819D02*
X191642857Y-45806819D01*
X191642857Y-45806819D02*
X191595238Y-46283009D01*
X191595238Y-46283009D02*
X191642857Y-46235390D01*
X191642857Y-46235390D02*
X191738095Y-46187771D01*
X191738095Y-46187771D02*
X191976190Y-46187771D01*
X191976190Y-46187771D02*
X192071428Y-46235390D01*
X192071428Y-46235390D02*
X192119047Y-46283009D01*
X192119047Y-46283009D02*
X192166666Y-46378247D01*
X192166666Y-46378247D02*
X192166666Y-46616342D01*
X192166666Y-46616342D02*
X192119047Y-46711580D01*
X192119047Y-46711580D02*
X192071428Y-46759200D01*
X192071428Y-46759200D02*
X191976190Y-46806819D01*
X191976190Y-46806819D02*
X191738095Y-46806819D01*
X191738095Y-46806819D02*
X191642857Y-46759200D01*
X191642857Y-46759200D02*
X191595238Y-46711580D01*
X173504819Y-48091666D02*
X173504819Y-48567856D01*
X173504819Y-48567856D02*
X172504819Y-48567856D01*
X173504819Y-47234523D02*
X173504819Y-47805951D01*
X173504819Y-47520237D02*
X172504819Y-47520237D01*
X172504819Y-47520237D02*
X172647676Y-47615475D01*
X172647676Y-47615475D02*
X172742914Y-47710713D01*
X172742914Y-47710713D02*
X172790533Y-47805951D01*
X171279819Y-49326904D02*
X172089342Y-49326904D01*
X172089342Y-49326904D02*
X172184580Y-49279285D01*
X172184580Y-49279285D02*
X172232200Y-49231666D01*
X172232200Y-49231666D02*
X172279819Y-49136428D01*
X172279819Y-49136428D02*
X172279819Y-48945952D01*
X172279819Y-48945952D02*
X172232200Y-48850714D01*
X172232200Y-48850714D02*
X172184580Y-48803095D01*
X172184580Y-48803095D02*
X172089342Y-48755476D01*
X172089342Y-48755476D02*
X171279819Y-48755476D01*
X172279819Y-47755476D02*
X172279819Y-48326904D01*
X172279819Y-48041190D02*
X171279819Y-48041190D01*
X171279819Y-48041190D02*
X171422676Y-48136428D01*
X171422676Y-48136428D02*
X171517914Y-48231666D01*
X171517914Y-48231666D02*
X171565533Y-48326904D01*
X184233333Y-50184819D02*
X183900000Y-49708628D01*
X183661905Y-50184819D02*
X183661905Y-49184819D01*
X183661905Y-49184819D02*
X184042857Y-49184819D01*
X184042857Y-49184819D02*
X184138095Y-49232438D01*
X184138095Y-49232438D02*
X184185714Y-49280057D01*
X184185714Y-49280057D02*
X184233333Y-49375295D01*
X184233333Y-49375295D02*
X184233333Y-49518152D01*
X184233333Y-49518152D02*
X184185714Y-49613390D01*
X184185714Y-49613390D02*
X184138095Y-49661009D01*
X184138095Y-49661009D02*
X184042857Y-49708628D01*
X184042857Y-49708628D02*
X183661905Y-49708628D01*
X184566667Y-49184819D02*
X185233333Y-49184819D01*
X185233333Y-49184819D02*
X184804762Y-50184819D01*
X187083333Y-52524819D02*
X186750000Y-52048628D01*
X186511905Y-52524819D02*
X186511905Y-51524819D01*
X186511905Y-51524819D02*
X186892857Y-51524819D01*
X186892857Y-51524819D02*
X186988095Y-51572438D01*
X186988095Y-51572438D02*
X187035714Y-51620057D01*
X187035714Y-51620057D02*
X187083333Y-51715295D01*
X187083333Y-51715295D02*
X187083333Y-51858152D01*
X187083333Y-51858152D02*
X187035714Y-51953390D01*
X187035714Y-51953390D02*
X186988095Y-52001009D01*
X186988095Y-52001009D02*
X186892857Y-52048628D01*
X186892857Y-52048628D02*
X186511905Y-52048628D01*
X187654762Y-51953390D02*
X187559524Y-51905771D01*
X187559524Y-51905771D02*
X187511905Y-51858152D01*
X187511905Y-51858152D02*
X187464286Y-51762914D01*
X187464286Y-51762914D02*
X187464286Y-51715295D01*
X187464286Y-51715295D02*
X187511905Y-51620057D01*
X187511905Y-51620057D02*
X187559524Y-51572438D01*
X187559524Y-51572438D02*
X187654762Y-51524819D01*
X187654762Y-51524819D02*
X187845238Y-51524819D01*
X187845238Y-51524819D02*
X187940476Y-51572438D01*
X187940476Y-51572438D02*
X187988095Y-51620057D01*
X187988095Y-51620057D02*
X188035714Y-51715295D01*
X188035714Y-51715295D02*
X188035714Y-51762914D01*
X188035714Y-51762914D02*
X187988095Y-51858152D01*
X187988095Y-51858152D02*
X187940476Y-51905771D01*
X187940476Y-51905771D02*
X187845238Y-51953390D01*
X187845238Y-51953390D02*
X187654762Y-51953390D01*
X187654762Y-51953390D02*
X187559524Y-52001009D01*
X187559524Y-52001009D02*
X187511905Y-52048628D01*
X187511905Y-52048628D02*
X187464286Y-52143866D01*
X187464286Y-52143866D02*
X187464286Y-52334342D01*
X187464286Y-52334342D02*
X187511905Y-52429580D01*
X187511905Y-52429580D02*
X187559524Y-52477200D01*
X187559524Y-52477200D02*
X187654762Y-52524819D01*
X187654762Y-52524819D02*
X187845238Y-52524819D01*
X187845238Y-52524819D02*
X187940476Y-52477200D01*
X187940476Y-52477200D02*
X187988095Y-52429580D01*
X187988095Y-52429580D02*
X188035714Y-52334342D01*
X188035714Y-52334342D02*
X188035714Y-52143866D01*
X188035714Y-52143866D02*
X187988095Y-52048628D01*
X187988095Y-52048628D02*
X187940476Y-52001009D01*
X187940476Y-52001009D02*
X187845238Y-51953390D01*
X200538095Y-52906819D02*
X201109523Y-52906819D01*
X200823809Y-53906819D02*
X200823809Y-52906819D01*
X201442857Y-53906819D02*
X201442857Y-52906819D01*
X201442857Y-52906819D02*
X201823809Y-52906819D01*
X201823809Y-52906819D02*
X201919047Y-52954438D01*
X201919047Y-52954438D02*
X201966666Y-53002057D01*
X201966666Y-53002057D02*
X202014285Y-53097295D01*
X202014285Y-53097295D02*
X202014285Y-53240152D01*
X202014285Y-53240152D02*
X201966666Y-53335390D01*
X201966666Y-53335390D02*
X201919047Y-53383009D01*
X201919047Y-53383009D02*
X201823809Y-53430628D01*
X201823809Y-53430628D02*
X201442857Y-53430628D01*
X202871428Y-53240152D02*
X202871428Y-53906819D01*
X202633333Y-52859200D02*
X202395238Y-53573485D01*
X202395238Y-53573485D02*
X203014285Y-53573485D01*
X181457142Y-60569580D02*
X181409523Y-60617200D01*
X181409523Y-60617200D02*
X181266666Y-60664819D01*
X181266666Y-60664819D02*
X181171428Y-60664819D01*
X181171428Y-60664819D02*
X181028571Y-60617200D01*
X181028571Y-60617200D02*
X180933333Y-60521961D01*
X180933333Y-60521961D02*
X180885714Y-60426723D01*
X180885714Y-60426723D02*
X180838095Y-60236247D01*
X180838095Y-60236247D02*
X180838095Y-60093390D01*
X180838095Y-60093390D02*
X180885714Y-59902914D01*
X180885714Y-59902914D02*
X180933333Y-59807676D01*
X180933333Y-59807676D02*
X181028571Y-59712438D01*
X181028571Y-59712438D02*
X181171428Y-59664819D01*
X181171428Y-59664819D02*
X181266666Y-59664819D01*
X181266666Y-59664819D02*
X181409523Y-59712438D01*
X181409523Y-59712438D02*
X181457142Y-59760057D01*
X182409523Y-60664819D02*
X181838095Y-60664819D01*
X182123809Y-60664819D02*
X182123809Y-59664819D01*
X182123809Y-59664819D02*
X182028571Y-59807676D01*
X182028571Y-59807676D02*
X181933333Y-59902914D01*
X181933333Y-59902914D02*
X181838095Y-59950533D01*
X182980952Y-60093390D02*
X182885714Y-60045771D01*
X182885714Y-60045771D02*
X182838095Y-59998152D01*
X182838095Y-59998152D02*
X182790476Y-59902914D01*
X182790476Y-59902914D02*
X182790476Y-59855295D01*
X182790476Y-59855295D02*
X182838095Y-59760057D01*
X182838095Y-59760057D02*
X182885714Y-59712438D01*
X182885714Y-59712438D02*
X182980952Y-59664819D01*
X182980952Y-59664819D02*
X183171428Y-59664819D01*
X183171428Y-59664819D02*
X183266666Y-59712438D01*
X183266666Y-59712438D02*
X183314285Y-59760057D01*
X183314285Y-59760057D02*
X183361904Y-59855295D01*
X183361904Y-59855295D02*
X183361904Y-59902914D01*
X183361904Y-59902914D02*
X183314285Y-59998152D01*
X183314285Y-59998152D02*
X183266666Y-60045771D01*
X183266666Y-60045771D02*
X183171428Y-60093390D01*
X183171428Y-60093390D02*
X182980952Y-60093390D01*
X182980952Y-60093390D02*
X182885714Y-60141009D01*
X182885714Y-60141009D02*
X182838095Y-60188628D01*
X182838095Y-60188628D02*
X182790476Y-60283866D01*
X182790476Y-60283866D02*
X182790476Y-60474342D01*
X182790476Y-60474342D02*
X182838095Y-60569580D01*
X182838095Y-60569580D02*
X182885714Y-60617200D01*
X182885714Y-60617200D02*
X182980952Y-60664819D01*
X182980952Y-60664819D02*
X183171428Y-60664819D01*
X183171428Y-60664819D02*
X183266666Y-60617200D01*
X183266666Y-60617200D02*
X183314285Y-60569580D01*
X183314285Y-60569580D02*
X183361904Y-60474342D01*
X183361904Y-60474342D02*
X183361904Y-60283866D01*
X183361904Y-60283866D02*
X183314285Y-60188628D01*
X183314285Y-60188628D02*
X183266666Y-60141009D01*
X183266666Y-60141009D02*
X183171428Y-60093390D01*
X179157142Y-60569580D02*
X179109523Y-60617200D01*
X179109523Y-60617200D02*
X178966666Y-60664819D01*
X178966666Y-60664819D02*
X178871428Y-60664819D01*
X178871428Y-60664819D02*
X178728571Y-60617200D01*
X178728571Y-60617200D02*
X178633333Y-60521961D01*
X178633333Y-60521961D02*
X178585714Y-60426723D01*
X178585714Y-60426723D02*
X178538095Y-60236247D01*
X178538095Y-60236247D02*
X178538095Y-60093390D01*
X178538095Y-60093390D02*
X178585714Y-59902914D01*
X178585714Y-59902914D02*
X178633333Y-59807676D01*
X178633333Y-59807676D02*
X178728571Y-59712438D01*
X178728571Y-59712438D02*
X178871428Y-59664819D01*
X178871428Y-59664819D02*
X178966666Y-59664819D01*
X178966666Y-59664819D02*
X179109523Y-59712438D01*
X179109523Y-59712438D02*
X179157142Y-59760057D01*
X180109523Y-60664819D02*
X179538095Y-60664819D01*
X179823809Y-60664819D02*
X179823809Y-59664819D01*
X179823809Y-59664819D02*
X179728571Y-59807676D01*
X179728571Y-59807676D02*
X179633333Y-59902914D01*
X179633333Y-59902914D02*
X179538095Y-59950533D01*
X180966666Y-59664819D02*
X180776190Y-59664819D01*
X180776190Y-59664819D02*
X180680952Y-59712438D01*
X180680952Y-59712438D02*
X180633333Y-59760057D01*
X180633333Y-59760057D02*
X180538095Y-59902914D01*
X180538095Y-59902914D02*
X180490476Y-60093390D01*
X180490476Y-60093390D02*
X180490476Y-60474342D01*
X180490476Y-60474342D02*
X180538095Y-60569580D01*
X180538095Y-60569580D02*
X180585714Y-60617200D01*
X180585714Y-60617200D02*
X180680952Y-60664819D01*
X180680952Y-60664819D02*
X180871428Y-60664819D01*
X180871428Y-60664819D02*
X180966666Y-60617200D01*
X180966666Y-60617200D02*
X181014285Y-60569580D01*
X181014285Y-60569580D02*
X181061904Y-60474342D01*
X181061904Y-60474342D02*
X181061904Y-60236247D01*
X181061904Y-60236247D02*
X181014285Y-60141009D01*
X181014285Y-60141009D02*
X180966666Y-60093390D01*
X180966666Y-60093390D02*
X180871428Y-60045771D01*
X180871428Y-60045771D02*
X180680952Y-60045771D01*
X180680952Y-60045771D02*
X180585714Y-60093390D01*
X180585714Y-60093390D02*
X180538095Y-60141009D01*
X180538095Y-60141009D02*
X180490476Y-60236247D01*
X206433333Y-53224819D02*
X206100000Y-52748628D01*
X205861905Y-53224819D02*
X205861905Y-52224819D01*
X205861905Y-52224819D02*
X206242857Y-52224819D01*
X206242857Y-52224819D02*
X206338095Y-52272438D01*
X206338095Y-52272438D02*
X206385714Y-52320057D01*
X206385714Y-52320057D02*
X206433333Y-52415295D01*
X206433333Y-52415295D02*
X206433333Y-52558152D01*
X206433333Y-52558152D02*
X206385714Y-52653390D01*
X206385714Y-52653390D02*
X206338095Y-52701009D01*
X206338095Y-52701009D02*
X206242857Y-52748628D01*
X206242857Y-52748628D02*
X205861905Y-52748628D01*
X207290476Y-52224819D02*
X207100000Y-52224819D01*
X207100000Y-52224819D02*
X207004762Y-52272438D01*
X207004762Y-52272438D02*
X206957143Y-52320057D01*
X206957143Y-52320057D02*
X206861905Y-52462914D01*
X206861905Y-52462914D02*
X206814286Y-52653390D01*
X206814286Y-52653390D02*
X206814286Y-53034342D01*
X206814286Y-53034342D02*
X206861905Y-53129580D01*
X206861905Y-53129580D02*
X206909524Y-53177200D01*
X206909524Y-53177200D02*
X207004762Y-53224819D01*
X207004762Y-53224819D02*
X207195238Y-53224819D01*
X207195238Y-53224819D02*
X207290476Y-53177200D01*
X207290476Y-53177200D02*
X207338095Y-53129580D01*
X207338095Y-53129580D02*
X207385714Y-53034342D01*
X207385714Y-53034342D02*
X207385714Y-52796247D01*
X207385714Y-52796247D02*
X207338095Y-52701009D01*
X207338095Y-52701009D02*
X207290476Y-52653390D01*
X207290476Y-52653390D02*
X207195238Y-52605771D01*
X207195238Y-52605771D02*
X207004762Y-52605771D01*
X207004762Y-52605771D02*
X206909524Y-52653390D01*
X206909524Y-52653390D02*
X206861905Y-52701009D01*
X206861905Y-52701009D02*
X206814286Y-52796247D01*
X170352608Y-57683333D02*
X171066893Y-57683333D01*
X171066893Y-57683333D02*
X171209750Y-57730952D01*
X171209750Y-57730952D02*
X171304989Y-57826190D01*
X171304989Y-57826190D02*
X171352608Y-57969047D01*
X171352608Y-57969047D02*
X171352608Y-58064285D01*
X171352608Y-56683333D02*
X171352608Y-57254761D01*
X171352608Y-56969047D02*
X170352608Y-56969047D01*
X170352608Y-56969047D02*
X170495465Y-57064285D01*
X170495465Y-57064285D02*
X170590703Y-57159523D01*
X170590703Y-57159523D02*
X170638322Y-57254761D01*
X208138095Y-51402819D02*
X208709523Y-51402819D01*
X208423809Y-52402819D02*
X208423809Y-51402819D01*
X209042857Y-52402819D02*
X209042857Y-51402819D01*
X209042857Y-51402819D02*
X209423809Y-51402819D01*
X209423809Y-51402819D02*
X209519047Y-51450438D01*
X209519047Y-51450438D02*
X209566666Y-51498057D01*
X209566666Y-51498057D02*
X209614285Y-51593295D01*
X209614285Y-51593295D02*
X209614285Y-51736152D01*
X209614285Y-51736152D02*
X209566666Y-51831390D01*
X209566666Y-51831390D02*
X209519047Y-51879009D01*
X209519047Y-51879009D02*
X209423809Y-51926628D01*
X209423809Y-51926628D02*
X209042857Y-51926628D01*
X209947619Y-51402819D02*
X210566666Y-51402819D01*
X210566666Y-51402819D02*
X210233333Y-51783771D01*
X210233333Y-51783771D02*
X210376190Y-51783771D01*
X210376190Y-51783771D02*
X210471428Y-51831390D01*
X210471428Y-51831390D02*
X210519047Y-51879009D01*
X210519047Y-51879009D02*
X210566666Y-51974247D01*
X210566666Y-51974247D02*
X210566666Y-52212342D01*
X210566666Y-52212342D02*
X210519047Y-52307580D01*
X210519047Y-52307580D02*
X210471428Y-52355200D01*
X210471428Y-52355200D02*
X210376190Y-52402819D01*
X210376190Y-52402819D02*
X210090476Y-52402819D01*
X210090476Y-52402819D02*
X209995238Y-52355200D01*
X209995238Y-52355200D02*
X209947619Y-52307580D01*
X194333333Y-54019580D02*
X194285714Y-54067200D01*
X194285714Y-54067200D02*
X194142857Y-54114819D01*
X194142857Y-54114819D02*
X194047619Y-54114819D01*
X194047619Y-54114819D02*
X193904762Y-54067200D01*
X193904762Y-54067200D02*
X193809524Y-53971961D01*
X193809524Y-53971961D02*
X193761905Y-53876723D01*
X193761905Y-53876723D02*
X193714286Y-53686247D01*
X193714286Y-53686247D02*
X193714286Y-53543390D01*
X193714286Y-53543390D02*
X193761905Y-53352914D01*
X193761905Y-53352914D02*
X193809524Y-53257676D01*
X193809524Y-53257676D02*
X193904762Y-53162438D01*
X193904762Y-53162438D02*
X194047619Y-53114819D01*
X194047619Y-53114819D02*
X194142857Y-53114819D01*
X194142857Y-53114819D02*
X194285714Y-53162438D01*
X194285714Y-53162438D02*
X194333333Y-53210057D01*
X194809524Y-54114819D02*
X195000000Y-54114819D01*
X195000000Y-54114819D02*
X195095238Y-54067200D01*
X195095238Y-54067200D02*
X195142857Y-54019580D01*
X195142857Y-54019580D02*
X195238095Y-53876723D01*
X195238095Y-53876723D02*
X195285714Y-53686247D01*
X195285714Y-53686247D02*
X195285714Y-53305295D01*
X195285714Y-53305295D02*
X195238095Y-53210057D01*
X195238095Y-53210057D02*
X195190476Y-53162438D01*
X195190476Y-53162438D02*
X195095238Y-53114819D01*
X195095238Y-53114819D02*
X194904762Y-53114819D01*
X194904762Y-53114819D02*
X194809524Y-53162438D01*
X194809524Y-53162438D02*
X194761905Y-53210057D01*
X194761905Y-53210057D02*
X194714286Y-53305295D01*
X194714286Y-53305295D02*
X194714286Y-53543390D01*
X194714286Y-53543390D02*
X194761905Y-53638628D01*
X194761905Y-53638628D02*
X194809524Y-53686247D01*
X194809524Y-53686247D02*
X194904762Y-53733866D01*
X194904762Y-53733866D02*
X195095238Y-53733866D01*
X195095238Y-53733866D02*
X195190476Y-53686247D01*
X195190476Y-53686247D02*
X195238095Y-53638628D01*
X195238095Y-53638628D02*
X195285714Y-53543390D01*
%TO.C,C17*%
D12*
X182140000Y-50942164D02*
X182140000Y-51157836D01*
X182860000Y-50942164D02*
X182860000Y-51157836D01*
%TO.C,C5*%
X171640000Y-51392164D02*
X171640000Y-51607836D01*
X172360000Y-51392164D02*
X172360000Y-51607836D01*
%TO.C,C1*%
X174640000Y-54142164D02*
X174640000Y-54357836D01*
X175360000Y-54142164D02*
X175360000Y-54357836D01*
%TO.C,R4*%
X172620000Y-60846359D02*
X172620000Y-61153641D01*
X173380000Y-60846359D02*
X173380000Y-61153641D01*
%TO.C,TP7*%
X179500000Y-49500000D02*
X181400000Y-49500000D01*
X179500000Y-51400000D02*
X179500000Y-49500000D01*
X181400000Y-49500000D02*
X181400000Y-51400000D01*
X181400000Y-51400000D02*
X179500000Y-51400000D01*
%TO.C,R9*%
X185046359Y-58770000D02*
X185353641Y-58770000D01*
X185046359Y-59530000D02*
X185353641Y-59530000D01*
%TO.C,TP2*%
X201750000Y-60700000D02*
G75*
G02*
X199850000Y-60700000I-950000J0D01*
G01*
X199850000Y-60700000D02*
G75*
G02*
X201750000Y-60700000I950000J0D01*
G01*
%TO.C,TP1*%
X201950000Y-58000000D02*
G75*
G02*
X200050000Y-58000000I-950000J0D01*
G01*
X200050000Y-58000000D02*
G75*
G02*
X201950000Y-58000000I950000J0D01*
G01*
%TO.C,C13*%
X190140000Y-57392164D02*
X190140000Y-57607836D01*
X190860000Y-57392164D02*
X190860000Y-57607836D01*
%TO.C,C7*%
X203707836Y-62740000D02*
X203492164Y-62740000D01*
X203707836Y-63460000D02*
X203492164Y-63460000D01*
%TO.C,C2*%
X181007836Y-46290000D02*
X180792164Y-46290000D01*
X181007836Y-47010000D02*
X180792164Y-47010000D01*
%TO.C,MK1*%
D13*
X194680000Y-47500000D02*
X194680000Y-48200000D01*
X194680000Y-50500000D02*
X194680000Y-49800000D01*
X197080000Y-47500000D02*
X194680000Y-47500000D01*
X197080000Y-50500000D02*
X194680000Y-50500000D01*
D14*
X198180000Y-51000000D02*
X198180000Y-51000000D01*
X198280000Y-51000000D02*
X198280000Y-51000000D01*
X198180000Y-51000000D02*
G75*
G02*
X198280000Y-51000000I50000J0D01*
G01*
X198280000Y-51000000D02*
G75*
G02*
X198180000Y-51000000I-50000J0D01*
G01*
%TO.C,C15*%
D12*
X188890000Y-57607836D02*
X188890000Y-57392164D01*
X189610000Y-57607836D02*
X189610000Y-57392164D01*
%TO.C,R1*%
X174620000Y-57346359D02*
X174620000Y-57653641D01*
X175380000Y-57346359D02*
X175380000Y-57653641D01*
%TO.C,C12*%
X209092164Y-52740000D02*
X209307836Y-52740000D01*
X209092164Y-53460000D02*
X209307836Y-53460000D01*
%TO.C,TP6*%
X178950000Y-53050000D02*
X180850000Y-53050000D01*
X178950000Y-54950000D02*
X178950000Y-53050000D01*
X180850000Y-53050000D02*
X180850000Y-54950000D01*
X180850000Y-54950000D02*
X178950000Y-54950000D01*
%TO.C,C14*%
X191640000Y-57607836D02*
X191640000Y-57392164D01*
X192360000Y-57607836D02*
X192360000Y-57392164D01*
%TO.C,D1*%
X172390000Y-54810000D02*
X172390000Y-53500000D01*
X172390000Y-54810000D02*
X173610000Y-54810000D01*
X173610000Y-54810000D02*
X173610000Y-53500000D01*
%TO.C,C8*%
X198572164Y-52140000D02*
X198787836Y-52140000D01*
X198572164Y-52860000D02*
X198787836Y-52860000D01*
%TO.C,U3*%
X204480000Y-54580000D02*
X207230000Y-54580000D01*
X204480000Y-56405000D02*
X204480000Y-54580000D01*
X204480000Y-60295000D02*
X204480000Y-62120000D01*
X204480000Y-62120000D02*
X207230000Y-62120000D01*
X215720000Y-60295000D02*
X215720000Y-62120000D01*
X215720000Y-62120000D02*
X212970000Y-62120000D01*
X215725000Y-54580000D02*
X212970000Y-54580000D01*
X215725000Y-56380000D02*
X215725000Y-54580000D01*
X212200000Y-54590000D02*
X211960000Y-54260000D01*
X212440000Y-54260000D01*
X212200000Y-54590000D01*
G36*
X212200000Y-54590000D02*
G01*
X211960000Y-54260000D01*
X212440000Y-54260000D01*
X212200000Y-54590000D01*
G37*
%TO.C,C4*%
X174912164Y-51890000D02*
X175127836Y-51890000D01*
X174912164Y-52610000D02*
X175127836Y-52610000D01*
%TO.C,R3*%
X172620000Y-57346359D02*
X172620000Y-57653641D01*
X173380000Y-57346359D02*
X173380000Y-57653641D01*
%TO.C,C11*%
X211407836Y-52740000D02*
X211192164Y-52740000D01*
X211407836Y-53460000D02*
X211192164Y-53460000D01*
%TO.C,C10*%
X198807836Y-53640000D02*
X198592164Y-53640000D01*
X198807836Y-54360000D02*
X198592164Y-54360000D01*
%TO.C,C3*%
X178392164Y-46240000D02*
X178607836Y-46240000D01*
X178392164Y-46960000D02*
X178607836Y-46960000D01*
%TO.C,R2*%
X176870000Y-54653641D02*
X176870000Y-54346359D01*
X177630000Y-54653641D02*
X177630000Y-54346359D01*
%TO.C,U4*%
D15*
X182944000Y-52594000D02*
X182944000Y-53332006D01*
X182944000Y-56767994D02*
X182944000Y-57506000D01*
X182944000Y-57506000D02*
X183681691Y-57506000D01*
X183681691Y-52594000D02*
X182944000Y-52594000D01*
X187118309Y-57506000D02*
X187856000Y-57506000D01*
X187856000Y-52594000D02*
X187118309Y-52594000D01*
X187856000Y-53332006D02*
X187856000Y-52594000D01*
X187856000Y-57506000D02*
X187856000Y-56767994D01*
D16*
G36*
X184840311Y-57958000D02*
G01*
X184459311Y-57958000D01*
X184459311Y-57704000D01*
X184840311Y-57704000D01*
X184840311Y-57958000D01*
G37*
G36*
X185340437Y-52396000D02*
G01*
X184959437Y-52396000D01*
X184959437Y-52142000D01*
X185340437Y-52142000D01*
X185340437Y-52396000D01*
G37*
%TO.C,R5*%
D12*
X178120000Y-51046359D02*
X178120000Y-51353641D01*
X178880000Y-51046359D02*
X178880000Y-51353641D01*
%TO.C,C6*%
X168307836Y-49540000D02*
X168092164Y-49540000D01*
X168307836Y-50260000D02*
X168092164Y-50260000D01*
%TO.C,TP5*%
X191950000Y-48000000D02*
G75*
G02*
X190050000Y-48000000I-950000J0D01*
G01*
X190050000Y-48000000D02*
G75*
G02*
X191950000Y-48000000I950000J0D01*
G01*
%TO.C,L1*%
X169890000Y-47663748D02*
X169890000Y-48186252D01*
X172110000Y-47663748D02*
X172110000Y-48186252D01*
%TO.C,U1*%
D17*
X173725000Y-47925000D02*
X174169000Y-47925000D01*
X173725000Y-48400000D02*
X173725000Y-47925000D01*
X173725000Y-50475000D02*
X173725000Y-50000000D01*
X174169000Y-50475000D02*
X173725000Y-50475000D01*
X175831300Y-50475000D02*
X176275000Y-50475000D01*
X176275000Y-47925000D02*
X175831000Y-47925000D01*
X176275000Y-48400000D02*
X176275000Y-47925000D01*
X176275000Y-50475000D02*
X176275000Y-50000000D01*
D13*
X174100000Y-50950000D02*
G75*
G02*
X173900000Y-50950000I-100000J0D01*
G01*
X173900000Y-50950000D02*
G75*
G02*
X174100000Y-50950000I100000J0D01*
G01*
%TO.C,R7*%
D12*
X184246359Y-50520000D02*
X184553641Y-50520000D01*
X184246359Y-51280000D02*
X184553641Y-51280000D01*
%TO.C,R8*%
X187403641Y-50520000D02*
X187096359Y-50520000D01*
X187403641Y-51280000D02*
X187096359Y-51280000D01*
%TO.C,TP4*%
X202750000Y-55100000D02*
G75*
G02*
X200850000Y-55100000I-950000J0D01*
G01*
X200850000Y-55100000D02*
G75*
G02*
X202750000Y-55100000I950000J0D01*
G01*
%TO.C,C18*%
X182207836Y-58690000D02*
X181992164Y-58690000D01*
X182207836Y-59410000D02*
X181992164Y-59410000D01*
%TO.C,C16*%
X179907836Y-58690000D02*
X179692164Y-58690000D01*
X179907836Y-59410000D02*
X179692164Y-59410000D01*
%TO.C,R6*%
X206753641Y-51220000D02*
X206446359Y-51220000D01*
X206753641Y-51980000D02*
X206446359Y-51980000D01*
%TO.C,J1*%
X167032789Y-52650000D02*
X165252789Y-52650000D01*
X167032789Y-62050000D02*
X165252789Y-62050000D01*
X169952789Y-54550000D02*
X169952789Y-53750000D01*
%TO.C,TP3*%
X210350000Y-50300000D02*
G75*
G02*
X208450000Y-50300000I-950000J0D01*
G01*
X208450000Y-50300000D02*
G75*
G02*
X210350000Y-50300000I950000J0D01*
G01*
%TO.C,C9*%
X194607836Y-52140000D02*
X194392164Y-52140000D01*
X194607836Y-52860000D02*
X194392164Y-52860000D01*
%TD*%
%LPC*%
D16*
%TO.C,U4*%
G36*
X184412600Y-56463500D02*
G01*
X183986500Y-56463500D01*
X183986500Y-53636500D01*
X184412600Y-53636500D01*
X184412600Y-56463500D01*
G37*
G36*
X185200000Y-56463500D02*
G01*
X184812600Y-56463500D01*
X184812600Y-53636500D01*
X185200000Y-53636500D01*
X185200000Y-56463500D01*
G37*
G36*
X185987400Y-56463500D02*
G01*
X185600000Y-56463500D01*
X185600000Y-53636500D01*
X185987400Y-53636500D01*
X185987400Y-56463500D01*
G37*
G36*
X186813500Y-54062600D02*
G01*
X183986500Y-54062600D01*
X183986500Y-53636500D01*
X186813500Y-53636500D01*
X186813500Y-54062600D01*
G37*
G36*
X186813500Y-54850000D02*
G01*
X183986500Y-54850000D01*
X183986500Y-54462600D01*
X186813500Y-54462600D01*
X186813500Y-54850000D01*
G37*
G36*
X186813500Y-55637400D02*
G01*
X183986500Y-55637400D01*
X183986500Y-55250000D01*
X186813500Y-55250000D01*
X186813500Y-55637400D01*
G37*
G36*
X186813500Y-56463500D02*
G01*
X183986500Y-56463500D01*
X183986500Y-56037400D01*
X186813500Y-56037400D01*
X186813500Y-56463500D01*
G37*
G36*
X186813500Y-56463500D02*
G01*
X186387400Y-56463500D01*
X186387400Y-53636500D01*
X186813500Y-53636500D01*
X186813500Y-56463500D01*
G37*
%TO.C,U1*%
D18*
X174282500Y-48400000D02*
G75*
G02*
X174117500Y-48400000I-82500J0D01*
G01*
X174117500Y-48400000D02*
G75*
G02*
X174282500Y-48400000I82500J0D01*
G01*
X174282500Y-48800000D02*
G75*
G02*
X174117500Y-48800000I-82500J0D01*
G01*
X174117500Y-48800000D02*
G75*
G02*
X174282500Y-48800000I82500J0D01*
G01*
X174282500Y-49200000D02*
G75*
G02*
X174117500Y-49200000I-82500J0D01*
G01*
X174117500Y-49200000D02*
G75*
G02*
X174282500Y-49200000I82500J0D01*
G01*
X174282500Y-49600000D02*
G75*
G02*
X174117500Y-49600000I-82500J0D01*
G01*
X174117500Y-49600000D02*
G75*
G02*
X174282500Y-49600000I82500J0D01*
G01*
X174282500Y-50000000D02*
G75*
G02*
X174117500Y-50000000I-82500J0D01*
G01*
X174117500Y-50000000D02*
G75*
G02*
X174282500Y-50000000I82500J0D01*
G01*
X174682500Y-48400000D02*
G75*
G02*
X174517500Y-48400000I-82500J0D01*
G01*
X174517500Y-48400000D02*
G75*
G02*
X174682500Y-48400000I82500J0D01*
G01*
X174682500Y-48800000D02*
G75*
G02*
X174517500Y-48800000I-82500J0D01*
G01*
X174517500Y-48800000D02*
G75*
G02*
X174682500Y-48800000I82500J0D01*
G01*
X174682500Y-49200000D02*
G75*
G02*
X174517500Y-49200000I-82500J0D01*
G01*
X174517500Y-49200000D02*
G75*
G02*
X174682500Y-49200000I82500J0D01*
G01*
X174682500Y-49600000D02*
G75*
G02*
X174517500Y-49600000I-82500J0D01*
G01*
X174517500Y-49600000D02*
G75*
G02*
X174682500Y-49600000I82500J0D01*
G01*
X174682500Y-50000000D02*
G75*
G02*
X174517500Y-50000000I-82500J0D01*
G01*
X174517500Y-50000000D02*
G75*
G02*
X174682500Y-50000000I82500J0D01*
G01*
X175082500Y-48400000D02*
G75*
G02*
X174917500Y-48400000I-82500J0D01*
G01*
X174917500Y-48400000D02*
G75*
G02*
X175082500Y-48400000I82500J0D01*
G01*
X175082500Y-48800000D02*
G75*
G02*
X174917500Y-48800000I-82500J0D01*
G01*
X174917500Y-48800000D02*
G75*
G02*
X175082500Y-48800000I82500J0D01*
G01*
X175082500Y-49200000D02*
G75*
G02*
X174917500Y-49200000I-82500J0D01*
G01*
X174917500Y-49200000D02*
G75*
G02*
X175082500Y-49200000I82500J0D01*
G01*
X175082500Y-49600000D02*
G75*
G02*
X174917500Y-49600000I-82500J0D01*
G01*
X174917500Y-49600000D02*
G75*
G02*
X175082500Y-49600000I82500J0D01*
G01*
X175082500Y-50000000D02*
G75*
G02*
X174917500Y-50000000I-82500J0D01*
G01*
X174917500Y-50000000D02*
G75*
G02*
X175082500Y-50000000I82500J0D01*
G01*
X175482500Y-48400000D02*
G75*
G02*
X175317500Y-48400000I-82500J0D01*
G01*
X175317500Y-48400000D02*
G75*
G02*
X175482500Y-48400000I82500J0D01*
G01*
X175482500Y-48800000D02*
G75*
G02*
X175317500Y-48800000I-82500J0D01*
G01*
X175317500Y-48800000D02*
G75*
G02*
X175482500Y-48800000I82500J0D01*
G01*
X175482500Y-49200000D02*
G75*
G02*
X175317500Y-49200000I-82500J0D01*
G01*
X175317500Y-49200000D02*
G75*
G02*
X175482500Y-49200000I82500J0D01*
G01*
X175482500Y-49600000D02*
G75*
G02*
X175317500Y-49600000I-82500J0D01*
G01*
X175317500Y-49600000D02*
G75*
G02*
X175482500Y-49600000I82500J0D01*
G01*
X175482500Y-50000000D02*
G75*
G02*
X175317500Y-50000000I-82500J0D01*
G01*
X175317500Y-50000000D02*
G75*
G02*
X175482500Y-50000000I82500J0D01*
G01*
X175882500Y-48400000D02*
G75*
G02*
X175717500Y-48400000I-82500J0D01*
G01*
X175717500Y-48400000D02*
G75*
G02*
X175882500Y-48400000I82500J0D01*
G01*
X175882500Y-48800000D02*
G75*
G02*
X175717500Y-48800000I-82500J0D01*
G01*
X175717500Y-48800000D02*
G75*
G02*
X175882500Y-48800000I82500J0D01*
G01*
X175882500Y-49200000D02*
G75*
G02*
X175717500Y-49200000I-82500J0D01*
G01*
X175717500Y-49200000D02*
G75*
G02*
X175882500Y-49200000I82500J0D01*
G01*
X175882500Y-49600000D02*
G75*
G02*
X175717500Y-49600000I-82500J0D01*
G01*
X175717500Y-49600000D02*
G75*
G02*
X175882500Y-49600000I82500J0D01*
G01*
X175882500Y-50000000D02*
G75*
G02*
X175717500Y-50000000I-82500J0D01*
G01*
X175717500Y-50000000D02*
G75*
G02*
X175882500Y-50000000I82500J0D01*
G01*
%TD*%
D19*
%TO.C,C17*%
X182500000Y-50570000D03*
X182500000Y-51530000D03*
%TD*%
%TO.C,C5*%
X172000000Y-51020000D03*
X172000000Y-51980000D03*
%TD*%
%TO.C,C1*%
X175000000Y-53770000D03*
X175000000Y-54730000D03*
%TD*%
D20*
%TO.C,R4*%
X173000000Y-60490000D03*
X173000000Y-61510000D03*
%TD*%
D21*
%TO.C,TP7*%
X180450000Y-50450000D03*
%TD*%
D22*
%TO.C,R9*%
X184690000Y-59150000D03*
X185710000Y-59150000D03*
%TD*%
D23*
%TO.C,TP2*%
X200800000Y-60700000D03*
%TD*%
%TO.C,TP1*%
X201000000Y-58000000D03*
%TD*%
D19*
%TO.C,C13*%
X190500000Y-57020000D03*
X190500000Y-57980000D03*
%TD*%
D24*
%TO.C,C7*%
X204080000Y-63100000D03*
X203120000Y-63100000D03*
%TD*%
%TO.C,C2*%
X181380000Y-46650000D03*
X180420000Y-46650000D03*
%TD*%
D25*
%TO.C,MK1*%
X198180000Y-49850000D03*
X197480000Y-49850000D03*
X198180000Y-48150000D03*
X197480000Y-48150000D03*
D26*
X196000000Y-49000000D03*
%TD*%
D27*
%TO.C,C15*%
X189250000Y-57980000D03*
X189250000Y-57020000D03*
%TD*%
D20*
%TO.C,R1*%
X175000000Y-56990000D03*
X175000000Y-58010000D03*
%TD*%
D28*
%TO.C,C12*%
X208720000Y-53100000D03*
X209680000Y-53100000D03*
%TD*%
D21*
%TO.C,TP6*%
X179900000Y-54000000D03*
%TD*%
D29*
%TO.C,FB1*%
X206015000Y-53000000D03*
X206985000Y-53000000D03*
%TD*%
D27*
%TO.C,C14*%
X192000000Y-57980000D03*
X192000000Y-57020000D03*
%TD*%
D30*
%TO.C,D1*%
X173000000Y-54350000D03*
X173000000Y-53650000D03*
%TD*%
D28*
%TO.C,C8*%
X198200000Y-52500000D03*
X199160000Y-52500000D03*
%TD*%
D31*
%TO.C,U3*%
X212175000Y-55175000D03*
D32*
X211700000Y-55175000D03*
X211250000Y-55175000D03*
X210800000Y-55175000D03*
X210350000Y-55175000D03*
X209900000Y-55175000D03*
X209450000Y-55175000D03*
X209000000Y-55175000D03*
X208550000Y-55175000D03*
X208100000Y-55175000D03*
X207650000Y-55175000D03*
X207200000Y-55175000D03*
X206750000Y-55175000D03*
X206300000Y-55175000D03*
X205850000Y-55175000D03*
X205400000Y-55175000D03*
D31*
X204925000Y-55175000D03*
D33*
X204925000Y-55650000D03*
X204925000Y-56100000D03*
X204925000Y-56550000D03*
X204925000Y-57000000D03*
X204925000Y-57450000D03*
X204925000Y-57900000D03*
X204925000Y-58350000D03*
X204925000Y-58800000D03*
X204925000Y-59250000D03*
X204925000Y-59700000D03*
X204925000Y-60150000D03*
X204925000Y-60600000D03*
X204925000Y-61050000D03*
D31*
X204925000Y-61525000D03*
D32*
X205400000Y-61525000D03*
X205850000Y-61525000D03*
X206300000Y-61525000D03*
X206750000Y-61525000D03*
X207200000Y-61525000D03*
X207650000Y-61525000D03*
X208100000Y-61525000D03*
X208550000Y-61525000D03*
X209000000Y-61525000D03*
X209450000Y-61525000D03*
X209900000Y-61525000D03*
X210350000Y-61525000D03*
X210800000Y-61525000D03*
X211250000Y-61525000D03*
X211700000Y-61525000D03*
D31*
X212175000Y-61525000D03*
D33*
X212175000Y-61050000D03*
X212175000Y-60600000D03*
X212175000Y-60150000D03*
X212175000Y-59700000D03*
X212175000Y-59250000D03*
X212175000Y-58800000D03*
X212175000Y-58350000D03*
X212175000Y-57900000D03*
X212175000Y-57450000D03*
X212175000Y-57000000D03*
X212175000Y-56550000D03*
X212175000Y-56100000D03*
X212175000Y-55650000D03*
D34*
X210800000Y-57000000D03*
X209900000Y-57000000D03*
X209000000Y-57000000D03*
X208100000Y-57000000D03*
X207200000Y-57000000D03*
X206300000Y-57000000D03*
X206300000Y-57900000D03*
X206300000Y-58800000D03*
X206300000Y-59700000D03*
X207200000Y-59700000D03*
X208100000Y-59700000D03*
X209000000Y-59700000D03*
X209900000Y-59700000D03*
X210800000Y-59700000D03*
X210800000Y-58800000D03*
X210800000Y-57900000D03*
X209900000Y-57900000D03*
X209000000Y-57900000D03*
X208100000Y-57900000D03*
X207200000Y-57900000D03*
X207200000Y-58800000D03*
X208100000Y-58800000D03*
X209000000Y-58800000D03*
X209900000Y-58800000D03*
D35*
X215135000Y-55300000D03*
X215135000Y-61400000D03*
%TD*%
D28*
%TO.C,C4*%
X174540000Y-52250000D03*
X175500000Y-52250000D03*
%TD*%
D20*
%TO.C,R3*%
X173000000Y-56990000D03*
X173000000Y-58010000D03*
%TD*%
D24*
%TO.C,C11*%
X211780000Y-53100000D03*
X210820000Y-53100000D03*
%TD*%
%TO.C,C10*%
X199180000Y-54000000D03*
X198220000Y-54000000D03*
%TD*%
D28*
%TO.C,C3*%
X178020000Y-46600000D03*
X178980000Y-46600000D03*
%TD*%
D36*
%TO.C,R2*%
X177250000Y-55010000D03*
X177250000Y-53990000D03*
%TD*%
D37*
%TO.C,U4*%
X187375000Y-56300000D03*
X187375000Y-55800001D03*
X187375000Y-55300000D03*
X187375000Y-54800000D03*
X187375000Y-54299999D03*
X187375000Y-53800000D03*
D38*
X186650315Y-53075000D03*
X186150189Y-53075000D03*
X185650063Y-53075000D03*
X185149937Y-53075000D03*
X184649811Y-53075000D03*
X184149685Y-53075000D03*
D37*
X183425000Y-53800000D03*
X183425000Y-54299999D03*
X183425000Y-54800000D03*
X183425000Y-55300000D03*
X183425000Y-55800001D03*
X183425000Y-56300000D03*
D38*
X184149685Y-57025000D03*
X184649811Y-57025000D03*
X185149937Y-57025000D03*
X185650063Y-57025000D03*
X186150189Y-57025000D03*
X186650315Y-57025000D03*
D39*
X186187400Y-55837400D03*
X186187400Y-55050000D03*
X186187400Y-54262600D03*
X185400000Y-55837400D03*
X185400000Y-55050000D03*
X185400000Y-54262600D03*
X184612600Y-55837400D03*
X184612600Y-55050000D03*
X184612600Y-54262600D03*
%TD*%
D20*
%TO.C,R5*%
X178500000Y-50690000D03*
X178500000Y-51710000D03*
%TD*%
D24*
%TO.C,C6*%
X168680000Y-49900000D03*
X167720000Y-49900000D03*
%TD*%
D23*
%TO.C,TP5*%
X191000000Y-48000000D03*
%TD*%
D40*
%TO.C,L1*%
X171000000Y-46850000D03*
X171000000Y-49000000D03*
%TD*%
D22*
%TO.C,R7*%
X183890000Y-50900000D03*
X184910000Y-50900000D03*
%TD*%
D41*
%TO.C,R8*%
X187760000Y-50900000D03*
X186740000Y-50900000D03*
%TD*%
D23*
%TO.C,TP4*%
X201800000Y-55100000D03*
%TD*%
D24*
%TO.C,C18*%
X182580000Y-59050000D03*
X181620000Y-59050000D03*
%TD*%
%TO.C,C16*%
X180280000Y-59050000D03*
X179320000Y-59050000D03*
%TD*%
D41*
%TO.C,R6*%
X207110000Y-51600000D03*
X206090000Y-51600000D03*
%TD*%
D42*
%TO.C,J1*%
X167857789Y-54460000D03*
X167857789Y-60240000D03*
D43*
X168997789Y-54150000D03*
X168997789Y-54950000D03*
D44*
X168997789Y-56100000D03*
X168997789Y-57100000D03*
X168997789Y-57600000D03*
X168997789Y-58600000D03*
D43*
X168997789Y-59750000D03*
X168997789Y-60550000D03*
X168997789Y-60550000D03*
X168997789Y-59750000D03*
D44*
X168997789Y-59100000D03*
X168997789Y-58100000D03*
X168997789Y-56600000D03*
X168997789Y-55600000D03*
D43*
X168997789Y-54950000D03*
X168997789Y-54150000D03*
D45*
X168357789Y-53030000D03*
D46*
X164177789Y-53030000D03*
D45*
X168357789Y-61670000D03*
D46*
X164177789Y-61670000D03*
%TD*%
D23*
%TO.C,TP3*%
X209400000Y-50300000D03*
%TD*%
D24*
%TO.C,C9*%
X194980000Y-52500000D03*
X194020000Y-52500000D03*
%TD*%
%LPD*%
M02*
