%TF.GenerationSoftware,KiCad,Pcbnew,10.0.6*%
%TF.CreationDate,2026-09-14T00:18:00-06:00*%
%TF.ProjectId,aam_bom_pcb,61616d5f-626f-46d5-9f70-63622e6b6963,rev?*%
%TF.SameCoordinates,Original*%
%TF.FileFunction,Copper,L3,Inr*%
%TF.FilePolarity,Positive*%
%FSLAX46Y46*%
G04 Gerber Fmt 4.6, Leading zero omitted, Abs format (unit mm)*
G04 Created by KiCad (PCBNEW 10.0.6) date 2026-09-14 00:18:00*
%MOMM*%
%LPD*%
G01*
G04 APERTURE LIST*
%TA.AperFunction,Conductor*%
%ADD10C,0.250000*%
%TD*%
%TA.AperFunction,Conductor*%
%ADD11C,0.200000*%
%TD*%
%TA.AperFunction,NonConductor*%
%ADD12C,0.200000*%
%TD*%
%TA.AperFunction,ComponentPad*%
%ADD13C,2.080000*%
%TD*%
%TA.AperFunction,ComponentPad*%
%ADD14C,0.508000*%
%TD*%
%TA.AperFunction,ComponentPad*%
%ADD15O,2.100000X1.000000*%
%TD*%
%TA.AperFunction,ComponentPad*%
%ADD16O,1.600000X1.000000*%
%TD*%
%TA.AperFunction,ViaPad*%
%ADD17C,0.300000*%
%TD*%
%TA.AperFunction,ViaPad*%
%ADD18C,0.600000*%
%TD*%
%TA.AperFunction,Conductor*%
%ADD19C,0.127000*%
%TD*%
G04 APERTURE END LIST*
%TO.N,+1V8*%
D10*
X161050000Y-45600000D02*
X218950000Y-45600000D01*
X218950000Y-65000000D01*
X161050000Y-65000000D01*
X161050000Y-45600000D01*
D11*
X161100000Y-52000000D02*
X170100000Y-52000000D01*
X170100000Y-62700000D01*
X161100000Y-62700000D01*
X161100000Y-52000000D01*
D12*
X173700000Y-48000000D02*
X176300000Y-48000000D01*
X176300000Y-50400000D01*
X173700000Y-50400000D01*
X173700000Y-48000000D01*
%TD*%
D13*
%TO.N,GND*%
%TO.C,MK1*%
X196000000Y-49000000D03*
%TD*%
D14*
%TO.N,GND*%
%TO.C,U4*%
X186187400Y-55837400D03*
X186187400Y-55050000D03*
X186187400Y-54262600D03*
X185400000Y-55837400D03*
X185400000Y-55050000D03*
X185400000Y-54262600D03*
X184612600Y-55837400D03*
X184612600Y-55050000D03*
X184612600Y-54262600D03*
%TD*%
D15*
%TO.N,Net-(J1-SHIELD)*%
%TO.C,J1*%
X168357789Y-53030000D03*
D16*
X164177789Y-53030000D03*
D15*
X168357789Y-61670000D03*
D16*
X164177789Y-61670000D03*
%TD*%
D17*
%TO.N,Net-(U1-TS)*%
X176800000Y-51000000D03*
X178100000Y-54600000D03*
%TO.N,I2C_SCL*%
X188100000Y-52800000D03*
%TO.N,I2C_SDA*%
X186000000Y-52250000D03*
%TO.N,+1V8*%
X200500000Y-55000000D03*
X203000000Y-55250000D03*
X190750000Y-58500000D03*
X188500000Y-51200000D03*
X186186500Y-59100000D03*
X195100000Y-53300000D03*
%TO.N,GND*%
X194200000Y-51700000D03*
%TO.N,PDM_DATA*%
X199000000Y-50000000D03*
%TO.N,GND*%
X192700000Y-57800000D03*
X191700000Y-56500000D03*
X190300000Y-56300000D03*
D18*
%TO.N,Net-(J1-SHIELD)*%
X164750000Y-51250000D03*
X168500000Y-63370000D03*
X165000000Y-63370000D03*
X168500000Y-51330000D03*
D17*
%TO.N,GND*%
X174000000Y-50900000D03*
X205400000Y-54300000D03*
D18*
X170770000Y-54000000D03*
D17*
X197250000Y-46750000D03*
X176000000Y-50850000D03*
X176200000Y-52100000D03*
X192800000Y-48150000D03*
X166800000Y-49900000D03*
X212800000Y-56300000D03*
X186550000Y-58050000D03*
X177400000Y-53300000D03*
X210149998Y-58800000D03*
X214900000Y-62800000D03*
X179250000Y-60050000D03*
X210700000Y-54400000D03*
X181200000Y-54500000D03*
X205500000Y-51700000D03*
X175200000Y-50850000D03*
X202300000Y-63100000D03*
X173900000Y-47550000D03*
X180400000Y-47400000D03*
D18*
X170770000Y-60550000D03*
D17*
X183704544Y-58051769D03*
D18*
X194000000Y-49500000D03*
D17*
X212800000Y-55800000D03*
X175500000Y-47500000D03*
X200000000Y-52500000D03*
X212800000Y-56700000D03*
X212800000Y-57200000D03*
X182159500Y-54300000D03*
X185392389Y-58107611D03*
X197400000Y-54000000D03*
X188600000Y-56900000D03*
X182800000Y-59950000D03*
X204100000Y-61700000D03*
X179100000Y-47650000D03*
%TO.N,Net-(J1-CC2)*%
X170750000Y-58750000D03*
%TO.N,Net-(U4-\u002ARESET)*%
X184201387Y-58548613D03*
%TO.N,+1V8*%
X205600000Y-62600000D03*
X183850000Y-51650000D03*
X186000000Y-58100000D03*
X197600000Y-52500000D03*
X187200000Y-57950000D03*
X204000000Y-55000000D03*
X174600000Y-47550000D03*
D18*
X172750000Y-46750000D03*
D17*
X206100000Y-54300000D03*
X182159500Y-53800000D03*
X188500000Y-58000000D03*
X182600000Y-46600000D03*
X176750000Y-49200000D03*
X197750000Y-51250000D03*
%TO.N,/SWCLK*%
X204000000Y-59300000D03*
%TO.N,/SWDIO*%
X204000000Y-58700000D03*
%TO.N,PDM_DATA*%
X204100000Y-60200000D03*
%TO.N,PDM_CLK*%
X212800000Y-60300000D03*
%TO.N,/SWD_NRST*%
X208500000Y-54300000D03*
%TO.N,Net-(U3-VDDA)*%
X210000000Y-54400000D03*
X200000000Y-54000000D03*
X211300000Y-54400000D03*
%TO.N,Net-(D1-K)*%
X171000000Y-55000000D03*
X170750000Y-59750000D03*
%TO.N,I2C_SDA*%
X207900000Y-54300000D03*
X176800000Y-48300000D03*
%TO.N,Net-(U3-PH3-BOOT0)*%
X207284778Y-54300000D03*
%TO.N,I2C_SCL*%
X176674423Y-47750385D03*
X206700000Y-54300000D03*
%TO.N,/I2S_DIN*%
X203900000Y-56200000D03*
X188500000Y-54800000D03*
%TO.N,/I2S_BCLK*%
X188500000Y-55800000D03*
X204100000Y-57100000D03*
%TO.N,/I2S_WCLK*%
X188500000Y-55300000D03*
X208300000Y-62600000D03*
%TO.N,VBAT*%
X174600000Y-50900000D03*
X176917389Y-52232611D03*
X178050000Y-52550000D03*
%TO.N,Net-(J1-CC1)*%
X171000000Y-56000000D03*
D18*
X172750000Y-56000000D03*
D17*
%TO.N,Net-(U1-LS{slash}LDO)*%
X175500000Y-46999997D03*
%TO.N,Net-(U4-INR)*%
X182159500Y-55350000D03*
%TO.N,Net-(U4-REF)*%
X182159500Y-55850003D03*
%TO.N,Net-(C6-Pad1)*%
X173250000Y-49100000D03*
%TO.N,Net-(U1-SW)*%
X173250000Y-48249615D03*
%TD*%
%TO.N,+1V8*%
D19*
X204000000Y-54200000D02*
X204000000Y-55000000D01*
X204313500Y-53886500D02*
X204000000Y-54200000D01*
X205686500Y-53886500D02*
X204313500Y-53886500D01*
X206100000Y-54300000D02*
X205686500Y-53886500D01*
X182074722Y-53800000D02*
X182159500Y-53800000D01*
X181613500Y-54261222D02*
X182074722Y-53800000D01*
X181613500Y-57086500D02*
X181613500Y-54261222D01*
X183600000Y-59100000D02*
X181600000Y-57100000D01*
X181600000Y-57100000D02*
X181613500Y-57086500D01*
X186186500Y-59100000D02*
X183600000Y-59100000D01*
X196250000Y-64000000D02*
X190750000Y-58500000D01*
X206250000Y-63250000D02*
X205500000Y-64000000D01*
X205500000Y-64000000D02*
X196250000Y-64000000D01*
X205600000Y-62600000D02*
X206250000Y-63250000D01*
X195100000Y-57400000D02*
X195100000Y-53300000D01*
X194000000Y-58500000D02*
X195100000Y-57400000D01*
X190750000Y-58500000D02*
X194000000Y-58500000D01*
X182159500Y-53340500D02*
X183850000Y-51650000D01*
X182159500Y-53800000D02*
X182159500Y-53340500D01*
X162063500Y-50686500D02*
X162063500Y-52000000D01*
X166000000Y-46750000D02*
X162063500Y-50686500D01*
X172750000Y-46750000D02*
X166000000Y-46750000D01*
%TO.N,VBAT*%
X177732611Y-52232611D02*
X178050000Y-52550000D01*
X176917389Y-52232611D02*
X177732611Y-52232611D01*
%TO.N,+1V8*%
X176563500Y-46063500D02*
X177250000Y-46750000D01*
X173436500Y-46063500D02*
X176563500Y-46063500D01*
X172750000Y-46750000D02*
X173436500Y-46063500D01*
X177250000Y-46750000D02*
X177250000Y-48700000D01*
X177250000Y-48700000D02*
X176750000Y-49200000D01*
X173800000Y-46750000D02*
X172750000Y-46750000D01*
X174600000Y-47550000D02*
X173800000Y-46750000D01*
X198750000Y-54500000D02*
X198750000Y-53250000D01*
X198750000Y-53250000D02*
X198000000Y-52500000D01*
X199250000Y-55000000D02*
X198750000Y-54500000D01*
X198000000Y-52500000D02*
X197600000Y-52500000D01*
X200500000Y-55000000D02*
X199250000Y-55000000D01*
X203250000Y-55000000D02*
X203000000Y-55250000D01*
X204000000Y-55000000D02*
X203250000Y-55000000D01*
X188450000Y-57950000D02*
X188500000Y-58000000D01*
X187200000Y-57950000D02*
X188450000Y-57950000D01*
X187200000Y-58086500D02*
X187200000Y-57950000D01*
X186186500Y-59100000D02*
X187200000Y-58086500D01*
X186000000Y-58913500D02*
X186186500Y-59100000D01*
X186000000Y-58100000D02*
X186000000Y-58913500D01*
X181800000Y-46600000D02*
X182600000Y-46600000D01*
X179200000Y-49200000D02*
X181800000Y-46600000D01*
X176750000Y-49200000D02*
X179200000Y-49200000D01*
X183300000Y-47300000D02*
X182600000Y-46600000D01*
X183300000Y-51100000D02*
X183300000Y-47300000D01*
X183850000Y-51650000D02*
X183300000Y-51100000D01*
X188050000Y-51650000D02*
X188500000Y-51200000D01*
X183850000Y-51650000D02*
X188050000Y-51650000D01*
%TD*%
M02*
