%TF.GenerationSoftware,KiCad,Pcbnew,10.0.6*%
%TF.CreationDate,2026-09-14T00:18:00-06:00*%
%TF.ProjectId,aam_bom_pcb,61616d5f-626f-46d5-9f70-63622e6b6963,rev?*%
%TF.SameCoordinates,Original*%
%TF.FileFunction,Paste,Top*%
%TF.FilePolarity,Positive*%
%FSLAX46Y46*%
G04 Gerber Fmt 4.6, Leading zero omitted, Abs format (unit mm)*
G04 Created by KiCad (PCBNEW 10.0.6) date 2026-09-14 00:18:00*
%MOMM*%
%LPD*%
G01*
G04 APERTURE LIST*
G04 Aperture macros list*
%AMRoundRect*
0 Rectangle with rounded corners*
0 $1 Rounding radius*
0 $2 $3 $4 $5 $6 $7 $8 $9 X,Y pos of 4 corners*
0 Add a 4 corners polygon primitive as box body*
4,1,4,$2,$3,$4,$5,$6,$7,$8,$9,$2,$3,0*
0 Add four circle primitives for the rounded corners*
1,1,$1+$1,$2,$3*
1,1,$1+$1,$4,$5*
1,1,$1+$1,$6,$7*
1,1,$1+$1,$8,$9*
0 Add four rect primitives between the rounded corners*
20,1,$1+$1,$2,$3,$4,$5,0*
20,1,$1+$1,$4,$5,$6,$7,0*
20,1,$1+$1,$6,$7,$8,$9,0*
20,1,$1+$1,$8,$9,$2,$3,0*%
G04 Aperture macros list end*
%ADD10C,0.000000*%
%ADD11C,0.010000*%
%ADD12RoundRect,0.140000X-0.170000X0.140000X-0.170000X-0.140000X0.170000X-0.140000X0.170000X0.140000X0*%
%ADD13RoundRect,0.135000X-0.185000X0.135000X-0.185000X-0.135000X0.185000X-0.135000X0.185000X0.135000X0*%
%ADD14RoundRect,0.135000X-0.135000X-0.185000X0.135000X-0.185000X0.135000X0.185000X-0.135000X0.185000X0*%
%ADD15RoundRect,0.140000X0.140000X0.170000X-0.140000X0.170000X-0.140000X-0.170000X0.140000X-0.170000X0*%
%ADD16R,0.450000X0.750000*%
%ADD17RoundRect,0.140000X0.170000X-0.140000X0.170000X0.140000X-0.170000X0.140000X-0.170000X-0.140000X0*%
%ADD18RoundRect,0.140000X-0.140000X-0.170000X0.140000X-0.170000X0.140000X0.170000X-0.140000X0.170000X0*%
%ADD19RoundRect,0.147500X-0.147500X-0.172500X0.147500X-0.172500X0.147500X0.172500X-0.147500X0.172500X0*%
%ADD20RoundRect,0.050000X0.250000X-0.100000X0.250000X0.100000X-0.250000X0.100000X-0.250000X-0.100000X0*%
%ADD21R,0.350000X0.350000*%
%ADD22R,0.300000X0.350000*%
%ADD23R,0.350000X0.300000*%
%ADD24R,0.600000X0.600000*%
%ADD25R,0.430000X0.430000*%
%ADD26RoundRect,0.135000X0.185000X-0.135000X0.185000X0.135000X-0.185000X0.135000X-0.185000X-0.135000X0*%
%ADD27R,0.850000X0.280000*%
%ADD28R,0.280000X0.850000*%
%ADD29RoundRect,0.250000X-0.850000X0.375000X-0.850000X-0.375000X0.850000X-0.375000X0.850000X0.375000X0*%
%ADD30RoundRect,0.135000X0.135000X0.185000X-0.135000X0.185000X-0.135000X-0.185000X0.135000X-0.185000X0*%
%ADD31RoundRect,0.150000X-0.500000X0.150000X-0.500000X-0.150000X0.500000X-0.150000X0.500000X0.150000X0*%
%ADD32RoundRect,0.075000X-0.575000X0.075000X-0.575000X-0.075000X0.575000X-0.075000X0.575000X0.075000X0*%
G04 APERTURE END LIST*
D10*
%TO.C,U4*%
G36*
X184512600Y-54021179D02*
G01*
X184371179Y-54162600D01*
X184124930Y-54162600D01*
X184124930Y-53774930D01*
X184512600Y-53774930D01*
X184512600Y-54021179D01*
G37*
G36*
X184512600Y-56078821D02*
G01*
X184512600Y-56325070D01*
X184124930Y-56325070D01*
X184124930Y-55937400D01*
X184371179Y-55937400D01*
X184512600Y-56078821D01*
G37*
G36*
X186675070Y-54162600D02*
G01*
X186428821Y-54162600D01*
X186287400Y-54021179D01*
X186287400Y-53774930D01*
X186675070Y-53774930D01*
X186675070Y-54162600D01*
G37*
G36*
X186675070Y-56325070D02*
G01*
X186287400Y-56325070D01*
X186287400Y-56078821D01*
X186428821Y-55937400D01*
X186675070Y-55937400D01*
X186675070Y-56325070D01*
G37*
G36*
X184512600Y-54504021D02*
G01*
X184512600Y-54808579D01*
X184371179Y-54950000D01*
X184124930Y-54950000D01*
X184124930Y-54362600D01*
X184371179Y-54362600D01*
X184512600Y-54504021D01*
G37*
G36*
X184512600Y-55291421D02*
G01*
X184512600Y-55595979D01*
X184371179Y-55737400D01*
X184124930Y-55737400D01*
X184124930Y-55150000D01*
X184371179Y-55150000D01*
X184512600Y-55291421D01*
G37*
G36*
X185300000Y-54021179D02*
G01*
X185158579Y-54162600D01*
X184854021Y-54162600D01*
X184712600Y-54021179D01*
X184712600Y-53774930D01*
X185300000Y-53774930D01*
X185300000Y-54021179D01*
G37*
G36*
X185300000Y-56078821D02*
G01*
X185300000Y-56325070D01*
X184712600Y-56325070D01*
X184712600Y-56078821D01*
X184854021Y-55937400D01*
X185158579Y-55937400D01*
X185300000Y-56078821D01*
G37*
G36*
X186087400Y-54021179D02*
G01*
X185945979Y-54162600D01*
X185641421Y-54162600D01*
X185500000Y-54021179D01*
X185500000Y-53774930D01*
X186087400Y-53774930D01*
X186087400Y-54021179D01*
G37*
G36*
X186087400Y-56078821D02*
G01*
X186087400Y-56325070D01*
X185500000Y-56325070D01*
X185500000Y-56078821D01*
X185641421Y-55937400D01*
X185945979Y-55937400D01*
X186087400Y-56078821D01*
G37*
G36*
X186675070Y-54950000D02*
G01*
X186428821Y-54950000D01*
X186287400Y-54808579D01*
X186287400Y-54504021D01*
X186428821Y-54362600D01*
X186675070Y-54362600D01*
X186675070Y-54950000D01*
G37*
G36*
X186675070Y-55737400D02*
G01*
X186428821Y-55737400D01*
X186287400Y-55595979D01*
X186287400Y-55291421D01*
X186428821Y-55150000D01*
X186675070Y-55150000D01*
X186675070Y-55737400D01*
G37*
G36*
X185300000Y-54504021D02*
G01*
X185300000Y-54808579D01*
X185158579Y-54950000D01*
X184854021Y-54950000D01*
X184712600Y-54808579D01*
X184712600Y-54504021D01*
X184854021Y-54362600D01*
X185158579Y-54362600D01*
X185300000Y-54504021D01*
G37*
G36*
X185300000Y-55291421D02*
G01*
X185300000Y-55595979D01*
X185158579Y-55737400D01*
X184854021Y-55737400D01*
X184712600Y-55595979D01*
X184712600Y-55291421D01*
X184854021Y-55150000D01*
X185158579Y-55150000D01*
X185300000Y-55291421D01*
G37*
G36*
X186087400Y-54504021D02*
G01*
X186087400Y-54808579D01*
X185945979Y-54950000D01*
X185641421Y-54950000D01*
X185500000Y-54808579D01*
X185500000Y-54504021D01*
X185641421Y-54362600D01*
X185945979Y-54362600D01*
X186087400Y-54504021D01*
G37*
G36*
X186087400Y-55291421D02*
G01*
X186087400Y-55595979D01*
X185945979Y-55737400D01*
X185641421Y-55737400D01*
X185500000Y-55595979D01*
X185500000Y-55291421D01*
X185641421Y-55150000D01*
X185945979Y-55150000D01*
X186087400Y-55291421D01*
G37*
D11*
%TO.C,U1*%
X174125000Y-48275000D02*
X174275000Y-48275000D01*
X174278000Y-48275000D01*
X174280000Y-48275000D01*
X174283000Y-48276000D01*
X174285000Y-48276000D01*
X174288000Y-48277000D01*
X174290000Y-48277000D01*
X174293000Y-48278000D01*
X174295000Y-48279000D01*
X174298000Y-48280000D01*
X174300000Y-48282000D01*
X174302000Y-48283000D01*
X174304000Y-48285000D01*
X174306000Y-48286000D01*
X174308000Y-48288000D01*
X174310000Y-48290000D01*
X174312000Y-48292000D01*
X174314000Y-48294000D01*
X174315000Y-48296000D01*
X174317000Y-48298000D01*
X174318000Y-48300000D01*
X174320000Y-48302000D01*
X174321000Y-48305000D01*
X174322000Y-48307000D01*
X174323000Y-48310000D01*
X174323000Y-48312000D01*
X174324000Y-48315000D01*
X174324000Y-48317000D01*
X174325000Y-48320000D01*
X174325000Y-48322000D01*
X174325000Y-48325000D01*
X174325000Y-48475000D01*
X174325000Y-48478000D01*
X174325000Y-48480000D01*
X174324000Y-48483000D01*
X174324000Y-48485000D01*
X174323000Y-48488000D01*
X174323000Y-48490000D01*
X174322000Y-48493000D01*
X174321000Y-48495000D01*
X174320000Y-48498000D01*
X174318000Y-48500000D01*
X174317000Y-48502000D01*
X174315000Y-48504000D01*
X174314000Y-48506000D01*
X174312000Y-48508000D01*
X174310000Y-48510000D01*
X174308000Y-48512000D01*
X174306000Y-48514000D01*
X174304000Y-48515000D01*
X174302000Y-48517000D01*
X174300000Y-48518000D01*
X174298000Y-48520000D01*
X174295000Y-48521000D01*
X174293000Y-48522000D01*
X174290000Y-48523000D01*
X174288000Y-48523000D01*
X174285000Y-48524000D01*
X174283000Y-48524000D01*
X174280000Y-48525000D01*
X174278000Y-48525000D01*
X174275000Y-48525000D01*
X174125000Y-48525000D01*
X174122000Y-48525000D01*
X174120000Y-48525000D01*
X174117000Y-48524000D01*
X174115000Y-48524000D01*
X174112000Y-48523000D01*
X174110000Y-48523000D01*
X174107000Y-48522000D01*
X174105000Y-48521000D01*
X174102000Y-48520000D01*
X174100000Y-48518000D01*
X174098000Y-48517000D01*
X174096000Y-48515000D01*
X174094000Y-48514000D01*
X174092000Y-48512000D01*
X174090000Y-48510000D01*
X174088000Y-48508000D01*
X174086000Y-48506000D01*
X174085000Y-48504000D01*
X174083000Y-48502000D01*
X174082000Y-48500000D01*
X174080000Y-48498000D01*
X174079000Y-48495000D01*
X174078000Y-48493000D01*
X174077000Y-48490000D01*
X174077000Y-48488000D01*
X174076000Y-48485000D01*
X174076000Y-48483000D01*
X174075000Y-48480000D01*
X174075000Y-48478000D01*
X174075000Y-48475000D01*
X174075000Y-48325000D01*
X174075000Y-48322000D01*
X174075000Y-48320000D01*
X174076000Y-48317000D01*
X174076000Y-48315000D01*
X174077000Y-48312000D01*
X174077000Y-48310000D01*
X174078000Y-48307000D01*
X174079000Y-48305000D01*
X174080000Y-48302000D01*
X174082000Y-48300000D01*
X174083000Y-48298000D01*
X174085000Y-48296000D01*
X174086000Y-48294000D01*
X174088000Y-48292000D01*
X174090000Y-48290000D01*
X174092000Y-48288000D01*
X174094000Y-48286000D01*
X174096000Y-48285000D01*
X174098000Y-48283000D01*
X174100000Y-48282000D01*
X174102000Y-48280000D01*
X174105000Y-48279000D01*
X174107000Y-48278000D01*
X174110000Y-48277000D01*
X174112000Y-48277000D01*
X174115000Y-48276000D01*
X174117000Y-48276000D01*
X174120000Y-48275000D01*
X174122000Y-48275000D01*
X174125000Y-48275000D01*
G36*
X174283000Y-48276000D02*
G01*
X174285000Y-48276000D01*
X174288000Y-48277000D01*
X174290000Y-48277000D01*
X174293000Y-48278000D01*
X174295000Y-48279000D01*
X174298000Y-48280000D01*
X174300000Y-48282000D01*
X174302000Y-48283000D01*
X174304000Y-48285000D01*
X174306000Y-48286000D01*
X174308000Y-48288000D01*
X174310000Y-48290000D01*
X174312000Y-48292000D01*
X174314000Y-48294000D01*
X174315000Y-48296000D01*
X174317000Y-48298000D01*
X174318000Y-48300000D01*
X174320000Y-48302000D01*
X174321000Y-48305000D01*
X174322000Y-48307000D01*
X174323000Y-48310000D01*
X174323000Y-48312000D01*
X174324000Y-48315000D01*
X174324000Y-48317000D01*
X174325000Y-48320000D01*
X174325000Y-48322000D01*
X174325000Y-48325000D01*
X174325000Y-48475000D01*
X174325000Y-48478000D01*
X174325000Y-48480000D01*
X174324000Y-48483000D01*
X174324000Y-48485000D01*
X174323000Y-48488000D01*
X174323000Y-48490000D01*
X174322000Y-48493000D01*
X174321000Y-48495000D01*
X174320000Y-48498000D01*
X174318000Y-48500000D01*
X174317000Y-48502000D01*
X174315000Y-48504000D01*
X174314000Y-48506000D01*
X174312000Y-48508000D01*
X174310000Y-48510000D01*
X174308000Y-48512000D01*
X174306000Y-48514000D01*
X174304000Y-48515000D01*
X174302000Y-48517000D01*
X174300000Y-48518000D01*
X174298000Y-48520000D01*
X174295000Y-48521000D01*
X174293000Y-48522000D01*
X174290000Y-48523000D01*
X174288000Y-48523000D01*
X174285000Y-48524000D01*
X174283000Y-48524000D01*
X174280000Y-48525000D01*
X174278000Y-48525000D01*
X174275000Y-48525000D01*
X174125000Y-48525000D01*
X174122000Y-48525000D01*
X174120000Y-48525000D01*
X174117000Y-48524000D01*
X174115000Y-48524000D01*
X174112000Y-48523000D01*
X174110000Y-48523000D01*
X174107000Y-48522000D01*
X174105000Y-48521000D01*
X174102000Y-48520000D01*
X174100000Y-48518000D01*
X174098000Y-48517000D01*
X174096000Y-48515000D01*
X174094000Y-48514000D01*
X174092000Y-48512000D01*
X174090000Y-48510000D01*
X174088000Y-48508000D01*
X174086000Y-48506000D01*
X174085000Y-48504000D01*
X174083000Y-48502000D01*
X174082000Y-48500000D01*
X174080000Y-48498000D01*
X174079000Y-48495000D01*
X174078000Y-48493000D01*
X174077000Y-48490000D01*
X174077000Y-48488000D01*
X174076000Y-48485000D01*
X174076000Y-48483000D01*
X174075000Y-48480000D01*
X174075000Y-48478000D01*
X174075000Y-48475000D01*
X174075000Y-48325000D01*
X174075000Y-48322000D01*
X174075000Y-48320000D01*
X174076000Y-48317000D01*
X174076000Y-48315000D01*
X174077000Y-48312000D01*
X174077000Y-48310000D01*
X174078000Y-48307000D01*
X174079000Y-48305000D01*
X174080000Y-48302000D01*
X174082000Y-48300000D01*
X174083000Y-48298000D01*
X174085000Y-48296000D01*
X174086000Y-48294000D01*
X174088000Y-48292000D01*
X174090000Y-48290000D01*
X174092000Y-48288000D01*
X174094000Y-48286000D01*
X174096000Y-48285000D01*
X174098000Y-48283000D01*
X174100000Y-48282000D01*
X174102000Y-48280000D01*
X174105000Y-48279000D01*
X174107000Y-48278000D01*
X174110000Y-48277000D01*
X174112000Y-48277000D01*
X174115000Y-48276000D01*
X174117000Y-48276000D01*
X174120000Y-48275000D01*
X174122000Y-48275000D01*
X174125000Y-48275000D01*
X174275000Y-48275000D01*
X174278000Y-48275000D01*
X174280000Y-48275000D01*
X174283000Y-48276000D01*
G37*
X174125000Y-48675000D02*
X174275000Y-48675000D01*
X174278000Y-48675000D01*
X174280000Y-48675000D01*
X174283000Y-48676000D01*
X174285000Y-48676000D01*
X174288000Y-48677000D01*
X174290000Y-48677000D01*
X174293000Y-48678000D01*
X174295000Y-48679000D01*
X174298000Y-48680000D01*
X174300000Y-48682000D01*
X174302000Y-48683000D01*
X174304000Y-48685000D01*
X174306000Y-48686000D01*
X174308000Y-48688000D01*
X174310000Y-48690000D01*
X174312000Y-48692000D01*
X174314000Y-48694000D01*
X174315000Y-48696000D01*
X174317000Y-48698000D01*
X174318000Y-48700000D01*
X174320000Y-48702000D01*
X174321000Y-48705000D01*
X174322000Y-48707000D01*
X174323000Y-48710000D01*
X174323000Y-48712000D01*
X174324000Y-48715000D01*
X174324000Y-48717000D01*
X174325000Y-48720000D01*
X174325000Y-48722000D01*
X174325000Y-48725000D01*
X174325000Y-48875000D01*
X174325000Y-48878000D01*
X174325000Y-48880000D01*
X174324000Y-48883000D01*
X174324000Y-48885000D01*
X174323000Y-48888000D01*
X174323000Y-48890000D01*
X174322000Y-48893000D01*
X174321000Y-48895000D01*
X174320000Y-48898000D01*
X174318000Y-48900000D01*
X174317000Y-48902000D01*
X174315000Y-48904000D01*
X174314000Y-48906000D01*
X174312000Y-48908000D01*
X174310000Y-48910000D01*
X174308000Y-48912000D01*
X174306000Y-48914000D01*
X174304000Y-48915000D01*
X174302000Y-48917000D01*
X174300000Y-48918000D01*
X174298000Y-48920000D01*
X174295000Y-48921000D01*
X174293000Y-48922000D01*
X174290000Y-48923000D01*
X174288000Y-48923000D01*
X174285000Y-48924000D01*
X174283000Y-48924000D01*
X174280000Y-48925000D01*
X174278000Y-48925000D01*
X174275000Y-48925000D01*
X174125000Y-48925000D01*
X174122000Y-48925000D01*
X174120000Y-48925000D01*
X174117000Y-48924000D01*
X174115000Y-48924000D01*
X174112000Y-48923000D01*
X174110000Y-48923000D01*
X174107000Y-48922000D01*
X174105000Y-48921000D01*
X174102000Y-48920000D01*
X174100000Y-48918000D01*
X174098000Y-48917000D01*
X174096000Y-48915000D01*
X174094000Y-48914000D01*
X174092000Y-48912000D01*
X174090000Y-48910000D01*
X174088000Y-48908000D01*
X174086000Y-48906000D01*
X174085000Y-48904000D01*
X174083000Y-48902000D01*
X174082000Y-48900000D01*
X174080000Y-48898000D01*
X174079000Y-48895000D01*
X174078000Y-48893000D01*
X174077000Y-48890000D01*
X174077000Y-48888000D01*
X174076000Y-48885000D01*
X174076000Y-48883000D01*
X174075000Y-48880000D01*
X174075000Y-48878000D01*
X174075000Y-48875000D01*
X174075000Y-48725000D01*
X174075000Y-48722000D01*
X174075000Y-48720000D01*
X174076000Y-48717000D01*
X174076000Y-48715000D01*
X174077000Y-48712000D01*
X174077000Y-48710000D01*
X174078000Y-48707000D01*
X174079000Y-48705000D01*
X174080000Y-48702000D01*
X174082000Y-48700000D01*
X174083000Y-48698000D01*
X174085000Y-48696000D01*
X174086000Y-48694000D01*
X174088000Y-48692000D01*
X174090000Y-48690000D01*
X174092000Y-48688000D01*
X174094000Y-48686000D01*
X174096000Y-48685000D01*
X174098000Y-48683000D01*
X174100000Y-48682000D01*
X174102000Y-48680000D01*
X174105000Y-48679000D01*
X174107000Y-48678000D01*
X174110000Y-48677000D01*
X174112000Y-48677000D01*
X174115000Y-48676000D01*
X174117000Y-48676000D01*
X174120000Y-48675000D01*
X174122000Y-48675000D01*
X174125000Y-48675000D01*
G36*
X174283000Y-48676000D02*
G01*
X174285000Y-48676000D01*
X174288000Y-48677000D01*
X174290000Y-48677000D01*
X174293000Y-48678000D01*
X174295000Y-48679000D01*
X174298000Y-48680000D01*
X174300000Y-48682000D01*
X174302000Y-48683000D01*
X174304000Y-48685000D01*
X174306000Y-48686000D01*
X174308000Y-48688000D01*
X174310000Y-48690000D01*
X174312000Y-48692000D01*
X174314000Y-48694000D01*
X174315000Y-48696000D01*
X174317000Y-48698000D01*
X174318000Y-48700000D01*
X174320000Y-48702000D01*
X174321000Y-48705000D01*
X174322000Y-48707000D01*
X174323000Y-48710000D01*
X174323000Y-48712000D01*
X174324000Y-48715000D01*
X174324000Y-48717000D01*
X174325000Y-48720000D01*
X174325000Y-48722000D01*
X174325000Y-48725000D01*
X174325000Y-48875000D01*
X174325000Y-48878000D01*
X174325000Y-48880000D01*
X174324000Y-48883000D01*
X174324000Y-48885000D01*
X174323000Y-48888000D01*
X174323000Y-48890000D01*
X174322000Y-48893000D01*
X174321000Y-48895000D01*
X174320000Y-48898000D01*
X174318000Y-48900000D01*
X174317000Y-48902000D01*
X174315000Y-48904000D01*
X174314000Y-48906000D01*
X174312000Y-48908000D01*
X174310000Y-48910000D01*
X174308000Y-48912000D01*
X174306000Y-48914000D01*
X174304000Y-48915000D01*
X174302000Y-48917000D01*
X174300000Y-48918000D01*
X174298000Y-48920000D01*
X174295000Y-48921000D01*
X174293000Y-48922000D01*
X174290000Y-48923000D01*
X174288000Y-48923000D01*
X174285000Y-48924000D01*
X174283000Y-48924000D01*
X174280000Y-48925000D01*
X174278000Y-48925000D01*
X174275000Y-48925000D01*
X174125000Y-48925000D01*
X174122000Y-48925000D01*
X174120000Y-48925000D01*
X174117000Y-48924000D01*
X174115000Y-48924000D01*
X174112000Y-48923000D01*
X174110000Y-48923000D01*
X174107000Y-48922000D01*
X174105000Y-48921000D01*
X174102000Y-48920000D01*
X174100000Y-48918000D01*
X174098000Y-48917000D01*
X174096000Y-48915000D01*
X174094000Y-48914000D01*
X174092000Y-48912000D01*
X174090000Y-48910000D01*
X174088000Y-48908000D01*
X174086000Y-48906000D01*
X174085000Y-48904000D01*
X174083000Y-48902000D01*
X174082000Y-48900000D01*
X174080000Y-48898000D01*
X174079000Y-48895000D01*
X174078000Y-48893000D01*
X174077000Y-48890000D01*
X174077000Y-48888000D01*
X174076000Y-48885000D01*
X174076000Y-48883000D01*
X174075000Y-48880000D01*
X174075000Y-48878000D01*
X174075000Y-48875000D01*
X174075000Y-48725000D01*
X174075000Y-48722000D01*
X174075000Y-48720000D01*
X174076000Y-48717000D01*
X174076000Y-48715000D01*
X174077000Y-48712000D01*
X174077000Y-48710000D01*
X174078000Y-48707000D01*
X174079000Y-48705000D01*
X174080000Y-48702000D01*
X174082000Y-48700000D01*
X174083000Y-48698000D01*
X174085000Y-48696000D01*
X174086000Y-48694000D01*
X174088000Y-48692000D01*
X174090000Y-48690000D01*
X174092000Y-48688000D01*
X174094000Y-48686000D01*
X174096000Y-48685000D01*
X174098000Y-48683000D01*
X174100000Y-48682000D01*
X174102000Y-48680000D01*
X174105000Y-48679000D01*
X174107000Y-48678000D01*
X174110000Y-48677000D01*
X174112000Y-48677000D01*
X174115000Y-48676000D01*
X174117000Y-48676000D01*
X174120000Y-48675000D01*
X174122000Y-48675000D01*
X174125000Y-48675000D01*
X174275000Y-48675000D01*
X174278000Y-48675000D01*
X174280000Y-48675000D01*
X174283000Y-48676000D01*
G37*
X174125000Y-49075000D02*
X174275000Y-49075000D01*
X174278000Y-49075000D01*
X174280000Y-49075000D01*
X174283000Y-49076000D01*
X174285000Y-49076000D01*
X174288000Y-49077000D01*
X174290000Y-49077000D01*
X174293000Y-49078000D01*
X174295000Y-49079000D01*
X174298000Y-49080000D01*
X174300000Y-49082000D01*
X174302000Y-49083000D01*
X174304000Y-49085000D01*
X174306000Y-49086000D01*
X174308000Y-49088000D01*
X174310000Y-49090000D01*
X174312000Y-49092000D01*
X174314000Y-49094000D01*
X174315000Y-49096000D01*
X174317000Y-49098000D01*
X174318000Y-49100000D01*
X174320000Y-49102000D01*
X174321000Y-49105000D01*
X174322000Y-49107000D01*
X174323000Y-49110000D01*
X174323000Y-49112000D01*
X174324000Y-49115000D01*
X174324000Y-49117000D01*
X174325000Y-49120000D01*
X174325000Y-49122000D01*
X174325000Y-49125000D01*
X174325000Y-49275000D01*
X174325000Y-49278000D01*
X174325000Y-49280000D01*
X174324000Y-49283000D01*
X174324000Y-49285000D01*
X174323000Y-49288000D01*
X174323000Y-49290000D01*
X174322000Y-49293000D01*
X174321000Y-49295000D01*
X174320000Y-49298000D01*
X174318000Y-49300000D01*
X174317000Y-49302000D01*
X174315000Y-49304000D01*
X174314000Y-49306000D01*
X174312000Y-49308000D01*
X174310000Y-49310000D01*
X174308000Y-49312000D01*
X174306000Y-49314000D01*
X174304000Y-49315000D01*
X174302000Y-49317000D01*
X174300000Y-49318000D01*
X174298000Y-49320000D01*
X174295000Y-49321000D01*
X174293000Y-49322000D01*
X174290000Y-49323000D01*
X174288000Y-49323000D01*
X174285000Y-49324000D01*
X174283000Y-49324000D01*
X174280000Y-49325000D01*
X174278000Y-49325000D01*
X174275000Y-49325000D01*
X174125000Y-49325000D01*
X174122000Y-49325000D01*
X174120000Y-49325000D01*
X174117000Y-49324000D01*
X174115000Y-49324000D01*
X174112000Y-49323000D01*
X174110000Y-49323000D01*
X174107000Y-49322000D01*
X174105000Y-49321000D01*
X174102000Y-49320000D01*
X174100000Y-49318000D01*
X174098000Y-49317000D01*
X174096000Y-49315000D01*
X174094000Y-49314000D01*
X174092000Y-49312000D01*
X174090000Y-49310000D01*
X174088000Y-49308000D01*
X174086000Y-49306000D01*
X174085000Y-49304000D01*
X174083000Y-49302000D01*
X174082000Y-49300000D01*
X174080000Y-49298000D01*
X174079000Y-49295000D01*
X174078000Y-49293000D01*
X174077000Y-49290000D01*
X174077000Y-49288000D01*
X174076000Y-49285000D01*
X174076000Y-49283000D01*
X174075000Y-49280000D01*
X174075000Y-49278000D01*
X174075000Y-49275000D01*
X174075000Y-49125000D01*
X174075000Y-49122000D01*
X174075000Y-49120000D01*
X174076000Y-49117000D01*
X174076000Y-49115000D01*
X174077000Y-49112000D01*
X174077000Y-49110000D01*
X174078000Y-49107000D01*
X174079000Y-49105000D01*
X174080000Y-49102000D01*
X174082000Y-49100000D01*
X174083000Y-49098000D01*
X174085000Y-49096000D01*
X174086000Y-49094000D01*
X174088000Y-49092000D01*
X174090000Y-49090000D01*
X174092000Y-49088000D01*
X174094000Y-49086000D01*
X174096000Y-49085000D01*
X174098000Y-49083000D01*
X174100000Y-49082000D01*
X174102000Y-49080000D01*
X174105000Y-49079000D01*
X174107000Y-49078000D01*
X174110000Y-49077000D01*
X174112000Y-49077000D01*
X174115000Y-49076000D01*
X174117000Y-49076000D01*
X174120000Y-49075000D01*
X174122000Y-49075000D01*
X174125000Y-49075000D01*
G36*
X174283000Y-49076000D02*
G01*
X174285000Y-49076000D01*
X174288000Y-49077000D01*
X174290000Y-49077000D01*
X174293000Y-49078000D01*
X174295000Y-49079000D01*
X174298000Y-49080000D01*
X174300000Y-49082000D01*
X174302000Y-49083000D01*
X174304000Y-49085000D01*
X174306000Y-49086000D01*
X174308000Y-49088000D01*
X174310000Y-49090000D01*
X174312000Y-49092000D01*
X174314000Y-49094000D01*
X174315000Y-49096000D01*
X174317000Y-49098000D01*
X174318000Y-49100000D01*
X174320000Y-49102000D01*
X174321000Y-49105000D01*
X174322000Y-49107000D01*
X174323000Y-49110000D01*
X174323000Y-49112000D01*
X174324000Y-49115000D01*
X174324000Y-49117000D01*
X174325000Y-49120000D01*
X174325000Y-49122000D01*
X174325000Y-49125000D01*
X174325000Y-49275000D01*
X174325000Y-49278000D01*
X174325000Y-49280000D01*
X174324000Y-49283000D01*
X174324000Y-49285000D01*
X174323000Y-49288000D01*
X174323000Y-49290000D01*
X174322000Y-49293000D01*
X174321000Y-49295000D01*
X174320000Y-49298000D01*
X174318000Y-49300000D01*
X174317000Y-49302000D01*
X174315000Y-49304000D01*
X174314000Y-49306000D01*
X174312000Y-49308000D01*
X174310000Y-49310000D01*
X174308000Y-49312000D01*
X174306000Y-49314000D01*
X174304000Y-49315000D01*
X174302000Y-49317000D01*
X174300000Y-49318000D01*
X174298000Y-49320000D01*
X174295000Y-49321000D01*
X174293000Y-49322000D01*
X174290000Y-49323000D01*
X174288000Y-49323000D01*
X174285000Y-49324000D01*
X174283000Y-49324000D01*
X174280000Y-49325000D01*
X174278000Y-49325000D01*
X174275000Y-49325000D01*
X174125000Y-49325000D01*
X174122000Y-49325000D01*
X174120000Y-49325000D01*
X174117000Y-49324000D01*
X174115000Y-49324000D01*
X174112000Y-49323000D01*
X174110000Y-49323000D01*
X174107000Y-49322000D01*
X174105000Y-49321000D01*
X174102000Y-49320000D01*
X174100000Y-49318000D01*
X174098000Y-49317000D01*
X174096000Y-49315000D01*
X174094000Y-49314000D01*
X174092000Y-49312000D01*
X174090000Y-49310000D01*
X174088000Y-49308000D01*
X174086000Y-49306000D01*
X174085000Y-49304000D01*
X174083000Y-49302000D01*
X174082000Y-49300000D01*
X174080000Y-49298000D01*
X174079000Y-49295000D01*
X174078000Y-49293000D01*
X174077000Y-49290000D01*
X174077000Y-49288000D01*
X174076000Y-49285000D01*
X174076000Y-49283000D01*
X174075000Y-49280000D01*
X174075000Y-49278000D01*
X174075000Y-49275000D01*
X174075000Y-49125000D01*
X174075000Y-49122000D01*
X174075000Y-49120000D01*
X174076000Y-49117000D01*
X174076000Y-49115000D01*
X174077000Y-49112000D01*
X174077000Y-49110000D01*
X174078000Y-49107000D01*
X174079000Y-49105000D01*
X174080000Y-49102000D01*
X174082000Y-49100000D01*
X174083000Y-49098000D01*
X174085000Y-49096000D01*
X174086000Y-49094000D01*
X174088000Y-49092000D01*
X174090000Y-49090000D01*
X174092000Y-49088000D01*
X174094000Y-49086000D01*
X174096000Y-49085000D01*
X174098000Y-49083000D01*
X174100000Y-49082000D01*
X174102000Y-49080000D01*
X174105000Y-49079000D01*
X174107000Y-49078000D01*
X174110000Y-49077000D01*
X174112000Y-49077000D01*
X174115000Y-49076000D01*
X174117000Y-49076000D01*
X174120000Y-49075000D01*
X174122000Y-49075000D01*
X174125000Y-49075000D01*
X174275000Y-49075000D01*
X174278000Y-49075000D01*
X174280000Y-49075000D01*
X174283000Y-49076000D01*
G37*
X174125000Y-49475000D02*
X174275000Y-49475000D01*
X174278000Y-49475000D01*
X174280000Y-49475000D01*
X174283000Y-49476000D01*
X174285000Y-49476000D01*
X174288000Y-49477000D01*
X174290000Y-49477000D01*
X174293000Y-49478000D01*
X174295000Y-49479000D01*
X174298000Y-49480000D01*
X174300000Y-49482000D01*
X174302000Y-49483000D01*
X174304000Y-49485000D01*
X174306000Y-49486000D01*
X174308000Y-49488000D01*
X174310000Y-49490000D01*
X174312000Y-49492000D01*
X174314000Y-49494000D01*
X174315000Y-49496000D01*
X174317000Y-49498000D01*
X174318000Y-49500000D01*
X174320000Y-49502000D01*
X174321000Y-49505000D01*
X174322000Y-49507000D01*
X174323000Y-49510000D01*
X174323000Y-49512000D01*
X174324000Y-49515000D01*
X174324000Y-49517000D01*
X174325000Y-49520000D01*
X174325000Y-49522000D01*
X174325000Y-49525000D01*
X174325000Y-49675000D01*
X174325000Y-49678000D01*
X174325000Y-49680000D01*
X174324000Y-49683000D01*
X174324000Y-49685000D01*
X174323000Y-49688000D01*
X174323000Y-49690000D01*
X174322000Y-49693000D01*
X174321000Y-49695000D01*
X174320000Y-49698000D01*
X174318000Y-49700000D01*
X174317000Y-49702000D01*
X174315000Y-49704000D01*
X174314000Y-49706000D01*
X174312000Y-49708000D01*
X174310000Y-49710000D01*
X174308000Y-49712000D01*
X174306000Y-49714000D01*
X174304000Y-49715000D01*
X174302000Y-49717000D01*
X174300000Y-49718000D01*
X174298000Y-49720000D01*
X174295000Y-49721000D01*
X174293000Y-49722000D01*
X174290000Y-49723000D01*
X174288000Y-49723000D01*
X174285000Y-49724000D01*
X174283000Y-49724000D01*
X174280000Y-49725000D01*
X174278000Y-49725000D01*
X174275000Y-49725000D01*
X174125000Y-49725000D01*
X174122000Y-49725000D01*
X174120000Y-49725000D01*
X174117000Y-49724000D01*
X174115000Y-49724000D01*
X174112000Y-49723000D01*
X174110000Y-49723000D01*
X174107000Y-49722000D01*
X174105000Y-49721000D01*
X174102000Y-49720000D01*
X174100000Y-49718000D01*
X174098000Y-49717000D01*
X174096000Y-49715000D01*
X174094000Y-49714000D01*
X174092000Y-49712000D01*
X174090000Y-49710000D01*
X174088000Y-49708000D01*
X174086000Y-49706000D01*
X174085000Y-49704000D01*
X174083000Y-49702000D01*
X174082000Y-49700000D01*
X174080000Y-49698000D01*
X174079000Y-49695000D01*
X174078000Y-49693000D01*
X174077000Y-49690000D01*
X174077000Y-49688000D01*
X174076000Y-49685000D01*
X174076000Y-49683000D01*
X174075000Y-49680000D01*
X174075000Y-49678000D01*
X174075000Y-49675000D01*
X174075000Y-49525000D01*
X174075000Y-49522000D01*
X174075000Y-49520000D01*
X174076000Y-49517000D01*
X174076000Y-49515000D01*
X174077000Y-49512000D01*
X174077000Y-49510000D01*
X174078000Y-49507000D01*
X174079000Y-49505000D01*
X174080000Y-49502000D01*
X174082000Y-49500000D01*
X174083000Y-49498000D01*
X174085000Y-49496000D01*
X174086000Y-49494000D01*
X174088000Y-49492000D01*
X174090000Y-49490000D01*
X174092000Y-49488000D01*
X174094000Y-49486000D01*
X174096000Y-49485000D01*
X174098000Y-49483000D01*
X174100000Y-49482000D01*
X174102000Y-49480000D01*
X174105000Y-49479000D01*
X174107000Y-49478000D01*
X174110000Y-49477000D01*
X174112000Y-49477000D01*
X174115000Y-49476000D01*
X174117000Y-49476000D01*
X174120000Y-49475000D01*
X174122000Y-49475000D01*
X174125000Y-49475000D01*
G36*
X174283000Y-49476000D02*
G01*
X174285000Y-49476000D01*
X174288000Y-49477000D01*
X174290000Y-49477000D01*
X174293000Y-49478000D01*
X174295000Y-49479000D01*
X174298000Y-49480000D01*
X174300000Y-49482000D01*
X174302000Y-49483000D01*
X174304000Y-49485000D01*
X174306000Y-49486000D01*
X174308000Y-49488000D01*
X174310000Y-49490000D01*
X174312000Y-49492000D01*
X174314000Y-49494000D01*
X174315000Y-49496000D01*
X174317000Y-49498000D01*
X174318000Y-49500000D01*
X174320000Y-49502000D01*
X174321000Y-49505000D01*
X174322000Y-49507000D01*
X174323000Y-49510000D01*
X174323000Y-49512000D01*
X174324000Y-49515000D01*
X174324000Y-49517000D01*
X174325000Y-49520000D01*
X174325000Y-49522000D01*
X174325000Y-49525000D01*
X174325000Y-49675000D01*
X174325000Y-49678000D01*
X174325000Y-49680000D01*
X174324000Y-49683000D01*
X174324000Y-49685000D01*
X174323000Y-49688000D01*
X174323000Y-49690000D01*
X174322000Y-49693000D01*
X174321000Y-49695000D01*
X174320000Y-49698000D01*
X174318000Y-49700000D01*
X174317000Y-49702000D01*
X174315000Y-49704000D01*
X174314000Y-49706000D01*
X174312000Y-49708000D01*
X174310000Y-49710000D01*
X174308000Y-49712000D01*
X174306000Y-49714000D01*
X174304000Y-49715000D01*
X174302000Y-49717000D01*
X174300000Y-49718000D01*
X174298000Y-49720000D01*
X174295000Y-49721000D01*
X174293000Y-49722000D01*
X174290000Y-49723000D01*
X174288000Y-49723000D01*
X174285000Y-49724000D01*
X174283000Y-49724000D01*
X174280000Y-49725000D01*
X174278000Y-49725000D01*
X174275000Y-49725000D01*
X174125000Y-49725000D01*
X174122000Y-49725000D01*
X174120000Y-49725000D01*
X174117000Y-49724000D01*
X174115000Y-49724000D01*
X174112000Y-49723000D01*
X174110000Y-49723000D01*
X174107000Y-49722000D01*
X174105000Y-49721000D01*
X174102000Y-49720000D01*
X174100000Y-49718000D01*
X174098000Y-49717000D01*
X174096000Y-49715000D01*
X174094000Y-49714000D01*
X174092000Y-49712000D01*
X174090000Y-49710000D01*
X174088000Y-49708000D01*
X174086000Y-49706000D01*
X174085000Y-49704000D01*
X174083000Y-49702000D01*
X174082000Y-49700000D01*
X174080000Y-49698000D01*
X174079000Y-49695000D01*
X174078000Y-49693000D01*
X174077000Y-49690000D01*
X174077000Y-49688000D01*
X174076000Y-49685000D01*
X174076000Y-49683000D01*
X174075000Y-49680000D01*
X174075000Y-49678000D01*
X174075000Y-49675000D01*
X174075000Y-49525000D01*
X174075000Y-49522000D01*
X174075000Y-49520000D01*
X174076000Y-49517000D01*
X174076000Y-49515000D01*
X174077000Y-49512000D01*
X174077000Y-49510000D01*
X174078000Y-49507000D01*
X174079000Y-49505000D01*
X174080000Y-49502000D01*
X174082000Y-49500000D01*
X174083000Y-49498000D01*
X174085000Y-49496000D01*
X174086000Y-49494000D01*
X174088000Y-49492000D01*
X174090000Y-49490000D01*
X174092000Y-49488000D01*
X174094000Y-49486000D01*
X174096000Y-49485000D01*
X174098000Y-49483000D01*
X174100000Y-49482000D01*
X174102000Y-49480000D01*
X174105000Y-49479000D01*
X174107000Y-49478000D01*
X174110000Y-49477000D01*
X174112000Y-49477000D01*
X174115000Y-49476000D01*
X174117000Y-49476000D01*
X174120000Y-49475000D01*
X174122000Y-49475000D01*
X174125000Y-49475000D01*
X174275000Y-49475000D01*
X174278000Y-49475000D01*
X174280000Y-49475000D01*
X174283000Y-49476000D01*
G37*
X174125000Y-49875000D02*
X174275000Y-49875000D01*
X174278000Y-49875000D01*
X174280000Y-49875000D01*
X174283000Y-49876000D01*
X174285000Y-49876000D01*
X174288000Y-49877000D01*
X174290000Y-49877000D01*
X174293000Y-49878000D01*
X174295000Y-49879000D01*
X174298000Y-49880000D01*
X174300000Y-49882000D01*
X174302000Y-49883000D01*
X174304000Y-49885000D01*
X174306000Y-49886000D01*
X174308000Y-49888000D01*
X174310000Y-49890000D01*
X174312000Y-49892000D01*
X174314000Y-49894000D01*
X174315000Y-49896000D01*
X174317000Y-49898000D01*
X174318000Y-49900000D01*
X174320000Y-49902000D01*
X174321000Y-49905000D01*
X174322000Y-49907000D01*
X174323000Y-49910000D01*
X174323000Y-49912000D01*
X174324000Y-49915000D01*
X174324000Y-49917000D01*
X174325000Y-49920000D01*
X174325000Y-49922000D01*
X174325000Y-49925000D01*
X174325000Y-50075000D01*
X174325000Y-50078000D01*
X174325000Y-50080000D01*
X174324000Y-50083000D01*
X174324000Y-50085000D01*
X174323000Y-50088000D01*
X174323000Y-50090000D01*
X174322000Y-50093000D01*
X174321000Y-50095000D01*
X174320000Y-50098000D01*
X174318000Y-50100000D01*
X174317000Y-50102000D01*
X174315000Y-50104000D01*
X174314000Y-50106000D01*
X174312000Y-50108000D01*
X174310000Y-50110000D01*
X174308000Y-50112000D01*
X174306000Y-50114000D01*
X174304000Y-50115000D01*
X174302000Y-50117000D01*
X174300000Y-50118000D01*
X174298000Y-50120000D01*
X174295000Y-50121000D01*
X174293000Y-50122000D01*
X174290000Y-50123000D01*
X174288000Y-50123000D01*
X174285000Y-50124000D01*
X174283000Y-50124000D01*
X174280000Y-50125000D01*
X174278000Y-50125000D01*
X174275000Y-50125000D01*
X174125000Y-50125000D01*
X174122000Y-50125000D01*
X174120000Y-50125000D01*
X174117000Y-50124000D01*
X174115000Y-50124000D01*
X174112000Y-50123000D01*
X174110000Y-50123000D01*
X174107000Y-50122000D01*
X174105000Y-50121000D01*
X174102000Y-50120000D01*
X174100000Y-50118000D01*
X174098000Y-50117000D01*
X174096000Y-50115000D01*
X174094000Y-50114000D01*
X174092000Y-50112000D01*
X174090000Y-50110000D01*
X174088000Y-50108000D01*
X174086000Y-50106000D01*
X174085000Y-50104000D01*
X174083000Y-50102000D01*
X174082000Y-50100000D01*
X174080000Y-50098000D01*
X174079000Y-50095000D01*
X174078000Y-50093000D01*
X174077000Y-50090000D01*
X174077000Y-50088000D01*
X174076000Y-50085000D01*
X174076000Y-50083000D01*
X174075000Y-50080000D01*
X174075000Y-50078000D01*
X174075000Y-50075000D01*
X174075000Y-49925000D01*
X174075000Y-49922000D01*
X174075000Y-49920000D01*
X174076000Y-49917000D01*
X174076000Y-49915000D01*
X174077000Y-49912000D01*
X174077000Y-49910000D01*
X174078000Y-49907000D01*
X174079000Y-49905000D01*
X174080000Y-49902000D01*
X174082000Y-49900000D01*
X174083000Y-49898000D01*
X174085000Y-49896000D01*
X174086000Y-49894000D01*
X174088000Y-49892000D01*
X174090000Y-49890000D01*
X174092000Y-49888000D01*
X174094000Y-49886000D01*
X174096000Y-49885000D01*
X174098000Y-49883000D01*
X174100000Y-49882000D01*
X174102000Y-49880000D01*
X174105000Y-49879000D01*
X174107000Y-49878000D01*
X174110000Y-49877000D01*
X174112000Y-49877000D01*
X174115000Y-49876000D01*
X174117000Y-49876000D01*
X174120000Y-49875000D01*
X174122000Y-49875000D01*
X174125000Y-49875000D01*
G36*
X174283000Y-49876000D02*
G01*
X174285000Y-49876000D01*
X174288000Y-49877000D01*
X174290000Y-49877000D01*
X174293000Y-49878000D01*
X174295000Y-49879000D01*
X174298000Y-49880000D01*
X174300000Y-49882000D01*
X174302000Y-49883000D01*
X174304000Y-49885000D01*
X174306000Y-49886000D01*
X174308000Y-49888000D01*
X174310000Y-49890000D01*
X174312000Y-49892000D01*
X174314000Y-49894000D01*
X174315000Y-49896000D01*
X174317000Y-49898000D01*
X174318000Y-49900000D01*
X174320000Y-49902000D01*
X174321000Y-49905000D01*
X174322000Y-49907000D01*
X174323000Y-49910000D01*
X174323000Y-49912000D01*
X174324000Y-49915000D01*
X174324000Y-49917000D01*
X174325000Y-49920000D01*
X174325000Y-49922000D01*
X174325000Y-49925000D01*
X174325000Y-50075000D01*
X174325000Y-50078000D01*
X174325000Y-50080000D01*
X174324000Y-50083000D01*
X174324000Y-50085000D01*
X174323000Y-50088000D01*
X174323000Y-50090000D01*
X174322000Y-50093000D01*
X174321000Y-50095000D01*
X174320000Y-50098000D01*
X174318000Y-50100000D01*
X174317000Y-50102000D01*
X174315000Y-50104000D01*
X174314000Y-50106000D01*
X174312000Y-50108000D01*
X174310000Y-50110000D01*
X174308000Y-50112000D01*
X174306000Y-50114000D01*
X174304000Y-50115000D01*
X174302000Y-50117000D01*
X174300000Y-50118000D01*
X174298000Y-50120000D01*
X174295000Y-50121000D01*
X174293000Y-50122000D01*
X174290000Y-50123000D01*
X174288000Y-50123000D01*
X174285000Y-50124000D01*
X174283000Y-50124000D01*
X174280000Y-50125000D01*
X174278000Y-50125000D01*
X174275000Y-50125000D01*
X174125000Y-50125000D01*
X174122000Y-50125000D01*
X174120000Y-50125000D01*
X174117000Y-50124000D01*
X174115000Y-50124000D01*
X174112000Y-50123000D01*
X174110000Y-50123000D01*
X174107000Y-50122000D01*
X174105000Y-50121000D01*
X174102000Y-50120000D01*
X174100000Y-50118000D01*
X174098000Y-50117000D01*
X174096000Y-50115000D01*
X174094000Y-50114000D01*
X174092000Y-50112000D01*
X174090000Y-50110000D01*
X174088000Y-50108000D01*
X174086000Y-50106000D01*
X174085000Y-50104000D01*
X174083000Y-50102000D01*
X174082000Y-50100000D01*
X174080000Y-50098000D01*
X174079000Y-50095000D01*
X174078000Y-50093000D01*
X174077000Y-50090000D01*
X174077000Y-50088000D01*
X174076000Y-50085000D01*
X174076000Y-50083000D01*
X174075000Y-50080000D01*
X174075000Y-50078000D01*
X174075000Y-50075000D01*
X174075000Y-49925000D01*
X174075000Y-49922000D01*
X174075000Y-49920000D01*
X174076000Y-49917000D01*
X174076000Y-49915000D01*
X174077000Y-49912000D01*
X174077000Y-49910000D01*
X174078000Y-49907000D01*
X174079000Y-49905000D01*
X174080000Y-49902000D01*
X174082000Y-49900000D01*
X174083000Y-49898000D01*
X174085000Y-49896000D01*
X174086000Y-49894000D01*
X174088000Y-49892000D01*
X174090000Y-49890000D01*
X174092000Y-49888000D01*
X174094000Y-49886000D01*
X174096000Y-49885000D01*
X174098000Y-49883000D01*
X174100000Y-49882000D01*
X174102000Y-49880000D01*
X174105000Y-49879000D01*
X174107000Y-49878000D01*
X174110000Y-49877000D01*
X174112000Y-49877000D01*
X174115000Y-49876000D01*
X174117000Y-49876000D01*
X174120000Y-49875000D01*
X174122000Y-49875000D01*
X174125000Y-49875000D01*
X174275000Y-49875000D01*
X174278000Y-49875000D01*
X174280000Y-49875000D01*
X174283000Y-49876000D01*
G37*
X174525000Y-48275000D02*
X174675000Y-48275000D01*
X174678000Y-48275000D01*
X174680000Y-48275000D01*
X174683000Y-48276000D01*
X174685000Y-48276000D01*
X174688000Y-48277000D01*
X174690000Y-48277000D01*
X174693000Y-48278000D01*
X174695000Y-48279000D01*
X174698000Y-48280000D01*
X174700000Y-48282000D01*
X174702000Y-48283000D01*
X174704000Y-48285000D01*
X174706000Y-48286000D01*
X174708000Y-48288000D01*
X174710000Y-48290000D01*
X174712000Y-48292000D01*
X174714000Y-48294000D01*
X174715000Y-48296000D01*
X174717000Y-48298000D01*
X174718000Y-48300000D01*
X174720000Y-48302000D01*
X174721000Y-48305000D01*
X174722000Y-48307000D01*
X174723000Y-48310000D01*
X174723000Y-48312000D01*
X174724000Y-48315000D01*
X174724000Y-48317000D01*
X174725000Y-48320000D01*
X174725000Y-48322000D01*
X174725000Y-48325000D01*
X174725000Y-48475000D01*
X174725000Y-48478000D01*
X174725000Y-48480000D01*
X174724000Y-48483000D01*
X174724000Y-48485000D01*
X174723000Y-48488000D01*
X174723000Y-48490000D01*
X174722000Y-48493000D01*
X174721000Y-48495000D01*
X174720000Y-48498000D01*
X174718000Y-48500000D01*
X174717000Y-48502000D01*
X174715000Y-48504000D01*
X174714000Y-48506000D01*
X174712000Y-48508000D01*
X174710000Y-48510000D01*
X174708000Y-48512000D01*
X174706000Y-48514000D01*
X174704000Y-48515000D01*
X174702000Y-48517000D01*
X174700000Y-48518000D01*
X174698000Y-48520000D01*
X174695000Y-48521000D01*
X174693000Y-48522000D01*
X174690000Y-48523000D01*
X174688000Y-48523000D01*
X174685000Y-48524000D01*
X174683000Y-48524000D01*
X174680000Y-48525000D01*
X174678000Y-48525000D01*
X174675000Y-48525000D01*
X174525000Y-48525000D01*
X174522000Y-48525000D01*
X174520000Y-48525000D01*
X174517000Y-48524000D01*
X174515000Y-48524000D01*
X174512000Y-48523000D01*
X174510000Y-48523000D01*
X174507000Y-48522000D01*
X174505000Y-48521000D01*
X174502000Y-48520000D01*
X174500000Y-48518000D01*
X174498000Y-48517000D01*
X174496000Y-48515000D01*
X174494000Y-48514000D01*
X174492000Y-48512000D01*
X174490000Y-48510000D01*
X174488000Y-48508000D01*
X174486000Y-48506000D01*
X174485000Y-48504000D01*
X174483000Y-48502000D01*
X174482000Y-48500000D01*
X174480000Y-48498000D01*
X174479000Y-48495000D01*
X174478000Y-48493000D01*
X174477000Y-48490000D01*
X174477000Y-48488000D01*
X174476000Y-48485000D01*
X174476000Y-48483000D01*
X174475000Y-48480000D01*
X174475000Y-48478000D01*
X174475000Y-48475000D01*
X174475000Y-48325000D01*
X174475000Y-48322000D01*
X174475000Y-48320000D01*
X174476000Y-48317000D01*
X174476000Y-48315000D01*
X174477000Y-48312000D01*
X174477000Y-48310000D01*
X174478000Y-48307000D01*
X174479000Y-48305000D01*
X174480000Y-48302000D01*
X174482000Y-48300000D01*
X174483000Y-48298000D01*
X174485000Y-48296000D01*
X174486000Y-48294000D01*
X174488000Y-48292000D01*
X174490000Y-48290000D01*
X174492000Y-48288000D01*
X174494000Y-48286000D01*
X174496000Y-48285000D01*
X174498000Y-48283000D01*
X174500000Y-48282000D01*
X174502000Y-48280000D01*
X174505000Y-48279000D01*
X174507000Y-48278000D01*
X174510000Y-48277000D01*
X174512000Y-48277000D01*
X174515000Y-48276000D01*
X174517000Y-48276000D01*
X174520000Y-48275000D01*
X174522000Y-48275000D01*
X174525000Y-48275000D01*
G36*
X174683000Y-48276000D02*
G01*
X174685000Y-48276000D01*
X174688000Y-48277000D01*
X174690000Y-48277000D01*
X174693000Y-48278000D01*
X174695000Y-48279000D01*
X174698000Y-48280000D01*
X174700000Y-48282000D01*
X174702000Y-48283000D01*
X174704000Y-48285000D01*
X174706000Y-48286000D01*
X174708000Y-48288000D01*
X174710000Y-48290000D01*
X174712000Y-48292000D01*
X174714000Y-48294000D01*
X174715000Y-48296000D01*
X174717000Y-48298000D01*
X174718000Y-48300000D01*
X174720000Y-48302000D01*
X174721000Y-48305000D01*
X174722000Y-48307000D01*
X174723000Y-48310000D01*
X174723000Y-48312000D01*
X174724000Y-48315000D01*
X174724000Y-48317000D01*
X174725000Y-48320000D01*
X174725000Y-48322000D01*
X174725000Y-48325000D01*
X174725000Y-48475000D01*
X174725000Y-48478000D01*
X174725000Y-48480000D01*
X174724000Y-48483000D01*
X174724000Y-48485000D01*
X174723000Y-48488000D01*
X174723000Y-48490000D01*
X174722000Y-48493000D01*
X174721000Y-48495000D01*
X174720000Y-48498000D01*
X174718000Y-48500000D01*
X174717000Y-48502000D01*
X174715000Y-48504000D01*
X174714000Y-48506000D01*
X174712000Y-48508000D01*
X174710000Y-48510000D01*
X174708000Y-48512000D01*
X174706000Y-48514000D01*
X174704000Y-48515000D01*
X174702000Y-48517000D01*
X174700000Y-48518000D01*
X174698000Y-48520000D01*
X174695000Y-48521000D01*
X174693000Y-48522000D01*
X174690000Y-48523000D01*
X174688000Y-48523000D01*
X174685000Y-48524000D01*
X174683000Y-48524000D01*
X174680000Y-48525000D01*
X174678000Y-48525000D01*
X174675000Y-48525000D01*
X174525000Y-48525000D01*
X174522000Y-48525000D01*
X174520000Y-48525000D01*
X174517000Y-48524000D01*
X174515000Y-48524000D01*
X174512000Y-48523000D01*
X174510000Y-48523000D01*
X174507000Y-48522000D01*
X174505000Y-48521000D01*
X174502000Y-48520000D01*
X174500000Y-48518000D01*
X174498000Y-48517000D01*
X174496000Y-48515000D01*
X174494000Y-48514000D01*
X174492000Y-48512000D01*
X174490000Y-48510000D01*
X174488000Y-48508000D01*
X174486000Y-48506000D01*
X174485000Y-48504000D01*
X174483000Y-48502000D01*
X174482000Y-48500000D01*
X174480000Y-48498000D01*
X174479000Y-48495000D01*
X174478000Y-48493000D01*
X174477000Y-48490000D01*
X174477000Y-48488000D01*
X174476000Y-48485000D01*
X174476000Y-48483000D01*
X174475000Y-48480000D01*
X174475000Y-48478000D01*
X174475000Y-48475000D01*
X174475000Y-48325000D01*
X174475000Y-48322000D01*
X174475000Y-48320000D01*
X174476000Y-48317000D01*
X174476000Y-48315000D01*
X174477000Y-48312000D01*
X174477000Y-48310000D01*
X174478000Y-48307000D01*
X174479000Y-48305000D01*
X174480000Y-48302000D01*
X174482000Y-48300000D01*
X174483000Y-48298000D01*
X174485000Y-48296000D01*
X174486000Y-48294000D01*
X174488000Y-48292000D01*
X174490000Y-48290000D01*
X174492000Y-48288000D01*
X174494000Y-48286000D01*
X174496000Y-48285000D01*
X174498000Y-48283000D01*
X174500000Y-48282000D01*
X174502000Y-48280000D01*
X174505000Y-48279000D01*
X174507000Y-48278000D01*
X174510000Y-48277000D01*
X174512000Y-48277000D01*
X174515000Y-48276000D01*
X174517000Y-48276000D01*
X174520000Y-48275000D01*
X174522000Y-48275000D01*
X174525000Y-48275000D01*
X174675000Y-48275000D01*
X174678000Y-48275000D01*
X174680000Y-48275000D01*
X174683000Y-48276000D01*
G37*
X174525000Y-48675000D02*
X174675000Y-48675000D01*
X174678000Y-48675000D01*
X174680000Y-48675000D01*
X174683000Y-48676000D01*
X174685000Y-48676000D01*
X174688000Y-48677000D01*
X174690000Y-48677000D01*
X174693000Y-48678000D01*
X174695000Y-48679000D01*
X174698000Y-48680000D01*
X174700000Y-48682000D01*
X174702000Y-48683000D01*
X174704000Y-48685000D01*
X174706000Y-48686000D01*
X174708000Y-48688000D01*
X174710000Y-48690000D01*
X174712000Y-48692000D01*
X174714000Y-48694000D01*
X174715000Y-48696000D01*
X174717000Y-48698000D01*
X174718000Y-48700000D01*
X174720000Y-48702000D01*
X174721000Y-48705000D01*
X174722000Y-48707000D01*
X174723000Y-48710000D01*
X174723000Y-48712000D01*
X174724000Y-48715000D01*
X174724000Y-48717000D01*
X174725000Y-48720000D01*
X174725000Y-48722000D01*
X174725000Y-48725000D01*
X174725000Y-48875000D01*
X174725000Y-48878000D01*
X174725000Y-48880000D01*
X174724000Y-48883000D01*
X174724000Y-48885000D01*
X174723000Y-48888000D01*
X174723000Y-48890000D01*
X174722000Y-48893000D01*
X174721000Y-48895000D01*
X174720000Y-48898000D01*
X174718000Y-48900000D01*
X174717000Y-48902000D01*
X174715000Y-48904000D01*
X174714000Y-48906000D01*
X174712000Y-48908000D01*
X174710000Y-48910000D01*
X174708000Y-48912000D01*
X174706000Y-48914000D01*
X174704000Y-48915000D01*
X174702000Y-48917000D01*
X174700000Y-48918000D01*
X174698000Y-48920000D01*
X174695000Y-48921000D01*
X174693000Y-48922000D01*
X174690000Y-48923000D01*
X174688000Y-48923000D01*
X174685000Y-48924000D01*
X174683000Y-48924000D01*
X174680000Y-48925000D01*
X174678000Y-48925000D01*
X174675000Y-48925000D01*
X174525000Y-48925000D01*
X174522000Y-48925000D01*
X174520000Y-48925000D01*
X174517000Y-48924000D01*
X174515000Y-48924000D01*
X174512000Y-48923000D01*
X174510000Y-48923000D01*
X174507000Y-48922000D01*
X174505000Y-48921000D01*
X174502000Y-48920000D01*
X174500000Y-48918000D01*
X174498000Y-48917000D01*
X174496000Y-48915000D01*
X174494000Y-48914000D01*
X174492000Y-48912000D01*
X174490000Y-48910000D01*
X174488000Y-48908000D01*
X174486000Y-48906000D01*
X174485000Y-48904000D01*
X174483000Y-48902000D01*
X174482000Y-48900000D01*
X174480000Y-48898000D01*
X174479000Y-48895000D01*
X174478000Y-48893000D01*
X174477000Y-48890000D01*
X174477000Y-48888000D01*
X174476000Y-48885000D01*
X174476000Y-48883000D01*
X174475000Y-48880000D01*
X174475000Y-48878000D01*
X174475000Y-48875000D01*
X174475000Y-48725000D01*
X174475000Y-48722000D01*
X174475000Y-48720000D01*
X174476000Y-48717000D01*
X174476000Y-48715000D01*
X174477000Y-48712000D01*
X174477000Y-48710000D01*
X174478000Y-48707000D01*
X174479000Y-48705000D01*
X174480000Y-48702000D01*
X174482000Y-48700000D01*
X174483000Y-48698000D01*
X174485000Y-48696000D01*
X174486000Y-48694000D01*
X174488000Y-48692000D01*
X174490000Y-48690000D01*
X174492000Y-48688000D01*
X174494000Y-48686000D01*
X174496000Y-48685000D01*
X174498000Y-48683000D01*
X174500000Y-48682000D01*
X174502000Y-48680000D01*
X174505000Y-48679000D01*
X174507000Y-48678000D01*
X174510000Y-48677000D01*
X174512000Y-48677000D01*
X174515000Y-48676000D01*
X174517000Y-48676000D01*
X174520000Y-48675000D01*
X174522000Y-48675000D01*
X174525000Y-48675000D01*
G36*
X174683000Y-48676000D02*
G01*
X174685000Y-48676000D01*
X174688000Y-48677000D01*
X174690000Y-48677000D01*
X174693000Y-48678000D01*
X174695000Y-48679000D01*
X174698000Y-48680000D01*
X174700000Y-48682000D01*
X174702000Y-48683000D01*
X174704000Y-48685000D01*
X174706000Y-48686000D01*
X174708000Y-48688000D01*
X174710000Y-48690000D01*
X174712000Y-48692000D01*
X174714000Y-48694000D01*
X174715000Y-48696000D01*
X174717000Y-48698000D01*
X174718000Y-48700000D01*
X174720000Y-48702000D01*
X174721000Y-48705000D01*
X174722000Y-48707000D01*
X174723000Y-48710000D01*
X174723000Y-48712000D01*
X174724000Y-48715000D01*
X174724000Y-48717000D01*
X174725000Y-48720000D01*
X174725000Y-48722000D01*
X174725000Y-48725000D01*
X174725000Y-48875000D01*
X174725000Y-48878000D01*
X174725000Y-48880000D01*
X174724000Y-48883000D01*
X174724000Y-48885000D01*
X174723000Y-48888000D01*
X174723000Y-48890000D01*
X174722000Y-48893000D01*
X174721000Y-48895000D01*
X174720000Y-48898000D01*
X174718000Y-48900000D01*
X174717000Y-48902000D01*
X174715000Y-48904000D01*
X174714000Y-48906000D01*
X174712000Y-48908000D01*
X174710000Y-48910000D01*
X174708000Y-48912000D01*
X174706000Y-48914000D01*
X174704000Y-48915000D01*
X174702000Y-48917000D01*
X174700000Y-48918000D01*
X174698000Y-48920000D01*
X174695000Y-48921000D01*
X174693000Y-48922000D01*
X174690000Y-48923000D01*
X174688000Y-48923000D01*
X174685000Y-48924000D01*
X174683000Y-48924000D01*
X174680000Y-48925000D01*
X174678000Y-48925000D01*
X174675000Y-48925000D01*
X174525000Y-48925000D01*
X174522000Y-48925000D01*
X174520000Y-48925000D01*
X174517000Y-48924000D01*
X174515000Y-48924000D01*
X174512000Y-48923000D01*
X174510000Y-48923000D01*
X174507000Y-48922000D01*
X174505000Y-48921000D01*
X174502000Y-48920000D01*
X174500000Y-48918000D01*
X174498000Y-48917000D01*
X174496000Y-48915000D01*
X174494000Y-48914000D01*
X174492000Y-48912000D01*
X174490000Y-48910000D01*
X174488000Y-48908000D01*
X174486000Y-48906000D01*
X174485000Y-48904000D01*
X174483000Y-48902000D01*
X174482000Y-48900000D01*
X174480000Y-48898000D01*
X174479000Y-48895000D01*
X174478000Y-48893000D01*
X174477000Y-48890000D01*
X174477000Y-48888000D01*
X174476000Y-48885000D01*
X174476000Y-48883000D01*
X174475000Y-48880000D01*
X174475000Y-48878000D01*
X174475000Y-48875000D01*
X174475000Y-48725000D01*
X174475000Y-48722000D01*
X174475000Y-48720000D01*
X174476000Y-48717000D01*
X174476000Y-48715000D01*
X174477000Y-48712000D01*
X174477000Y-48710000D01*
X174478000Y-48707000D01*
X174479000Y-48705000D01*
X174480000Y-48702000D01*
X174482000Y-48700000D01*
X174483000Y-48698000D01*
X174485000Y-48696000D01*
X174486000Y-48694000D01*
X174488000Y-48692000D01*
X174490000Y-48690000D01*
X174492000Y-48688000D01*
X174494000Y-48686000D01*
X174496000Y-48685000D01*
X174498000Y-48683000D01*
X174500000Y-48682000D01*
X174502000Y-48680000D01*
X174505000Y-48679000D01*
X174507000Y-48678000D01*
X174510000Y-48677000D01*
X174512000Y-48677000D01*
X174515000Y-48676000D01*
X174517000Y-48676000D01*
X174520000Y-48675000D01*
X174522000Y-48675000D01*
X174525000Y-48675000D01*
X174675000Y-48675000D01*
X174678000Y-48675000D01*
X174680000Y-48675000D01*
X174683000Y-48676000D01*
G37*
X174525000Y-49075000D02*
X174675000Y-49075000D01*
X174678000Y-49075000D01*
X174680000Y-49075000D01*
X174683000Y-49076000D01*
X174685000Y-49076000D01*
X174688000Y-49077000D01*
X174690000Y-49077000D01*
X174693000Y-49078000D01*
X174695000Y-49079000D01*
X174698000Y-49080000D01*
X174700000Y-49082000D01*
X174702000Y-49083000D01*
X174704000Y-49085000D01*
X174706000Y-49086000D01*
X174708000Y-49088000D01*
X174710000Y-49090000D01*
X174712000Y-49092000D01*
X174714000Y-49094000D01*
X174715000Y-49096000D01*
X174717000Y-49098000D01*
X174718000Y-49100000D01*
X174720000Y-49102000D01*
X174721000Y-49105000D01*
X174722000Y-49107000D01*
X174723000Y-49110000D01*
X174723000Y-49112000D01*
X174724000Y-49115000D01*
X174724000Y-49117000D01*
X174725000Y-49120000D01*
X174725000Y-49122000D01*
X174725000Y-49125000D01*
X174725000Y-49275000D01*
X174725000Y-49278000D01*
X174725000Y-49280000D01*
X174724000Y-49283000D01*
X174724000Y-49285000D01*
X174723000Y-49288000D01*
X174723000Y-49290000D01*
X174722000Y-49293000D01*
X174721000Y-49295000D01*
X174720000Y-49298000D01*
X174718000Y-49300000D01*
X174717000Y-49302000D01*
X174715000Y-49304000D01*
X174714000Y-49306000D01*
X174712000Y-49308000D01*
X174710000Y-49310000D01*
X174708000Y-49312000D01*
X174706000Y-49314000D01*
X174704000Y-49315000D01*
X174702000Y-49317000D01*
X174700000Y-49318000D01*
X174698000Y-49320000D01*
X174695000Y-49321000D01*
X174693000Y-49322000D01*
X174690000Y-49323000D01*
X174688000Y-49323000D01*
X174685000Y-49324000D01*
X174683000Y-49324000D01*
X174680000Y-49325000D01*
X174678000Y-49325000D01*
X174675000Y-49325000D01*
X174525000Y-49325000D01*
X174522000Y-49325000D01*
X174520000Y-49325000D01*
X174517000Y-49324000D01*
X174515000Y-49324000D01*
X174512000Y-49323000D01*
X174510000Y-49323000D01*
X174507000Y-49322000D01*
X174505000Y-49321000D01*
X174502000Y-49320000D01*
X174500000Y-49318000D01*
X174498000Y-49317000D01*
X174496000Y-49315000D01*
X174494000Y-49314000D01*
X174492000Y-49312000D01*
X174490000Y-49310000D01*
X174488000Y-49308000D01*
X174486000Y-49306000D01*
X174485000Y-49304000D01*
X174483000Y-49302000D01*
X174482000Y-49300000D01*
X174480000Y-49298000D01*
X174479000Y-49295000D01*
X174478000Y-49293000D01*
X174477000Y-49290000D01*
X174477000Y-49288000D01*
X174476000Y-49285000D01*
X174476000Y-49283000D01*
X174475000Y-49280000D01*
X174475000Y-49278000D01*
X174475000Y-49275000D01*
X174475000Y-49125000D01*
X174475000Y-49122000D01*
X174475000Y-49120000D01*
X174476000Y-49117000D01*
X174476000Y-49115000D01*
X174477000Y-49112000D01*
X174477000Y-49110000D01*
X174478000Y-49107000D01*
X174479000Y-49105000D01*
X174480000Y-49102000D01*
X174482000Y-49100000D01*
X174483000Y-49098000D01*
X174485000Y-49096000D01*
X174486000Y-49094000D01*
X174488000Y-49092000D01*
X174490000Y-49090000D01*
X174492000Y-49088000D01*
X174494000Y-49086000D01*
X174496000Y-49085000D01*
X174498000Y-49083000D01*
X174500000Y-49082000D01*
X174502000Y-49080000D01*
X174505000Y-49079000D01*
X174507000Y-49078000D01*
X174510000Y-49077000D01*
X174512000Y-49077000D01*
X174515000Y-49076000D01*
X174517000Y-49076000D01*
X174520000Y-49075000D01*
X174522000Y-49075000D01*
X174525000Y-49075000D01*
G36*
X174683000Y-49076000D02*
G01*
X174685000Y-49076000D01*
X174688000Y-49077000D01*
X174690000Y-49077000D01*
X174693000Y-49078000D01*
X174695000Y-49079000D01*
X174698000Y-49080000D01*
X174700000Y-49082000D01*
X174702000Y-49083000D01*
X174704000Y-49085000D01*
X174706000Y-49086000D01*
X174708000Y-49088000D01*
X174710000Y-49090000D01*
X174712000Y-49092000D01*
X174714000Y-49094000D01*
X174715000Y-49096000D01*
X174717000Y-49098000D01*
X174718000Y-49100000D01*
X174720000Y-49102000D01*
X174721000Y-49105000D01*
X174722000Y-49107000D01*
X174723000Y-49110000D01*
X174723000Y-49112000D01*
X174724000Y-49115000D01*
X174724000Y-49117000D01*
X174725000Y-49120000D01*
X174725000Y-49122000D01*
X174725000Y-49125000D01*
X174725000Y-49275000D01*
X174725000Y-49278000D01*
X174725000Y-49280000D01*
X174724000Y-49283000D01*
X174724000Y-49285000D01*
X174723000Y-49288000D01*
X174723000Y-49290000D01*
X174722000Y-49293000D01*
X174721000Y-49295000D01*
X174720000Y-49298000D01*
X174718000Y-49300000D01*
X174717000Y-49302000D01*
X174715000Y-49304000D01*
X174714000Y-49306000D01*
X174712000Y-49308000D01*
X174710000Y-49310000D01*
X174708000Y-49312000D01*
X174706000Y-49314000D01*
X174704000Y-49315000D01*
X174702000Y-49317000D01*
X174700000Y-49318000D01*
X174698000Y-49320000D01*
X174695000Y-49321000D01*
X174693000Y-49322000D01*
X174690000Y-49323000D01*
X174688000Y-49323000D01*
X174685000Y-49324000D01*
X174683000Y-49324000D01*
X174680000Y-49325000D01*
X174678000Y-49325000D01*
X174675000Y-49325000D01*
X174525000Y-49325000D01*
X174522000Y-49325000D01*
X174520000Y-49325000D01*
X174517000Y-49324000D01*
X174515000Y-49324000D01*
X174512000Y-49323000D01*
X174510000Y-49323000D01*
X174507000Y-49322000D01*
X174505000Y-49321000D01*
X174502000Y-49320000D01*
X174500000Y-49318000D01*
X174498000Y-49317000D01*
X174496000Y-49315000D01*
X174494000Y-49314000D01*
X174492000Y-49312000D01*
X174490000Y-49310000D01*
X174488000Y-49308000D01*
X174486000Y-49306000D01*
X174485000Y-49304000D01*
X174483000Y-49302000D01*
X174482000Y-49300000D01*
X174480000Y-49298000D01*
X174479000Y-49295000D01*
X174478000Y-49293000D01*
X174477000Y-49290000D01*
X174477000Y-49288000D01*
X174476000Y-49285000D01*
X174476000Y-49283000D01*
X174475000Y-49280000D01*
X174475000Y-49278000D01*
X174475000Y-49275000D01*
X174475000Y-49125000D01*
X174475000Y-49122000D01*
X174475000Y-49120000D01*
X174476000Y-49117000D01*
X174476000Y-49115000D01*
X174477000Y-49112000D01*
X174477000Y-49110000D01*
X174478000Y-49107000D01*
X174479000Y-49105000D01*
X174480000Y-49102000D01*
X174482000Y-49100000D01*
X174483000Y-49098000D01*
X174485000Y-49096000D01*
X174486000Y-49094000D01*
X174488000Y-49092000D01*
X174490000Y-49090000D01*
X174492000Y-49088000D01*
X174494000Y-49086000D01*
X174496000Y-49085000D01*
X174498000Y-49083000D01*
X174500000Y-49082000D01*
X174502000Y-49080000D01*
X174505000Y-49079000D01*
X174507000Y-49078000D01*
X174510000Y-49077000D01*
X174512000Y-49077000D01*
X174515000Y-49076000D01*
X174517000Y-49076000D01*
X174520000Y-49075000D01*
X174522000Y-49075000D01*
X174525000Y-49075000D01*
X174675000Y-49075000D01*
X174678000Y-49075000D01*
X174680000Y-49075000D01*
X174683000Y-49076000D01*
G37*
X174525000Y-49475000D02*
X174675000Y-49475000D01*
X174678000Y-49475000D01*
X174680000Y-49475000D01*
X174683000Y-49476000D01*
X174685000Y-49476000D01*
X174688000Y-49477000D01*
X174690000Y-49477000D01*
X174693000Y-49478000D01*
X174695000Y-49479000D01*
X174698000Y-49480000D01*
X174700000Y-49482000D01*
X174702000Y-49483000D01*
X174704000Y-49485000D01*
X174706000Y-49486000D01*
X174708000Y-49488000D01*
X174710000Y-49490000D01*
X174712000Y-49492000D01*
X174714000Y-49494000D01*
X174715000Y-49496000D01*
X174717000Y-49498000D01*
X174718000Y-49500000D01*
X174720000Y-49502000D01*
X174721000Y-49505000D01*
X174722000Y-49507000D01*
X174723000Y-49510000D01*
X174723000Y-49512000D01*
X174724000Y-49515000D01*
X174724000Y-49517000D01*
X174725000Y-49520000D01*
X174725000Y-49522000D01*
X174725000Y-49525000D01*
X174725000Y-49675000D01*
X174725000Y-49678000D01*
X174725000Y-49680000D01*
X174724000Y-49683000D01*
X174724000Y-49685000D01*
X174723000Y-49688000D01*
X174723000Y-49690000D01*
X174722000Y-49693000D01*
X174721000Y-49695000D01*
X174720000Y-49698000D01*
X174718000Y-49700000D01*
X174717000Y-49702000D01*
X174715000Y-49704000D01*
X174714000Y-49706000D01*
X174712000Y-49708000D01*
X174710000Y-49710000D01*
X174708000Y-49712000D01*
X174706000Y-49714000D01*
X174704000Y-49715000D01*
X174702000Y-49717000D01*
X174700000Y-49718000D01*
X174698000Y-49720000D01*
X174695000Y-49721000D01*
X174693000Y-49722000D01*
X174690000Y-49723000D01*
X174688000Y-49723000D01*
X174685000Y-49724000D01*
X174683000Y-49724000D01*
X174680000Y-49725000D01*
X174678000Y-49725000D01*
X174675000Y-49725000D01*
X174525000Y-49725000D01*
X174522000Y-49725000D01*
X174520000Y-49725000D01*
X174517000Y-49724000D01*
X174515000Y-49724000D01*
X174512000Y-49723000D01*
X174510000Y-49723000D01*
X174507000Y-49722000D01*
X174505000Y-49721000D01*
X174502000Y-49720000D01*
X174500000Y-49718000D01*
X174498000Y-49717000D01*
X174496000Y-49715000D01*
X174494000Y-49714000D01*
X174492000Y-49712000D01*
X174490000Y-49710000D01*
X174488000Y-49708000D01*
X174486000Y-49706000D01*
X174485000Y-49704000D01*
X174483000Y-49702000D01*
X174482000Y-49700000D01*
X174480000Y-49698000D01*
X174479000Y-49695000D01*
X174478000Y-49693000D01*
X174477000Y-49690000D01*
X174477000Y-49688000D01*
X174476000Y-49685000D01*
X174476000Y-49683000D01*
X174475000Y-49680000D01*
X174475000Y-49678000D01*
X174475000Y-49675000D01*
X174475000Y-49525000D01*
X174475000Y-49522000D01*
X174475000Y-49520000D01*
X174476000Y-49517000D01*
X174476000Y-49515000D01*
X174477000Y-49512000D01*
X174477000Y-49510000D01*
X174478000Y-49507000D01*
X174479000Y-49505000D01*
X174480000Y-49502000D01*
X174482000Y-49500000D01*
X174483000Y-49498000D01*
X174485000Y-49496000D01*
X174486000Y-49494000D01*
X174488000Y-49492000D01*
X174490000Y-49490000D01*
X174492000Y-49488000D01*
X174494000Y-49486000D01*
X174496000Y-49485000D01*
X174498000Y-49483000D01*
X174500000Y-49482000D01*
X174502000Y-49480000D01*
X174505000Y-49479000D01*
X174507000Y-49478000D01*
X174510000Y-49477000D01*
X174512000Y-49477000D01*
X174515000Y-49476000D01*
X174517000Y-49476000D01*
X174520000Y-49475000D01*
X174522000Y-49475000D01*
X174525000Y-49475000D01*
G36*
X174683000Y-49476000D02*
G01*
X174685000Y-49476000D01*
X174688000Y-49477000D01*
X174690000Y-49477000D01*
X174693000Y-49478000D01*
X174695000Y-49479000D01*
X174698000Y-49480000D01*
X174700000Y-49482000D01*
X174702000Y-49483000D01*
X174704000Y-49485000D01*
X174706000Y-49486000D01*
X174708000Y-49488000D01*
X174710000Y-49490000D01*
X174712000Y-49492000D01*
X174714000Y-49494000D01*
X174715000Y-49496000D01*
X174717000Y-49498000D01*
X174718000Y-49500000D01*
X174720000Y-49502000D01*
X174721000Y-49505000D01*
X174722000Y-49507000D01*
X174723000Y-49510000D01*
X174723000Y-49512000D01*
X174724000Y-49515000D01*
X174724000Y-49517000D01*
X174725000Y-49520000D01*
X174725000Y-49522000D01*
X174725000Y-49525000D01*
X174725000Y-49675000D01*
X174725000Y-49678000D01*
X174725000Y-49680000D01*
X174724000Y-49683000D01*
X174724000Y-49685000D01*
X174723000Y-49688000D01*
X174723000Y-49690000D01*
X174722000Y-49693000D01*
X174721000Y-49695000D01*
X174720000Y-49698000D01*
X174718000Y-49700000D01*
X174717000Y-49702000D01*
X174715000Y-49704000D01*
X174714000Y-49706000D01*
X174712000Y-49708000D01*
X174710000Y-49710000D01*
X174708000Y-49712000D01*
X174706000Y-49714000D01*
X174704000Y-49715000D01*
X174702000Y-49717000D01*
X174700000Y-49718000D01*
X174698000Y-49720000D01*
X174695000Y-49721000D01*
X174693000Y-49722000D01*
X174690000Y-49723000D01*
X174688000Y-49723000D01*
X174685000Y-49724000D01*
X174683000Y-49724000D01*
X174680000Y-49725000D01*
X174678000Y-49725000D01*
X174675000Y-49725000D01*
X174525000Y-49725000D01*
X174522000Y-49725000D01*
X174520000Y-49725000D01*
X174517000Y-49724000D01*
X174515000Y-49724000D01*
X174512000Y-49723000D01*
X174510000Y-49723000D01*
X174507000Y-49722000D01*
X174505000Y-49721000D01*
X174502000Y-49720000D01*
X174500000Y-49718000D01*
X174498000Y-49717000D01*
X174496000Y-49715000D01*
X174494000Y-49714000D01*
X174492000Y-49712000D01*
X174490000Y-49710000D01*
X174488000Y-49708000D01*
X174486000Y-49706000D01*
X174485000Y-49704000D01*
X174483000Y-49702000D01*
X174482000Y-49700000D01*
X174480000Y-49698000D01*
X174479000Y-49695000D01*
X174478000Y-49693000D01*
X174477000Y-49690000D01*
X174477000Y-49688000D01*
X174476000Y-49685000D01*
X174476000Y-49683000D01*
X174475000Y-49680000D01*
X174475000Y-49678000D01*
X174475000Y-49675000D01*
X174475000Y-49525000D01*
X174475000Y-49522000D01*
X174475000Y-49520000D01*
X174476000Y-49517000D01*
X174476000Y-49515000D01*
X174477000Y-49512000D01*
X174477000Y-49510000D01*
X174478000Y-49507000D01*
X174479000Y-49505000D01*
X174480000Y-49502000D01*
X174482000Y-49500000D01*
X174483000Y-49498000D01*
X174485000Y-49496000D01*
X174486000Y-49494000D01*
X174488000Y-49492000D01*
X174490000Y-49490000D01*
X174492000Y-49488000D01*
X174494000Y-49486000D01*
X174496000Y-49485000D01*
X174498000Y-49483000D01*
X174500000Y-49482000D01*
X174502000Y-49480000D01*
X174505000Y-49479000D01*
X174507000Y-49478000D01*
X174510000Y-49477000D01*
X174512000Y-49477000D01*
X174515000Y-49476000D01*
X174517000Y-49476000D01*
X174520000Y-49475000D01*
X174522000Y-49475000D01*
X174525000Y-49475000D01*
X174675000Y-49475000D01*
X174678000Y-49475000D01*
X174680000Y-49475000D01*
X174683000Y-49476000D01*
G37*
X174525000Y-49875000D02*
X174675000Y-49875000D01*
X174678000Y-49875000D01*
X174680000Y-49875000D01*
X174683000Y-49876000D01*
X174685000Y-49876000D01*
X174688000Y-49877000D01*
X174690000Y-49877000D01*
X174693000Y-49878000D01*
X174695000Y-49879000D01*
X174698000Y-49880000D01*
X174700000Y-49882000D01*
X174702000Y-49883000D01*
X174704000Y-49885000D01*
X174706000Y-49886000D01*
X174708000Y-49888000D01*
X174710000Y-49890000D01*
X174712000Y-49892000D01*
X174714000Y-49894000D01*
X174715000Y-49896000D01*
X174717000Y-49898000D01*
X174718000Y-49900000D01*
X174720000Y-49902000D01*
X174721000Y-49905000D01*
X174722000Y-49907000D01*
X174723000Y-49910000D01*
X174723000Y-49912000D01*
X174724000Y-49915000D01*
X174724000Y-49917000D01*
X174725000Y-49920000D01*
X174725000Y-49922000D01*
X174725000Y-49925000D01*
X174725000Y-50075000D01*
X174725000Y-50078000D01*
X174725000Y-50080000D01*
X174724000Y-50083000D01*
X174724000Y-50085000D01*
X174723000Y-50088000D01*
X174723000Y-50090000D01*
X174722000Y-50093000D01*
X174721000Y-50095000D01*
X174720000Y-50098000D01*
X174718000Y-50100000D01*
X174717000Y-50102000D01*
X174715000Y-50104000D01*
X174714000Y-50106000D01*
X174712000Y-50108000D01*
X174710000Y-50110000D01*
X174708000Y-50112000D01*
X174706000Y-50114000D01*
X174704000Y-50115000D01*
X174702000Y-50117000D01*
X174700000Y-50118000D01*
X174698000Y-50120000D01*
X174695000Y-50121000D01*
X174693000Y-50122000D01*
X174690000Y-50123000D01*
X174688000Y-50123000D01*
X174685000Y-50124000D01*
X174683000Y-50124000D01*
X174680000Y-50125000D01*
X174678000Y-50125000D01*
X174675000Y-50125000D01*
X174525000Y-50125000D01*
X174522000Y-50125000D01*
X174520000Y-50125000D01*
X174517000Y-50124000D01*
X174515000Y-50124000D01*
X174512000Y-50123000D01*
X174510000Y-50123000D01*
X174507000Y-50122000D01*
X174505000Y-50121000D01*
X174502000Y-50120000D01*
X174500000Y-50118000D01*
X174498000Y-50117000D01*
X174496000Y-50115000D01*
X174494000Y-50114000D01*
X174492000Y-50112000D01*
X174490000Y-50110000D01*
X174488000Y-50108000D01*
X174486000Y-50106000D01*
X174485000Y-50104000D01*
X174483000Y-50102000D01*
X174482000Y-50100000D01*
X174480000Y-50098000D01*
X174479000Y-50095000D01*
X174478000Y-50093000D01*
X174477000Y-50090000D01*
X174477000Y-50088000D01*
X174476000Y-50085000D01*
X174476000Y-50083000D01*
X174475000Y-50080000D01*
X174475000Y-50078000D01*
X174475000Y-50075000D01*
X174475000Y-49925000D01*
X174475000Y-49922000D01*
X174475000Y-49920000D01*
X174476000Y-49917000D01*
X174476000Y-49915000D01*
X174477000Y-49912000D01*
X174477000Y-49910000D01*
X174478000Y-49907000D01*
X174479000Y-49905000D01*
X174480000Y-49902000D01*
X174482000Y-49900000D01*
X174483000Y-49898000D01*
X174485000Y-49896000D01*
X174486000Y-49894000D01*
X174488000Y-49892000D01*
X174490000Y-49890000D01*
X174492000Y-49888000D01*
X174494000Y-49886000D01*
X174496000Y-49885000D01*
X174498000Y-49883000D01*
X174500000Y-49882000D01*
X174502000Y-49880000D01*
X174505000Y-49879000D01*
X174507000Y-49878000D01*
X174510000Y-49877000D01*
X174512000Y-49877000D01*
X174515000Y-49876000D01*
X174517000Y-49876000D01*
X174520000Y-49875000D01*
X174522000Y-49875000D01*
X174525000Y-49875000D01*
G36*
X174683000Y-49876000D02*
G01*
X174685000Y-49876000D01*
X174688000Y-49877000D01*
X174690000Y-49877000D01*
X174693000Y-49878000D01*
X174695000Y-49879000D01*
X174698000Y-49880000D01*
X174700000Y-49882000D01*
X174702000Y-49883000D01*
X174704000Y-49885000D01*
X174706000Y-49886000D01*
X174708000Y-49888000D01*
X174710000Y-49890000D01*
X174712000Y-49892000D01*
X174714000Y-49894000D01*
X174715000Y-49896000D01*
X174717000Y-49898000D01*
X174718000Y-49900000D01*
X174720000Y-49902000D01*
X174721000Y-49905000D01*
X174722000Y-49907000D01*
X174723000Y-49910000D01*
X174723000Y-49912000D01*
X174724000Y-49915000D01*
X174724000Y-49917000D01*
X174725000Y-49920000D01*
X174725000Y-49922000D01*
X174725000Y-49925000D01*
X174725000Y-50075000D01*
X174725000Y-50078000D01*
X174725000Y-50080000D01*
X174724000Y-50083000D01*
X174724000Y-50085000D01*
X174723000Y-50088000D01*
X174723000Y-50090000D01*
X174722000Y-50093000D01*
X174721000Y-50095000D01*
X174720000Y-50098000D01*
X174718000Y-50100000D01*
X174717000Y-50102000D01*
X174715000Y-50104000D01*
X174714000Y-50106000D01*
X174712000Y-50108000D01*
X174710000Y-50110000D01*
X174708000Y-50112000D01*
X174706000Y-50114000D01*
X174704000Y-50115000D01*
X174702000Y-50117000D01*
X174700000Y-50118000D01*
X174698000Y-50120000D01*
X174695000Y-50121000D01*
X174693000Y-50122000D01*
X174690000Y-50123000D01*
X174688000Y-50123000D01*
X174685000Y-50124000D01*
X174683000Y-50124000D01*
X174680000Y-50125000D01*
X174678000Y-50125000D01*
X174675000Y-50125000D01*
X174525000Y-50125000D01*
X174522000Y-50125000D01*
X174520000Y-50125000D01*
X174517000Y-50124000D01*
X174515000Y-50124000D01*
X174512000Y-50123000D01*
X174510000Y-50123000D01*
X174507000Y-50122000D01*
X174505000Y-50121000D01*
X174502000Y-50120000D01*
X174500000Y-50118000D01*
X174498000Y-50117000D01*
X174496000Y-50115000D01*
X174494000Y-50114000D01*
X174492000Y-50112000D01*
X174490000Y-50110000D01*
X174488000Y-50108000D01*
X174486000Y-50106000D01*
X174485000Y-50104000D01*
X174483000Y-50102000D01*
X174482000Y-50100000D01*
X174480000Y-50098000D01*
X174479000Y-50095000D01*
X174478000Y-50093000D01*
X174477000Y-50090000D01*
X174477000Y-50088000D01*
X174476000Y-50085000D01*
X174476000Y-50083000D01*
X174475000Y-50080000D01*
X174475000Y-50078000D01*
X174475000Y-50075000D01*
X174475000Y-49925000D01*
X174475000Y-49922000D01*
X174475000Y-49920000D01*
X174476000Y-49917000D01*
X174476000Y-49915000D01*
X174477000Y-49912000D01*
X174477000Y-49910000D01*
X174478000Y-49907000D01*
X174479000Y-49905000D01*
X174480000Y-49902000D01*
X174482000Y-49900000D01*
X174483000Y-49898000D01*
X174485000Y-49896000D01*
X174486000Y-49894000D01*
X174488000Y-49892000D01*
X174490000Y-49890000D01*
X174492000Y-49888000D01*
X174494000Y-49886000D01*
X174496000Y-49885000D01*
X174498000Y-49883000D01*
X174500000Y-49882000D01*
X174502000Y-49880000D01*
X174505000Y-49879000D01*
X174507000Y-49878000D01*
X174510000Y-49877000D01*
X174512000Y-49877000D01*
X174515000Y-49876000D01*
X174517000Y-49876000D01*
X174520000Y-49875000D01*
X174522000Y-49875000D01*
X174525000Y-49875000D01*
X174675000Y-49875000D01*
X174678000Y-49875000D01*
X174680000Y-49875000D01*
X174683000Y-49876000D01*
G37*
X174925000Y-48275000D02*
X175075000Y-48275000D01*
X175078000Y-48275000D01*
X175080000Y-48275000D01*
X175083000Y-48276000D01*
X175085000Y-48276000D01*
X175088000Y-48277000D01*
X175090000Y-48277000D01*
X175093000Y-48278000D01*
X175095000Y-48279000D01*
X175098000Y-48280000D01*
X175100000Y-48282000D01*
X175102000Y-48283000D01*
X175104000Y-48285000D01*
X175106000Y-48286000D01*
X175108000Y-48288000D01*
X175110000Y-48290000D01*
X175112000Y-48292000D01*
X175114000Y-48294000D01*
X175115000Y-48296000D01*
X175117000Y-48298000D01*
X175118000Y-48300000D01*
X175120000Y-48302000D01*
X175121000Y-48305000D01*
X175122000Y-48307000D01*
X175123000Y-48310000D01*
X175123000Y-48312000D01*
X175124000Y-48315000D01*
X175124000Y-48317000D01*
X175125000Y-48320000D01*
X175125000Y-48322000D01*
X175125000Y-48325000D01*
X175125000Y-48475000D01*
X175125000Y-48478000D01*
X175125000Y-48480000D01*
X175124000Y-48483000D01*
X175124000Y-48485000D01*
X175123000Y-48488000D01*
X175123000Y-48490000D01*
X175122000Y-48493000D01*
X175121000Y-48495000D01*
X175120000Y-48498000D01*
X175118000Y-48500000D01*
X175117000Y-48502000D01*
X175115000Y-48504000D01*
X175114000Y-48506000D01*
X175112000Y-48508000D01*
X175110000Y-48510000D01*
X175108000Y-48512000D01*
X175106000Y-48514000D01*
X175104000Y-48515000D01*
X175102000Y-48517000D01*
X175100000Y-48518000D01*
X175098000Y-48520000D01*
X175095000Y-48521000D01*
X175093000Y-48522000D01*
X175090000Y-48523000D01*
X175088000Y-48523000D01*
X175085000Y-48524000D01*
X175083000Y-48524000D01*
X175080000Y-48525000D01*
X175078000Y-48525000D01*
X175075000Y-48525000D01*
X174925000Y-48525000D01*
X174922000Y-48525000D01*
X174920000Y-48525000D01*
X174917000Y-48524000D01*
X174915000Y-48524000D01*
X174912000Y-48523000D01*
X174910000Y-48523000D01*
X174907000Y-48522000D01*
X174905000Y-48521000D01*
X174902000Y-48520000D01*
X174900000Y-48518000D01*
X174898000Y-48517000D01*
X174896000Y-48515000D01*
X174894000Y-48514000D01*
X174892000Y-48512000D01*
X174890000Y-48510000D01*
X174888000Y-48508000D01*
X174886000Y-48506000D01*
X174885000Y-48504000D01*
X174883000Y-48502000D01*
X174882000Y-48500000D01*
X174880000Y-48498000D01*
X174879000Y-48495000D01*
X174878000Y-48493000D01*
X174877000Y-48490000D01*
X174877000Y-48488000D01*
X174876000Y-48485000D01*
X174876000Y-48483000D01*
X174875000Y-48480000D01*
X174875000Y-48478000D01*
X174875000Y-48475000D01*
X174875000Y-48325000D01*
X174875000Y-48322000D01*
X174875000Y-48320000D01*
X174876000Y-48317000D01*
X174876000Y-48315000D01*
X174877000Y-48312000D01*
X174877000Y-48310000D01*
X174878000Y-48307000D01*
X174879000Y-48305000D01*
X174880000Y-48302000D01*
X174882000Y-48300000D01*
X174883000Y-48298000D01*
X174885000Y-48296000D01*
X174886000Y-48294000D01*
X174888000Y-48292000D01*
X174890000Y-48290000D01*
X174892000Y-48288000D01*
X174894000Y-48286000D01*
X174896000Y-48285000D01*
X174898000Y-48283000D01*
X174900000Y-48282000D01*
X174902000Y-48280000D01*
X174905000Y-48279000D01*
X174907000Y-48278000D01*
X174910000Y-48277000D01*
X174912000Y-48277000D01*
X174915000Y-48276000D01*
X174917000Y-48276000D01*
X174920000Y-48275000D01*
X174922000Y-48275000D01*
X174925000Y-48275000D01*
G36*
X175083000Y-48276000D02*
G01*
X175085000Y-48276000D01*
X175088000Y-48277000D01*
X175090000Y-48277000D01*
X175093000Y-48278000D01*
X175095000Y-48279000D01*
X175098000Y-48280000D01*
X175100000Y-48282000D01*
X175102000Y-48283000D01*
X175104000Y-48285000D01*
X175106000Y-48286000D01*
X175108000Y-48288000D01*
X175110000Y-48290000D01*
X175112000Y-48292000D01*
X175114000Y-48294000D01*
X175115000Y-48296000D01*
X175117000Y-48298000D01*
X175118000Y-48300000D01*
X175120000Y-48302000D01*
X175121000Y-48305000D01*
X175122000Y-48307000D01*
X175123000Y-48310000D01*
X175123000Y-48312000D01*
X175124000Y-48315000D01*
X175124000Y-48317000D01*
X175125000Y-48320000D01*
X175125000Y-48322000D01*
X175125000Y-48325000D01*
X175125000Y-48475000D01*
X175125000Y-48478000D01*
X175125000Y-48480000D01*
X175124000Y-48483000D01*
X175124000Y-48485000D01*
X175123000Y-48488000D01*
X175123000Y-48490000D01*
X175122000Y-48493000D01*
X175121000Y-48495000D01*
X175120000Y-48498000D01*
X175118000Y-48500000D01*
X175117000Y-48502000D01*
X175115000Y-48504000D01*
X175114000Y-48506000D01*
X175112000Y-48508000D01*
X175110000Y-48510000D01*
X175108000Y-48512000D01*
X175106000Y-48514000D01*
X175104000Y-48515000D01*
X175102000Y-48517000D01*
X175100000Y-48518000D01*
X175098000Y-48520000D01*
X175095000Y-48521000D01*
X175093000Y-48522000D01*
X175090000Y-48523000D01*
X175088000Y-48523000D01*
X175085000Y-48524000D01*
X175083000Y-48524000D01*
X175080000Y-48525000D01*
X175078000Y-48525000D01*
X175075000Y-48525000D01*
X174925000Y-48525000D01*
X174922000Y-48525000D01*
X174920000Y-48525000D01*
X174917000Y-48524000D01*
X174915000Y-48524000D01*
X174912000Y-48523000D01*
X174910000Y-48523000D01*
X174907000Y-48522000D01*
X174905000Y-48521000D01*
X174902000Y-48520000D01*
X174900000Y-48518000D01*
X174898000Y-48517000D01*
X174896000Y-48515000D01*
X174894000Y-48514000D01*
X174892000Y-48512000D01*
X174890000Y-48510000D01*
X174888000Y-48508000D01*
X174886000Y-48506000D01*
X174885000Y-48504000D01*
X174883000Y-48502000D01*
X174882000Y-48500000D01*
X174880000Y-48498000D01*
X174879000Y-48495000D01*
X174878000Y-48493000D01*
X174877000Y-48490000D01*
X174877000Y-48488000D01*
X174876000Y-48485000D01*
X174876000Y-48483000D01*
X174875000Y-48480000D01*
X174875000Y-48478000D01*
X174875000Y-48475000D01*
X174875000Y-48325000D01*
X174875000Y-48322000D01*
X174875000Y-48320000D01*
X174876000Y-48317000D01*
X174876000Y-48315000D01*
X174877000Y-48312000D01*
X174877000Y-48310000D01*
X174878000Y-48307000D01*
X174879000Y-48305000D01*
X174880000Y-48302000D01*
X174882000Y-48300000D01*
X174883000Y-48298000D01*
X174885000Y-48296000D01*
X174886000Y-48294000D01*
X174888000Y-48292000D01*
X174890000Y-48290000D01*
X174892000Y-48288000D01*
X174894000Y-48286000D01*
X174896000Y-48285000D01*
X174898000Y-48283000D01*
X174900000Y-48282000D01*
X174902000Y-48280000D01*
X174905000Y-48279000D01*
X174907000Y-48278000D01*
X174910000Y-48277000D01*
X174912000Y-48277000D01*
X174915000Y-48276000D01*
X174917000Y-48276000D01*
X174920000Y-48275000D01*
X174922000Y-48275000D01*
X174925000Y-48275000D01*
X175075000Y-48275000D01*
X175078000Y-48275000D01*
X175080000Y-48275000D01*
X175083000Y-48276000D01*
G37*
X174925000Y-48675000D02*
X175075000Y-48675000D01*
X175078000Y-48675000D01*
X175080000Y-48675000D01*
X175083000Y-48676000D01*
X175085000Y-48676000D01*
X175088000Y-48677000D01*
X175090000Y-48677000D01*
X175093000Y-48678000D01*
X175095000Y-48679000D01*
X175098000Y-48680000D01*
X175100000Y-48682000D01*
X175102000Y-48683000D01*
X175104000Y-48685000D01*
X175106000Y-48686000D01*
X175108000Y-48688000D01*
X175110000Y-48690000D01*
X175112000Y-48692000D01*
X175114000Y-48694000D01*
X175115000Y-48696000D01*
X175117000Y-48698000D01*
X175118000Y-48700000D01*
X175120000Y-48702000D01*
X175121000Y-48705000D01*
X175122000Y-48707000D01*
X175123000Y-48710000D01*
X175123000Y-48712000D01*
X175124000Y-48715000D01*
X175124000Y-48717000D01*
X175125000Y-48720000D01*
X175125000Y-48722000D01*
X175125000Y-48725000D01*
X175125000Y-48875000D01*
X175125000Y-48878000D01*
X175125000Y-48880000D01*
X175124000Y-48883000D01*
X175124000Y-48885000D01*
X175123000Y-48888000D01*
X175123000Y-48890000D01*
X175122000Y-48893000D01*
X175121000Y-48895000D01*
X175120000Y-48898000D01*
X175118000Y-48900000D01*
X175117000Y-48902000D01*
X175115000Y-48904000D01*
X175114000Y-48906000D01*
X175112000Y-48908000D01*
X175110000Y-48910000D01*
X175108000Y-48912000D01*
X175106000Y-48914000D01*
X175104000Y-48915000D01*
X175102000Y-48917000D01*
X175100000Y-48918000D01*
X175098000Y-48920000D01*
X175095000Y-48921000D01*
X175093000Y-48922000D01*
X175090000Y-48923000D01*
X175088000Y-48923000D01*
X175085000Y-48924000D01*
X175083000Y-48924000D01*
X175080000Y-48925000D01*
X175078000Y-48925000D01*
X175075000Y-48925000D01*
X174925000Y-48925000D01*
X174922000Y-48925000D01*
X174920000Y-48925000D01*
X174917000Y-48924000D01*
X174915000Y-48924000D01*
X174912000Y-48923000D01*
X174910000Y-48923000D01*
X174907000Y-48922000D01*
X174905000Y-48921000D01*
X174902000Y-48920000D01*
X174900000Y-48918000D01*
X174898000Y-48917000D01*
X174896000Y-48915000D01*
X174894000Y-48914000D01*
X174892000Y-48912000D01*
X174890000Y-48910000D01*
X174888000Y-48908000D01*
X174886000Y-48906000D01*
X174885000Y-48904000D01*
X174883000Y-48902000D01*
X174882000Y-48900000D01*
X174880000Y-48898000D01*
X174879000Y-48895000D01*
X174878000Y-48893000D01*
X174877000Y-48890000D01*
X174877000Y-48888000D01*
X174876000Y-48885000D01*
X174876000Y-48883000D01*
X174875000Y-48880000D01*
X174875000Y-48878000D01*
X174875000Y-48875000D01*
X174875000Y-48725000D01*
X174875000Y-48722000D01*
X174875000Y-48720000D01*
X174876000Y-48717000D01*
X174876000Y-48715000D01*
X174877000Y-48712000D01*
X174877000Y-48710000D01*
X174878000Y-48707000D01*
X174879000Y-48705000D01*
X174880000Y-48702000D01*
X174882000Y-48700000D01*
X174883000Y-48698000D01*
X174885000Y-48696000D01*
X174886000Y-48694000D01*
X174888000Y-48692000D01*
X174890000Y-48690000D01*
X174892000Y-48688000D01*
X174894000Y-48686000D01*
X174896000Y-48685000D01*
X174898000Y-48683000D01*
X174900000Y-48682000D01*
X174902000Y-48680000D01*
X174905000Y-48679000D01*
X174907000Y-48678000D01*
X174910000Y-48677000D01*
X174912000Y-48677000D01*
X174915000Y-48676000D01*
X174917000Y-48676000D01*
X174920000Y-48675000D01*
X174922000Y-48675000D01*
X174925000Y-48675000D01*
G36*
X175083000Y-48676000D02*
G01*
X175085000Y-48676000D01*
X175088000Y-48677000D01*
X175090000Y-48677000D01*
X175093000Y-48678000D01*
X175095000Y-48679000D01*
X175098000Y-48680000D01*
X175100000Y-48682000D01*
X175102000Y-48683000D01*
X175104000Y-48685000D01*
X175106000Y-48686000D01*
X175108000Y-48688000D01*
X175110000Y-48690000D01*
X175112000Y-48692000D01*
X175114000Y-48694000D01*
X175115000Y-48696000D01*
X175117000Y-48698000D01*
X175118000Y-48700000D01*
X175120000Y-48702000D01*
X175121000Y-48705000D01*
X175122000Y-48707000D01*
X175123000Y-48710000D01*
X175123000Y-48712000D01*
X175124000Y-48715000D01*
X175124000Y-48717000D01*
X175125000Y-48720000D01*
X175125000Y-48722000D01*
X175125000Y-48725000D01*
X175125000Y-48875000D01*
X175125000Y-48878000D01*
X175125000Y-48880000D01*
X175124000Y-48883000D01*
X175124000Y-48885000D01*
X175123000Y-48888000D01*
X175123000Y-48890000D01*
X175122000Y-48893000D01*
X175121000Y-48895000D01*
X175120000Y-48898000D01*
X175118000Y-48900000D01*
X175117000Y-48902000D01*
X175115000Y-48904000D01*
X175114000Y-48906000D01*
X175112000Y-48908000D01*
X175110000Y-48910000D01*
X175108000Y-48912000D01*
X175106000Y-48914000D01*
X175104000Y-48915000D01*
X175102000Y-48917000D01*
X175100000Y-48918000D01*
X175098000Y-48920000D01*
X175095000Y-48921000D01*
X175093000Y-48922000D01*
X175090000Y-48923000D01*
X175088000Y-48923000D01*
X175085000Y-48924000D01*
X175083000Y-48924000D01*
X175080000Y-48925000D01*
X175078000Y-48925000D01*
X175075000Y-48925000D01*
X174925000Y-48925000D01*
X174922000Y-48925000D01*
X174920000Y-48925000D01*
X174917000Y-48924000D01*
X174915000Y-48924000D01*
X174912000Y-48923000D01*
X174910000Y-48923000D01*
X174907000Y-48922000D01*
X174905000Y-48921000D01*
X174902000Y-48920000D01*
X174900000Y-48918000D01*
X174898000Y-48917000D01*
X174896000Y-48915000D01*
X174894000Y-48914000D01*
X174892000Y-48912000D01*
X174890000Y-48910000D01*
X174888000Y-48908000D01*
X174886000Y-48906000D01*
X174885000Y-48904000D01*
X174883000Y-48902000D01*
X174882000Y-48900000D01*
X174880000Y-48898000D01*
X174879000Y-48895000D01*
X174878000Y-48893000D01*
X174877000Y-48890000D01*
X174877000Y-48888000D01*
X174876000Y-48885000D01*
X174876000Y-48883000D01*
X174875000Y-48880000D01*
X174875000Y-48878000D01*
X174875000Y-48875000D01*
X174875000Y-48725000D01*
X174875000Y-48722000D01*
X174875000Y-48720000D01*
X174876000Y-48717000D01*
X174876000Y-48715000D01*
X174877000Y-48712000D01*
X174877000Y-48710000D01*
X174878000Y-48707000D01*
X174879000Y-48705000D01*
X174880000Y-48702000D01*
X174882000Y-48700000D01*
X174883000Y-48698000D01*
X174885000Y-48696000D01*
X174886000Y-48694000D01*
X174888000Y-48692000D01*
X174890000Y-48690000D01*
X174892000Y-48688000D01*
X174894000Y-48686000D01*
X174896000Y-48685000D01*
X174898000Y-48683000D01*
X174900000Y-48682000D01*
X174902000Y-48680000D01*
X174905000Y-48679000D01*
X174907000Y-48678000D01*
X174910000Y-48677000D01*
X174912000Y-48677000D01*
X174915000Y-48676000D01*
X174917000Y-48676000D01*
X174920000Y-48675000D01*
X174922000Y-48675000D01*
X174925000Y-48675000D01*
X175075000Y-48675000D01*
X175078000Y-48675000D01*
X175080000Y-48675000D01*
X175083000Y-48676000D01*
G37*
X174925000Y-49075000D02*
X175075000Y-49075000D01*
X175078000Y-49075000D01*
X175080000Y-49075000D01*
X175083000Y-49076000D01*
X175085000Y-49076000D01*
X175088000Y-49077000D01*
X175090000Y-49077000D01*
X175093000Y-49078000D01*
X175095000Y-49079000D01*
X175098000Y-49080000D01*
X175100000Y-49082000D01*
X175102000Y-49083000D01*
X175104000Y-49085000D01*
X175106000Y-49086000D01*
X175108000Y-49088000D01*
X175110000Y-49090000D01*
X175112000Y-49092000D01*
X175114000Y-49094000D01*
X175115000Y-49096000D01*
X175117000Y-49098000D01*
X175118000Y-49100000D01*
X175120000Y-49102000D01*
X175121000Y-49105000D01*
X175122000Y-49107000D01*
X175123000Y-49110000D01*
X175123000Y-49112000D01*
X175124000Y-49115000D01*
X175124000Y-49117000D01*
X175125000Y-49120000D01*
X175125000Y-49122000D01*
X175125000Y-49125000D01*
X175125000Y-49275000D01*
X175125000Y-49278000D01*
X175125000Y-49280000D01*
X175124000Y-49283000D01*
X175124000Y-49285000D01*
X175123000Y-49288000D01*
X175123000Y-49290000D01*
X175122000Y-49293000D01*
X175121000Y-49295000D01*
X175120000Y-49298000D01*
X175118000Y-49300000D01*
X175117000Y-49302000D01*
X175115000Y-49304000D01*
X175114000Y-49306000D01*
X175112000Y-49308000D01*
X175110000Y-49310000D01*
X175108000Y-49312000D01*
X175106000Y-49314000D01*
X175104000Y-49315000D01*
X175102000Y-49317000D01*
X175100000Y-49318000D01*
X175098000Y-49320000D01*
X175095000Y-49321000D01*
X175093000Y-49322000D01*
X175090000Y-49323000D01*
X175088000Y-49323000D01*
X175085000Y-49324000D01*
X175083000Y-49324000D01*
X175080000Y-49325000D01*
X175078000Y-49325000D01*
X175075000Y-49325000D01*
X174925000Y-49325000D01*
X174922000Y-49325000D01*
X174920000Y-49325000D01*
X174917000Y-49324000D01*
X174915000Y-49324000D01*
X174912000Y-49323000D01*
X174910000Y-49323000D01*
X174907000Y-49322000D01*
X174905000Y-49321000D01*
X174902000Y-49320000D01*
X174900000Y-49318000D01*
X174898000Y-49317000D01*
X174896000Y-49315000D01*
X174894000Y-49314000D01*
X174892000Y-49312000D01*
X174890000Y-49310000D01*
X174888000Y-49308000D01*
X174886000Y-49306000D01*
X174885000Y-49304000D01*
X174883000Y-49302000D01*
X174882000Y-49300000D01*
X174880000Y-49298000D01*
X174879000Y-49295000D01*
X174878000Y-49293000D01*
X174877000Y-49290000D01*
X174877000Y-49288000D01*
X174876000Y-49285000D01*
X174876000Y-49283000D01*
X174875000Y-49280000D01*
X174875000Y-49278000D01*
X174875000Y-49275000D01*
X174875000Y-49125000D01*
X174875000Y-49122000D01*
X174875000Y-49120000D01*
X174876000Y-49117000D01*
X174876000Y-49115000D01*
X174877000Y-49112000D01*
X174877000Y-49110000D01*
X174878000Y-49107000D01*
X174879000Y-49105000D01*
X174880000Y-49102000D01*
X174882000Y-49100000D01*
X174883000Y-49098000D01*
X174885000Y-49096000D01*
X174886000Y-49094000D01*
X174888000Y-49092000D01*
X174890000Y-49090000D01*
X174892000Y-49088000D01*
X174894000Y-49086000D01*
X174896000Y-49085000D01*
X174898000Y-49083000D01*
X174900000Y-49082000D01*
X174902000Y-49080000D01*
X174905000Y-49079000D01*
X174907000Y-49078000D01*
X174910000Y-49077000D01*
X174912000Y-49077000D01*
X174915000Y-49076000D01*
X174917000Y-49076000D01*
X174920000Y-49075000D01*
X174922000Y-49075000D01*
X174925000Y-49075000D01*
G36*
X175083000Y-49076000D02*
G01*
X175085000Y-49076000D01*
X175088000Y-49077000D01*
X175090000Y-49077000D01*
X175093000Y-49078000D01*
X175095000Y-49079000D01*
X175098000Y-49080000D01*
X175100000Y-49082000D01*
X175102000Y-49083000D01*
X175104000Y-49085000D01*
X175106000Y-49086000D01*
X175108000Y-49088000D01*
X175110000Y-49090000D01*
X175112000Y-49092000D01*
X175114000Y-49094000D01*
X175115000Y-49096000D01*
X175117000Y-49098000D01*
X175118000Y-49100000D01*
X175120000Y-49102000D01*
X175121000Y-49105000D01*
X175122000Y-49107000D01*
X175123000Y-49110000D01*
X175123000Y-49112000D01*
X175124000Y-49115000D01*
X175124000Y-49117000D01*
X175125000Y-49120000D01*
X175125000Y-49122000D01*
X175125000Y-49125000D01*
X175125000Y-49275000D01*
X175125000Y-49278000D01*
X175125000Y-49280000D01*
X175124000Y-49283000D01*
X175124000Y-49285000D01*
X175123000Y-49288000D01*
X175123000Y-49290000D01*
X175122000Y-49293000D01*
X175121000Y-49295000D01*
X175120000Y-49298000D01*
X175118000Y-49300000D01*
X175117000Y-49302000D01*
X175115000Y-49304000D01*
X175114000Y-49306000D01*
X175112000Y-49308000D01*
X175110000Y-49310000D01*
X175108000Y-49312000D01*
X175106000Y-49314000D01*
X175104000Y-49315000D01*
X175102000Y-49317000D01*
X175100000Y-49318000D01*
X175098000Y-49320000D01*
X175095000Y-49321000D01*
X175093000Y-49322000D01*
X175090000Y-49323000D01*
X175088000Y-49323000D01*
X175085000Y-49324000D01*
X175083000Y-49324000D01*
X175080000Y-49325000D01*
X175078000Y-49325000D01*
X175075000Y-49325000D01*
X174925000Y-49325000D01*
X174922000Y-49325000D01*
X174920000Y-49325000D01*
X174917000Y-49324000D01*
X174915000Y-49324000D01*
X174912000Y-49323000D01*
X174910000Y-49323000D01*
X174907000Y-49322000D01*
X174905000Y-49321000D01*
X174902000Y-49320000D01*
X174900000Y-49318000D01*
X174898000Y-49317000D01*
X174896000Y-49315000D01*
X174894000Y-49314000D01*
X174892000Y-49312000D01*
X174890000Y-49310000D01*
X174888000Y-49308000D01*
X174886000Y-49306000D01*
X174885000Y-49304000D01*
X174883000Y-49302000D01*
X174882000Y-49300000D01*
X174880000Y-49298000D01*
X174879000Y-49295000D01*
X174878000Y-49293000D01*
X174877000Y-49290000D01*
X174877000Y-49288000D01*
X174876000Y-49285000D01*
X174876000Y-49283000D01*
X174875000Y-49280000D01*
X174875000Y-49278000D01*
X174875000Y-49275000D01*
X174875000Y-49125000D01*
X174875000Y-49122000D01*
X174875000Y-49120000D01*
X174876000Y-49117000D01*
X174876000Y-49115000D01*
X174877000Y-49112000D01*
X174877000Y-49110000D01*
X174878000Y-49107000D01*
X174879000Y-49105000D01*
X174880000Y-49102000D01*
X174882000Y-49100000D01*
X174883000Y-49098000D01*
X174885000Y-49096000D01*
X174886000Y-49094000D01*
X174888000Y-49092000D01*
X174890000Y-49090000D01*
X174892000Y-49088000D01*
X174894000Y-49086000D01*
X174896000Y-49085000D01*
X174898000Y-49083000D01*
X174900000Y-49082000D01*
X174902000Y-49080000D01*
X174905000Y-49079000D01*
X174907000Y-49078000D01*
X174910000Y-49077000D01*
X174912000Y-49077000D01*
X174915000Y-49076000D01*
X174917000Y-49076000D01*
X174920000Y-49075000D01*
X174922000Y-49075000D01*
X174925000Y-49075000D01*
X175075000Y-49075000D01*
X175078000Y-49075000D01*
X175080000Y-49075000D01*
X175083000Y-49076000D01*
G37*
X174925000Y-49475000D02*
X175075000Y-49475000D01*
X175078000Y-49475000D01*
X175080000Y-49475000D01*
X175083000Y-49476000D01*
X175085000Y-49476000D01*
X175088000Y-49477000D01*
X175090000Y-49477000D01*
X175093000Y-49478000D01*
X175095000Y-49479000D01*
X175098000Y-49480000D01*
X175100000Y-49482000D01*
X175102000Y-49483000D01*
X175104000Y-49485000D01*
X175106000Y-49486000D01*
X175108000Y-49488000D01*
X175110000Y-49490000D01*
X175112000Y-49492000D01*
X175114000Y-49494000D01*
X175115000Y-49496000D01*
X175117000Y-49498000D01*
X175118000Y-49500000D01*
X175120000Y-49502000D01*
X175121000Y-49505000D01*
X175122000Y-49507000D01*
X175123000Y-49510000D01*
X175123000Y-49512000D01*
X175124000Y-49515000D01*
X175124000Y-49517000D01*
X175125000Y-49520000D01*
X175125000Y-49522000D01*
X175125000Y-49525000D01*
X175125000Y-49675000D01*
X175125000Y-49678000D01*
X175125000Y-49680000D01*
X175124000Y-49683000D01*
X175124000Y-49685000D01*
X175123000Y-49688000D01*
X175123000Y-49690000D01*
X175122000Y-49693000D01*
X175121000Y-49695000D01*
X175120000Y-49698000D01*
X175118000Y-49700000D01*
X175117000Y-49702000D01*
X175115000Y-49704000D01*
X175114000Y-49706000D01*
X175112000Y-49708000D01*
X175110000Y-49710000D01*
X175108000Y-49712000D01*
X175106000Y-49714000D01*
X175104000Y-49715000D01*
X175102000Y-49717000D01*
X175100000Y-49718000D01*
X175098000Y-49720000D01*
X175095000Y-49721000D01*
X175093000Y-49722000D01*
X175090000Y-49723000D01*
X175088000Y-49723000D01*
X175085000Y-49724000D01*
X175083000Y-49724000D01*
X175080000Y-49725000D01*
X175078000Y-49725000D01*
X175075000Y-49725000D01*
X174925000Y-49725000D01*
X174922000Y-49725000D01*
X174920000Y-49725000D01*
X174917000Y-49724000D01*
X174915000Y-49724000D01*
X174912000Y-49723000D01*
X174910000Y-49723000D01*
X174907000Y-49722000D01*
X174905000Y-49721000D01*
X174902000Y-49720000D01*
X174900000Y-49718000D01*
X174898000Y-49717000D01*
X174896000Y-49715000D01*
X174894000Y-49714000D01*
X174892000Y-49712000D01*
X174890000Y-49710000D01*
X174888000Y-49708000D01*
X174886000Y-49706000D01*
X174885000Y-49704000D01*
X174883000Y-49702000D01*
X174882000Y-49700000D01*
X174880000Y-49698000D01*
X174879000Y-49695000D01*
X174878000Y-49693000D01*
X174877000Y-49690000D01*
X174877000Y-49688000D01*
X174876000Y-49685000D01*
X174876000Y-49683000D01*
X174875000Y-49680000D01*
X174875000Y-49678000D01*
X174875000Y-49675000D01*
X174875000Y-49525000D01*
X174875000Y-49522000D01*
X174875000Y-49520000D01*
X174876000Y-49517000D01*
X174876000Y-49515000D01*
X174877000Y-49512000D01*
X174877000Y-49510000D01*
X174878000Y-49507000D01*
X174879000Y-49505000D01*
X174880000Y-49502000D01*
X174882000Y-49500000D01*
X174883000Y-49498000D01*
X174885000Y-49496000D01*
X174886000Y-49494000D01*
X174888000Y-49492000D01*
X174890000Y-49490000D01*
X174892000Y-49488000D01*
X174894000Y-49486000D01*
X174896000Y-49485000D01*
X174898000Y-49483000D01*
X174900000Y-49482000D01*
X174902000Y-49480000D01*
X174905000Y-49479000D01*
X174907000Y-49478000D01*
X174910000Y-49477000D01*
X174912000Y-49477000D01*
X174915000Y-49476000D01*
X174917000Y-49476000D01*
X174920000Y-49475000D01*
X174922000Y-49475000D01*
X174925000Y-49475000D01*
G36*
X175083000Y-49476000D02*
G01*
X175085000Y-49476000D01*
X175088000Y-49477000D01*
X175090000Y-49477000D01*
X175093000Y-49478000D01*
X175095000Y-49479000D01*
X175098000Y-49480000D01*
X175100000Y-49482000D01*
X175102000Y-49483000D01*
X175104000Y-49485000D01*
X175106000Y-49486000D01*
X175108000Y-49488000D01*
X175110000Y-49490000D01*
X175112000Y-49492000D01*
X175114000Y-49494000D01*
X175115000Y-49496000D01*
X175117000Y-49498000D01*
X175118000Y-49500000D01*
X175120000Y-49502000D01*
X175121000Y-49505000D01*
X175122000Y-49507000D01*
X175123000Y-49510000D01*
X175123000Y-49512000D01*
X175124000Y-49515000D01*
X175124000Y-49517000D01*
X175125000Y-49520000D01*
X175125000Y-49522000D01*
X175125000Y-49525000D01*
X175125000Y-49675000D01*
X175125000Y-49678000D01*
X175125000Y-49680000D01*
X175124000Y-49683000D01*
X175124000Y-49685000D01*
X175123000Y-49688000D01*
X175123000Y-49690000D01*
X175122000Y-49693000D01*
X175121000Y-49695000D01*
X175120000Y-49698000D01*
X175118000Y-49700000D01*
X175117000Y-49702000D01*
X175115000Y-49704000D01*
X175114000Y-49706000D01*
X175112000Y-49708000D01*
X175110000Y-49710000D01*
X175108000Y-49712000D01*
X175106000Y-49714000D01*
X175104000Y-49715000D01*
X175102000Y-49717000D01*
X175100000Y-49718000D01*
X175098000Y-49720000D01*
X175095000Y-49721000D01*
X175093000Y-49722000D01*
X175090000Y-49723000D01*
X175088000Y-49723000D01*
X175085000Y-49724000D01*
X175083000Y-49724000D01*
X175080000Y-49725000D01*
X175078000Y-49725000D01*
X175075000Y-49725000D01*
X174925000Y-49725000D01*
X174922000Y-49725000D01*
X174920000Y-49725000D01*
X174917000Y-49724000D01*
X174915000Y-49724000D01*
X174912000Y-49723000D01*
X174910000Y-49723000D01*
X174907000Y-49722000D01*
X174905000Y-49721000D01*
X174902000Y-49720000D01*
X174900000Y-49718000D01*
X174898000Y-49717000D01*
X174896000Y-49715000D01*
X174894000Y-49714000D01*
X174892000Y-49712000D01*
X174890000Y-49710000D01*
X174888000Y-49708000D01*
X174886000Y-49706000D01*
X174885000Y-49704000D01*
X174883000Y-49702000D01*
X174882000Y-49700000D01*
X174880000Y-49698000D01*
X174879000Y-49695000D01*
X174878000Y-49693000D01*
X174877000Y-49690000D01*
X174877000Y-49688000D01*
X174876000Y-49685000D01*
X174876000Y-49683000D01*
X174875000Y-49680000D01*
X174875000Y-49678000D01*
X174875000Y-49675000D01*
X174875000Y-49525000D01*
X174875000Y-49522000D01*
X174875000Y-49520000D01*
X174876000Y-49517000D01*
X174876000Y-49515000D01*
X174877000Y-49512000D01*
X174877000Y-49510000D01*
X174878000Y-49507000D01*
X174879000Y-49505000D01*
X174880000Y-49502000D01*
X174882000Y-49500000D01*
X174883000Y-49498000D01*
X174885000Y-49496000D01*
X174886000Y-49494000D01*
X174888000Y-49492000D01*
X174890000Y-49490000D01*
X174892000Y-49488000D01*
X174894000Y-49486000D01*
X174896000Y-49485000D01*
X174898000Y-49483000D01*
X174900000Y-49482000D01*
X174902000Y-49480000D01*
X174905000Y-49479000D01*
X174907000Y-49478000D01*
X174910000Y-49477000D01*
X174912000Y-49477000D01*
X174915000Y-49476000D01*
X174917000Y-49476000D01*
X174920000Y-49475000D01*
X174922000Y-49475000D01*
X174925000Y-49475000D01*
X175075000Y-49475000D01*
X175078000Y-49475000D01*
X175080000Y-49475000D01*
X175083000Y-49476000D01*
G37*
X174925000Y-49875000D02*
X175075000Y-49875000D01*
X175078000Y-49875000D01*
X175080000Y-49875000D01*
X175083000Y-49876000D01*
X175085000Y-49876000D01*
X175088000Y-49877000D01*
X175090000Y-49877000D01*
X175093000Y-49878000D01*
X175095000Y-49879000D01*
X175098000Y-49880000D01*
X175100000Y-49882000D01*
X175102000Y-49883000D01*
X175104000Y-49885000D01*
X175106000Y-49886000D01*
X175108000Y-49888000D01*
X175110000Y-49890000D01*
X175112000Y-49892000D01*
X175114000Y-49894000D01*
X175115000Y-49896000D01*
X175117000Y-49898000D01*
X175118000Y-49900000D01*
X175120000Y-49902000D01*
X175121000Y-49905000D01*
X175122000Y-49907000D01*
X175123000Y-49910000D01*
X175123000Y-49912000D01*
X175124000Y-49915000D01*
X175124000Y-49917000D01*
X175125000Y-49920000D01*
X175125000Y-49922000D01*
X175125000Y-49925000D01*
X175125000Y-50075000D01*
X175125000Y-50078000D01*
X175125000Y-50080000D01*
X175124000Y-50083000D01*
X175124000Y-50085000D01*
X175123000Y-50088000D01*
X175123000Y-50090000D01*
X175122000Y-50093000D01*
X175121000Y-50095000D01*
X175120000Y-50098000D01*
X175118000Y-50100000D01*
X175117000Y-50102000D01*
X175115000Y-50104000D01*
X175114000Y-50106000D01*
X175112000Y-50108000D01*
X175110000Y-50110000D01*
X175108000Y-50112000D01*
X175106000Y-50114000D01*
X175104000Y-50115000D01*
X175102000Y-50117000D01*
X175100000Y-50118000D01*
X175098000Y-50120000D01*
X175095000Y-50121000D01*
X175093000Y-50122000D01*
X175090000Y-50123000D01*
X175088000Y-50123000D01*
X175085000Y-50124000D01*
X175083000Y-50124000D01*
X175080000Y-50125000D01*
X175078000Y-50125000D01*
X175075000Y-50125000D01*
X174925000Y-50125000D01*
X174922000Y-50125000D01*
X174920000Y-50125000D01*
X174917000Y-50124000D01*
X174915000Y-50124000D01*
X174912000Y-50123000D01*
X174910000Y-50123000D01*
X174907000Y-50122000D01*
X174905000Y-50121000D01*
X174902000Y-50120000D01*
X174900000Y-50118000D01*
X174898000Y-50117000D01*
X174896000Y-50115000D01*
X174894000Y-50114000D01*
X174892000Y-50112000D01*
X174890000Y-50110000D01*
X174888000Y-50108000D01*
X174886000Y-50106000D01*
X174885000Y-50104000D01*
X174883000Y-50102000D01*
X174882000Y-50100000D01*
X174880000Y-50098000D01*
X174879000Y-50095000D01*
X174878000Y-50093000D01*
X174877000Y-50090000D01*
X174877000Y-50088000D01*
X174876000Y-50085000D01*
X174876000Y-50083000D01*
X174875000Y-50080000D01*
X174875000Y-50078000D01*
X174875000Y-50075000D01*
X174875000Y-49925000D01*
X174875000Y-49922000D01*
X174875000Y-49920000D01*
X174876000Y-49917000D01*
X174876000Y-49915000D01*
X174877000Y-49912000D01*
X174877000Y-49910000D01*
X174878000Y-49907000D01*
X174879000Y-49905000D01*
X174880000Y-49902000D01*
X174882000Y-49900000D01*
X174883000Y-49898000D01*
X174885000Y-49896000D01*
X174886000Y-49894000D01*
X174888000Y-49892000D01*
X174890000Y-49890000D01*
X174892000Y-49888000D01*
X174894000Y-49886000D01*
X174896000Y-49885000D01*
X174898000Y-49883000D01*
X174900000Y-49882000D01*
X174902000Y-49880000D01*
X174905000Y-49879000D01*
X174907000Y-49878000D01*
X174910000Y-49877000D01*
X174912000Y-49877000D01*
X174915000Y-49876000D01*
X174917000Y-49876000D01*
X174920000Y-49875000D01*
X174922000Y-49875000D01*
X174925000Y-49875000D01*
G36*
X175083000Y-49876000D02*
G01*
X175085000Y-49876000D01*
X175088000Y-49877000D01*
X175090000Y-49877000D01*
X175093000Y-49878000D01*
X175095000Y-49879000D01*
X175098000Y-49880000D01*
X175100000Y-49882000D01*
X175102000Y-49883000D01*
X175104000Y-49885000D01*
X175106000Y-49886000D01*
X175108000Y-49888000D01*
X175110000Y-49890000D01*
X175112000Y-49892000D01*
X175114000Y-49894000D01*
X175115000Y-49896000D01*
X175117000Y-49898000D01*
X175118000Y-49900000D01*
X175120000Y-49902000D01*
X175121000Y-49905000D01*
X175122000Y-49907000D01*
X175123000Y-49910000D01*
X175123000Y-49912000D01*
X175124000Y-49915000D01*
X175124000Y-49917000D01*
X175125000Y-49920000D01*
X175125000Y-49922000D01*
X175125000Y-49925000D01*
X175125000Y-50075000D01*
X175125000Y-50078000D01*
X175125000Y-50080000D01*
X175124000Y-50083000D01*
X175124000Y-50085000D01*
X175123000Y-50088000D01*
X175123000Y-50090000D01*
X175122000Y-50093000D01*
X175121000Y-50095000D01*
X175120000Y-50098000D01*
X175118000Y-50100000D01*
X175117000Y-50102000D01*
X175115000Y-50104000D01*
X175114000Y-50106000D01*
X175112000Y-50108000D01*
X175110000Y-50110000D01*
X175108000Y-50112000D01*
X175106000Y-50114000D01*
X175104000Y-50115000D01*
X175102000Y-50117000D01*
X175100000Y-50118000D01*
X175098000Y-50120000D01*
X175095000Y-50121000D01*
X175093000Y-50122000D01*
X175090000Y-50123000D01*
X175088000Y-50123000D01*
X175085000Y-50124000D01*
X175083000Y-50124000D01*
X175080000Y-50125000D01*
X175078000Y-50125000D01*
X175075000Y-50125000D01*
X174925000Y-50125000D01*
X174922000Y-50125000D01*
X174920000Y-50125000D01*
X174917000Y-50124000D01*
X174915000Y-50124000D01*
X174912000Y-50123000D01*
X174910000Y-50123000D01*
X174907000Y-50122000D01*
X174905000Y-50121000D01*
X174902000Y-50120000D01*
X174900000Y-50118000D01*
X174898000Y-50117000D01*
X174896000Y-50115000D01*
X174894000Y-50114000D01*
X174892000Y-50112000D01*
X174890000Y-50110000D01*
X174888000Y-50108000D01*
X174886000Y-50106000D01*
X174885000Y-50104000D01*
X174883000Y-50102000D01*
X174882000Y-50100000D01*
X174880000Y-50098000D01*
X174879000Y-50095000D01*
X174878000Y-50093000D01*
X174877000Y-50090000D01*
X174877000Y-50088000D01*
X174876000Y-50085000D01*
X174876000Y-50083000D01*
X174875000Y-50080000D01*
X174875000Y-50078000D01*
X174875000Y-50075000D01*
X174875000Y-49925000D01*
X174875000Y-49922000D01*
X174875000Y-49920000D01*
X174876000Y-49917000D01*
X174876000Y-49915000D01*
X174877000Y-49912000D01*
X174877000Y-49910000D01*
X174878000Y-49907000D01*
X174879000Y-49905000D01*
X174880000Y-49902000D01*
X174882000Y-49900000D01*
X174883000Y-49898000D01*
X174885000Y-49896000D01*
X174886000Y-49894000D01*
X174888000Y-49892000D01*
X174890000Y-49890000D01*
X174892000Y-49888000D01*
X174894000Y-49886000D01*
X174896000Y-49885000D01*
X174898000Y-49883000D01*
X174900000Y-49882000D01*
X174902000Y-49880000D01*
X174905000Y-49879000D01*
X174907000Y-49878000D01*
X174910000Y-49877000D01*
X174912000Y-49877000D01*
X174915000Y-49876000D01*
X174917000Y-49876000D01*
X174920000Y-49875000D01*
X174922000Y-49875000D01*
X174925000Y-49875000D01*
X175075000Y-49875000D01*
X175078000Y-49875000D01*
X175080000Y-49875000D01*
X175083000Y-49876000D01*
G37*
X175325000Y-48275000D02*
X175475000Y-48275000D01*
X175478000Y-48275000D01*
X175480000Y-48275000D01*
X175483000Y-48276000D01*
X175485000Y-48276000D01*
X175488000Y-48277000D01*
X175490000Y-48277000D01*
X175493000Y-48278000D01*
X175495000Y-48279000D01*
X175498000Y-48280000D01*
X175500000Y-48282000D01*
X175502000Y-48283000D01*
X175504000Y-48285000D01*
X175506000Y-48286000D01*
X175508000Y-48288000D01*
X175510000Y-48290000D01*
X175512000Y-48292000D01*
X175514000Y-48294000D01*
X175515000Y-48296000D01*
X175517000Y-48298000D01*
X175518000Y-48300000D01*
X175520000Y-48302000D01*
X175521000Y-48305000D01*
X175522000Y-48307000D01*
X175523000Y-48310000D01*
X175523000Y-48312000D01*
X175524000Y-48315000D01*
X175524000Y-48317000D01*
X175525000Y-48320000D01*
X175525000Y-48322000D01*
X175525000Y-48325000D01*
X175525000Y-48475000D01*
X175525000Y-48478000D01*
X175525000Y-48480000D01*
X175524000Y-48483000D01*
X175524000Y-48485000D01*
X175523000Y-48488000D01*
X175523000Y-48490000D01*
X175522000Y-48493000D01*
X175521000Y-48495000D01*
X175520000Y-48498000D01*
X175518000Y-48500000D01*
X175517000Y-48502000D01*
X175515000Y-48504000D01*
X175514000Y-48506000D01*
X175512000Y-48508000D01*
X175510000Y-48510000D01*
X175508000Y-48512000D01*
X175506000Y-48514000D01*
X175504000Y-48515000D01*
X175502000Y-48517000D01*
X175500000Y-48518000D01*
X175498000Y-48520000D01*
X175495000Y-48521000D01*
X175493000Y-48522000D01*
X175490000Y-48523000D01*
X175488000Y-48523000D01*
X175485000Y-48524000D01*
X175483000Y-48524000D01*
X175480000Y-48525000D01*
X175478000Y-48525000D01*
X175475000Y-48525000D01*
X175325000Y-48525000D01*
X175322000Y-48525000D01*
X175320000Y-48525000D01*
X175317000Y-48524000D01*
X175315000Y-48524000D01*
X175312000Y-48523000D01*
X175310000Y-48523000D01*
X175307000Y-48522000D01*
X175305000Y-48521000D01*
X175302000Y-48520000D01*
X175300000Y-48518000D01*
X175298000Y-48517000D01*
X175296000Y-48515000D01*
X175294000Y-48514000D01*
X175292000Y-48512000D01*
X175290000Y-48510000D01*
X175288000Y-48508000D01*
X175286000Y-48506000D01*
X175285000Y-48504000D01*
X175283000Y-48502000D01*
X175282000Y-48500000D01*
X175280000Y-48498000D01*
X175279000Y-48495000D01*
X175278000Y-48493000D01*
X175277000Y-48490000D01*
X175277000Y-48488000D01*
X175276000Y-48485000D01*
X175276000Y-48483000D01*
X175275000Y-48480000D01*
X175275000Y-48478000D01*
X175275000Y-48475000D01*
X175275000Y-48325000D01*
X175275000Y-48322000D01*
X175275000Y-48320000D01*
X175276000Y-48317000D01*
X175276000Y-48315000D01*
X175277000Y-48312000D01*
X175277000Y-48310000D01*
X175278000Y-48307000D01*
X175279000Y-48305000D01*
X175280000Y-48302000D01*
X175282000Y-48300000D01*
X175283000Y-48298000D01*
X175285000Y-48296000D01*
X175286000Y-48294000D01*
X175288000Y-48292000D01*
X175290000Y-48290000D01*
X175292000Y-48288000D01*
X175294000Y-48286000D01*
X175296000Y-48285000D01*
X175298000Y-48283000D01*
X175300000Y-48282000D01*
X175302000Y-48280000D01*
X175305000Y-48279000D01*
X175307000Y-48278000D01*
X175310000Y-48277000D01*
X175312000Y-48277000D01*
X175315000Y-48276000D01*
X175317000Y-48276000D01*
X175320000Y-48275000D01*
X175322000Y-48275000D01*
X175325000Y-48275000D01*
G36*
X175483000Y-48276000D02*
G01*
X175485000Y-48276000D01*
X175488000Y-48277000D01*
X175490000Y-48277000D01*
X175493000Y-48278000D01*
X175495000Y-48279000D01*
X175498000Y-48280000D01*
X175500000Y-48282000D01*
X175502000Y-48283000D01*
X175504000Y-48285000D01*
X175506000Y-48286000D01*
X175508000Y-48288000D01*
X175510000Y-48290000D01*
X175512000Y-48292000D01*
X175514000Y-48294000D01*
X175515000Y-48296000D01*
X175517000Y-48298000D01*
X175518000Y-48300000D01*
X175520000Y-48302000D01*
X175521000Y-48305000D01*
X175522000Y-48307000D01*
X175523000Y-48310000D01*
X175523000Y-48312000D01*
X175524000Y-48315000D01*
X175524000Y-48317000D01*
X175525000Y-48320000D01*
X175525000Y-48322000D01*
X175525000Y-48325000D01*
X175525000Y-48475000D01*
X175525000Y-48478000D01*
X175525000Y-48480000D01*
X175524000Y-48483000D01*
X175524000Y-48485000D01*
X175523000Y-48488000D01*
X175523000Y-48490000D01*
X175522000Y-48493000D01*
X175521000Y-48495000D01*
X175520000Y-48498000D01*
X175518000Y-48500000D01*
X175517000Y-48502000D01*
X175515000Y-48504000D01*
X175514000Y-48506000D01*
X175512000Y-48508000D01*
X175510000Y-48510000D01*
X175508000Y-48512000D01*
X175506000Y-48514000D01*
X175504000Y-48515000D01*
X175502000Y-48517000D01*
X175500000Y-48518000D01*
X175498000Y-48520000D01*
X175495000Y-48521000D01*
X175493000Y-48522000D01*
X175490000Y-48523000D01*
X175488000Y-48523000D01*
X175485000Y-48524000D01*
X175483000Y-48524000D01*
X175480000Y-48525000D01*
X175478000Y-48525000D01*
X175475000Y-48525000D01*
X175325000Y-48525000D01*
X175322000Y-48525000D01*
X175320000Y-48525000D01*
X175317000Y-48524000D01*
X175315000Y-48524000D01*
X175312000Y-48523000D01*
X175310000Y-48523000D01*
X175307000Y-48522000D01*
X175305000Y-48521000D01*
X175302000Y-48520000D01*
X175300000Y-48518000D01*
X175298000Y-48517000D01*
X175296000Y-48515000D01*
X175294000Y-48514000D01*
X175292000Y-48512000D01*
X175290000Y-48510000D01*
X175288000Y-48508000D01*
X175286000Y-48506000D01*
X175285000Y-48504000D01*
X175283000Y-48502000D01*
X175282000Y-48500000D01*
X175280000Y-48498000D01*
X175279000Y-48495000D01*
X175278000Y-48493000D01*
X175277000Y-48490000D01*
X175277000Y-48488000D01*
X175276000Y-48485000D01*
X175276000Y-48483000D01*
X175275000Y-48480000D01*
X175275000Y-48478000D01*
X175275000Y-48475000D01*
X175275000Y-48325000D01*
X175275000Y-48322000D01*
X175275000Y-48320000D01*
X175276000Y-48317000D01*
X175276000Y-48315000D01*
X175277000Y-48312000D01*
X175277000Y-48310000D01*
X175278000Y-48307000D01*
X175279000Y-48305000D01*
X175280000Y-48302000D01*
X175282000Y-48300000D01*
X175283000Y-48298000D01*
X175285000Y-48296000D01*
X175286000Y-48294000D01*
X175288000Y-48292000D01*
X175290000Y-48290000D01*
X175292000Y-48288000D01*
X175294000Y-48286000D01*
X175296000Y-48285000D01*
X175298000Y-48283000D01*
X175300000Y-48282000D01*
X175302000Y-48280000D01*
X175305000Y-48279000D01*
X175307000Y-48278000D01*
X175310000Y-48277000D01*
X175312000Y-48277000D01*
X175315000Y-48276000D01*
X175317000Y-48276000D01*
X175320000Y-48275000D01*
X175322000Y-48275000D01*
X175325000Y-48275000D01*
X175475000Y-48275000D01*
X175478000Y-48275000D01*
X175480000Y-48275000D01*
X175483000Y-48276000D01*
G37*
X175325000Y-48675000D02*
X175475000Y-48675000D01*
X175478000Y-48675000D01*
X175480000Y-48675000D01*
X175483000Y-48676000D01*
X175485000Y-48676000D01*
X175488000Y-48677000D01*
X175490000Y-48677000D01*
X175493000Y-48678000D01*
X175495000Y-48679000D01*
X175498000Y-48680000D01*
X175500000Y-48682000D01*
X175502000Y-48683000D01*
X175504000Y-48685000D01*
X175506000Y-48686000D01*
X175508000Y-48688000D01*
X175510000Y-48690000D01*
X175512000Y-48692000D01*
X175514000Y-48694000D01*
X175515000Y-48696000D01*
X175517000Y-48698000D01*
X175518000Y-48700000D01*
X175520000Y-48702000D01*
X175521000Y-48705000D01*
X175522000Y-48707000D01*
X175523000Y-48710000D01*
X175523000Y-48712000D01*
X175524000Y-48715000D01*
X175524000Y-48717000D01*
X175525000Y-48720000D01*
X175525000Y-48722000D01*
X175525000Y-48725000D01*
X175525000Y-48875000D01*
X175525000Y-48878000D01*
X175525000Y-48880000D01*
X175524000Y-48883000D01*
X175524000Y-48885000D01*
X175523000Y-48888000D01*
X175523000Y-48890000D01*
X175522000Y-48893000D01*
X175521000Y-48895000D01*
X175520000Y-48898000D01*
X175518000Y-48900000D01*
X175517000Y-48902000D01*
X175515000Y-48904000D01*
X175514000Y-48906000D01*
X175512000Y-48908000D01*
X175510000Y-48910000D01*
X175508000Y-48912000D01*
X175506000Y-48914000D01*
X175504000Y-48915000D01*
X175502000Y-48917000D01*
X175500000Y-48918000D01*
X175498000Y-48920000D01*
X175495000Y-48921000D01*
X175493000Y-48922000D01*
X175490000Y-48923000D01*
X175488000Y-48923000D01*
X175485000Y-48924000D01*
X175483000Y-48924000D01*
X175480000Y-48925000D01*
X175478000Y-48925000D01*
X175475000Y-48925000D01*
X175325000Y-48925000D01*
X175322000Y-48925000D01*
X175320000Y-48925000D01*
X175317000Y-48924000D01*
X175315000Y-48924000D01*
X175312000Y-48923000D01*
X175310000Y-48923000D01*
X175307000Y-48922000D01*
X175305000Y-48921000D01*
X175302000Y-48920000D01*
X175300000Y-48918000D01*
X175298000Y-48917000D01*
X175296000Y-48915000D01*
X175294000Y-48914000D01*
X175292000Y-48912000D01*
X175290000Y-48910000D01*
X175288000Y-48908000D01*
X175286000Y-48906000D01*
X175285000Y-48904000D01*
X175283000Y-48902000D01*
X175282000Y-48900000D01*
X175280000Y-48898000D01*
X175279000Y-48895000D01*
X175278000Y-48893000D01*
X175277000Y-48890000D01*
X175277000Y-48888000D01*
X175276000Y-48885000D01*
X175276000Y-48883000D01*
X175275000Y-48880000D01*
X175275000Y-48878000D01*
X175275000Y-48875000D01*
X175275000Y-48725000D01*
X175275000Y-48722000D01*
X175275000Y-48720000D01*
X175276000Y-48717000D01*
X175276000Y-48715000D01*
X175277000Y-48712000D01*
X175277000Y-48710000D01*
X175278000Y-48707000D01*
X175279000Y-48705000D01*
X175280000Y-48702000D01*
X175282000Y-48700000D01*
X175283000Y-48698000D01*
X175285000Y-48696000D01*
X175286000Y-48694000D01*
X175288000Y-48692000D01*
X175290000Y-48690000D01*
X175292000Y-48688000D01*
X175294000Y-48686000D01*
X175296000Y-48685000D01*
X175298000Y-48683000D01*
X175300000Y-48682000D01*
X175302000Y-48680000D01*
X175305000Y-48679000D01*
X175307000Y-48678000D01*
X175310000Y-48677000D01*
X175312000Y-48677000D01*
X175315000Y-48676000D01*
X175317000Y-48676000D01*
X175320000Y-48675000D01*
X175322000Y-48675000D01*
X175325000Y-48675000D01*
G36*
X175483000Y-48676000D02*
G01*
X175485000Y-48676000D01*
X175488000Y-48677000D01*
X175490000Y-48677000D01*
X175493000Y-48678000D01*
X175495000Y-48679000D01*
X175498000Y-48680000D01*
X175500000Y-48682000D01*
X175502000Y-48683000D01*
X175504000Y-48685000D01*
X175506000Y-48686000D01*
X175508000Y-48688000D01*
X175510000Y-48690000D01*
X175512000Y-48692000D01*
X175514000Y-48694000D01*
X175515000Y-48696000D01*
X175517000Y-48698000D01*
X175518000Y-48700000D01*
X175520000Y-48702000D01*
X175521000Y-48705000D01*
X175522000Y-48707000D01*
X175523000Y-48710000D01*
X175523000Y-48712000D01*
X175524000Y-48715000D01*
X175524000Y-48717000D01*
X175525000Y-48720000D01*
X175525000Y-48722000D01*
X175525000Y-48725000D01*
X175525000Y-48875000D01*
X175525000Y-48878000D01*
X175525000Y-48880000D01*
X175524000Y-48883000D01*
X175524000Y-48885000D01*
X175523000Y-48888000D01*
X175523000Y-48890000D01*
X175522000Y-48893000D01*
X175521000Y-48895000D01*
X175520000Y-48898000D01*
X175518000Y-48900000D01*
X175517000Y-48902000D01*
X175515000Y-48904000D01*
X175514000Y-48906000D01*
X175512000Y-48908000D01*
X175510000Y-48910000D01*
X175508000Y-48912000D01*
X175506000Y-48914000D01*
X175504000Y-48915000D01*
X175502000Y-48917000D01*
X175500000Y-48918000D01*
X175498000Y-48920000D01*
X175495000Y-48921000D01*
X175493000Y-48922000D01*
X175490000Y-48923000D01*
X175488000Y-48923000D01*
X175485000Y-48924000D01*
X175483000Y-48924000D01*
X175480000Y-48925000D01*
X175478000Y-48925000D01*
X175475000Y-48925000D01*
X175325000Y-48925000D01*
X175322000Y-48925000D01*
X175320000Y-48925000D01*
X175317000Y-48924000D01*
X175315000Y-48924000D01*
X175312000Y-48923000D01*
X175310000Y-48923000D01*
X175307000Y-48922000D01*
X175305000Y-48921000D01*
X175302000Y-48920000D01*
X175300000Y-48918000D01*
X175298000Y-48917000D01*
X175296000Y-48915000D01*
X175294000Y-48914000D01*
X175292000Y-48912000D01*
X175290000Y-48910000D01*
X175288000Y-48908000D01*
X175286000Y-48906000D01*
X175285000Y-48904000D01*
X175283000Y-48902000D01*
X175282000Y-48900000D01*
X175280000Y-48898000D01*
X175279000Y-48895000D01*
X175278000Y-48893000D01*
X175277000Y-48890000D01*
X175277000Y-48888000D01*
X175276000Y-48885000D01*
X175276000Y-48883000D01*
X175275000Y-48880000D01*
X175275000Y-48878000D01*
X175275000Y-48875000D01*
X175275000Y-48725000D01*
X175275000Y-48722000D01*
X175275000Y-48720000D01*
X175276000Y-48717000D01*
X175276000Y-48715000D01*
X175277000Y-48712000D01*
X175277000Y-48710000D01*
X175278000Y-48707000D01*
X175279000Y-48705000D01*
X175280000Y-48702000D01*
X175282000Y-48700000D01*
X175283000Y-48698000D01*
X175285000Y-48696000D01*
X175286000Y-48694000D01*
X175288000Y-48692000D01*
X175290000Y-48690000D01*
X175292000Y-48688000D01*
X175294000Y-48686000D01*
X175296000Y-48685000D01*
X175298000Y-48683000D01*
X175300000Y-48682000D01*
X175302000Y-48680000D01*
X175305000Y-48679000D01*
X175307000Y-48678000D01*
X175310000Y-48677000D01*
X175312000Y-48677000D01*
X175315000Y-48676000D01*
X175317000Y-48676000D01*
X175320000Y-48675000D01*
X175322000Y-48675000D01*
X175325000Y-48675000D01*
X175475000Y-48675000D01*
X175478000Y-48675000D01*
X175480000Y-48675000D01*
X175483000Y-48676000D01*
G37*
X175325000Y-49075000D02*
X175475000Y-49075000D01*
X175478000Y-49075000D01*
X175480000Y-49075000D01*
X175483000Y-49076000D01*
X175485000Y-49076000D01*
X175488000Y-49077000D01*
X175490000Y-49077000D01*
X175493000Y-49078000D01*
X175495000Y-49079000D01*
X175498000Y-49080000D01*
X175500000Y-49082000D01*
X175502000Y-49083000D01*
X175504000Y-49085000D01*
X175506000Y-49086000D01*
X175508000Y-49088000D01*
X175510000Y-49090000D01*
X175512000Y-49092000D01*
X175514000Y-49094000D01*
X175515000Y-49096000D01*
X175517000Y-49098000D01*
X175518000Y-49100000D01*
X175520000Y-49102000D01*
X175521000Y-49105000D01*
X175522000Y-49107000D01*
X175523000Y-49110000D01*
X175523000Y-49112000D01*
X175524000Y-49115000D01*
X175524000Y-49117000D01*
X175525000Y-49120000D01*
X175525000Y-49122000D01*
X175525000Y-49125000D01*
X175525000Y-49275000D01*
X175525000Y-49278000D01*
X175525000Y-49280000D01*
X175524000Y-49283000D01*
X175524000Y-49285000D01*
X175523000Y-49288000D01*
X175523000Y-49290000D01*
X175522000Y-49293000D01*
X175521000Y-49295000D01*
X175520000Y-49298000D01*
X175518000Y-49300000D01*
X175517000Y-49302000D01*
X175515000Y-49304000D01*
X175514000Y-49306000D01*
X175512000Y-49308000D01*
X175510000Y-49310000D01*
X175508000Y-49312000D01*
X175506000Y-49314000D01*
X175504000Y-49315000D01*
X175502000Y-49317000D01*
X175500000Y-49318000D01*
X175498000Y-49320000D01*
X175495000Y-49321000D01*
X175493000Y-49322000D01*
X175490000Y-49323000D01*
X175488000Y-49323000D01*
X175485000Y-49324000D01*
X175483000Y-49324000D01*
X175480000Y-49325000D01*
X175478000Y-49325000D01*
X175475000Y-49325000D01*
X175325000Y-49325000D01*
X175322000Y-49325000D01*
X175320000Y-49325000D01*
X175317000Y-49324000D01*
X175315000Y-49324000D01*
X175312000Y-49323000D01*
X175310000Y-49323000D01*
X175307000Y-49322000D01*
X175305000Y-49321000D01*
X175302000Y-49320000D01*
X175300000Y-49318000D01*
X175298000Y-49317000D01*
X175296000Y-49315000D01*
X175294000Y-49314000D01*
X175292000Y-49312000D01*
X175290000Y-49310000D01*
X175288000Y-49308000D01*
X175286000Y-49306000D01*
X175285000Y-49304000D01*
X175283000Y-49302000D01*
X175282000Y-49300000D01*
X175280000Y-49298000D01*
X175279000Y-49295000D01*
X175278000Y-49293000D01*
X175277000Y-49290000D01*
X175277000Y-49288000D01*
X175276000Y-49285000D01*
X175276000Y-49283000D01*
X175275000Y-49280000D01*
X175275000Y-49278000D01*
X175275000Y-49275000D01*
X175275000Y-49125000D01*
X175275000Y-49122000D01*
X175275000Y-49120000D01*
X175276000Y-49117000D01*
X175276000Y-49115000D01*
X175277000Y-49112000D01*
X175277000Y-49110000D01*
X175278000Y-49107000D01*
X175279000Y-49105000D01*
X175280000Y-49102000D01*
X175282000Y-49100000D01*
X175283000Y-49098000D01*
X175285000Y-49096000D01*
X175286000Y-49094000D01*
X175288000Y-49092000D01*
X175290000Y-49090000D01*
X175292000Y-49088000D01*
X175294000Y-49086000D01*
X175296000Y-49085000D01*
X175298000Y-49083000D01*
X175300000Y-49082000D01*
X175302000Y-49080000D01*
X175305000Y-49079000D01*
X175307000Y-49078000D01*
X175310000Y-49077000D01*
X175312000Y-49077000D01*
X175315000Y-49076000D01*
X175317000Y-49076000D01*
X175320000Y-49075000D01*
X175322000Y-49075000D01*
X175325000Y-49075000D01*
G36*
X175483000Y-49076000D02*
G01*
X175485000Y-49076000D01*
X175488000Y-49077000D01*
X175490000Y-49077000D01*
X175493000Y-49078000D01*
X175495000Y-49079000D01*
X175498000Y-49080000D01*
X175500000Y-49082000D01*
X175502000Y-49083000D01*
X175504000Y-49085000D01*
X175506000Y-49086000D01*
X175508000Y-49088000D01*
X175510000Y-49090000D01*
X175512000Y-49092000D01*
X175514000Y-49094000D01*
X175515000Y-49096000D01*
X175517000Y-49098000D01*
X175518000Y-49100000D01*
X175520000Y-49102000D01*
X175521000Y-49105000D01*
X175522000Y-49107000D01*
X175523000Y-49110000D01*
X175523000Y-49112000D01*
X175524000Y-49115000D01*
X175524000Y-49117000D01*
X175525000Y-49120000D01*
X175525000Y-49122000D01*
X175525000Y-49125000D01*
X175525000Y-49275000D01*
X175525000Y-49278000D01*
X175525000Y-49280000D01*
X175524000Y-49283000D01*
X175524000Y-49285000D01*
X175523000Y-49288000D01*
X175523000Y-49290000D01*
X175522000Y-49293000D01*
X175521000Y-49295000D01*
X175520000Y-49298000D01*
X175518000Y-49300000D01*
X175517000Y-49302000D01*
X175515000Y-49304000D01*
X175514000Y-49306000D01*
X175512000Y-49308000D01*
X175510000Y-49310000D01*
X175508000Y-49312000D01*
X175506000Y-49314000D01*
X175504000Y-49315000D01*
X175502000Y-49317000D01*
X175500000Y-49318000D01*
X175498000Y-49320000D01*
X175495000Y-49321000D01*
X175493000Y-49322000D01*
X175490000Y-49323000D01*
X175488000Y-49323000D01*
X175485000Y-49324000D01*
X175483000Y-49324000D01*
X175480000Y-49325000D01*
X175478000Y-49325000D01*
X175475000Y-49325000D01*
X175325000Y-49325000D01*
X175322000Y-49325000D01*
X175320000Y-49325000D01*
X175317000Y-49324000D01*
X175315000Y-49324000D01*
X175312000Y-49323000D01*
X175310000Y-49323000D01*
X175307000Y-49322000D01*
X175305000Y-49321000D01*
X175302000Y-49320000D01*
X175300000Y-49318000D01*
X175298000Y-49317000D01*
X175296000Y-49315000D01*
X175294000Y-49314000D01*
X175292000Y-49312000D01*
X175290000Y-49310000D01*
X175288000Y-49308000D01*
X175286000Y-49306000D01*
X175285000Y-49304000D01*
X175283000Y-49302000D01*
X175282000Y-49300000D01*
X175280000Y-49298000D01*
X175279000Y-49295000D01*
X175278000Y-49293000D01*
X175277000Y-49290000D01*
X175277000Y-49288000D01*
X175276000Y-49285000D01*
X175276000Y-49283000D01*
X175275000Y-49280000D01*
X175275000Y-49278000D01*
X175275000Y-49275000D01*
X175275000Y-49125000D01*
X175275000Y-49122000D01*
X175275000Y-49120000D01*
X175276000Y-49117000D01*
X175276000Y-49115000D01*
X175277000Y-49112000D01*
X175277000Y-49110000D01*
X175278000Y-49107000D01*
X175279000Y-49105000D01*
X175280000Y-49102000D01*
X175282000Y-49100000D01*
X175283000Y-49098000D01*
X175285000Y-49096000D01*
X175286000Y-49094000D01*
X175288000Y-49092000D01*
X175290000Y-49090000D01*
X175292000Y-49088000D01*
X175294000Y-49086000D01*
X175296000Y-49085000D01*
X175298000Y-49083000D01*
X175300000Y-49082000D01*
X175302000Y-49080000D01*
X175305000Y-49079000D01*
X175307000Y-49078000D01*
X175310000Y-49077000D01*
X175312000Y-49077000D01*
X175315000Y-49076000D01*
X175317000Y-49076000D01*
X175320000Y-49075000D01*
X175322000Y-49075000D01*
X175325000Y-49075000D01*
X175475000Y-49075000D01*
X175478000Y-49075000D01*
X175480000Y-49075000D01*
X175483000Y-49076000D01*
G37*
X175325000Y-49475000D02*
X175475000Y-49475000D01*
X175478000Y-49475000D01*
X175480000Y-49475000D01*
X175483000Y-49476000D01*
X175485000Y-49476000D01*
X175488000Y-49477000D01*
X175490000Y-49477000D01*
X175493000Y-49478000D01*
X175495000Y-49479000D01*
X175498000Y-49480000D01*
X175500000Y-49482000D01*
X175502000Y-49483000D01*
X175504000Y-49485000D01*
X175506000Y-49486000D01*
X175508000Y-49488000D01*
X175510000Y-49490000D01*
X175512000Y-49492000D01*
X175514000Y-49494000D01*
X175515000Y-49496000D01*
X175517000Y-49498000D01*
X175518000Y-49500000D01*
X175520000Y-49502000D01*
X175521000Y-49505000D01*
X175522000Y-49507000D01*
X175523000Y-49510000D01*
X175523000Y-49512000D01*
X175524000Y-49515000D01*
X175524000Y-49517000D01*
X175525000Y-49520000D01*
X175525000Y-49522000D01*
X175525000Y-49525000D01*
X175525000Y-49675000D01*
X175525000Y-49678000D01*
X175525000Y-49680000D01*
X175524000Y-49683000D01*
X175524000Y-49685000D01*
X175523000Y-49688000D01*
X175523000Y-49690000D01*
X175522000Y-49693000D01*
X175521000Y-49695000D01*
X175520000Y-49698000D01*
X175518000Y-49700000D01*
X175517000Y-49702000D01*
X175515000Y-49704000D01*
X175514000Y-49706000D01*
X175512000Y-49708000D01*
X175510000Y-49710000D01*
X175508000Y-49712000D01*
X175506000Y-49714000D01*
X175504000Y-49715000D01*
X175502000Y-49717000D01*
X175500000Y-49718000D01*
X175498000Y-49720000D01*
X175495000Y-49721000D01*
X175493000Y-49722000D01*
X175490000Y-49723000D01*
X175488000Y-49723000D01*
X175485000Y-49724000D01*
X175483000Y-49724000D01*
X175480000Y-49725000D01*
X175478000Y-49725000D01*
X175475000Y-49725000D01*
X175325000Y-49725000D01*
X175322000Y-49725000D01*
X175320000Y-49725000D01*
X175317000Y-49724000D01*
X175315000Y-49724000D01*
X175312000Y-49723000D01*
X175310000Y-49723000D01*
X175307000Y-49722000D01*
X175305000Y-49721000D01*
X175302000Y-49720000D01*
X175300000Y-49718000D01*
X175298000Y-49717000D01*
X175296000Y-49715000D01*
X175294000Y-49714000D01*
X175292000Y-49712000D01*
X175290000Y-49710000D01*
X175288000Y-49708000D01*
X175286000Y-49706000D01*
X175285000Y-49704000D01*
X175283000Y-49702000D01*
X175282000Y-49700000D01*
X175280000Y-49698000D01*
X175279000Y-49695000D01*
X175278000Y-49693000D01*
X175277000Y-49690000D01*
X175277000Y-49688000D01*
X175276000Y-49685000D01*
X175276000Y-49683000D01*
X175275000Y-49680000D01*
X175275000Y-49678000D01*
X175275000Y-49675000D01*
X175275000Y-49525000D01*
X175275000Y-49522000D01*
X175275000Y-49520000D01*
X175276000Y-49517000D01*
X175276000Y-49515000D01*
X175277000Y-49512000D01*
X175277000Y-49510000D01*
X175278000Y-49507000D01*
X175279000Y-49505000D01*
X175280000Y-49502000D01*
X175282000Y-49500000D01*
X175283000Y-49498000D01*
X175285000Y-49496000D01*
X175286000Y-49494000D01*
X175288000Y-49492000D01*
X175290000Y-49490000D01*
X175292000Y-49488000D01*
X175294000Y-49486000D01*
X175296000Y-49485000D01*
X175298000Y-49483000D01*
X175300000Y-49482000D01*
X175302000Y-49480000D01*
X175305000Y-49479000D01*
X175307000Y-49478000D01*
X175310000Y-49477000D01*
X175312000Y-49477000D01*
X175315000Y-49476000D01*
X175317000Y-49476000D01*
X175320000Y-49475000D01*
X175322000Y-49475000D01*
X175325000Y-49475000D01*
G36*
X175483000Y-49476000D02*
G01*
X175485000Y-49476000D01*
X175488000Y-49477000D01*
X175490000Y-49477000D01*
X175493000Y-49478000D01*
X175495000Y-49479000D01*
X175498000Y-49480000D01*
X175500000Y-49482000D01*
X175502000Y-49483000D01*
X175504000Y-49485000D01*
X175506000Y-49486000D01*
X175508000Y-49488000D01*
X175510000Y-49490000D01*
X175512000Y-49492000D01*
X175514000Y-49494000D01*
X175515000Y-49496000D01*
X175517000Y-49498000D01*
X175518000Y-49500000D01*
X175520000Y-49502000D01*
X175521000Y-49505000D01*
X175522000Y-49507000D01*
X175523000Y-49510000D01*
X175523000Y-49512000D01*
X175524000Y-49515000D01*
X175524000Y-49517000D01*
X175525000Y-49520000D01*
X175525000Y-49522000D01*
X175525000Y-49525000D01*
X175525000Y-49675000D01*
X175525000Y-49678000D01*
X175525000Y-49680000D01*
X175524000Y-49683000D01*
X175524000Y-49685000D01*
X175523000Y-49688000D01*
X175523000Y-49690000D01*
X175522000Y-49693000D01*
X175521000Y-49695000D01*
X175520000Y-49698000D01*
X175518000Y-49700000D01*
X175517000Y-49702000D01*
X175515000Y-49704000D01*
X175514000Y-49706000D01*
X175512000Y-49708000D01*
X175510000Y-49710000D01*
X175508000Y-49712000D01*
X175506000Y-49714000D01*
X175504000Y-49715000D01*
X175502000Y-49717000D01*
X175500000Y-49718000D01*
X175498000Y-49720000D01*
X175495000Y-49721000D01*
X175493000Y-49722000D01*
X175490000Y-49723000D01*
X175488000Y-49723000D01*
X175485000Y-49724000D01*
X175483000Y-49724000D01*
X175480000Y-49725000D01*
X175478000Y-49725000D01*
X175475000Y-49725000D01*
X175325000Y-49725000D01*
X175322000Y-49725000D01*
X175320000Y-49725000D01*
X175317000Y-49724000D01*
X175315000Y-49724000D01*
X175312000Y-49723000D01*
X175310000Y-49723000D01*
X175307000Y-49722000D01*
X175305000Y-49721000D01*
X175302000Y-49720000D01*
X175300000Y-49718000D01*
X175298000Y-49717000D01*
X175296000Y-49715000D01*
X175294000Y-49714000D01*
X175292000Y-49712000D01*
X175290000Y-49710000D01*
X175288000Y-49708000D01*
X175286000Y-49706000D01*
X175285000Y-49704000D01*
X175283000Y-49702000D01*
X175282000Y-49700000D01*
X175280000Y-49698000D01*
X175279000Y-49695000D01*
X175278000Y-49693000D01*
X175277000Y-49690000D01*
X175277000Y-49688000D01*
X175276000Y-49685000D01*
X175276000Y-49683000D01*
X175275000Y-49680000D01*
X175275000Y-49678000D01*
X175275000Y-49675000D01*
X175275000Y-49525000D01*
X175275000Y-49522000D01*
X175275000Y-49520000D01*
X175276000Y-49517000D01*
X175276000Y-49515000D01*
X175277000Y-49512000D01*
X175277000Y-49510000D01*
X175278000Y-49507000D01*
X175279000Y-49505000D01*
X175280000Y-49502000D01*
X175282000Y-49500000D01*
X175283000Y-49498000D01*
X175285000Y-49496000D01*
X175286000Y-49494000D01*
X175288000Y-49492000D01*
X175290000Y-49490000D01*
X175292000Y-49488000D01*
X175294000Y-49486000D01*
X175296000Y-49485000D01*
X175298000Y-49483000D01*
X175300000Y-49482000D01*
X175302000Y-49480000D01*
X175305000Y-49479000D01*
X175307000Y-49478000D01*
X175310000Y-49477000D01*
X175312000Y-49477000D01*
X175315000Y-49476000D01*
X175317000Y-49476000D01*
X175320000Y-49475000D01*
X175322000Y-49475000D01*
X175325000Y-49475000D01*
X175475000Y-49475000D01*
X175478000Y-49475000D01*
X175480000Y-49475000D01*
X175483000Y-49476000D01*
G37*
X175325000Y-49875000D02*
X175475000Y-49875000D01*
X175478000Y-49875000D01*
X175480000Y-49875000D01*
X175483000Y-49876000D01*
X175485000Y-49876000D01*
X175488000Y-49877000D01*
X175490000Y-49877000D01*
X175493000Y-49878000D01*
X175495000Y-49879000D01*
X175498000Y-49880000D01*
X175500000Y-49882000D01*
X175502000Y-49883000D01*
X175504000Y-49885000D01*
X175506000Y-49886000D01*
X175508000Y-49888000D01*
X175510000Y-49890000D01*
X175512000Y-49892000D01*
X175514000Y-49894000D01*
X175515000Y-49896000D01*
X175517000Y-49898000D01*
X175518000Y-49900000D01*
X175520000Y-49902000D01*
X175521000Y-49905000D01*
X175522000Y-49907000D01*
X175523000Y-49910000D01*
X175523000Y-49912000D01*
X175524000Y-49915000D01*
X175524000Y-49917000D01*
X175525000Y-49920000D01*
X175525000Y-49922000D01*
X175525000Y-49925000D01*
X175525000Y-50075000D01*
X175525000Y-50078000D01*
X175525000Y-50080000D01*
X175524000Y-50083000D01*
X175524000Y-50085000D01*
X175523000Y-50088000D01*
X175523000Y-50090000D01*
X175522000Y-50093000D01*
X175521000Y-50095000D01*
X175520000Y-50098000D01*
X175518000Y-50100000D01*
X175517000Y-50102000D01*
X175515000Y-50104000D01*
X175514000Y-50106000D01*
X175512000Y-50108000D01*
X175510000Y-50110000D01*
X175508000Y-50112000D01*
X175506000Y-50114000D01*
X175504000Y-50115000D01*
X175502000Y-50117000D01*
X175500000Y-50118000D01*
X175498000Y-50120000D01*
X175495000Y-50121000D01*
X175493000Y-50122000D01*
X175490000Y-50123000D01*
X175488000Y-50123000D01*
X175485000Y-50124000D01*
X175483000Y-50124000D01*
X175480000Y-50125000D01*
X175478000Y-50125000D01*
X175475000Y-50125000D01*
X175325000Y-50125000D01*
X175322000Y-50125000D01*
X175320000Y-50125000D01*
X175317000Y-50124000D01*
X175315000Y-50124000D01*
X175312000Y-50123000D01*
X175310000Y-50123000D01*
X175307000Y-50122000D01*
X175305000Y-50121000D01*
X175302000Y-50120000D01*
X175300000Y-50118000D01*
X175298000Y-50117000D01*
X175296000Y-50115000D01*
X175294000Y-50114000D01*
X175292000Y-50112000D01*
X175290000Y-50110000D01*
X175288000Y-50108000D01*
X175286000Y-50106000D01*
X175285000Y-50104000D01*
X175283000Y-50102000D01*
X175282000Y-50100000D01*
X175280000Y-50098000D01*
X175279000Y-50095000D01*
X175278000Y-50093000D01*
X175277000Y-50090000D01*
X175277000Y-50088000D01*
X175276000Y-50085000D01*
X175276000Y-50083000D01*
X175275000Y-50080000D01*
X175275000Y-50078000D01*
X175275000Y-50075000D01*
X175275000Y-49925000D01*
X175275000Y-49922000D01*
X175275000Y-49920000D01*
X175276000Y-49917000D01*
X175276000Y-49915000D01*
X175277000Y-49912000D01*
X175277000Y-49910000D01*
X175278000Y-49907000D01*
X175279000Y-49905000D01*
X175280000Y-49902000D01*
X175282000Y-49900000D01*
X175283000Y-49898000D01*
X175285000Y-49896000D01*
X175286000Y-49894000D01*
X175288000Y-49892000D01*
X175290000Y-49890000D01*
X175292000Y-49888000D01*
X175294000Y-49886000D01*
X175296000Y-49885000D01*
X175298000Y-49883000D01*
X175300000Y-49882000D01*
X175302000Y-49880000D01*
X175305000Y-49879000D01*
X175307000Y-49878000D01*
X175310000Y-49877000D01*
X175312000Y-49877000D01*
X175315000Y-49876000D01*
X175317000Y-49876000D01*
X175320000Y-49875000D01*
X175322000Y-49875000D01*
X175325000Y-49875000D01*
G36*
X175483000Y-49876000D02*
G01*
X175485000Y-49876000D01*
X175488000Y-49877000D01*
X175490000Y-49877000D01*
X175493000Y-49878000D01*
X175495000Y-49879000D01*
X175498000Y-49880000D01*
X175500000Y-49882000D01*
X175502000Y-49883000D01*
X175504000Y-49885000D01*
X175506000Y-49886000D01*
X175508000Y-49888000D01*
X175510000Y-49890000D01*
X175512000Y-49892000D01*
X175514000Y-49894000D01*
X175515000Y-49896000D01*
X175517000Y-49898000D01*
X175518000Y-49900000D01*
X175520000Y-49902000D01*
X175521000Y-49905000D01*
X175522000Y-49907000D01*
X175523000Y-49910000D01*
X175523000Y-49912000D01*
X175524000Y-49915000D01*
X175524000Y-49917000D01*
X175525000Y-49920000D01*
X175525000Y-49922000D01*
X175525000Y-49925000D01*
X175525000Y-50075000D01*
X175525000Y-50078000D01*
X175525000Y-50080000D01*
X175524000Y-50083000D01*
X175524000Y-50085000D01*
X175523000Y-50088000D01*
X175523000Y-50090000D01*
X175522000Y-50093000D01*
X175521000Y-50095000D01*
X175520000Y-50098000D01*
X175518000Y-50100000D01*
X175517000Y-50102000D01*
X175515000Y-50104000D01*
X175514000Y-50106000D01*
X175512000Y-50108000D01*
X175510000Y-50110000D01*
X175508000Y-50112000D01*
X175506000Y-50114000D01*
X175504000Y-50115000D01*
X175502000Y-50117000D01*
X175500000Y-50118000D01*
X175498000Y-50120000D01*
X175495000Y-50121000D01*
X175493000Y-50122000D01*
X175490000Y-50123000D01*
X175488000Y-50123000D01*
X175485000Y-50124000D01*
X175483000Y-50124000D01*
X175480000Y-50125000D01*
X175478000Y-50125000D01*
X175475000Y-50125000D01*
X175325000Y-50125000D01*
X175322000Y-50125000D01*
X175320000Y-50125000D01*
X175317000Y-50124000D01*
X175315000Y-50124000D01*
X175312000Y-50123000D01*
X175310000Y-50123000D01*
X175307000Y-50122000D01*
X175305000Y-50121000D01*
X175302000Y-50120000D01*
X175300000Y-50118000D01*
X175298000Y-50117000D01*
X175296000Y-50115000D01*
X175294000Y-50114000D01*
X175292000Y-50112000D01*
X175290000Y-50110000D01*
X175288000Y-50108000D01*
X175286000Y-50106000D01*
X175285000Y-50104000D01*
X175283000Y-50102000D01*
X175282000Y-50100000D01*
X175280000Y-50098000D01*
X175279000Y-50095000D01*
X175278000Y-50093000D01*
X175277000Y-50090000D01*
X175277000Y-50088000D01*
X175276000Y-50085000D01*
X175276000Y-50083000D01*
X175275000Y-50080000D01*
X175275000Y-50078000D01*
X175275000Y-50075000D01*
X175275000Y-49925000D01*
X175275000Y-49922000D01*
X175275000Y-49920000D01*
X175276000Y-49917000D01*
X175276000Y-49915000D01*
X175277000Y-49912000D01*
X175277000Y-49910000D01*
X175278000Y-49907000D01*
X175279000Y-49905000D01*
X175280000Y-49902000D01*
X175282000Y-49900000D01*
X175283000Y-49898000D01*
X175285000Y-49896000D01*
X175286000Y-49894000D01*
X175288000Y-49892000D01*
X175290000Y-49890000D01*
X175292000Y-49888000D01*
X175294000Y-49886000D01*
X175296000Y-49885000D01*
X175298000Y-49883000D01*
X175300000Y-49882000D01*
X175302000Y-49880000D01*
X175305000Y-49879000D01*
X175307000Y-49878000D01*
X175310000Y-49877000D01*
X175312000Y-49877000D01*
X175315000Y-49876000D01*
X175317000Y-49876000D01*
X175320000Y-49875000D01*
X175322000Y-49875000D01*
X175325000Y-49875000D01*
X175475000Y-49875000D01*
X175478000Y-49875000D01*
X175480000Y-49875000D01*
X175483000Y-49876000D01*
G37*
X175725000Y-48275000D02*
X175875000Y-48275000D01*
X175878000Y-48275000D01*
X175880000Y-48275000D01*
X175883000Y-48276000D01*
X175885000Y-48276000D01*
X175888000Y-48277000D01*
X175890000Y-48277000D01*
X175893000Y-48278000D01*
X175895000Y-48279000D01*
X175898000Y-48280000D01*
X175900000Y-48282000D01*
X175902000Y-48283000D01*
X175904000Y-48285000D01*
X175906000Y-48286000D01*
X175908000Y-48288000D01*
X175910000Y-48290000D01*
X175912000Y-48292000D01*
X175914000Y-48294000D01*
X175915000Y-48296000D01*
X175917000Y-48298000D01*
X175918000Y-48300000D01*
X175920000Y-48302000D01*
X175921000Y-48305000D01*
X175922000Y-48307000D01*
X175923000Y-48310000D01*
X175923000Y-48312000D01*
X175924000Y-48315000D01*
X175924000Y-48317000D01*
X175925000Y-48320000D01*
X175925000Y-48322000D01*
X175925000Y-48325000D01*
X175925000Y-48475000D01*
X175925000Y-48478000D01*
X175925000Y-48480000D01*
X175924000Y-48483000D01*
X175924000Y-48485000D01*
X175923000Y-48488000D01*
X175923000Y-48490000D01*
X175922000Y-48493000D01*
X175921000Y-48495000D01*
X175920000Y-48498000D01*
X175918000Y-48500000D01*
X175917000Y-48502000D01*
X175915000Y-48504000D01*
X175914000Y-48506000D01*
X175912000Y-48508000D01*
X175910000Y-48510000D01*
X175908000Y-48512000D01*
X175906000Y-48514000D01*
X175904000Y-48515000D01*
X175902000Y-48517000D01*
X175900000Y-48518000D01*
X175898000Y-48520000D01*
X175895000Y-48521000D01*
X175893000Y-48522000D01*
X175890000Y-48523000D01*
X175888000Y-48523000D01*
X175885000Y-48524000D01*
X175883000Y-48524000D01*
X175880000Y-48525000D01*
X175878000Y-48525000D01*
X175875000Y-48525000D01*
X175725000Y-48525000D01*
X175722000Y-48525000D01*
X175720000Y-48525000D01*
X175717000Y-48524000D01*
X175715000Y-48524000D01*
X175712000Y-48523000D01*
X175710000Y-48523000D01*
X175707000Y-48522000D01*
X175705000Y-48521000D01*
X175702000Y-48520000D01*
X175700000Y-48518000D01*
X175698000Y-48517000D01*
X175696000Y-48515000D01*
X175694000Y-48514000D01*
X175692000Y-48512000D01*
X175690000Y-48510000D01*
X175688000Y-48508000D01*
X175686000Y-48506000D01*
X175685000Y-48504000D01*
X175683000Y-48502000D01*
X175682000Y-48500000D01*
X175680000Y-48498000D01*
X175679000Y-48495000D01*
X175678000Y-48493000D01*
X175677000Y-48490000D01*
X175677000Y-48488000D01*
X175676000Y-48485000D01*
X175676000Y-48483000D01*
X175675000Y-48480000D01*
X175675000Y-48478000D01*
X175675000Y-48475000D01*
X175675000Y-48325000D01*
X175675000Y-48322000D01*
X175675000Y-48320000D01*
X175676000Y-48317000D01*
X175676000Y-48315000D01*
X175677000Y-48312000D01*
X175677000Y-48310000D01*
X175678000Y-48307000D01*
X175679000Y-48305000D01*
X175680000Y-48302000D01*
X175682000Y-48300000D01*
X175683000Y-48298000D01*
X175685000Y-48296000D01*
X175686000Y-48294000D01*
X175688000Y-48292000D01*
X175690000Y-48290000D01*
X175692000Y-48288000D01*
X175694000Y-48286000D01*
X175696000Y-48285000D01*
X175698000Y-48283000D01*
X175700000Y-48282000D01*
X175702000Y-48280000D01*
X175705000Y-48279000D01*
X175707000Y-48278000D01*
X175710000Y-48277000D01*
X175712000Y-48277000D01*
X175715000Y-48276000D01*
X175717000Y-48276000D01*
X175720000Y-48275000D01*
X175722000Y-48275000D01*
X175725000Y-48275000D01*
G36*
X175883000Y-48276000D02*
G01*
X175885000Y-48276000D01*
X175888000Y-48277000D01*
X175890000Y-48277000D01*
X175893000Y-48278000D01*
X175895000Y-48279000D01*
X175898000Y-48280000D01*
X175900000Y-48282000D01*
X175902000Y-48283000D01*
X175904000Y-48285000D01*
X175906000Y-48286000D01*
X175908000Y-48288000D01*
X175910000Y-48290000D01*
X175912000Y-48292000D01*
X175914000Y-48294000D01*
X175915000Y-48296000D01*
X175917000Y-48298000D01*
X175918000Y-48300000D01*
X175920000Y-48302000D01*
X175921000Y-48305000D01*
X175922000Y-48307000D01*
X175923000Y-48310000D01*
X175923000Y-48312000D01*
X175924000Y-48315000D01*
X175924000Y-48317000D01*
X175925000Y-48320000D01*
X175925000Y-48322000D01*
X175925000Y-48325000D01*
X175925000Y-48475000D01*
X175925000Y-48478000D01*
X175925000Y-48480000D01*
X175924000Y-48483000D01*
X175924000Y-48485000D01*
X175923000Y-48488000D01*
X175923000Y-48490000D01*
X175922000Y-48493000D01*
X175921000Y-48495000D01*
X175920000Y-48498000D01*
X175918000Y-48500000D01*
X175917000Y-48502000D01*
X175915000Y-48504000D01*
X175914000Y-48506000D01*
X175912000Y-48508000D01*
X175910000Y-48510000D01*
X175908000Y-48512000D01*
X175906000Y-48514000D01*
X175904000Y-48515000D01*
X175902000Y-48517000D01*
X175900000Y-48518000D01*
X175898000Y-48520000D01*
X175895000Y-48521000D01*
X175893000Y-48522000D01*
X175890000Y-48523000D01*
X175888000Y-48523000D01*
X175885000Y-48524000D01*
X175883000Y-48524000D01*
X175880000Y-48525000D01*
X175878000Y-48525000D01*
X175875000Y-48525000D01*
X175725000Y-48525000D01*
X175722000Y-48525000D01*
X175720000Y-48525000D01*
X175717000Y-48524000D01*
X175715000Y-48524000D01*
X175712000Y-48523000D01*
X175710000Y-48523000D01*
X175707000Y-48522000D01*
X175705000Y-48521000D01*
X175702000Y-48520000D01*
X175700000Y-48518000D01*
X175698000Y-48517000D01*
X175696000Y-48515000D01*
X175694000Y-48514000D01*
X175692000Y-48512000D01*
X175690000Y-48510000D01*
X175688000Y-48508000D01*
X175686000Y-48506000D01*
X175685000Y-48504000D01*
X175683000Y-48502000D01*
X175682000Y-48500000D01*
X175680000Y-48498000D01*
X175679000Y-48495000D01*
X175678000Y-48493000D01*
X175677000Y-48490000D01*
X175677000Y-48488000D01*
X175676000Y-48485000D01*
X175676000Y-48483000D01*
X175675000Y-48480000D01*
X175675000Y-48478000D01*
X175675000Y-48475000D01*
X175675000Y-48325000D01*
X175675000Y-48322000D01*
X175675000Y-48320000D01*
X175676000Y-48317000D01*
X175676000Y-48315000D01*
X175677000Y-48312000D01*
X175677000Y-48310000D01*
X175678000Y-48307000D01*
X175679000Y-48305000D01*
X175680000Y-48302000D01*
X175682000Y-48300000D01*
X175683000Y-48298000D01*
X175685000Y-48296000D01*
X175686000Y-48294000D01*
X175688000Y-48292000D01*
X175690000Y-48290000D01*
X175692000Y-48288000D01*
X175694000Y-48286000D01*
X175696000Y-48285000D01*
X175698000Y-48283000D01*
X175700000Y-48282000D01*
X175702000Y-48280000D01*
X175705000Y-48279000D01*
X175707000Y-48278000D01*
X175710000Y-48277000D01*
X175712000Y-48277000D01*
X175715000Y-48276000D01*
X175717000Y-48276000D01*
X175720000Y-48275000D01*
X175722000Y-48275000D01*
X175725000Y-48275000D01*
X175875000Y-48275000D01*
X175878000Y-48275000D01*
X175880000Y-48275000D01*
X175883000Y-48276000D01*
G37*
X175725000Y-48675000D02*
X175875000Y-48675000D01*
X175878000Y-48675000D01*
X175880000Y-48675000D01*
X175883000Y-48676000D01*
X175885000Y-48676000D01*
X175888000Y-48677000D01*
X175890000Y-48677000D01*
X175893000Y-48678000D01*
X175895000Y-48679000D01*
X175898000Y-48680000D01*
X175900000Y-48682000D01*
X175902000Y-48683000D01*
X175904000Y-48685000D01*
X175906000Y-48686000D01*
X175908000Y-48688000D01*
X175910000Y-48690000D01*
X175912000Y-48692000D01*
X175914000Y-48694000D01*
X175915000Y-48696000D01*
X175917000Y-48698000D01*
X175918000Y-48700000D01*
X175920000Y-48702000D01*
X175921000Y-48705000D01*
X175922000Y-48707000D01*
X175923000Y-48710000D01*
X175923000Y-48712000D01*
X175924000Y-48715000D01*
X175924000Y-48717000D01*
X175925000Y-48720000D01*
X175925000Y-48722000D01*
X175925000Y-48725000D01*
X175925000Y-48875000D01*
X175925000Y-48878000D01*
X175925000Y-48880000D01*
X175924000Y-48883000D01*
X175924000Y-48885000D01*
X175923000Y-48888000D01*
X175923000Y-48890000D01*
X175922000Y-48893000D01*
X175921000Y-48895000D01*
X175920000Y-48898000D01*
X175918000Y-48900000D01*
X175917000Y-48902000D01*
X175915000Y-48904000D01*
X175914000Y-48906000D01*
X175912000Y-48908000D01*
X175910000Y-48910000D01*
X175908000Y-48912000D01*
X175906000Y-48914000D01*
X175904000Y-48915000D01*
X175902000Y-48917000D01*
X175900000Y-48918000D01*
X175898000Y-48920000D01*
X175895000Y-48921000D01*
X175893000Y-48922000D01*
X175890000Y-48923000D01*
X175888000Y-48923000D01*
X175885000Y-48924000D01*
X175883000Y-48924000D01*
X175880000Y-48925000D01*
X175878000Y-48925000D01*
X175875000Y-48925000D01*
X175725000Y-48925000D01*
X175722000Y-48925000D01*
X175720000Y-48925000D01*
X175717000Y-48924000D01*
X175715000Y-48924000D01*
X175712000Y-48923000D01*
X175710000Y-48923000D01*
X175707000Y-48922000D01*
X175705000Y-48921000D01*
X175702000Y-48920000D01*
X175700000Y-48918000D01*
X175698000Y-48917000D01*
X175696000Y-48915000D01*
X175694000Y-48914000D01*
X175692000Y-48912000D01*
X175690000Y-48910000D01*
X175688000Y-48908000D01*
X175686000Y-48906000D01*
X175685000Y-48904000D01*
X175683000Y-48902000D01*
X175682000Y-48900000D01*
X175680000Y-48898000D01*
X175679000Y-48895000D01*
X175678000Y-48893000D01*
X175677000Y-48890000D01*
X175677000Y-48888000D01*
X175676000Y-48885000D01*
X175676000Y-48883000D01*
X175675000Y-48880000D01*
X175675000Y-48878000D01*
X175675000Y-48875000D01*
X175675000Y-48725000D01*
X175675000Y-48722000D01*
X175675000Y-48720000D01*
X175676000Y-48717000D01*
X175676000Y-48715000D01*
X175677000Y-48712000D01*
X175677000Y-48710000D01*
X175678000Y-48707000D01*
X175679000Y-48705000D01*
X175680000Y-48702000D01*
X175682000Y-48700000D01*
X175683000Y-48698000D01*
X175685000Y-48696000D01*
X175686000Y-48694000D01*
X175688000Y-48692000D01*
X175690000Y-48690000D01*
X175692000Y-48688000D01*
X175694000Y-48686000D01*
X175696000Y-48685000D01*
X175698000Y-48683000D01*
X175700000Y-48682000D01*
X175702000Y-48680000D01*
X175705000Y-48679000D01*
X175707000Y-48678000D01*
X175710000Y-48677000D01*
X175712000Y-48677000D01*
X175715000Y-48676000D01*
X175717000Y-48676000D01*
X175720000Y-48675000D01*
X175722000Y-48675000D01*
X175725000Y-48675000D01*
G36*
X175883000Y-48676000D02*
G01*
X175885000Y-48676000D01*
X175888000Y-48677000D01*
X175890000Y-48677000D01*
X175893000Y-48678000D01*
X175895000Y-48679000D01*
X175898000Y-48680000D01*
X175900000Y-48682000D01*
X175902000Y-48683000D01*
X175904000Y-48685000D01*
X175906000Y-48686000D01*
X175908000Y-48688000D01*
X175910000Y-48690000D01*
X175912000Y-48692000D01*
X175914000Y-48694000D01*
X175915000Y-48696000D01*
X175917000Y-48698000D01*
X175918000Y-48700000D01*
X175920000Y-48702000D01*
X175921000Y-48705000D01*
X175922000Y-48707000D01*
X175923000Y-48710000D01*
X175923000Y-48712000D01*
X175924000Y-48715000D01*
X175924000Y-48717000D01*
X175925000Y-48720000D01*
X175925000Y-48722000D01*
X175925000Y-48725000D01*
X175925000Y-48875000D01*
X175925000Y-48878000D01*
X175925000Y-48880000D01*
X175924000Y-48883000D01*
X175924000Y-48885000D01*
X175923000Y-48888000D01*
X175923000Y-48890000D01*
X175922000Y-48893000D01*
X175921000Y-48895000D01*
X175920000Y-48898000D01*
X175918000Y-48900000D01*
X175917000Y-48902000D01*
X175915000Y-48904000D01*
X175914000Y-48906000D01*
X175912000Y-48908000D01*
X175910000Y-48910000D01*
X175908000Y-48912000D01*
X175906000Y-48914000D01*
X175904000Y-48915000D01*
X175902000Y-48917000D01*
X175900000Y-48918000D01*
X175898000Y-48920000D01*
X175895000Y-48921000D01*
X175893000Y-48922000D01*
X175890000Y-48923000D01*
X175888000Y-48923000D01*
X175885000Y-48924000D01*
X175883000Y-48924000D01*
X175880000Y-48925000D01*
X175878000Y-48925000D01*
X175875000Y-48925000D01*
X175725000Y-48925000D01*
X175722000Y-48925000D01*
X175720000Y-48925000D01*
X175717000Y-48924000D01*
X175715000Y-48924000D01*
X175712000Y-48923000D01*
X175710000Y-48923000D01*
X175707000Y-48922000D01*
X175705000Y-48921000D01*
X175702000Y-48920000D01*
X175700000Y-48918000D01*
X175698000Y-48917000D01*
X175696000Y-48915000D01*
X175694000Y-48914000D01*
X175692000Y-48912000D01*
X175690000Y-48910000D01*
X175688000Y-48908000D01*
X175686000Y-48906000D01*
X175685000Y-48904000D01*
X175683000Y-48902000D01*
X175682000Y-48900000D01*
X175680000Y-48898000D01*
X175679000Y-48895000D01*
X175678000Y-48893000D01*
X175677000Y-48890000D01*
X175677000Y-48888000D01*
X175676000Y-48885000D01*
X175676000Y-48883000D01*
X175675000Y-48880000D01*
X175675000Y-48878000D01*
X175675000Y-48875000D01*
X175675000Y-48725000D01*
X175675000Y-48722000D01*
X175675000Y-48720000D01*
X175676000Y-48717000D01*
X175676000Y-48715000D01*
X175677000Y-48712000D01*
X175677000Y-48710000D01*
X175678000Y-48707000D01*
X175679000Y-48705000D01*
X175680000Y-48702000D01*
X175682000Y-48700000D01*
X175683000Y-48698000D01*
X175685000Y-48696000D01*
X175686000Y-48694000D01*
X175688000Y-48692000D01*
X175690000Y-48690000D01*
X175692000Y-48688000D01*
X175694000Y-48686000D01*
X175696000Y-48685000D01*
X175698000Y-48683000D01*
X175700000Y-48682000D01*
X175702000Y-48680000D01*
X175705000Y-48679000D01*
X175707000Y-48678000D01*
X175710000Y-48677000D01*
X175712000Y-48677000D01*
X175715000Y-48676000D01*
X175717000Y-48676000D01*
X175720000Y-48675000D01*
X175722000Y-48675000D01*
X175725000Y-48675000D01*
X175875000Y-48675000D01*
X175878000Y-48675000D01*
X175880000Y-48675000D01*
X175883000Y-48676000D01*
G37*
X175725000Y-49075000D02*
X175875000Y-49075000D01*
X175878000Y-49075000D01*
X175880000Y-49075000D01*
X175883000Y-49076000D01*
X175885000Y-49076000D01*
X175888000Y-49077000D01*
X175890000Y-49077000D01*
X175893000Y-49078000D01*
X175895000Y-49079000D01*
X175898000Y-49080000D01*
X175900000Y-49082000D01*
X175902000Y-49083000D01*
X175904000Y-49085000D01*
X175906000Y-49086000D01*
X175908000Y-49088000D01*
X175910000Y-49090000D01*
X175912000Y-49092000D01*
X175914000Y-49094000D01*
X175915000Y-49096000D01*
X175917000Y-49098000D01*
X175918000Y-49100000D01*
X175920000Y-49102000D01*
X175921000Y-49105000D01*
X175922000Y-49107000D01*
X175923000Y-49110000D01*
X175923000Y-49112000D01*
X175924000Y-49115000D01*
X175924000Y-49117000D01*
X175925000Y-49120000D01*
X175925000Y-49122000D01*
X175925000Y-49125000D01*
X175925000Y-49275000D01*
X175925000Y-49278000D01*
X175925000Y-49280000D01*
X175924000Y-49283000D01*
X175924000Y-49285000D01*
X175923000Y-49288000D01*
X175923000Y-49290000D01*
X175922000Y-49293000D01*
X175921000Y-49295000D01*
X175920000Y-49298000D01*
X175918000Y-49300000D01*
X175917000Y-49302000D01*
X175915000Y-49304000D01*
X175914000Y-49306000D01*
X175912000Y-49308000D01*
X175910000Y-49310000D01*
X175908000Y-49312000D01*
X175906000Y-49314000D01*
X175904000Y-49315000D01*
X175902000Y-49317000D01*
X175900000Y-49318000D01*
X175898000Y-49320000D01*
X175895000Y-49321000D01*
X175893000Y-49322000D01*
X175890000Y-49323000D01*
X175888000Y-49323000D01*
X175885000Y-49324000D01*
X175883000Y-49324000D01*
X175880000Y-49325000D01*
X175878000Y-49325000D01*
X175875000Y-49325000D01*
X175725000Y-49325000D01*
X175722000Y-49325000D01*
X175720000Y-49325000D01*
X175717000Y-49324000D01*
X175715000Y-49324000D01*
X175712000Y-49323000D01*
X175710000Y-49323000D01*
X175707000Y-49322000D01*
X175705000Y-49321000D01*
X175702000Y-49320000D01*
X175700000Y-49318000D01*
X175698000Y-49317000D01*
X175696000Y-49315000D01*
X175694000Y-49314000D01*
X175692000Y-49312000D01*
X175690000Y-49310000D01*
X175688000Y-49308000D01*
X175686000Y-49306000D01*
X175685000Y-49304000D01*
X175683000Y-49302000D01*
X175682000Y-49300000D01*
X175680000Y-49298000D01*
X175679000Y-49295000D01*
X175678000Y-49293000D01*
X175677000Y-49290000D01*
X175677000Y-49288000D01*
X175676000Y-49285000D01*
X175676000Y-49283000D01*
X175675000Y-49280000D01*
X175675000Y-49278000D01*
X175675000Y-49275000D01*
X175675000Y-49125000D01*
X175675000Y-49122000D01*
X175675000Y-49120000D01*
X175676000Y-49117000D01*
X175676000Y-49115000D01*
X175677000Y-49112000D01*
X175677000Y-49110000D01*
X175678000Y-49107000D01*
X175679000Y-49105000D01*
X175680000Y-49102000D01*
X175682000Y-49100000D01*
X175683000Y-49098000D01*
X175685000Y-49096000D01*
X175686000Y-49094000D01*
X175688000Y-49092000D01*
X175690000Y-49090000D01*
X175692000Y-49088000D01*
X175694000Y-49086000D01*
X175696000Y-49085000D01*
X175698000Y-49083000D01*
X175700000Y-49082000D01*
X175702000Y-49080000D01*
X175705000Y-49079000D01*
X175707000Y-49078000D01*
X175710000Y-49077000D01*
X175712000Y-49077000D01*
X175715000Y-49076000D01*
X175717000Y-49076000D01*
X175720000Y-49075000D01*
X175722000Y-49075000D01*
X175725000Y-49075000D01*
G36*
X175883000Y-49076000D02*
G01*
X175885000Y-49076000D01*
X175888000Y-49077000D01*
X175890000Y-49077000D01*
X175893000Y-49078000D01*
X175895000Y-49079000D01*
X175898000Y-49080000D01*
X175900000Y-49082000D01*
X175902000Y-49083000D01*
X175904000Y-49085000D01*
X175906000Y-49086000D01*
X175908000Y-49088000D01*
X175910000Y-49090000D01*
X175912000Y-49092000D01*
X175914000Y-49094000D01*
X175915000Y-49096000D01*
X175917000Y-49098000D01*
X175918000Y-49100000D01*
X175920000Y-49102000D01*
X175921000Y-49105000D01*
X175922000Y-49107000D01*
X175923000Y-49110000D01*
X175923000Y-49112000D01*
X175924000Y-49115000D01*
X175924000Y-49117000D01*
X175925000Y-49120000D01*
X175925000Y-49122000D01*
X175925000Y-49125000D01*
X175925000Y-49275000D01*
X175925000Y-49278000D01*
X175925000Y-49280000D01*
X175924000Y-49283000D01*
X175924000Y-49285000D01*
X175923000Y-49288000D01*
X175923000Y-49290000D01*
X175922000Y-49293000D01*
X175921000Y-49295000D01*
X175920000Y-49298000D01*
X175918000Y-49300000D01*
X175917000Y-49302000D01*
X175915000Y-49304000D01*
X175914000Y-49306000D01*
X175912000Y-49308000D01*
X175910000Y-49310000D01*
X175908000Y-49312000D01*
X175906000Y-49314000D01*
X175904000Y-49315000D01*
X175902000Y-49317000D01*
X175900000Y-49318000D01*
X175898000Y-49320000D01*
X175895000Y-49321000D01*
X175893000Y-49322000D01*
X175890000Y-49323000D01*
X175888000Y-49323000D01*
X175885000Y-49324000D01*
X175883000Y-49324000D01*
X175880000Y-49325000D01*
X175878000Y-49325000D01*
X175875000Y-49325000D01*
X175725000Y-49325000D01*
X175722000Y-49325000D01*
X175720000Y-49325000D01*
X175717000Y-49324000D01*
X175715000Y-49324000D01*
X175712000Y-49323000D01*
X175710000Y-49323000D01*
X175707000Y-49322000D01*
X175705000Y-49321000D01*
X175702000Y-49320000D01*
X175700000Y-49318000D01*
X175698000Y-49317000D01*
X175696000Y-49315000D01*
X175694000Y-49314000D01*
X175692000Y-49312000D01*
X175690000Y-49310000D01*
X175688000Y-49308000D01*
X175686000Y-49306000D01*
X175685000Y-49304000D01*
X175683000Y-49302000D01*
X175682000Y-49300000D01*
X175680000Y-49298000D01*
X175679000Y-49295000D01*
X175678000Y-49293000D01*
X175677000Y-49290000D01*
X175677000Y-49288000D01*
X175676000Y-49285000D01*
X175676000Y-49283000D01*
X175675000Y-49280000D01*
X175675000Y-49278000D01*
X175675000Y-49275000D01*
X175675000Y-49125000D01*
X175675000Y-49122000D01*
X175675000Y-49120000D01*
X175676000Y-49117000D01*
X175676000Y-49115000D01*
X175677000Y-49112000D01*
X175677000Y-49110000D01*
X175678000Y-49107000D01*
X175679000Y-49105000D01*
X175680000Y-49102000D01*
X175682000Y-49100000D01*
X175683000Y-49098000D01*
X175685000Y-49096000D01*
X175686000Y-49094000D01*
X175688000Y-49092000D01*
X175690000Y-49090000D01*
X175692000Y-49088000D01*
X175694000Y-49086000D01*
X175696000Y-49085000D01*
X175698000Y-49083000D01*
X175700000Y-49082000D01*
X175702000Y-49080000D01*
X175705000Y-49079000D01*
X175707000Y-49078000D01*
X175710000Y-49077000D01*
X175712000Y-49077000D01*
X175715000Y-49076000D01*
X175717000Y-49076000D01*
X175720000Y-49075000D01*
X175722000Y-49075000D01*
X175725000Y-49075000D01*
X175875000Y-49075000D01*
X175878000Y-49075000D01*
X175880000Y-49075000D01*
X175883000Y-49076000D01*
G37*
X175725000Y-49475000D02*
X175875000Y-49475000D01*
X175878000Y-49475000D01*
X175880000Y-49475000D01*
X175883000Y-49476000D01*
X175885000Y-49476000D01*
X175888000Y-49477000D01*
X175890000Y-49477000D01*
X175893000Y-49478000D01*
X175895000Y-49479000D01*
X175898000Y-49480000D01*
X175900000Y-49482000D01*
X175902000Y-49483000D01*
X175904000Y-49485000D01*
X175906000Y-49486000D01*
X175908000Y-49488000D01*
X175910000Y-49490000D01*
X175912000Y-49492000D01*
X175914000Y-49494000D01*
X175915000Y-49496000D01*
X175917000Y-49498000D01*
X175918000Y-49500000D01*
X175920000Y-49502000D01*
X175921000Y-49505000D01*
X175922000Y-49507000D01*
X175923000Y-49510000D01*
X175923000Y-49512000D01*
X175924000Y-49515000D01*
X175924000Y-49517000D01*
X175925000Y-49520000D01*
X175925000Y-49522000D01*
X175925000Y-49525000D01*
X175925000Y-49675000D01*
X175925000Y-49678000D01*
X175925000Y-49680000D01*
X175924000Y-49683000D01*
X175924000Y-49685000D01*
X175923000Y-49688000D01*
X175923000Y-49690000D01*
X175922000Y-49693000D01*
X175921000Y-49695000D01*
X175920000Y-49698000D01*
X175918000Y-49700000D01*
X175917000Y-49702000D01*
X175915000Y-49704000D01*
X175914000Y-49706000D01*
X175912000Y-49708000D01*
X175910000Y-49710000D01*
X175908000Y-49712000D01*
X175906000Y-49714000D01*
X175904000Y-49715000D01*
X175902000Y-49717000D01*
X175900000Y-49718000D01*
X175898000Y-49720000D01*
X175895000Y-49721000D01*
X175893000Y-49722000D01*
X175890000Y-49723000D01*
X175888000Y-49723000D01*
X175885000Y-49724000D01*
X175883000Y-49724000D01*
X175880000Y-49725000D01*
X175878000Y-49725000D01*
X175875000Y-49725000D01*
X175725000Y-49725000D01*
X175722000Y-49725000D01*
X175720000Y-49725000D01*
X175717000Y-49724000D01*
X175715000Y-49724000D01*
X175712000Y-49723000D01*
X175710000Y-49723000D01*
X175707000Y-49722000D01*
X175705000Y-49721000D01*
X175702000Y-49720000D01*
X175700000Y-49718000D01*
X175698000Y-49717000D01*
X175696000Y-49715000D01*
X175694000Y-49714000D01*
X175692000Y-49712000D01*
X175690000Y-49710000D01*
X175688000Y-49708000D01*
X175686000Y-49706000D01*
X175685000Y-49704000D01*
X175683000Y-49702000D01*
X175682000Y-49700000D01*
X175680000Y-49698000D01*
X175679000Y-49695000D01*
X175678000Y-49693000D01*
X175677000Y-49690000D01*
X175677000Y-49688000D01*
X175676000Y-49685000D01*
X175676000Y-49683000D01*
X175675000Y-49680000D01*
X175675000Y-49678000D01*
X175675000Y-49675000D01*
X175675000Y-49525000D01*
X175675000Y-49522000D01*
X175675000Y-49520000D01*
X175676000Y-49517000D01*
X175676000Y-49515000D01*
X175677000Y-49512000D01*
X175677000Y-49510000D01*
X175678000Y-49507000D01*
X175679000Y-49505000D01*
X175680000Y-49502000D01*
X175682000Y-49500000D01*
X175683000Y-49498000D01*
X175685000Y-49496000D01*
X175686000Y-49494000D01*
X175688000Y-49492000D01*
X175690000Y-49490000D01*
X175692000Y-49488000D01*
X175694000Y-49486000D01*
X175696000Y-49485000D01*
X175698000Y-49483000D01*
X175700000Y-49482000D01*
X175702000Y-49480000D01*
X175705000Y-49479000D01*
X175707000Y-49478000D01*
X175710000Y-49477000D01*
X175712000Y-49477000D01*
X175715000Y-49476000D01*
X175717000Y-49476000D01*
X175720000Y-49475000D01*
X175722000Y-49475000D01*
X175725000Y-49475000D01*
G36*
X175883000Y-49476000D02*
G01*
X175885000Y-49476000D01*
X175888000Y-49477000D01*
X175890000Y-49477000D01*
X175893000Y-49478000D01*
X175895000Y-49479000D01*
X175898000Y-49480000D01*
X175900000Y-49482000D01*
X175902000Y-49483000D01*
X175904000Y-49485000D01*
X175906000Y-49486000D01*
X175908000Y-49488000D01*
X175910000Y-49490000D01*
X175912000Y-49492000D01*
X175914000Y-49494000D01*
X175915000Y-49496000D01*
X175917000Y-49498000D01*
X175918000Y-49500000D01*
X175920000Y-49502000D01*
X175921000Y-49505000D01*
X175922000Y-49507000D01*
X175923000Y-49510000D01*
X175923000Y-49512000D01*
X175924000Y-49515000D01*
X175924000Y-49517000D01*
X175925000Y-49520000D01*
X175925000Y-49522000D01*
X175925000Y-49525000D01*
X175925000Y-49675000D01*
X175925000Y-49678000D01*
X175925000Y-49680000D01*
X175924000Y-49683000D01*
X175924000Y-49685000D01*
X175923000Y-49688000D01*
X175923000Y-49690000D01*
X175922000Y-49693000D01*
X175921000Y-49695000D01*
X175920000Y-49698000D01*
X175918000Y-49700000D01*
X175917000Y-49702000D01*
X175915000Y-49704000D01*
X175914000Y-49706000D01*
X175912000Y-49708000D01*
X175910000Y-49710000D01*
X175908000Y-49712000D01*
X175906000Y-49714000D01*
X175904000Y-49715000D01*
X175902000Y-49717000D01*
X175900000Y-49718000D01*
X175898000Y-49720000D01*
X175895000Y-49721000D01*
X175893000Y-49722000D01*
X175890000Y-49723000D01*
X175888000Y-49723000D01*
X175885000Y-49724000D01*
X175883000Y-49724000D01*
X175880000Y-49725000D01*
X175878000Y-49725000D01*
X175875000Y-49725000D01*
X175725000Y-49725000D01*
X175722000Y-49725000D01*
X175720000Y-49725000D01*
X175717000Y-49724000D01*
X175715000Y-49724000D01*
X175712000Y-49723000D01*
X175710000Y-49723000D01*
X175707000Y-49722000D01*
X175705000Y-49721000D01*
X175702000Y-49720000D01*
X175700000Y-49718000D01*
X175698000Y-49717000D01*
X175696000Y-49715000D01*
X175694000Y-49714000D01*
X175692000Y-49712000D01*
X175690000Y-49710000D01*
X175688000Y-49708000D01*
X175686000Y-49706000D01*
X175685000Y-49704000D01*
X175683000Y-49702000D01*
X175682000Y-49700000D01*
X175680000Y-49698000D01*
X175679000Y-49695000D01*
X175678000Y-49693000D01*
X175677000Y-49690000D01*
X175677000Y-49688000D01*
X175676000Y-49685000D01*
X175676000Y-49683000D01*
X175675000Y-49680000D01*
X175675000Y-49678000D01*
X175675000Y-49675000D01*
X175675000Y-49525000D01*
X175675000Y-49522000D01*
X175675000Y-49520000D01*
X175676000Y-49517000D01*
X175676000Y-49515000D01*
X175677000Y-49512000D01*
X175677000Y-49510000D01*
X175678000Y-49507000D01*
X175679000Y-49505000D01*
X175680000Y-49502000D01*
X175682000Y-49500000D01*
X175683000Y-49498000D01*
X175685000Y-49496000D01*
X175686000Y-49494000D01*
X175688000Y-49492000D01*
X175690000Y-49490000D01*
X175692000Y-49488000D01*
X175694000Y-49486000D01*
X175696000Y-49485000D01*
X175698000Y-49483000D01*
X175700000Y-49482000D01*
X175702000Y-49480000D01*
X175705000Y-49479000D01*
X175707000Y-49478000D01*
X175710000Y-49477000D01*
X175712000Y-49477000D01*
X175715000Y-49476000D01*
X175717000Y-49476000D01*
X175720000Y-49475000D01*
X175722000Y-49475000D01*
X175725000Y-49475000D01*
X175875000Y-49475000D01*
X175878000Y-49475000D01*
X175880000Y-49475000D01*
X175883000Y-49476000D01*
G37*
X175725000Y-49875000D02*
X175875000Y-49875000D01*
X175878000Y-49875000D01*
X175880000Y-49875000D01*
X175883000Y-49876000D01*
X175885000Y-49876000D01*
X175888000Y-49877000D01*
X175890000Y-49877000D01*
X175893000Y-49878000D01*
X175895000Y-49879000D01*
X175898000Y-49880000D01*
X175900000Y-49882000D01*
X175902000Y-49883000D01*
X175904000Y-49885000D01*
X175906000Y-49886000D01*
X175908000Y-49888000D01*
X175910000Y-49890000D01*
X175912000Y-49892000D01*
X175914000Y-49894000D01*
X175915000Y-49896000D01*
X175917000Y-49898000D01*
X175918000Y-49900000D01*
X175920000Y-49902000D01*
X175921000Y-49905000D01*
X175922000Y-49907000D01*
X175923000Y-49910000D01*
X175923000Y-49912000D01*
X175924000Y-49915000D01*
X175924000Y-49917000D01*
X175925000Y-49920000D01*
X175925000Y-49922000D01*
X175925000Y-49925000D01*
X175925000Y-50075000D01*
X175925000Y-50078000D01*
X175925000Y-50080000D01*
X175924000Y-50083000D01*
X175924000Y-50085000D01*
X175923000Y-50088000D01*
X175923000Y-50090000D01*
X175922000Y-50093000D01*
X175921000Y-50095000D01*
X175920000Y-50098000D01*
X175918000Y-50100000D01*
X175917000Y-50102000D01*
X175915000Y-50104000D01*
X175914000Y-50106000D01*
X175912000Y-50108000D01*
X175910000Y-50110000D01*
X175908000Y-50112000D01*
X175906000Y-50114000D01*
X175904000Y-50115000D01*
X175902000Y-50117000D01*
X175900000Y-50118000D01*
X175898000Y-50120000D01*
X175895000Y-50121000D01*
X175893000Y-50122000D01*
X175890000Y-50123000D01*
X175888000Y-50123000D01*
X175885000Y-50124000D01*
X175883000Y-50124000D01*
X175880000Y-50125000D01*
X175878000Y-50125000D01*
X175875000Y-50125000D01*
X175725000Y-50125000D01*
X175722000Y-50125000D01*
X175720000Y-50125000D01*
X175717000Y-50124000D01*
X175715000Y-50124000D01*
X175712000Y-50123000D01*
X175710000Y-50123000D01*
X175707000Y-50122000D01*
X175705000Y-50121000D01*
X175702000Y-50120000D01*
X175700000Y-50118000D01*
X175698000Y-50117000D01*
X175696000Y-50115000D01*
X175694000Y-50114000D01*
X175692000Y-50112000D01*
X175690000Y-50110000D01*
X175688000Y-50108000D01*
X175686000Y-50106000D01*
X175685000Y-50104000D01*
X175683000Y-50102000D01*
X175682000Y-50100000D01*
X175680000Y-50098000D01*
X175679000Y-50095000D01*
X175678000Y-50093000D01*
X175677000Y-50090000D01*
X175677000Y-50088000D01*
X175676000Y-50085000D01*
X175676000Y-50083000D01*
X175675000Y-50080000D01*
X175675000Y-50078000D01*
X175675000Y-50075000D01*
X175675000Y-49925000D01*
X175675000Y-49922000D01*
X175675000Y-49920000D01*
X175676000Y-49917000D01*
X175676000Y-49915000D01*
X175677000Y-49912000D01*
X175677000Y-49910000D01*
X175678000Y-49907000D01*
X175679000Y-49905000D01*
X175680000Y-49902000D01*
X175682000Y-49900000D01*
X175683000Y-49898000D01*
X175685000Y-49896000D01*
X175686000Y-49894000D01*
X175688000Y-49892000D01*
X175690000Y-49890000D01*
X175692000Y-49888000D01*
X175694000Y-49886000D01*
X175696000Y-49885000D01*
X175698000Y-49883000D01*
X175700000Y-49882000D01*
X175702000Y-49880000D01*
X175705000Y-49879000D01*
X175707000Y-49878000D01*
X175710000Y-49877000D01*
X175712000Y-49877000D01*
X175715000Y-49876000D01*
X175717000Y-49876000D01*
X175720000Y-49875000D01*
X175722000Y-49875000D01*
X175725000Y-49875000D01*
G36*
X175883000Y-49876000D02*
G01*
X175885000Y-49876000D01*
X175888000Y-49877000D01*
X175890000Y-49877000D01*
X175893000Y-49878000D01*
X175895000Y-49879000D01*
X175898000Y-49880000D01*
X175900000Y-49882000D01*
X175902000Y-49883000D01*
X175904000Y-49885000D01*
X175906000Y-49886000D01*
X175908000Y-49888000D01*
X175910000Y-49890000D01*
X175912000Y-49892000D01*
X175914000Y-49894000D01*
X175915000Y-49896000D01*
X175917000Y-49898000D01*
X175918000Y-49900000D01*
X175920000Y-49902000D01*
X175921000Y-49905000D01*
X175922000Y-49907000D01*
X175923000Y-49910000D01*
X175923000Y-49912000D01*
X175924000Y-49915000D01*
X175924000Y-49917000D01*
X175925000Y-49920000D01*
X175925000Y-49922000D01*
X175925000Y-49925000D01*
X175925000Y-50075000D01*
X175925000Y-50078000D01*
X175925000Y-50080000D01*
X175924000Y-50083000D01*
X175924000Y-50085000D01*
X175923000Y-50088000D01*
X175923000Y-50090000D01*
X175922000Y-50093000D01*
X175921000Y-50095000D01*
X175920000Y-50098000D01*
X175918000Y-50100000D01*
X175917000Y-50102000D01*
X175915000Y-50104000D01*
X175914000Y-50106000D01*
X175912000Y-50108000D01*
X175910000Y-50110000D01*
X175908000Y-50112000D01*
X175906000Y-50114000D01*
X175904000Y-50115000D01*
X175902000Y-50117000D01*
X175900000Y-50118000D01*
X175898000Y-50120000D01*
X175895000Y-50121000D01*
X175893000Y-50122000D01*
X175890000Y-50123000D01*
X175888000Y-50123000D01*
X175885000Y-50124000D01*
X175883000Y-50124000D01*
X175880000Y-50125000D01*
X175878000Y-50125000D01*
X175875000Y-50125000D01*
X175725000Y-50125000D01*
X175722000Y-50125000D01*
X175720000Y-50125000D01*
X175717000Y-50124000D01*
X175715000Y-50124000D01*
X175712000Y-50123000D01*
X175710000Y-50123000D01*
X175707000Y-50122000D01*
X175705000Y-50121000D01*
X175702000Y-50120000D01*
X175700000Y-50118000D01*
X175698000Y-50117000D01*
X175696000Y-50115000D01*
X175694000Y-50114000D01*
X175692000Y-50112000D01*
X175690000Y-50110000D01*
X175688000Y-50108000D01*
X175686000Y-50106000D01*
X175685000Y-50104000D01*
X175683000Y-50102000D01*
X175682000Y-50100000D01*
X175680000Y-50098000D01*
X175679000Y-50095000D01*
X175678000Y-50093000D01*
X175677000Y-50090000D01*
X175677000Y-50088000D01*
X175676000Y-50085000D01*
X175676000Y-50083000D01*
X175675000Y-50080000D01*
X175675000Y-50078000D01*
X175675000Y-50075000D01*
X175675000Y-49925000D01*
X175675000Y-49922000D01*
X175675000Y-49920000D01*
X175676000Y-49917000D01*
X175676000Y-49915000D01*
X175677000Y-49912000D01*
X175677000Y-49910000D01*
X175678000Y-49907000D01*
X175679000Y-49905000D01*
X175680000Y-49902000D01*
X175682000Y-49900000D01*
X175683000Y-49898000D01*
X175685000Y-49896000D01*
X175686000Y-49894000D01*
X175688000Y-49892000D01*
X175690000Y-49890000D01*
X175692000Y-49888000D01*
X175694000Y-49886000D01*
X175696000Y-49885000D01*
X175698000Y-49883000D01*
X175700000Y-49882000D01*
X175702000Y-49880000D01*
X175705000Y-49879000D01*
X175707000Y-49878000D01*
X175710000Y-49877000D01*
X175712000Y-49877000D01*
X175715000Y-49876000D01*
X175717000Y-49876000D01*
X175720000Y-49875000D01*
X175722000Y-49875000D01*
X175725000Y-49875000D01*
X175875000Y-49875000D01*
X175878000Y-49875000D01*
X175880000Y-49875000D01*
X175883000Y-49876000D01*
G37*
%TD*%
D12*
%TO.C,C17*%
X182500000Y-50570000D03*
X182500000Y-51530000D03*
%TD*%
%TO.C,C5*%
X172000000Y-51020000D03*
X172000000Y-51980000D03*
%TD*%
%TO.C,C1*%
X175000000Y-53770000D03*
X175000000Y-54730000D03*
%TD*%
D13*
%TO.C,R4*%
X173000000Y-60490000D03*
X173000000Y-61510000D03*
%TD*%
D14*
%TO.C,R9*%
X184690000Y-59150000D03*
X185710000Y-59150000D03*
%TD*%
D12*
%TO.C,C13*%
X190500000Y-57020000D03*
X190500000Y-57980000D03*
%TD*%
D15*
%TO.C,C7*%
X204080000Y-63100000D03*
X203120000Y-63100000D03*
%TD*%
%TO.C,C2*%
X181380000Y-46650000D03*
X180420000Y-46650000D03*
%TD*%
D16*
%TO.C,MK1*%
X198180000Y-49850000D03*
X197480000Y-49850000D03*
X198180000Y-48150000D03*
X197480000Y-48150000D03*
%TD*%
D17*
%TO.C,C15*%
X189250000Y-57980000D03*
X189250000Y-57020000D03*
%TD*%
D13*
%TO.C,R1*%
X175000000Y-56990000D03*
X175000000Y-58010000D03*
%TD*%
D18*
%TO.C,C12*%
X208720000Y-53100000D03*
X209680000Y-53100000D03*
%TD*%
D19*
%TO.C,FB1*%
X206015000Y-53000000D03*
X206985000Y-53000000D03*
%TD*%
D17*
%TO.C,C14*%
X192000000Y-57980000D03*
X192000000Y-57020000D03*
%TD*%
D20*
%TO.C,D1*%
X173000000Y-54350000D03*
X173000000Y-53650000D03*
%TD*%
D18*
%TO.C,C8*%
X198200000Y-52500000D03*
X199160000Y-52500000D03*
%TD*%
D21*
%TO.C,U3*%
X212175000Y-55175000D03*
D22*
X211700000Y-55175000D03*
X211250000Y-55175000D03*
X210800000Y-55175000D03*
X210350000Y-55175000D03*
X209900000Y-55175000D03*
X209450000Y-55175000D03*
X209000000Y-55175000D03*
X208550000Y-55175000D03*
X208100000Y-55175000D03*
X207650000Y-55175000D03*
X207200000Y-55175000D03*
X206750000Y-55175000D03*
X206300000Y-55175000D03*
X205850000Y-55175000D03*
X205400000Y-55175000D03*
D21*
X204925000Y-55175000D03*
D23*
X204925000Y-55650000D03*
X204925000Y-56100000D03*
X204925000Y-56550000D03*
X204925000Y-57000000D03*
X204925000Y-57450000D03*
X204925000Y-57900000D03*
X204925000Y-58350000D03*
X204925000Y-58800000D03*
X204925000Y-59250000D03*
X204925000Y-59700000D03*
X204925000Y-60150000D03*
X204925000Y-60600000D03*
X204925000Y-61050000D03*
D21*
X204925000Y-61525000D03*
D22*
X205400000Y-61525000D03*
X205850000Y-61525000D03*
X206300000Y-61525000D03*
X206750000Y-61525000D03*
X207200000Y-61525000D03*
X207650000Y-61525000D03*
X208100000Y-61525000D03*
X208550000Y-61525000D03*
X209000000Y-61525000D03*
X209450000Y-61525000D03*
X209900000Y-61525000D03*
X210350000Y-61525000D03*
X210800000Y-61525000D03*
X211250000Y-61525000D03*
X211700000Y-61525000D03*
D21*
X212175000Y-61525000D03*
D23*
X212175000Y-61050000D03*
X212175000Y-60600000D03*
X212175000Y-60150000D03*
X212175000Y-59700000D03*
X212175000Y-59250000D03*
X212175000Y-58800000D03*
X212175000Y-58350000D03*
X212175000Y-57900000D03*
X212175000Y-57450000D03*
X212175000Y-57000000D03*
X212175000Y-56550000D03*
X212175000Y-56100000D03*
X212175000Y-55650000D03*
D24*
X210800000Y-57000000D03*
X209900000Y-57000000D03*
X209000000Y-57000000D03*
X208100000Y-57000000D03*
X207200000Y-57000000D03*
X206300000Y-57000000D03*
X206300000Y-57900000D03*
X206300000Y-58800000D03*
X206300000Y-59700000D03*
X207200000Y-59700000D03*
X208100000Y-59700000D03*
X209000000Y-59700000D03*
X209900000Y-59700000D03*
X210800000Y-59700000D03*
X210800000Y-58800000D03*
X210800000Y-57900000D03*
X209900000Y-57900000D03*
X209000000Y-57900000D03*
X208100000Y-57900000D03*
X207200000Y-57900000D03*
X207200000Y-58800000D03*
X208100000Y-58800000D03*
X209000000Y-58800000D03*
X209900000Y-58800000D03*
D25*
X215135000Y-55300000D03*
X215135000Y-61400000D03*
%TD*%
D18*
%TO.C,C4*%
X174540000Y-52250000D03*
X175500000Y-52250000D03*
%TD*%
D13*
%TO.C,R3*%
X173000000Y-56990000D03*
X173000000Y-58010000D03*
%TD*%
D15*
%TO.C,C11*%
X211780000Y-53100000D03*
X210820000Y-53100000D03*
%TD*%
%TO.C,C10*%
X199180000Y-54000000D03*
X198220000Y-54000000D03*
%TD*%
D18*
%TO.C,C3*%
X178020000Y-46600000D03*
X178980000Y-46600000D03*
%TD*%
D26*
%TO.C,R2*%
X177250000Y-55010000D03*
X177250000Y-53990000D03*
%TD*%
D27*
%TO.C,U4*%
X187375000Y-56300000D03*
X187375000Y-55800001D03*
X187375000Y-55300000D03*
X187375000Y-54800000D03*
X187375000Y-54299999D03*
X187375000Y-53800000D03*
D28*
X186650315Y-53075000D03*
X186150189Y-53075000D03*
X185650063Y-53075000D03*
X185149937Y-53075000D03*
X184649811Y-53075000D03*
X184149685Y-53075000D03*
D27*
X183425000Y-53800000D03*
X183425000Y-54299999D03*
X183425000Y-54800000D03*
X183425000Y-55300000D03*
X183425000Y-55800001D03*
X183425000Y-56300000D03*
D28*
X184149685Y-57025000D03*
X184649811Y-57025000D03*
X185149937Y-57025000D03*
X185650063Y-57025000D03*
X186150189Y-57025000D03*
X186650315Y-57025000D03*
%TD*%
D13*
%TO.C,R5*%
X178500000Y-50690000D03*
X178500000Y-51710000D03*
%TD*%
D15*
%TO.C,C6*%
X168680000Y-49900000D03*
X167720000Y-49900000D03*
%TD*%
D29*
%TO.C,L1*%
X171000000Y-46850000D03*
X171000000Y-49000000D03*
%TD*%
D14*
%TO.C,R7*%
X183890000Y-50900000D03*
X184910000Y-50900000D03*
%TD*%
D30*
%TO.C,R8*%
X187760000Y-50900000D03*
X186740000Y-50900000D03*
%TD*%
D15*
%TO.C,C18*%
X182580000Y-59050000D03*
X181620000Y-59050000D03*
%TD*%
%TO.C,C16*%
X180280000Y-59050000D03*
X179320000Y-59050000D03*
%TD*%
D30*
%TO.C,R6*%
X207110000Y-51600000D03*
X206090000Y-51600000D03*
%TD*%
D31*
%TO.C,J1*%
X168997789Y-54150000D03*
X168997789Y-54950000D03*
D32*
X168997789Y-56100000D03*
X168997789Y-57100000D03*
X168997789Y-57600000D03*
X168997789Y-58600000D03*
D31*
X168997789Y-59750000D03*
X168997789Y-60550000D03*
X168997789Y-60550000D03*
X168997789Y-59750000D03*
D32*
X168997789Y-59100000D03*
X168997789Y-58100000D03*
X168997789Y-56600000D03*
X168997789Y-55600000D03*
D31*
X168997789Y-54950000D03*
X168997789Y-54150000D03*
%TD*%
D15*
%TO.C,C9*%
X194980000Y-52500000D03*
X194020000Y-52500000D03*
%TD*%
M02*
