%TF.GenerationSoftware,KiCad,Pcbnew,10.0.6*%
%TF.CreationDate,2026-09-14T00:18:00-06:00*%
%TF.ProjectId,aam_bom_pcb,61616d5f-626f-46d5-9f70-63622e6b6963,rev?*%
%TF.SameCoordinates,Original*%
%TF.FileFunction,Copper,L2,Inr*%
%TF.FilePolarity,Positive*%
%FSLAX46Y46*%
G04 Gerber Fmt 4.6, Leading zero omitted, Abs format (unit mm)*
G04 Created by KiCad (PCBNEW 10.0.6) date 2026-09-14 00:18:00*
%MOMM*%
%LPD*%
G01*
G04 APERTURE LIST*
%TA.AperFunction,ComponentPad*%
%ADD10C,2.080000*%
%TD*%
%TA.AperFunction,ComponentPad*%
%ADD11C,0.508000*%
%TD*%
%TA.AperFunction,ComponentPad*%
%ADD12O,2.100000X1.000000*%
%TD*%
%TA.AperFunction,ComponentPad*%
%ADD13O,1.600000X1.000000*%
%TD*%
%TA.AperFunction,ViaPad*%
%ADD14C,0.300000*%
%TD*%
%TA.AperFunction,ViaPad*%
%ADD15C,0.600000*%
%TD*%
%TA.AperFunction,Conductor*%
%ADD16C,0.127000*%
%TD*%
%TA.AperFunction,Conductor*%
%ADD17C,0.200000*%
%TD*%
G04 APERTURE END LIST*
D10*
%TO.N,GND*%
%TO.C,MK1*%
X196000000Y-49000000D03*
%TD*%
D11*
%TO.N,GND*%
%TO.C,U4*%
X186187400Y-55837400D03*
X186187400Y-55050000D03*
X186187400Y-54262600D03*
X185400000Y-55837400D03*
X185400000Y-55050000D03*
X185400000Y-54262600D03*
X184612600Y-55837400D03*
X184612600Y-55050000D03*
X184612600Y-54262600D03*
%TD*%
D12*
%TO.N,Net-(J1-SHIELD)*%
%TO.C,J1*%
X168357789Y-53030000D03*
D13*
X164177789Y-53030000D03*
D12*
X168357789Y-61670000D03*
D13*
X164177789Y-61670000D03*
%TD*%
D14*
%TO.N,Net-(U1-TS)*%
X176800000Y-51000000D03*
X178100000Y-54600000D03*
%TO.N,I2C_SCL*%
X188100000Y-52800000D03*
%TO.N,I2C_SDA*%
X186000000Y-52250000D03*
%TO.N,+1V8*%
X200500000Y-55000000D03*
X203000000Y-55250000D03*
X190750000Y-58500000D03*
X188500000Y-51200000D03*
X186186500Y-59100000D03*
X195100000Y-53300000D03*
%TO.N,GND*%
X194200000Y-51700000D03*
%TO.N,PDM_DATA*%
X199000000Y-50000000D03*
%TO.N,GND*%
X192700000Y-57800000D03*
X191700000Y-56500000D03*
X190300000Y-56300000D03*
D15*
%TO.N,Net-(J1-SHIELD)*%
X164750000Y-51250000D03*
X168500000Y-63370000D03*
X165000000Y-63370000D03*
X168500000Y-51330000D03*
D14*
%TO.N,GND*%
X174000000Y-50900000D03*
X205400000Y-54300000D03*
D15*
X170770000Y-54000000D03*
D14*
X197250000Y-46750000D03*
X176000000Y-50850000D03*
X176200000Y-52100000D03*
X192800000Y-48150000D03*
X166800000Y-49900000D03*
X212800000Y-56300000D03*
X186550000Y-58050000D03*
X177400000Y-53300000D03*
X210149998Y-58800000D03*
X214900000Y-62800000D03*
X179250000Y-60050000D03*
X210700000Y-54400000D03*
X181200000Y-54500000D03*
X205500000Y-51700000D03*
X175200000Y-50850000D03*
X202300000Y-63100000D03*
X173900000Y-47550000D03*
X180400000Y-47400000D03*
D15*
X170770000Y-60550000D03*
D14*
X183704544Y-58051769D03*
D15*
X194000000Y-49500000D03*
D14*
X212800000Y-55800000D03*
X175500000Y-47500000D03*
X200000000Y-52500000D03*
X212800000Y-56700000D03*
X212800000Y-57200000D03*
X182159500Y-54300000D03*
X185392389Y-58107611D03*
X197400000Y-54000000D03*
X188600000Y-56900000D03*
X182800000Y-59950000D03*
X204100000Y-61700000D03*
X179100000Y-47650000D03*
%TO.N,Net-(J1-CC2)*%
X170750000Y-58750000D03*
%TO.N,Net-(U4-\u002ARESET)*%
X184201387Y-58548613D03*
%TO.N,+1V8*%
X205600000Y-62600000D03*
X183850000Y-51650000D03*
X186000000Y-58100000D03*
X197600000Y-52500000D03*
X187200000Y-57950000D03*
X204000000Y-55000000D03*
X174600000Y-47550000D03*
D15*
X172750000Y-46750000D03*
D14*
X206100000Y-54300000D03*
X182159500Y-53800000D03*
X188500000Y-58000000D03*
X182600000Y-46600000D03*
X176750000Y-49200000D03*
X197750000Y-51250000D03*
%TO.N,/SWCLK*%
X204000000Y-59300000D03*
%TO.N,/SWDIO*%
X204000000Y-58700000D03*
%TO.N,PDM_DATA*%
X204100000Y-60200000D03*
%TO.N,PDM_CLK*%
X212800000Y-60300000D03*
%TO.N,/SWD_NRST*%
X208500000Y-54300000D03*
%TO.N,Net-(U3-VDDA)*%
X210000000Y-54400000D03*
X200000000Y-54000000D03*
X211300000Y-54400000D03*
%TO.N,Net-(D1-K)*%
X171000000Y-55000000D03*
X170750000Y-59750000D03*
%TO.N,I2C_SDA*%
X207900000Y-54300000D03*
X176800000Y-48300000D03*
%TO.N,Net-(U3-PH3-BOOT0)*%
X207284778Y-54300000D03*
%TO.N,I2C_SCL*%
X176674423Y-47750385D03*
X206700000Y-54300000D03*
%TO.N,/I2S_DIN*%
X203900000Y-56200000D03*
X188500000Y-54800000D03*
%TO.N,/I2S_BCLK*%
X188500000Y-55800000D03*
X204100000Y-57100000D03*
%TO.N,/I2S_WCLK*%
X188500000Y-55300000D03*
X208300000Y-62600000D03*
%TO.N,VBAT*%
X174600000Y-50900000D03*
X176917389Y-52232611D03*
X178050000Y-52550000D03*
%TO.N,Net-(J1-CC1)*%
X171000000Y-56000000D03*
D15*
X172750000Y-56000000D03*
D14*
%TO.N,Net-(U1-LS{slash}LDO)*%
X175500000Y-46999997D03*
%TO.N,Net-(U4-INR)*%
X182159500Y-55350000D03*
%TO.N,Net-(U4-REF)*%
X182159500Y-55850003D03*
%TO.N,Net-(C6-Pad1)*%
X173250000Y-49100000D03*
%TO.N,Net-(U1-SW)*%
X173250000Y-48249615D03*
%TD*%
%TO.N,GND*%
D16*
X202300000Y-62400000D02*
X203000000Y-61700000D01*
X202300000Y-63100000D02*
X202300000Y-62400000D01*
X203000000Y-61700000D02*
X202450000Y-61700000D01*
X197400000Y-56650000D02*
X197400000Y-54000000D01*
X202450000Y-61700000D02*
X197400000Y-56650000D01*
X204100000Y-61700000D02*
X203000000Y-61700000D01*
X193600000Y-57800000D02*
X192700000Y-57800000D01*
X197400000Y-54000000D02*
X193600000Y-57800000D01*
X172400000Y-50100000D02*
X173200000Y-50900000D01*
X172400000Y-48100000D02*
X172400000Y-50100000D01*
X173200000Y-50900000D02*
X174000000Y-50900000D01*
X172950000Y-47550000D02*
X172400000Y-48100000D01*
X173900000Y-47550000D02*
X172950000Y-47550000D01*
X174900000Y-51600000D02*
X174700000Y-51600000D01*
X175200000Y-51300000D02*
X174900000Y-51600000D01*
X175200000Y-50850000D02*
X175200000Y-51300000D01*
X174700000Y-51600000D02*
X174000000Y-50900000D01*
X175200000Y-50850000D02*
X176000000Y-50850000D01*
X176200000Y-52100000D02*
X176200000Y-51050000D01*
X176200000Y-51050000D02*
X176000000Y-50850000D01*
X173900000Y-47400000D02*
X173900000Y-47550000D01*
X174400000Y-46900000D02*
X173900000Y-47400000D01*
X174800000Y-46900000D02*
X174400000Y-46900000D01*
X175400000Y-47500000D02*
X174800000Y-46900000D01*
X175500000Y-47500000D02*
X175400000Y-47500000D01*
X180150000Y-47650000D02*
X179100000Y-47650000D01*
X180400000Y-47400000D02*
X180150000Y-47650000D01*
X178650000Y-47200000D02*
X179100000Y-47650000D01*
X176300000Y-47500000D02*
X176600000Y-47200000D01*
X176600000Y-47200000D02*
X178650000Y-47200000D01*
X175500000Y-47500000D02*
X176300000Y-47500000D01*
X193800000Y-49700000D02*
X194000000Y-49500000D01*
X193800000Y-51500000D02*
X193800000Y-49700000D01*
X194000000Y-51700000D02*
X193800000Y-51500000D01*
X194200000Y-51700000D02*
X194000000Y-51700000D01*
X196100000Y-51600000D02*
X194300000Y-51600000D01*
X196300000Y-51800000D02*
X196100000Y-51600000D01*
X196300000Y-53600000D02*
X196300000Y-51800000D01*
X196700000Y-54000000D02*
X196300000Y-53600000D01*
X194300000Y-51600000D02*
X194200000Y-51700000D01*
X197400000Y-54000000D02*
X196700000Y-54000000D01*
X205500000Y-54200000D02*
X205500000Y-51700000D01*
X205400000Y-54300000D02*
X205500000Y-54200000D01*
X212800000Y-55800000D02*
X212800000Y-57200000D01*
X189700000Y-56900000D02*
X190300000Y-56300000D01*
X188600000Y-56900000D02*
X189700000Y-56900000D01*
X191500000Y-56300000D02*
X191700000Y-56500000D01*
X190300000Y-56300000D02*
X191500000Y-56300000D01*
X192500000Y-56500000D02*
X191700000Y-56500000D01*
X192700000Y-56700000D02*
X192500000Y-56500000D01*
X192700000Y-57800000D02*
X192700000Y-56700000D01*
X183760386Y-58107611D02*
X183704544Y-58051769D01*
X185392389Y-58107611D02*
X183760386Y-58107611D01*
X171150000Y-54000000D02*
X170770000Y-54000000D01*
X197250000Y-46750000D02*
X194200000Y-46750000D01*
X198800000Y-46750000D02*
X197250000Y-46750000D01*
X182159500Y-54300000D02*
X184650000Y-54300000D01*
X187150000Y-56900000D02*
X186550000Y-56300000D01*
X172870000Y-62650000D02*
X170770000Y-60550000D01*
X210700000Y-56400000D02*
X210700000Y-54400000D01*
X177250000Y-60650000D02*
X178650000Y-60650000D01*
X186250000Y-59950000D02*
X186600000Y-59600000D01*
X186550000Y-56300000D02*
X186550000Y-58050000D01*
X182800000Y-59950000D02*
X179350000Y-59950000D01*
X186550000Y-56200000D02*
X186550000Y-56300000D01*
X176200000Y-52800000D02*
X176200000Y-52100000D01*
X210149998Y-60599998D02*
X212450000Y-62900000D01*
X184650000Y-54300000D02*
X186187400Y-55837400D01*
X203750000Y-51700000D02*
X200000000Y-47950000D01*
X181959500Y-54500000D02*
X182159500Y-54300000D01*
X200000000Y-47950000D02*
X198800000Y-46750000D01*
X177400000Y-60500000D02*
X177250000Y-60650000D01*
X200000000Y-52500000D02*
X198900000Y-52500000D01*
X181200000Y-54500000D02*
X181959500Y-54500000D01*
X179350000Y-59950000D02*
X179250000Y-60050000D01*
X205500000Y-51700000D02*
X203750000Y-51700000D01*
X175250000Y-62650000D02*
X172870000Y-62650000D01*
X212800000Y-57200000D02*
X211500000Y-57200000D01*
X177250000Y-60650000D02*
X175250000Y-62650000D01*
X214800000Y-62900000D02*
X214900000Y-62800000D01*
X186187400Y-55837400D02*
X186550000Y-56200000D01*
X177400000Y-53300000D02*
X176700000Y-53300000D01*
D17*
X194500000Y-49000000D02*
X194000000Y-49500000D01*
D16*
X166800000Y-49900000D02*
X167866910Y-49900000D01*
D17*
X196000000Y-49000000D02*
X194500000Y-49000000D01*
D16*
X210700000Y-58249998D02*
X210700000Y-56400000D01*
D17*
X194000000Y-49350000D02*
X192800000Y-48150000D01*
X194000000Y-49500000D02*
X194000000Y-49350000D01*
D16*
X186600000Y-59600000D02*
X186600000Y-58100000D01*
X208000000Y-51700000D02*
X205500000Y-51700000D01*
X210149998Y-58800000D02*
X210149998Y-60599998D01*
X212450000Y-62900000D02*
X214800000Y-62900000D01*
X186600000Y-58100000D02*
X186550000Y-58050000D01*
X167866910Y-49900000D02*
X170770000Y-52803090D01*
X188600000Y-56900000D02*
X187150000Y-56900000D01*
X182800000Y-59950000D02*
X186250000Y-59950000D01*
X170770000Y-52803090D02*
X170770000Y-54000000D01*
X198900000Y-52500000D02*
X197400000Y-54000000D01*
X194200000Y-46750000D02*
X192800000Y-48150000D01*
X177400000Y-53300000D02*
X177400000Y-60500000D01*
X171950000Y-54800000D02*
X171150000Y-54000000D01*
X171950000Y-59370000D02*
X171950000Y-54800000D01*
X176700000Y-53300000D02*
X176200000Y-52800000D01*
X211500000Y-57200000D02*
X210700000Y-56400000D01*
X170770000Y-60550000D02*
X171950000Y-59370000D01*
X178650000Y-60650000D02*
X179250000Y-60050000D01*
X210700000Y-54400000D02*
X208000000Y-51700000D01*
X210149998Y-58800000D02*
X210700000Y-58249998D01*
X200000000Y-52500000D02*
X200000000Y-47950000D01*
%TD*%
%TA.AperFunction,Conductor*%
%TO.N,GND*%
G36*
X172135098Y-46020185D02*
G01*
X172180853Y-46072989D01*
X172190797Y-46142147D01*
X172161772Y-46205703D01*
X172155740Y-46212181D01*
X172128213Y-46239707D01*
X172128210Y-46239711D01*
X172040609Y-46370814D01*
X172040602Y-46370827D01*
X171980264Y-46516498D01*
X171980261Y-46516510D01*
X171949500Y-46671153D01*
X171949500Y-46828846D01*
X171980261Y-46983489D01*
X171980264Y-46983501D01*
X172040602Y-47129172D01*
X172040609Y-47129185D01*
X172128210Y-47260288D01*
X172128213Y-47260292D01*
X172239707Y-47371786D01*
X172239711Y-47371789D01*
X172370814Y-47459390D01*
X172370827Y-47459397D01*
X172507633Y-47516063D01*
X172516503Y-47519737D01*
X172671153Y-47550499D01*
X172671156Y-47550500D01*
X172729807Y-47550500D01*
X172796846Y-47570185D01*
X172842601Y-47622989D01*
X172852545Y-47692147D01*
X172823520Y-47755703D01*
X172817488Y-47762181D01*
X172744726Y-47834942D01*
X172744723Y-47834946D01*
X172673538Y-47941481D01*
X172673533Y-47941490D01*
X172624499Y-48059870D01*
X172624497Y-48059876D01*
X172599500Y-48185543D01*
X172599500Y-48185546D01*
X172599500Y-48313684D01*
X172599500Y-48313686D01*
X172599499Y-48313686D01*
X172624497Y-48439353D01*
X172624499Y-48439359D01*
X172673533Y-48557739D01*
X172673541Y-48557753D01*
X172705723Y-48605917D01*
X172726601Y-48672594D01*
X172708116Y-48739974D01*
X172705724Y-48743697D01*
X172673537Y-48791868D01*
X172673533Y-48791875D01*
X172624499Y-48910255D01*
X172624497Y-48910261D01*
X172599500Y-49035928D01*
X172599500Y-49035931D01*
X172599500Y-49164069D01*
X172599500Y-49164071D01*
X172599499Y-49164071D01*
X172624497Y-49289738D01*
X172624499Y-49289744D01*
X172673533Y-49408124D01*
X172673538Y-49408133D01*
X172744723Y-49514668D01*
X172744726Y-49514672D01*
X172835327Y-49605273D01*
X172835331Y-49605276D01*
X172941866Y-49676461D01*
X172941872Y-49676464D01*
X172941873Y-49676465D01*
X173060256Y-49725501D01*
X173060260Y-49725501D01*
X173060261Y-49725502D01*
X173185928Y-49750500D01*
X173185931Y-49750500D01*
X173314071Y-49750500D01*
X173398615Y-49733682D01*
X173439744Y-49725501D01*
X173558127Y-49676465D01*
X173664669Y-49605276D01*
X173755276Y-49514669D01*
X173826465Y-49408127D01*
X173875501Y-49289744D01*
X173888604Y-49223872D01*
X173900500Y-49164071D01*
X173900500Y-49035928D01*
X173875502Y-48910261D01*
X173875501Y-48910260D01*
X173875501Y-48910256D01*
X173826465Y-48791873D01*
X173826462Y-48791868D01*
X173826461Y-48791866D01*
X173794276Y-48743698D01*
X173773398Y-48677021D01*
X173791882Y-48609640D01*
X173794277Y-48605915D01*
X173826460Y-48557750D01*
X173826461Y-48557747D01*
X173826465Y-48557742D01*
X173875501Y-48439359D01*
X173900500Y-48313684D01*
X173900500Y-48185546D01*
X173900500Y-48185543D01*
X173876950Y-48067156D01*
X173883177Y-47997565D01*
X173926039Y-47942387D01*
X173991929Y-47919142D01*
X174059926Y-47935209D01*
X174090111Y-47960666D01*
X174090416Y-47960362D01*
X174094000Y-47963946D01*
X174094422Y-47964302D01*
X174094723Y-47964669D01*
X174185327Y-48055273D01*
X174185331Y-48055276D01*
X174291866Y-48126461D01*
X174291872Y-48126464D01*
X174291873Y-48126465D01*
X174410256Y-48175501D01*
X174410260Y-48175501D01*
X174410261Y-48175502D01*
X174535928Y-48200500D01*
X174535931Y-48200500D01*
X174664071Y-48200500D01*
X174753935Y-48182624D01*
X174789744Y-48175501D01*
X174908127Y-48126465D01*
X175014669Y-48055276D01*
X175105276Y-47964669D01*
X175176465Y-47858127D01*
X175225501Y-47739744D01*
X175226396Y-47735247D01*
X175258781Y-47673336D01*
X175319496Y-47638762D01*
X175372205Y-47637821D01*
X175435929Y-47650497D01*
X175435931Y-47650497D01*
X175564071Y-47650497D01*
X175648615Y-47633679D01*
X175689744Y-47625498D01*
X175808127Y-47576462D01*
X175833288Y-47559649D01*
X175899964Y-47538771D01*
X175967345Y-47557254D01*
X176014036Y-47609232D01*
X176025214Y-47678202D01*
X176023958Y-47685952D01*
X176023923Y-47686313D01*
X176023923Y-47686316D01*
X176023923Y-47814454D01*
X176023923Y-47814456D01*
X176023922Y-47814456D01*
X176048920Y-47940123D01*
X176048922Y-47940129D01*
X176097957Y-48058511D01*
X176115430Y-48084661D01*
X176132535Y-48110261D01*
X176136335Y-48115947D01*
X176157213Y-48182624D01*
X176154851Y-48209027D01*
X176149500Y-48235930D01*
X176149500Y-48235931D01*
X176149500Y-48364069D01*
X176149500Y-48364071D01*
X176149499Y-48364071D01*
X176174497Y-48489738D01*
X176174499Y-48489744D01*
X176223533Y-48608124D01*
X176223538Y-48608133D01*
X176247299Y-48643693D01*
X176268177Y-48710370D01*
X176249693Y-48777750D01*
X176247300Y-48781474D01*
X176173537Y-48891868D01*
X176173533Y-48891875D01*
X176124499Y-49010255D01*
X176124497Y-49010261D01*
X176099500Y-49135928D01*
X176099500Y-49135931D01*
X176099500Y-49264069D01*
X176099500Y-49264071D01*
X176099499Y-49264071D01*
X176124497Y-49389738D01*
X176124499Y-49389744D01*
X176173533Y-49508124D01*
X176173538Y-49508133D01*
X176244723Y-49614668D01*
X176244726Y-49614672D01*
X176335327Y-49705273D01*
X176335331Y-49705276D01*
X176441866Y-49776461D01*
X176441872Y-49776464D01*
X176441873Y-49776465D01*
X176560256Y-49825501D01*
X176560260Y-49825501D01*
X176560261Y-49825502D01*
X176685928Y-49850500D01*
X176685931Y-49850500D01*
X176814071Y-49850500D01*
X176921904Y-49829050D01*
X176932824Y-49826877D01*
X176939744Y-49825501D01*
X177058127Y-49776465D01*
X177164669Y-49705276D01*
X177255276Y-49614669D01*
X177326465Y-49508127D01*
X177375501Y-49389744D01*
X177400500Y-49264069D01*
X177400500Y-49135931D01*
X177400500Y-49135928D01*
X177375502Y-49010261D01*
X177375501Y-49010260D01*
X177375501Y-49010256D01*
X177329197Y-48898469D01*
X194710000Y-48898469D01*
X194710000Y-49101530D01*
X194741763Y-49302076D01*
X194804511Y-49495192D01*
X194896695Y-49676110D01*
X195002071Y-49821149D01*
X195002072Y-49821149D01*
X195510705Y-49312517D01*
X195535884Y-49356128D01*
X195643872Y-49464116D01*
X195687481Y-49489293D01*
X195178848Y-49997926D01*
X195178849Y-49997927D01*
X195323889Y-50103304D01*
X195504807Y-50195488D01*
X195697923Y-50258236D01*
X195898470Y-50290000D01*
X196101530Y-50290000D01*
X196302076Y-50258236D01*
X196495192Y-50195488D01*
X196676107Y-50103306D01*
X196730109Y-50064071D01*
X198349499Y-50064071D01*
X198374497Y-50189738D01*
X198374499Y-50189744D01*
X198423533Y-50308124D01*
X198423538Y-50308133D01*
X198494723Y-50414668D01*
X198494726Y-50414672D01*
X198585327Y-50505273D01*
X198585331Y-50505276D01*
X198691866Y-50576461D01*
X198691872Y-50576464D01*
X198691873Y-50576465D01*
X198810256Y-50625501D01*
X198810260Y-50625501D01*
X198810261Y-50625502D01*
X198935928Y-50650500D01*
X198935931Y-50650500D01*
X199064071Y-50650500D01*
X199176125Y-50628210D01*
X199189744Y-50625501D01*
X199308127Y-50576465D01*
X199414669Y-50505276D01*
X199505276Y-50414669D01*
X199576465Y-50308127D01*
X199625501Y-50189744D01*
X199642695Y-50103306D01*
X199650500Y-50064071D01*
X199650500Y-49935928D01*
X199625502Y-49810261D01*
X199625501Y-49810260D01*
X199625501Y-49810256D01*
X199582017Y-49705276D01*
X199576466Y-49691875D01*
X199576461Y-49691866D01*
X199505276Y-49585331D01*
X199505273Y-49585327D01*
X199414672Y-49494726D01*
X199414668Y-49494723D01*
X199308133Y-49423538D01*
X199308124Y-49423533D01*
X199189744Y-49374499D01*
X199189738Y-49374497D01*
X199064071Y-49349500D01*
X199064069Y-49349500D01*
X198935931Y-49349500D01*
X198935929Y-49349500D01*
X198810261Y-49374497D01*
X198810255Y-49374499D01*
X198691875Y-49423533D01*
X198691866Y-49423538D01*
X198585331Y-49494723D01*
X198585327Y-49494726D01*
X198494726Y-49585327D01*
X198494723Y-49585331D01*
X198423538Y-49691866D01*
X198423533Y-49691875D01*
X198374499Y-49810255D01*
X198374497Y-49810261D01*
X198349500Y-49935928D01*
X198349500Y-49935931D01*
X198349500Y-50064069D01*
X198349500Y-50064071D01*
X198349499Y-50064071D01*
X196730109Y-50064071D01*
X196821149Y-49997926D01*
X196821150Y-49997925D01*
X196312518Y-49489293D01*
X196356128Y-49464116D01*
X196464116Y-49356128D01*
X196489294Y-49312518D01*
X196997926Y-49821150D01*
X196997926Y-49821149D01*
X197103306Y-49676107D01*
X197195488Y-49495192D01*
X197258236Y-49302076D01*
X197290000Y-49101530D01*
X197290000Y-48898469D01*
X197258236Y-48697923D01*
X197195488Y-48504807D01*
X197103304Y-48323889D01*
X196997927Y-48178849D01*
X196997926Y-48178848D01*
X196489293Y-48687480D01*
X196464116Y-48643872D01*
X196356128Y-48535884D01*
X196312517Y-48510705D01*
X196821149Y-48002072D01*
X196821149Y-48002071D01*
X196676110Y-47896695D01*
X196495192Y-47804511D01*
X196302076Y-47741763D01*
X196101530Y-47710000D01*
X195898470Y-47710000D01*
X195697923Y-47741763D01*
X195504807Y-47804511D01*
X195323896Y-47896691D01*
X195178849Y-48002072D01*
X195687482Y-48510705D01*
X195643872Y-48535884D01*
X195535884Y-48643872D01*
X195510705Y-48687482D01*
X195002072Y-48178849D01*
X194896691Y-48323896D01*
X194804511Y-48504807D01*
X194741763Y-48697923D01*
X194710000Y-48898469D01*
X177329197Y-48898469D01*
X177326465Y-48891873D01*
X177299020Y-48850798D01*
X177295948Y-48844931D01*
X177290361Y-48816902D01*
X177281822Y-48789629D01*
X177283619Y-48783075D01*
X177282291Y-48776408D01*
X177292746Y-48749807D01*
X177300306Y-48722249D01*
X177302700Y-48718524D01*
X177330432Y-48677021D01*
X177376465Y-48608127D01*
X177425501Y-48489744D01*
X177433682Y-48448615D01*
X177450500Y-48364071D01*
X177450500Y-48235928D01*
X177425502Y-48110261D01*
X177425501Y-48110260D01*
X177425501Y-48110256D01*
X177376465Y-47991873D01*
X177333972Y-47928278D01*
X177330619Y-47921672D01*
X177325524Y-47894314D01*
X177317209Y-47867759D01*
X177318302Y-47855537D01*
X177317827Y-47852984D01*
X177318729Y-47850771D01*
X177319571Y-47841356D01*
X177324923Y-47814454D01*
X177324923Y-47686316D01*
X177324923Y-47686313D01*
X177299925Y-47560646D01*
X177299924Y-47560645D01*
X177299924Y-47560641D01*
X177250888Y-47442258D01*
X177250887Y-47442257D01*
X177250884Y-47442251D01*
X177179699Y-47335716D01*
X177179696Y-47335712D01*
X177089095Y-47245111D01*
X177089091Y-47245108D01*
X176982556Y-47173923D01*
X176982547Y-47173918D01*
X176864167Y-47124884D01*
X176864161Y-47124882D01*
X176738494Y-47099885D01*
X176738492Y-47099885D01*
X176610354Y-47099885D01*
X176610352Y-47099885D01*
X176484684Y-47124882D01*
X176484678Y-47124884D01*
X176366298Y-47173918D01*
X176366286Y-47173925D01*
X176341131Y-47190733D01*
X176274453Y-47211610D01*
X176207073Y-47193124D01*
X176160384Y-47141145D01*
X176149209Y-47072175D01*
X176150465Y-47064423D01*
X176150500Y-47064068D01*
X176150500Y-46935925D01*
X176125502Y-46810258D01*
X176125501Y-46810257D01*
X176125501Y-46810253D01*
X176076465Y-46691870D01*
X176076464Y-46691869D01*
X176076461Y-46691863D01*
X176005276Y-46585328D01*
X176005273Y-46585324D01*
X175914672Y-46494723D01*
X175914668Y-46494720D01*
X175808133Y-46423535D01*
X175808124Y-46423530D01*
X175689744Y-46374496D01*
X175689738Y-46374494D01*
X175564071Y-46349497D01*
X175564069Y-46349497D01*
X175435931Y-46349497D01*
X175435929Y-46349497D01*
X175310261Y-46374494D01*
X175310255Y-46374496D01*
X175191875Y-46423530D01*
X175191866Y-46423535D01*
X175085331Y-46494720D01*
X175085327Y-46494723D01*
X174994726Y-46585324D01*
X174994723Y-46585328D01*
X174923538Y-46691863D01*
X174923533Y-46691872D01*
X174874499Y-46810252D01*
X174874496Y-46810261D01*
X174873601Y-46814762D01*
X174841209Y-46876670D01*
X174780489Y-46911238D01*
X174727795Y-46912175D01*
X174664073Y-46899500D01*
X174664069Y-46899500D01*
X174535931Y-46899500D01*
X174535929Y-46899500D01*
X174410261Y-46924497D01*
X174410255Y-46924499D01*
X174291875Y-46973533D01*
X174291866Y-46973538D01*
X174185331Y-47044723D01*
X174185327Y-47044726D01*
X174094726Y-47135327D01*
X174094723Y-47135331D01*
X174023538Y-47241866D01*
X174023533Y-47241875D01*
X173974499Y-47360255D01*
X173974497Y-47360261D01*
X173949500Y-47485928D01*
X173949500Y-47485931D01*
X173949500Y-47614069D01*
X173949500Y-47614071D01*
X173949499Y-47614071D01*
X173973049Y-47732458D01*
X173966822Y-47802050D01*
X173923959Y-47857227D01*
X173858069Y-47880472D01*
X173790072Y-47864404D01*
X173759888Y-47838948D01*
X173759584Y-47839253D01*
X173755996Y-47835665D01*
X173755575Y-47835310D01*
X173755273Y-47834942D01*
X173664672Y-47744341D01*
X173664668Y-47744338D01*
X173558133Y-47673153D01*
X173558124Y-47673148D01*
X173439744Y-47624114D01*
X173439738Y-47624112D01*
X173308094Y-47597926D01*
X173308403Y-47596368D01*
X173250784Y-47573099D01*
X173210427Y-47516063D01*
X173207313Y-47446263D01*
X173242430Y-47385860D01*
X173258848Y-47372752D01*
X173259117Y-47372572D01*
X173260289Y-47371789D01*
X173371789Y-47260289D01*
X173459394Y-47129179D01*
X173519737Y-46983497D01*
X173550500Y-46828842D01*
X173550500Y-46671158D01*
X173550500Y-46671155D01*
X173550499Y-46671153D01*
X173519738Y-46516510D01*
X173519737Y-46516503D01*
X173519735Y-46516498D01*
X173459397Y-46370827D01*
X173459390Y-46370814D01*
X173371789Y-46239711D01*
X173371786Y-46239707D01*
X173344260Y-46212181D01*
X173310775Y-46150858D01*
X173315759Y-46081166D01*
X173357631Y-46025233D01*
X173423095Y-46000816D01*
X173431941Y-46000500D01*
X181986236Y-46000500D01*
X182053275Y-46020185D01*
X182099030Y-46072989D01*
X182108974Y-46142147D01*
X182089338Y-46193391D01*
X182023538Y-46291866D01*
X182023533Y-46291875D01*
X181974499Y-46410255D01*
X181974497Y-46410261D01*
X181949500Y-46535928D01*
X181949500Y-46535931D01*
X181949500Y-46664069D01*
X181949500Y-46664071D01*
X181949499Y-46664071D01*
X181974497Y-46789738D01*
X181974499Y-46789744D01*
X182023533Y-46908124D01*
X182023538Y-46908133D01*
X182094723Y-47014668D01*
X182094726Y-47014672D01*
X182185327Y-47105273D01*
X182185331Y-47105276D01*
X182291866Y-47176461D01*
X182291872Y-47176464D01*
X182291873Y-47176465D01*
X182410256Y-47225501D01*
X182410260Y-47225501D01*
X182410261Y-47225502D01*
X182535928Y-47250500D01*
X182535931Y-47250500D01*
X182664071Y-47250500D01*
X182748615Y-47233682D01*
X182789744Y-47225501D01*
X182908127Y-47176465D01*
X183014669Y-47105276D01*
X183105276Y-47014669D01*
X183176465Y-46908127D01*
X183225501Y-46789744D01*
X183233682Y-46748615D01*
X183250500Y-46664071D01*
X183250500Y-46535928D01*
X183225502Y-46410261D01*
X183225501Y-46410260D01*
X183225501Y-46410256D01*
X183176465Y-46291873D01*
X183176464Y-46291872D01*
X183176461Y-46291866D01*
X183110662Y-46193391D01*
X183089784Y-46126713D01*
X183108269Y-46059333D01*
X183160247Y-46012643D01*
X183213764Y-46000500D01*
X218875500Y-46000500D01*
X218942539Y-46020185D01*
X218988294Y-46072989D01*
X218999500Y-46124500D01*
X218999500Y-64375500D01*
X218979815Y-64442539D01*
X218927011Y-64488294D01*
X218875500Y-64499500D01*
X162124500Y-64499500D01*
X162057461Y-64479815D01*
X162011706Y-64427011D01*
X162000500Y-64375500D01*
X162000500Y-61768543D01*
X162877288Y-61768543D01*
X162915736Y-61961829D01*
X162915739Y-61961839D01*
X162991153Y-62143907D01*
X162991160Y-62143920D01*
X163100649Y-62307781D01*
X163100652Y-62307785D01*
X163240003Y-62447136D01*
X163240007Y-62447139D01*
X163403868Y-62556628D01*
X163403881Y-62556635D01*
X163585949Y-62632049D01*
X163585954Y-62632051D01*
X163585958Y-62632051D01*
X163585959Y-62632052D01*
X163779245Y-62670500D01*
X164272650Y-62670500D01*
X164339689Y-62690185D01*
X164385444Y-62742989D01*
X164395388Y-62812147D01*
X164375752Y-62863391D01*
X164290609Y-62990814D01*
X164290602Y-62990827D01*
X164230264Y-63136498D01*
X164230261Y-63136510D01*
X164199500Y-63291153D01*
X164199500Y-63448846D01*
X164230261Y-63603489D01*
X164230264Y-63603501D01*
X164290602Y-63749172D01*
X164290609Y-63749185D01*
X164378210Y-63880288D01*
X164378213Y-63880292D01*
X164489707Y-63991786D01*
X164489711Y-63991789D01*
X164620814Y-64079390D01*
X164620827Y-64079397D01*
X164766498Y-64139735D01*
X164766503Y-64139737D01*
X164921153Y-64170499D01*
X164921156Y-64170500D01*
X164921158Y-64170500D01*
X165078844Y-64170500D01*
X165078845Y-64170499D01*
X165233497Y-64139737D01*
X165379179Y-64079394D01*
X165510289Y-63991789D01*
X165621789Y-63880289D01*
X165709394Y-63749179D01*
X165769737Y-63603497D01*
X165800500Y-63448842D01*
X165800500Y-63291158D01*
X165800500Y-63291155D01*
X165800499Y-63291153D01*
X165769737Y-63136503D01*
X165769735Y-63136498D01*
X165709397Y-62990827D01*
X165709390Y-62990814D01*
X165621789Y-62859711D01*
X165621786Y-62859707D01*
X165510292Y-62748213D01*
X165510288Y-62748210D01*
X165379185Y-62660609D01*
X165379172Y-62660602D01*
X165233501Y-62600264D01*
X165227665Y-62598494D01*
X165228123Y-62596981D01*
X165173037Y-62568168D01*
X165138462Y-62507453D01*
X165142201Y-62437683D01*
X165171455Y-62391254D01*
X165254928Y-62307782D01*
X165364421Y-62143914D01*
X165439840Y-61961835D01*
X165478289Y-61768543D01*
X166807288Y-61768543D01*
X166845736Y-61961829D01*
X166845739Y-61961839D01*
X166921153Y-62143907D01*
X166921160Y-62143920D01*
X167030649Y-62307781D01*
X167030652Y-62307785D01*
X167170003Y-62447136D01*
X167170007Y-62447139D01*
X167333868Y-62556628D01*
X167333881Y-62556635D01*
X167515949Y-62632049D01*
X167515954Y-62632051D01*
X167515958Y-62632051D01*
X167515959Y-62632052D01*
X167709245Y-62670500D01*
X167709248Y-62670500D01*
X167772650Y-62670500D01*
X167839689Y-62690185D01*
X167885444Y-62742989D01*
X167895388Y-62812147D01*
X167875752Y-62863391D01*
X167790609Y-62990814D01*
X167790602Y-62990827D01*
X167730264Y-63136498D01*
X167730261Y-63136510D01*
X167699500Y-63291153D01*
X167699500Y-63448846D01*
X167730261Y-63603489D01*
X167730264Y-63603501D01*
X167790602Y-63749172D01*
X167790609Y-63749185D01*
X167878210Y-63880288D01*
X167878213Y-63880292D01*
X167989707Y-63991786D01*
X167989711Y-63991789D01*
X168120814Y-64079390D01*
X168120827Y-64079397D01*
X168266498Y-64139735D01*
X168266503Y-64139737D01*
X168421153Y-64170499D01*
X168421156Y-64170500D01*
X168421158Y-64170500D01*
X168578844Y-64170500D01*
X168578845Y-64170499D01*
X168733497Y-64139737D01*
X168879179Y-64079394D01*
X169010289Y-63991789D01*
X169121789Y-63880289D01*
X169209394Y-63749179D01*
X169269737Y-63603497D01*
X169300500Y-63448842D01*
X169300500Y-63291158D01*
X169300500Y-63291155D01*
X169300499Y-63291153D01*
X169269737Y-63136503D01*
X169269735Y-63136498D01*
X169209397Y-62990827D01*
X169209390Y-62990814D01*
X169121789Y-62859711D01*
X169121786Y-62859707D01*
X169108854Y-62846775D01*
X169075369Y-62785452D01*
X169080353Y-62715760D01*
X169119048Y-62664071D01*
X204949499Y-62664071D01*
X204974497Y-62789738D01*
X204974499Y-62789744D01*
X205023533Y-62908124D01*
X205023538Y-62908133D01*
X205094723Y-63014668D01*
X205094726Y-63014672D01*
X205185327Y-63105273D01*
X205185331Y-63105276D01*
X205291866Y-63176461D01*
X205291872Y-63176464D01*
X205291873Y-63176465D01*
X205410256Y-63225501D01*
X205410260Y-63225501D01*
X205410261Y-63225502D01*
X205535928Y-63250500D01*
X205535931Y-63250500D01*
X205664071Y-63250500D01*
X205748615Y-63233682D01*
X205789744Y-63225501D01*
X205908127Y-63176465D01*
X206014669Y-63105276D01*
X206105276Y-63014669D01*
X206176465Y-62908127D01*
X206225501Y-62789744D01*
X206250500Y-62664071D01*
X207649499Y-62664071D01*
X207674497Y-62789738D01*
X207674499Y-62789744D01*
X207723533Y-62908124D01*
X207723538Y-62908133D01*
X207794723Y-63014668D01*
X207794726Y-63014672D01*
X207885327Y-63105273D01*
X207885331Y-63105276D01*
X207991866Y-63176461D01*
X207991872Y-63176464D01*
X207991873Y-63176465D01*
X208110256Y-63225501D01*
X208110260Y-63225501D01*
X208110261Y-63225502D01*
X208235928Y-63250500D01*
X208235931Y-63250500D01*
X208364071Y-63250500D01*
X208448615Y-63233682D01*
X208489744Y-63225501D01*
X208608127Y-63176465D01*
X208714669Y-63105276D01*
X208805276Y-63014669D01*
X208876465Y-62908127D01*
X208925501Y-62789744D01*
X208950500Y-62664069D01*
X208950500Y-62535931D01*
X208950500Y-62535928D01*
X208925502Y-62410261D01*
X208925501Y-62410260D01*
X208925501Y-62410256D01*
X208876465Y-62291873D01*
X208876464Y-62291872D01*
X208876461Y-62291866D01*
X208805276Y-62185331D01*
X208805273Y-62185327D01*
X208714672Y-62094726D01*
X208714668Y-62094723D01*
X208608133Y-62023538D01*
X208608124Y-62023533D01*
X208489744Y-61974499D01*
X208489738Y-61974497D01*
X208364071Y-61949500D01*
X208364069Y-61949500D01*
X208235931Y-61949500D01*
X208235929Y-61949500D01*
X208110261Y-61974497D01*
X208110255Y-61974499D01*
X207991875Y-62023533D01*
X207991866Y-62023538D01*
X207885331Y-62094723D01*
X207885327Y-62094726D01*
X207794726Y-62185327D01*
X207794723Y-62185331D01*
X207723538Y-62291866D01*
X207723533Y-62291875D01*
X207674499Y-62410255D01*
X207674497Y-62410261D01*
X207649500Y-62535928D01*
X207649500Y-62535931D01*
X207649500Y-62664069D01*
X207649500Y-62664071D01*
X207649499Y-62664071D01*
X206250500Y-62664071D01*
X206250500Y-62664069D01*
X206250500Y-62535931D01*
X206250500Y-62535928D01*
X206225502Y-62410261D01*
X206225501Y-62410260D01*
X206225501Y-62410256D01*
X206176465Y-62291873D01*
X206176464Y-62291872D01*
X206176461Y-62291866D01*
X206105276Y-62185331D01*
X206105273Y-62185327D01*
X206014672Y-62094726D01*
X206014668Y-62094723D01*
X205908133Y-62023538D01*
X205908124Y-62023533D01*
X205789744Y-61974499D01*
X205789738Y-61974497D01*
X205664071Y-61949500D01*
X205664069Y-61949500D01*
X205535931Y-61949500D01*
X205535929Y-61949500D01*
X205410261Y-61974497D01*
X205410255Y-61974499D01*
X205291875Y-62023533D01*
X205291866Y-62023538D01*
X205185331Y-62094723D01*
X205185327Y-62094726D01*
X205094726Y-62185327D01*
X205094723Y-62185331D01*
X205023538Y-62291866D01*
X205023533Y-62291875D01*
X204974499Y-62410255D01*
X204974497Y-62410261D01*
X204949500Y-62535928D01*
X204949500Y-62535931D01*
X204949500Y-62664069D01*
X204949500Y-62664071D01*
X204949499Y-62664071D01*
X169119048Y-62664071D01*
X169122225Y-62659827D01*
X169172343Y-62637477D01*
X169199624Y-62632051D01*
X169381703Y-62556632D01*
X169545571Y-62447139D01*
X169545574Y-62447136D01*
X169550553Y-62442158D01*
X169684925Y-62307785D01*
X169684928Y-62307782D01*
X169794421Y-62143914D01*
X169869840Y-61961835D01*
X169908289Y-61768541D01*
X169908289Y-61571459D01*
X169908289Y-61571456D01*
X169869841Y-61378170D01*
X169869840Y-61378169D01*
X169869840Y-61378165D01*
X169869838Y-61378160D01*
X169794424Y-61196092D01*
X169794417Y-61196079D01*
X169684928Y-61032218D01*
X169684925Y-61032214D01*
X169545574Y-60892863D01*
X169545570Y-60892860D01*
X169381709Y-60783371D01*
X169381696Y-60783364D01*
X169199628Y-60707950D01*
X169199618Y-60707947D01*
X169006332Y-60669500D01*
X169006330Y-60669500D01*
X168347094Y-60669500D01*
X168280055Y-60649815D01*
X168234300Y-60597011D01*
X168224356Y-60527853D01*
X168239707Y-60483500D01*
X168279450Y-60414662D01*
X168279452Y-60414659D01*
X168310289Y-60299573D01*
X168310289Y-60180427D01*
X168279452Y-60065341D01*
X168275290Y-60058133D01*
X168247651Y-60010261D01*
X168219879Y-59962158D01*
X168135631Y-59877910D01*
X168084039Y-59848123D01*
X168032449Y-59818337D01*
X167974899Y-59802917D01*
X167917362Y-59787500D01*
X167798216Y-59787500D01*
X167683128Y-59818337D01*
X167579947Y-59877910D01*
X167579944Y-59877912D01*
X167495701Y-59962155D01*
X167495699Y-59962158D01*
X167436126Y-60065339D01*
X167405289Y-60180427D01*
X167405289Y-60299572D01*
X167436126Y-60414660D01*
X167465912Y-60466250D01*
X167495699Y-60517842D01*
X167495701Y-60517844D01*
X167504833Y-60526976D01*
X167538318Y-60588299D01*
X167533334Y-60657991D01*
X167491462Y-60713924D01*
X167464605Y-60729218D01*
X167333877Y-60783366D01*
X167333868Y-60783371D01*
X167170007Y-60892860D01*
X167170003Y-60892863D01*
X167030652Y-61032214D01*
X167030649Y-61032218D01*
X166921160Y-61196079D01*
X166921153Y-61196092D01*
X166845739Y-61378160D01*
X166845736Y-61378170D01*
X166807289Y-61571456D01*
X166807289Y-61571459D01*
X166807289Y-61768541D01*
X166807289Y-61768543D01*
X166807288Y-61768543D01*
X165478289Y-61768543D01*
X165478289Y-61768541D01*
X165478289Y-61571459D01*
X165478289Y-61571456D01*
X165439841Y-61378170D01*
X165439840Y-61378169D01*
X165439840Y-61378165D01*
X165439838Y-61378160D01*
X165364424Y-61196092D01*
X165364417Y-61196079D01*
X165254928Y-61032218D01*
X165254925Y-61032214D01*
X165115574Y-60892863D01*
X165115570Y-60892860D01*
X164951709Y-60783371D01*
X164951696Y-60783364D01*
X164769628Y-60707950D01*
X164769618Y-60707947D01*
X164576332Y-60669500D01*
X164576330Y-60669500D01*
X163779248Y-60669500D01*
X163779246Y-60669500D01*
X163585959Y-60707947D01*
X163585949Y-60707950D01*
X163403881Y-60783364D01*
X163403868Y-60783371D01*
X163240007Y-60892860D01*
X163240003Y-60892863D01*
X163100652Y-61032214D01*
X163100649Y-61032218D01*
X162991160Y-61196079D01*
X162991153Y-61196092D01*
X162915739Y-61378160D01*
X162915736Y-61378170D01*
X162877289Y-61571456D01*
X162877289Y-61571459D01*
X162877289Y-61768541D01*
X162877289Y-61768543D01*
X162877288Y-61768543D01*
X162000500Y-61768543D01*
X162000500Y-58814071D01*
X170099499Y-58814071D01*
X170124497Y-58939738D01*
X170124499Y-58939744D01*
X170173533Y-59058124D01*
X170173538Y-59058133D01*
X170244723Y-59164668D01*
X170248589Y-59169379D01*
X170246958Y-59170716D01*
X170275858Y-59223642D01*
X170270874Y-59293334D01*
X170247489Y-59329719D01*
X170248589Y-59330621D01*
X170244723Y-59335331D01*
X170173538Y-59441866D01*
X170173533Y-59441875D01*
X170124499Y-59560255D01*
X170124497Y-59560261D01*
X170099500Y-59685928D01*
X170099500Y-59685931D01*
X170099500Y-59814069D01*
X170099500Y-59814071D01*
X170099499Y-59814071D01*
X170124497Y-59939738D01*
X170124499Y-59939744D01*
X170173533Y-60058124D01*
X170173538Y-60058133D01*
X170244723Y-60164668D01*
X170244726Y-60164672D01*
X170335327Y-60255273D01*
X170335331Y-60255276D01*
X170441866Y-60326461D01*
X170441872Y-60326464D01*
X170441873Y-60326465D01*
X170560256Y-60375501D01*
X170560260Y-60375501D01*
X170560261Y-60375502D01*
X170685928Y-60400500D01*
X170685931Y-60400500D01*
X170814071Y-60400500D01*
X170898615Y-60383682D01*
X170939744Y-60375501D01*
X171058127Y-60326465D01*
X171164669Y-60255276D01*
X171255276Y-60164669D01*
X171326465Y-60058127D01*
X171375501Y-59939744D01*
X171386326Y-59885327D01*
X171400500Y-59814071D01*
X171400500Y-59685928D01*
X171375502Y-59560261D01*
X171375501Y-59560260D01*
X171375501Y-59560256D01*
X171326465Y-59441873D01*
X171326464Y-59441872D01*
X171326461Y-59441866D01*
X171255276Y-59335331D01*
X171251411Y-59330621D01*
X171253045Y-59329279D01*
X171224148Y-59276389D01*
X171229114Y-59206696D01*
X171252514Y-59170284D01*
X171251411Y-59169379D01*
X171255271Y-59164673D01*
X171255276Y-59164669D01*
X171326465Y-59058127D01*
X171375501Y-58939744D01*
X171400500Y-58814069D01*
X171400500Y-58685931D01*
X171400500Y-58685928D01*
X171385930Y-58612684D01*
X183550886Y-58612684D01*
X183575884Y-58738351D01*
X183575886Y-58738357D01*
X183624920Y-58856737D01*
X183624925Y-58856746D01*
X183696110Y-58963281D01*
X183696113Y-58963285D01*
X183786714Y-59053886D01*
X183786718Y-59053889D01*
X183893253Y-59125074D01*
X183893262Y-59125079D01*
X183920079Y-59136187D01*
X184011643Y-59174114D01*
X184011647Y-59174114D01*
X184011648Y-59174115D01*
X184137315Y-59199113D01*
X184137318Y-59199113D01*
X184265458Y-59199113D01*
X184350002Y-59182295D01*
X184391131Y-59174114D01*
X184509514Y-59125078D01*
X184616056Y-59053889D01*
X184706663Y-58963282D01*
X184777852Y-58856740D01*
X184826888Y-58738357D01*
X184836559Y-58689738D01*
X184851887Y-58612684D01*
X184851887Y-58484541D01*
X184826889Y-58358874D01*
X184826888Y-58358873D01*
X184826888Y-58358869D01*
X184779608Y-58244726D01*
X184777853Y-58240488D01*
X184777848Y-58240479D01*
X184726793Y-58164071D01*
X185349499Y-58164071D01*
X185374497Y-58289738D01*
X185374499Y-58289744D01*
X185423533Y-58408124D01*
X185423538Y-58408133D01*
X185494723Y-58514668D01*
X185494726Y-58514672D01*
X185585325Y-58605271D01*
X185585324Y-58605271D01*
X185585329Y-58605274D01*
X185585331Y-58605276D01*
X185585501Y-58605390D01*
X185585571Y-58605472D01*
X185590035Y-58609136D01*
X185589340Y-58609982D01*
X185630307Y-58658999D01*
X185639017Y-58728324D01*
X185619717Y-58777382D01*
X185610036Y-58791870D01*
X185610033Y-58791875D01*
X185560999Y-58910255D01*
X185560997Y-58910261D01*
X185536000Y-59035928D01*
X185536000Y-59035931D01*
X185536000Y-59164069D01*
X185536000Y-59164071D01*
X185535999Y-59164071D01*
X185560997Y-59289738D01*
X185560999Y-59289744D01*
X185610033Y-59408124D01*
X185610038Y-59408133D01*
X185681223Y-59514668D01*
X185681226Y-59514672D01*
X185771827Y-59605273D01*
X185771831Y-59605276D01*
X185878366Y-59676461D01*
X185878372Y-59676464D01*
X185878373Y-59676465D01*
X185996756Y-59725501D01*
X185996760Y-59725501D01*
X185996761Y-59725502D01*
X186122428Y-59750500D01*
X186122431Y-59750500D01*
X186250571Y-59750500D01*
X186335115Y-59733682D01*
X186376244Y-59725501D01*
X186494627Y-59676465D01*
X186601169Y-59605276D01*
X186691776Y-59514669D01*
X186762965Y-59408127D01*
X186812001Y-59289744D01*
X186837000Y-59164069D01*
X186837000Y-59035931D01*
X186837000Y-59035928D01*
X186812002Y-58910261D01*
X186812001Y-58910260D01*
X186812001Y-58910256D01*
X186762965Y-58791873D01*
X186762963Y-58791870D01*
X186762961Y-58791866D01*
X186691778Y-58685334D01*
X186690470Y-58683740D01*
X186690045Y-58682740D01*
X186688392Y-58680266D01*
X186688861Y-58679952D01*
X186663154Y-58619431D01*
X186674943Y-58550563D01*
X186722093Y-58499001D01*
X186789635Y-58481115D01*
X186855211Y-58501969D01*
X186891866Y-58526461D01*
X186891872Y-58526464D01*
X186891873Y-58526465D01*
X187010256Y-58575501D01*
X187010260Y-58575501D01*
X187010261Y-58575502D01*
X187135928Y-58600500D01*
X187135931Y-58600500D01*
X187264071Y-58600500D01*
X187348615Y-58583682D01*
X187389744Y-58575501D01*
X187508127Y-58526465D01*
X187614669Y-58455276D01*
X187705276Y-58364669D01*
X187730194Y-58327377D01*
X187783803Y-58282573D01*
X187853128Y-58273864D01*
X187916156Y-58304018D01*
X187936397Y-58327377D01*
X187994723Y-58414668D01*
X187994726Y-58414672D01*
X188085327Y-58505273D01*
X188085331Y-58505276D01*
X188191866Y-58576461D01*
X188191872Y-58576464D01*
X188191873Y-58576465D01*
X188310256Y-58625501D01*
X188310260Y-58625501D01*
X188310261Y-58625502D01*
X188435928Y-58650500D01*
X188435931Y-58650500D01*
X188564071Y-58650500D01*
X188648615Y-58633682D01*
X188689744Y-58625501D01*
X188808127Y-58576465D01*
X188826676Y-58564071D01*
X190099499Y-58564071D01*
X190124497Y-58689738D01*
X190124499Y-58689744D01*
X190173533Y-58808124D01*
X190173538Y-58808133D01*
X190244723Y-58914668D01*
X190244726Y-58914672D01*
X190335327Y-59005273D01*
X190335331Y-59005276D01*
X190441866Y-59076461D01*
X190441872Y-59076464D01*
X190441873Y-59076465D01*
X190560256Y-59125501D01*
X190560260Y-59125501D01*
X190560261Y-59125502D01*
X190685928Y-59150500D01*
X190685931Y-59150500D01*
X190814071Y-59150500D01*
X190898615Y-59133682D01*
X190939744Y-59125501D01*
X191058127Y-59076465D01*
X191164669Y-59005276D01*
X191255276Y-58914669D01*
X191326465Y-58808127D01*
X191344714Y-58764071D01*
X203349499Y-58764071D01*
X203374497Y-58889738D01*
X203374499Y-58889743D01*
X203400513Y-58952549D01*
X203407981Y-59022018D01*
X203400513Y-59047451D01*
X203374499Y-59110256D01*
X203374497Y-59110261D01*
X203349500Y-59235928D01*
X203349500Y-59235931D01*
X203349500Y-59364069D01*
X203349500Y-59364071D01*
X203349499Y-59364071D01*
X203374497Y-59489738D01*
X203374499Y-59489744D01*
X203423533Y-59608124D01*
X203423538Y-59608133D01*
X203494723Y-59714668D01*
X203494726Y-59714672D01*
X203511014Y-59730960D01*
X203544499Y-59792283D01*
X203539515Y-59861975D01*
X203526438Y-59887527D01*
X203523535Y-59891871D01*
X203474499Y-60010255D01*
X203474497Y-60010261D01*
X203449500Y-60135928D01*
X203449500Y-60135931D01*
X203449500Y-60264069D01*
X203449500Y-60264071D01*
X203449499Y-60264071D01*
X203474497Y-60389738D01*
X203474499Y-60389744D01*
X203523533Y-60508124D01*
X203523538Y-60508133D01*
X203594723Y-60614668D01*
X203594726Y-60614672D01*
X203685327Y-60705273D01*
X203685331Y-60705276D01*
X203791866Y-60776461D01*
X203791875Y-60776466D01*
X203818692Y-60787574D01*
X203910256Y-60825501D01*
X203910260Y-60825501D01*
X203910261Y-60825502D01*
X204035928Y-60850500D01*
X204035931Y-60850500D01*
X204164071Y-60850500D01*
X204248615Y-60833682D01*
X204289744Y-60825501D01*
X204408127Y-60776465D01*
X204514669Y-60705276D01*
X204605276Y-60614669D01*
X204676465Y-60508127D01*
X204725501Y-60389744D01*
X204730608Y-60364071D01*
X212149499Y-60364071D01*
X212174497Y-60489738D01*
X212174499Y-60489744D01*
X212223533Y-60608124D01*
X212223538Y-60608133D01*
X212294723Y-60714668D01*
X212294726Y-60714672D01*
X212385327Y-60805273D01*
X212385331Y-60805276D01*
X212491866Y-60876461D01*
X212491872Y-60876464D01*
X212491873Y-60876465D01*
X212610256Y-60925501D01*
X212610260Y-60925501D01*
X212610261Y-60925502D01*
X212735928Y-60950500D01*
X212735931Y-60950500D01*
X212864070Y-60950500D01*
X212888883Y-60945563D01*
X212954562Y-60932499D01*
X213024153Y-60938726D01*
X213066435Y-60966435D01*
X213100000Y-61000000D01*
X216600000Y-61000000D01*
X216600000Y-53400000D01*
X213100000Y-53400000D01*
X213100000Y-59545335D01*
X213080315Y-59612374D01*
X213027511Y-59658129D01*
X212958353Y-59668073D01*
X212951809Y-59666952D01*
X212864072Y-59649500D01*
X212864069Y-59649500D01*
X212735931Y-59649500D01*
X212735929Y-59649500D01*
X212610261Y-59674497D01*
X212610255Y-59674499D01*
X212491875Y-59723533D01*
X212491866Y-59723538D01*
X212385331Y-59794723D01*
X212385327Y-59794726D01*
X212294726Y-59885327D01*
X212294723Y-59885331D01*
X212223538Y-59991866D01*
X212223533Y-59991875D01*
X212174499Y-60110255D01*
X212174497Y-60110261D01*
X212149500Y-60235928D01*
X212149500Y-60235931D01*
X212149500Y-60364069D01*
X212149500Y-60364071D01*
X212149499Y-60364071D01*
X204730608Y-60364071D01*
X204750500Y-60264069D01*
X204750500Y-60135931D01*
X204750500Y-60135928D01*
X204725502Y-60010261D01*
X204725501Y-60010260D01*
X204725501Y-60010256D01*
X204676465Y-59891873D01*
X204676464Y-59891871D01*
X204676461Y-59891866D01*
X204605276Y-59785331D01*
X204605274Y-59785328D01*
X204588987Y-59769042D01*
X204555500Y-59707720D01*
X204560483Y-59638028D01*
X204573566Y-59612464D01*
X204576465Y-59608127D01*
X204625501Y-59489744D01*
X204650500Y-59364069D01*
X204650500Y-59235931D01*
X204650500Y-59235928D01*
X204625502Y-59110261D01*
X204625499Y-59110250D01*
X204602153Y-59053889D01*
X204599486Y-59047453D01*
X204592017Y-58977985D01*
X204599487Y-58952546D01*
X204604793Y-58939738D01*
X204625501Y-58889744D01*
X204644969Y-58791875D01*
X204650500Y-58764071D01*
X204650500Y-58635928D01*
X204625502Y-58510261D01*
X204625501Y-58510260D01*
X204625501Y-58510256D01*
X204576465Y-58391873D01*
X204576464Y-58391872D01*
X204576461Y-58391866D01*
X204505276Y-58285331D01*
X204505273Y-58285327D01*
X204414672Y-58194726D01*
X204414668Y-58194723D01*
X204308133Y-58123538D01*
X204308124Y-58123533D01*
X204189744Y-58074499D01*
X204189738Y-58074497D01*
X204064071Y-58049500D01*
X204064069Y-58049500D01*
X203935931Y-58049500D01*
X203935929Y-58049500D01*
X203810261Y-58074497D01*
X203810255Y-58074499D01*
X203691875Y-58123533D01*
X203691866Y-58123538D01*
X203585331Y-58194723D01*
X203585327Y-58194726D01*
X203494726Y-58285327D01*
X203494723Y-58285331D01*
X203423538Y-58391866D01*
X203423533Y-58391875D01*
X203374499Y-58510255D01*
X203374497Y-58510261D01*
X203349500Y-58635928D01*
X203349500Y-58635931D01*
X203349500Y-58764069D01*
X203349500Y-58764071D01*
X203349499Y-58764071D01*
X191344714Y-58764071D01*
X191375501Y-58689744D01*
X191381617Y-58658999D01*
X191392230Y-58605647D01*
X191392230Y-58605646D01*
X191400499Y-58564073D01*
X191400500Y-58564071D01*
X191400500Y-58435928D01*
X191375502Y-58310261D01*
X191375501Y-58310260D01*
X191375501Y-58310256D01*
X191326465Y-58191873D01*
X191326464Y-58191872D01*
X191326461Y-58191866D01*
X191255276Y-58085331D01*
X191255273Y-58085327D01*
X191164672Y-57994726D01*
X191164668Y-57994723D01*
X191058133Y-57923538D01*
X191058124Y-57923533D01*
X190939744Y-57874499D01*
X190939738Y-57874497D01*
X190814071Y-57849500D01*
X190814069Y-57849500D01*
X190685931Y-57849500D01*
X190685929Y-57849500D01*
X190560261Y-57874497D01*
X190560255Y-57874499D01*
X190441875Y-57923533D01*
X190441866Y-57923538D01*
X190335331Y-57994723D01*
X190335327Y-57994726D01*
X190244726Y-58085327D01*
X190244723Y-58085331D01*
X190173538Y-58191866D01*
X190173533Y-58191875D01*
X190124499Y-58310255D01*
X190124497Y-58310261D01*
X190099500Y-58435928D01*
X190099500Y-58435931D01*
X190099500Y-58564069D01*
X190099500Y-58564071D01*
X190099499Y-58564071D01*
X188826676Y-58564071D01*
X188914669Y-58505276D01*
X189005276Y-58414669D01*
X189021393Y-58390548D01*
X189041172Y-58360948D01*
X189041173Y-58360946D01*
X189076458Y-58308138D01*
X189076460Y-58308134D01*
X189076465Y-58308127D01*
X189125501Y-58189744D01*
X189136601Y-58133940D01*
X189150500Y-58064071D01*
X189150500Y-57935928D01*
X189125502Y-57810261D01*
X189125501Y-57810260D01*
X189125501Y-57810256D01*
X189076465Y-57691873D01*
X189076464Y-57691872D01*
X189076461Y-57691866D01*
X189005276Y-57585331D01*
X189005273Y-57585327D01*
X188914672Y-57494726D01*
X188914668Y-57494723D01*
X188808133Y-57423538D01*
X188808124Y-57423533D01*
X188689744Y-57374499D01*
X188689738Y-57374497D01*
X188564071Y-57349500D01*
X188564069Y-57349500D01*
X188435931Y-57349500D01*
X188435929Y-57349500D01*
X188310261Y-57374497D01*
X188310255Y-57374499D01*
X188191875Y-57423533D01*
X188191866Y-57423538D01*
X188085331Y-57494723D01*
X188085327Y-57494726D01*
X187994726Y-57585327D01*
X187969806Y-57622623D01*
X187916193Y-57667427D01*
X187846868Y-57676134D01*
X187783841Y-57645979D01*
X187763602Y-57622621D01*
X187705279Y-57535335D01*
X187705273Y-57535327D01*
X187614672Y-57444726D01*
X187614668Y-57444723D01*
X187508133Y-57373538D01*
X187508124Y-57373533D01*
X187389744Y-57324499D01*
X187389738Y-57324497D01*
X187264071Y-57299500D01*
X187264069Y-57299500D01*
X187135931Y-57299500D01*
X187135929Y-57299500D01*
X187010261Y-57324497D01*
X187010255Y-57324499D01*
X186891875Y-57373533D01*
X186891866Y-57373538D01*
X186785331Y-57444723D01*
X186785327Y-57444726D01*
X186694726Y-57535327D01*
X186642703Y-57613185D01*
X186589090Y-57657989D01*
X186519765Y-57666696D01*
X186456738Y-57636541D01*
X186451920Y-57631974D01*
X186414672Y-57594726D01*
X186414668Y-57594723D01*
X186308133Y-57523538D01*
X186308124Y-57523533D01*
X186189744Y-57474499D01*
X186189738Y-57474497D01*
X186064071Y-57449500D01*
X186064069Y-57449500D01*
X185935931Y-57449500D01*
X185935929Y-57449500D01*
X185810261Y-57474497D01*
X185810255Y-57474499D01*
X185691875Y-57523533D01*
X185691866Y-57523538D01*
X185585331Y-57594723D01*
X185585327Y-57594726D01*
X185494726Y-57685327D01*
X185494723Y-57685331D01*
X185423538Y-57791866D01*
X185423533Y-57791875D01*
X185374499Y-57910255D01*
X185374497Y-57910261D01*
X185349500Y-58035928D01*
X185349500Y-58035931D01*
X185349500Y-58164069D01*
X185349500Y-58164071D01*
X185349499Y-58164071D01*
X184726793Y-58164071D01*
X184706663Y-58133944D01*
X184706660Y-58133940D01*
X184616059Y-58043339D01*
X184616055Y-58043336D01*
X184509520Y-57972151D01*
X184509511Y-57972146D01*
X184391131Y-57923112D01*
X184391125Y-57923110D01*
X184265458Y-57898113D01*
X184265456Y-57898113D01*
X184137318Y-57898113D01*
X184137316Y-57898113D01*
X184011648Y-57923110D01*
X184011642Y-57923112D01*
X183893262Y-57972146D01*
X183893253Y-57972151D01*
X183786718Y-58043336D01*
X183786714Y-58043339D01*
X183696113Y-58133940D01*
X183696110Y-58133944D01*
X183624925Y-58240479D01*
X183624920Y-58240488D01*
X183575886Y-58358868D01*
X183575884Y-58358874D01*
X183550887Y-58484541D01*
X183550887Y-58484544D01*
X183550887Y-58612682D01*
X183550887Y-58612684D01*
X183550886Y-58612684D01*
X171385930Y-58612684D01*
X171375502Y-58560261D01*
X171375501Y-58560260D01*
X171375501Y-58560256D01*
X171332017Y-58455276D01*
X171326468Y-58441879D01*
X171326461Y-58441866D01*
X171255276Y-58335331D01*
X171255273Y-58335327D01*
X171164672Y-58244726D01*
X171164668Y-58244723D01*
X171058133Y-58173538D01*
X171058124Y-58173533D01*
X170939744Y-58124499D01*
X170939738Y-58124497D01*
X170814071Y-58099500D01*
X170814069Y-58099500D01*
X170685931Y-58099500D01*
X170685929Y-58099500D01*
X170560261Y-58124497D01*
X170560255Y-58124499D01*
X170441875Y-58173533D01*
X170441866Y-58173538D01*
X170335331Y-58244723D01*
X170335327Y-58244726D01*
X170244726Y-58335327D01*
X170244723Y-58335331D01*
X170173538Y-58441866D01*
X170173533Y-58441875D01*
X170124499Y-58560255D01*
X170124497Y-58560261D01*
X170099500Y-58685928D01*
X170099500Y-58685931D01*
X170099500Y-58814069D01*
X170099500Y-58814071D01*
X170099499Y-58814071D01*
X162000500Y-58814071D01*
X162000500Y-55064071D01*
X170349499Y-55064071D01*
X170374497Y-55189738D01*
X170374499Y-55189744D01*
X170423533Y-55308124D01*
X170423538Y-55308133D01*
X170494723Y-55414668D01*
X170498589Y-55419379D01*
X170496958Y-55420716D01*
X170525858Y-55473642D01*
X170520874Y-55543334D01*
X170497489Y-55579719D01*
X170498589Y-55580621D01*
X170494723Y-55585331D01*
X170423538Y-55691866D01*
X170423533Y-55691875D01*
X170374499Y-55810255D01*
X170374497Y-55810261D01*
X170349500Y-55935928D01*
X170349500Y-55935929D01*
X170349500Y-55935931D01*
X170349500Y-56064069D01*
X170349500Y-56064071D01*
X170349499Y-56064071D01*
X170374497Y-56189738D01*
X170374499Y-56189744D01*
X170423533Y-56308124D01*
X170423538Y-56308133D01*
X170494723Y-56414668D01*
X170494726Y-56414672D01*
X170585327Y-56505273D01*
X170585331Y-56505276D01*
X170691866Y-56576461D01*
X170691872Y-56576464D01*
X170691873Y-56576465D01*
X170810256Y-56625501D01*
X170810260Y-56625501D01*
X170810261Y-56625502D01*
X170935928Y-56650500D01*
X170935931Y-56650500D01*
X171064071Y-56650500D01*
X171148615Y-56633682D01*
X171189744Y-56625501D01*
X171308127Y-56576465D01*
X171414669Y-56505276D01*
X171505276Y-56414669D01*
X171576465Y-56308127D01*
X171625501Y-56189744D01*
X171641737Y-56108124D01*
X171650500Y-56064071D01*
X171650500Y-55935929D01*
X171647561Y-55921153D01*
X171949500Y-55921153D01*
X171949500Y-56078846D01*
X171980261Y-56233489D01*
X171980264Y-56233501D01*
X172040602Y-56379172D01*
X172040609Y-56379185D01*
X172128210Y-56510288D01*
X172128213Y-56510292D01*
X172239707Y-56621786D01*
X172239711Y-56621789D01*
X172370814Y-56709390D01*
X172370827Y-56709397D01*
X172468013Y-56749652D01*
X172516503Y-56769737D01*
X172671153Y-56800499D01*
X172671156Y-56800500D01*
X172671158Y-56800500D01*
X172828844Y-56800500D01*
X172828845Y-56800499D01*
X172983497Y-56769737D01*
X173129179Y-56709394D01*
X173260289Y-56621789D01*
X173371789Y-56510289D01*
X173459394Y-56379179D01*
X173519737Y-56233497D01*
X173550500Y-56078842D01*
X173550500Y-55921158D01*
X173550500Y-55921155D01*
X173550499Y-55921153D01*
X173541418Y-55875500D01*
X173519737Y-55766503D01*
X173515087Y-55755276D01*
X173459397Y-55620827D01*
X173459390Y-55620814D01*
X173371789Y-55489711D01*
X173371786Y-55489707D01*
X173296150Y-55414071D01*
X181508999Y-55414071D01*
X181533997Y-55539738D01*
X181533998Y-55539741D01*
X181533999Y-55539744D01*
X181535486Y-55543334D01*
X181539304Y-55552552D01*
X181546770Y-55622022D01*
X181539306Y-55647445D01*
X181533999Y-55660259D01*
X181533997Y-55660265D01*
X181509000Y-55785931D01*
X181509000Y-55785934D01*
X181509000Y-55914072D01*
X181509000Y-55914074D01*
X181508999Y-55914074D01*
X181533997Y-56039741D01*
X181533999Y-56039747D01*
X181583033Y-56158127D01*
X181583038Y-56158136D01*
X181654223Y-56264671D01*
X181654226Y-56264675D01*
X181744827Y-56355276D01*
X181744831Y-56355279D01*
X181851366Y-56426464D01*
X181851372Y-56426467D01*
X181851373Y-56426468D01*
X181969756Y-56475504D01*
X181969760Y-56475504D01*
X181969761Y-56475505D01*
X182095428Y-56500503D01*
X182095431Y-56500503D01*
X182223571Y-56500503D01*
X182308115Y-56483685D01*
X182349244Y-56475504D01*
X182467627Y-56426468D01*
X182574169Y-56355279D01*
X182658391Y-56271057D01*
X184355717Y-56271057D01*
X184355717Y-56271058D01*
X184418059Y-56307051D01*
X184418058Y-56307051D01*
X184546250Y-56341400D01*
X184678950Y-56341400D01*
X184807141Y-56307051D01*
X184807142Y-56307050D01*
X184869481Y-56271058D01*
X184869481Y-56271057D01*
X185143117Y-56271057D01*
X185143117Y-56271058D01*
X185205459Y-56307051D01*
X185205458Y-56307051D01*
X185333650Y-56341400D01*
X185466350Y-56341400D01*
X185594541Y-56307051D01*
X185594542Y-56307050D01*
X185656881Y-56271058D01*
X185656881Y-56271057D01*
X185930517Y-56271057D01*
X185930517Y-56271058D01*
X185992859Y-56307051D01*
X185992858Y-56307051D01*
X186121050Y-56341400D01*
X186253750Y-56341400D01*
X186381941Y-56307051D01*
X186381942Y-56307050D01*
X186444281Y-56271058D01*
X186444281Y-56271057D01*
X186187401Y-56014176D01*
X186187400Y-56014176D01*
X185930517Y-56271057D01*
X185656881Y-56271057D01*
X185400001Y-56014176D01*
X185400000Y-56014176D01*
X185143117Y-56271057D01*
X184869481Y-56271057D01*
X184612601Y-56014176D01*
X184612600Y-56014176D01*
X184355717Y-56271057D01*
X182658391Y-56271057D01*
X182664776Y-56264672D01*
X182735965Y-56158130D01*
X182785001Y-56039747D01*
X182793182Y-55998618D01*
X182810000Y-55914074D01*
X182810000Y-55786350D01*
X182810000Y-55785934D01*
X182807039Y-55771049D01*
X184108600Y-55771049D01*
X184108600Y-55903750D01*
X184142947Y-56031937D01*
X184178940Y-56094280D01*
X184435822Y-55837399D01*
X184410561Y-55812138D01*
X184485600Y-55812138D01*
X184485600Y-55862662D01*
X184504935Y-55909340D01*
X184540660Y-55945065D01*
X184587338Y-55964400D01*
X184637862Y-55964400D01*
X184684540Y-55945065D01*
X184720265Y-55909340D01*
X184739600Y-55862662D01*
X184739600Y-55837399D01*
X184789376Y-55837399D01*
X185006300Y-56054323D01*
X185223223Y-55837401D01*
X185223223Y-55837400D01*
X185197961Y-55812138D01*
X185273000Y-55812138D01*
X185273000Y-55862662D01*
X185292335Y-55909340D01*
X185328060Y-55945065D01*
X185374738Y-55964400D01*
X185425262Y-55964400D01*
X185471940Y-55945065D01*
X185507665Y-55909340D01*
X185527000Y-55862662D01*
X185527000Y-55837399D01*
X185576776Y-55837399D01*
X185793700Y-56054323D01*
X186010623Y-55837401D01*
X186010623Y-55837400D01*
X185985361Y-55812138D01*
X186060400Y-55812138D01*
X186060400Y-55862662D01*
X186079735Y-55909340D01*
X186115460Y-55945065D01*
X186162138Y-55964400D01*
X186212662Y-55964400D01*
X186259340Y-55945065D01*
X186295065Y-55909340D01*
X186314400Y-55862662D01*
X186314400Y-55837399D01*
X186364176Y-55837399D01*
X186364176Y-55837400D01*
X186621057Y-56094281D01*
X186621058Y-56094281D01*
X186657050Y-56031942D01*
X186657051Y-56031941D01*
X186691400Y-55903750D01*
X186691400Y-55771049D01*
X186657051Y-55642859D01*
X186621057Y-55580517D01*
X186364176Y-55837399D01*
X186314400Y-55837399D01*
X186314400Y-55812138D01*
X186295065Y-55765460D01*
X186259340Y-55729735D01*
X186212662Y-55710400D01*
X186162138Y-55710400D01*
X186115460Y-55729735D01*
X186079735Y-55765460D01*
X186060400Y-55812138D01*
X185985361Y-55812138D01*
X185793700Y-55620476D01*
X185576776Y-55837399D01*
X185527000Y-55837399D01*
X185527000Y-55812138D01*
X185507665Y-55765460D01*
X185471940Y-55729735D01*
X185425262Y-55710400D01*
X185374738Y-55710400D01*
X185328060Y-55729735D01*
X185292335Y-55765460D01*
X185273000Y-55812138D01*
X185197961Y-55812138D01*
X185006300Y-55620476D01*
X184789376Y-55837399D01*
X184739600Y-55837399D01*
X184739600Y-55812138D01*
X184720265Y-55765460D01*
X184684540Y-55729735D01*
X184637862Y-55710400D01*
X184587338Y-55710400D01*
X184540660Y-55729735D01*
X184504935Y-55765460D01*
X184485600Y-55812138D01*
X184410561Y-55812138D01*
X184178941Y-55580518D01*
X184142947Y-55642862D01*
X184108600Y-55771049D01*
X182807039Y-55771049D01*
X182785001Y-55660259D01*
X182775751Y-55637928D01*
X182773433Y-55627882D01*
X182774905Y-55602882D01*
X182772228Y-55577983D01*
X182777410Y-55560335D01*
X182777540Y-55558133D01*
X182778405Y-55556945D01*
X182779698Y-55552545D01*
X182785001Y-55539744D01*
X182787658Y-55526389D01*
X182804106Y-55443699D01*
X184395676Y-55443699D01*
X184612600Y-55660623D01*
X184829523Y-55443701D01*
X184829523Y-55443700D01*
X184829522Y-55443699D01*
X185183076Y-55443699D01*
X185400000Y-55660623D01*
X185616923Y-55443701D01*
X185616923Y-55443700D01*
X185616922Y-55443699D01*
X185970476Y-55443699D01*
X186187400Y-55660623D01*
X186404323Y-55443701D01*
X186404323Y-55443700D01*
X186187400Y-55226776D01*
X185970476Y-55443699D01*
X185616922Y-55443699D01*
X185400000Y-55226776D01*
X185183076Y-55443699D01*
X184829522Y-55443699D01*
X184612600Y-55226776D01*
X184395676Y-55443699D01*
X182804106Y-55443699D01*
X182810000Y-55414071D01*
X182810000Y-55285928D01*
X182785002Y-55160261D01*
X182785001Y-55160260D01*
X182785001Y-55160256D01*
X182743579Y-55060255D01*
X182735966Y-55041875D01*
X182735959Y-55041863D01*
X182697061Y-54983649D01*
X184108600Y-54983649D01*
X184108600Y-55116350D01*
X184142947Y-55244537D01*
X184178941Y-55306880D01*
X184435822Y-55049999D01*
X184410561Y-55024738D01*
X184485600Y-55024738D01*
X184485600Y-55075262D01*
X184504935Y-55121940D01*
X184540660Y-55157665D01*
X184587338Y-55177000D01*
X184637862Y-55177000D01*
X184684540Y-55157665D01*
X184720265Y-55121940D01*
X184739600Y-55075262D01*
X184739600Y-55049999D01*
X184789376Y-55049999D01*
X185006300Y-55266923D01*
X185223223Y-55050001D01*
X185223223Y-55050000D01*
X185197961Y-55024738D01*
X185273000Y-55024738D01*
X185273000Y-55075262D01*
X185292335Y-55121940D01*
X185328060Y-55157665D01*
X185374738Y-55177000D01*
X185425262Y-55177000D01*
X185471940Y-55157665D01*
X185507665Y-55121940D01*
X185527000Y-55075262D01*
X185527000Y-55049999D01*
X185576776Y-55049999D01*
X185793700Y-55266923D01*
X186010623Y-55050001D01*
X186010623Y-55050000D01*
X185985361Y-55024738D01*
X186060400Y-55024738D01*
X186060400Y-55075262D01*
X186079735Y-55121940D01*
X186115460Y-55157665D01*
X186162138Y-55177000D01*
X186212662Y-55177000D01*
X186259340Y-55157665D01*
X186295065Y-55121940D01*
X186314400Y-55075262D01*
X186314400Y-55049999D01*
X186364176Y-55049999D01*
X186364176Y-55050000D01*
X186621057Y-55306881D01*
X186621058Y-55306881D01*
X186657050Y-55244542D01*
X186657051Y-55244541D01*
X186691400Y-55116350D01*
X186691400Y-54983649D01*
X186659359Y-54864071D01*
X187849499Y-54864071D01*
X187874498Y-54989742D01*
X187874498Y-54989744D01*
X187879803Y-55002551D01*
X187887269Y-55072021D01*
X187879803Y-55097449D01*
X187874498Y-55110255D01*
X187874498Y-55110257D01*
X187849500Y-55235928D01*
X187849500Y-55235931D01*
X187849500Y-55364069D01*
X187849500Y-55364071D01*
X187849499Y-55364071D01*
X187874498Y-55489742D01*
X187874498Y-55489744D01*
X187879803Y-55502551D01*
X187887269Y-55572021D01*
X187879803Y-55597449D01*
X187874498Y-55610255D01*
X187874498Y-55610257D01*
X187849500Y-55735928D01*
X187849500Y-55735931D01*
X187849500Y-55864069D01*
X187849500Y-55864071D01*
X187849499Y-55864071D01*
X187874497Y-55989738D01*
X187874499Y-55989744D01*
X187923533Y-56108124D01*
X187923538Y-56108133D01*
X187994723Y-56214668D01*
X187994726Y-56214672D01*
X188085327Y-56305273D01*
X188085331Y-56305276D01*
X188191866Y-56376461D01*
X188191875Y-56376466D01*
X188218692Y-56387574D01*
X188310256Y-56425501D01*
X188310260Y-56425501D01*
X188310261Y-56425502D01*
X188435928Y-56450500D01*
X188435931Y-56450500D01*
X188564071Y-56450500D01*
X188648615Y-56433682D01*
X188689744Y-56425501D01*
X188808127Y-56376465D01*
X188914669Y-56305276D01*
X189005276Y-56214669D01*
X189076465Y-56108127D01*
X189125501Y-55989744D01*
X189144969Y-55891875D01*
X189150500Y-55864071D01*
X189150500Y-55735928D01*
X189125502Y-55610261D01*
X189125501Y-55610260D01*
X189125501Y-55610256D01*
X189120197Y-55597452D01*
X189112728Y-55527987D01*
X189120196Y-55502551D01*
X189125501Y-55489744D01*
X189150500Y-55364069D01*
X189150500Y-55235931D01*
X189150500Y-55235928D01*
X189125502Y-55110261D01*
X189125501Y-55110260D01*
X189125501Y-55110256D01*
X189120197Y-55097452D01*
X189112728Y-55027987D01*
X189120196Y-55002551D01*
X189125501Y-54989744D01*
X189133682Y-54948615D01*
X189150500Y-54864071D01*
X189150500Y-54735928D01*
X189125502Y-54610261D01*
X189125501Y-54610260D01*
X189125501Y-54610256D01*
X189082017Y-54505276D01*
X189076466Y-54491875D01*
X189076461Y-54491866D01*
X189005276Y-54385331D01*
X189005273Y-54385327D01*
X188914672Y-54294726D01*
X188914668Y-54294723D01*
X188808133Y-54223538D01*
X188808124Y-54223533D01*
X188689744Y-54174499D01*
X188689738Y-54174497D01*
X188564071Y-54149500D01*
X188564069Y-54149500D01*
X188435931Y-54149500D01*
X188435929Y-54149500D01*
X188310261Y-54174497D01*
X188310255Y-54174499D01*
X188191875Y-54223533D01*
X188191866Y-54223538D01*
X188085331Y-54294723D01*
X188085327Y-54294726D01*
X187994726Y-54385327D01*
X187994723Y-54385331D01*
X187923538Y-54491866D01*
X187923533Y-54491875D01*
X187874499Y-54610255D01*
X187874497Y-54610261D01*
X187849500Y-54735928D01*
X187849500Y-54735931D01*
X187849500Y-54864069D01*
X187849500Y-54864071D01*
X187849499Y-54864071D01*
X186659359Y-54864071D01*
X186657051Y-54855459D01*
X186621057Y-54793117D01*
X186364176Y-55049999D01*
X186314400Y-55049999D01*
X186314400Y-55024738D01*
X186295065Y-54978060D01*
X186259340Y-54942335D01*
X186212662Y-54923000D01*
X186162138Y-54923000D01*
X186115460Y-54942335D01*
X186079735Y-54978060D01*
X186060400Y-55024738D01*
X185985361Y-55024738D01*
X185793700Y-54833076D01*
X185576776Y-55049999D01*
X185527000Y-55049999D01*
X185527000Y-55024738D01*
X185507665Y-54978060D01*
X185471940Y-54942335D01*
X185425262Y-54923000D01*
X185374738Y-54923000D01*
X185328060Y-54942335D01*
X185292335Y-54978060D01*
X185273000Y-55024738D01*
X185197961Y-55024738D01*
X185006300Y-54833076D01*
X184789376Y-55049999D01*
X184739600Y-55049999D01*
X184739600Y-55024738D01*
X184720265Y-54978060D01*
X184684540Y-54942335D01*
X184637862Y-54923000D01*
X184587338Y-54923000D01*
X184540660Y-54942335D01*
X184504935Y-54978060D01*
X184485600Y-55024738D01*
X184410561Y-55024738D01*
X184178941Y-54793118D01*
X184142947Y-54855462D01*
X184108600Y-54983649D01*
X182697061Y-54983649D01*
X182664776Y-54935331D01*
X182664773Y-54935327D01*
X182574172Y-54844726D01*
X182574168Y-54844723D01*
X182467633Y-54773538D01*
X182467624Y-54773533D01*
X182349244Y-54724499D01*
X182349238Y-54724497D01*
X182223571Y-54699500D01*
X182223569Y-54699500D01*
X182095431Y-54699500D01*
X182095429Y-54699500D01*
X181969761Y-54724497D01*
X181969755Y-54724499D01*
X181851375Y-54773533D01*
X181851366Y-54773538D01*
X181744831Y-54844723D01*
X181744827Y-54844726D01*
X181654226Y-54935327D01*
X181654223Y-54935331D01*
X181583038Y-55041866D01*
X181583033Y-55041875D01*
X181533999Y-55160255D01*
X181533997Y-55160261D01*
X181509000Y-55285928D01*
X181509000Y-55285931D01*
X181509000Y-55414069D01*
X181509000Y-55414071D01*
X181508999Y-55414071D01*
X173296150Y-55414071D01*
X173260292Y-55378213D01*
X173260288Y-55378210D01*
X173129185Y-55290609D01*
X173129172Y-55290602D01*
X172983501Y-55230264D01*
X172983489Y-55230261D01*
X172828845Y-55199500D01*
X172828842Y-55199500D01*
X172671158Y-55199500D01*
X172671155Y-55199500D01*
X172516510Y-55230261D01*
X172516498Y-55230264D01*
X172370827Y-55290602D01*
X172370814Y-55290609D01*
X172239711Y-55378210D01*
X172239707Y-55378213D01*
X172128213Y-55489707D01*
X172128210Y-55489711D01*
X172040609Y-55620814D01*
X172040602Y-55620827D01*
X171980264Y-55766498D01*
X171980261Y-55766510D01*
X171949500Y-55921153D01*
X171647561Y-55921153D01*
X171625502Y-55810261D01*
X171625501Y-55810260D01*
X171625501Y-55810256D01*
X171576465Y-55691873D01*
X171576464Y-55691872D01*
X171576461Y-55691866D01*
X171505276Y-55585331D01*
X171501411Y-55580621D01*
X171503045Y-55579279D01*
X171474148Y-55526389D01*
X171479114Y-55456696D01*
X171502514Y-55420284D01*
X171501411Y-55419379D01*
X171505273Y-55414672D01*
X171505276Y-55414669D01*
X171576465Y-55308127D01*
X171625501Y-55189744D01*
X171633682Y-55148615D01*
X171650500Y-55064071D01*
X171650500Y-54935928D01*
X171625502Y-54810261D01*
X171625501Y-54810260D01*
X171625501Y-54810256D01*
X171576465Y-54691873D01*
X171576464Y-54691872D01*
X171576461Y-54691866D01*
X171557889Y-54664071D01*
X177449499Y-54664071D01*
X177474497Y-54789738D01*
X177474499Y-54789744D01*
X177523533Y-54908124D01*
X177523538Y-54908133D01*
X177594723Y-55014668D01*
X177594726Y-55014672D01*
X177685327Y-55105273D01*
X177685331Y-55105276D01*
X177791866Y-55176461D01*
X177791875Y-55176466D01*
X177814719Y-55185928D01*
X177910256Y-55225501D01*
X177910260Y-55225501D01*
X177910261Y-55225502D01*
X178035928Y-55250500D01*
X178035931Y-55250500D01*
X178164071Y-55250500D01*
X178265804Y-55230263D01*
X178289744Y-55225501D01*
X178408127Y-55176465D01*
X178514669Y-55105276D01*
X178605276Y-55014669D01*
X178676465Y-54908127D01*
X178725501Y-54789744D01*
X178737580Y-54729019D01*
X178750500Y-54664071D01*
X178750500Y-54656299D01*
X184395676Y-54656299D01*
X184612600Y-54873223D01*
X184829523Y-54656301D01*
X184829523Y-54656300D01*
X184829522Y-54656299D01*
X185183076Y-54656299D01*
X185400000Y-54873223D01*
X185616923Y-54656301D01*
X185616923Y-54656300D01*
X185616922Y-54656299D01*
X185970476Y-54656299D01*
X186187400Y-54873223D01*
X186404323Y-54656301D01*
X186404323Y-54656300D01*
X186187400Y-54439376D01*
X185970476Y-54656299D01*
X185616922Y-54656299D01*
X185400000Y-54439376D01*
X185183076Y-54656299D01*
X184829522Y-54656299D01*
X184612600Y-54439376D01*
X184395676Y-54656299D01*
X178750500Y-54656299D01*
X178750500Y-54535928D01*
X178725502Y-54410261D01*
X178725501Y-54410260D01*
X178725501Y-54410256D01*
X178682017Y-54305276D01*
X178676466Y-54291875D01*
X178676461Y-54291866D01*
X178605276Y-54185331D01*
X178605273Y-54185327D01*
X178514672Y-54094726D01*
X178514668Y-54094723D01*
X178408133Y-54023538D01*
X178408124Y-54023533D01*
X178289744Y-53974499D01*
X178289738Y-53974497D01*
X178164071Y-53949500D01*
X178164069Y-53949500D01*
X178035931Y-53949500D01*
X178035929Y-53949500D01*
X177910261Y-53974497D01*
X177910255Y-53974499D01*
X177791875Y-54023533D01*
X177791866Y-54023538D01*
X177685331Y-54094723D01*
X177685327Y-54094726D01*
X177594726Y-54185327D01*
X177594723Y-54185331D01*
X177523538Y-54291866D01*
X177523533Y-54291875D01*
X177474499Y-54410255D01*
X177474497Y-54410261D01*
X177449500Y-54535928D01*
X177449500Y-54535931D01*
X177449500Y-54664069D01*
X177449500Y-54664071D01*
X177449499Y-54664071D01*
X171557889Y-54664071D01*
X171514229Y-54598730D01*
X171514228Y-54598729D01*
X171505274Y-54585328D01*
X171414672Y-54494726D01*
X171414668Y-54494723D01*
X171308133Y-54423538D01*
X171308124Y-54423533D01*
X171189744Y-54374499D01*
X171189738Y-54374497D01*
X171064071Y-54349500D01*
X171064069Y-54349500D01*
X170935931Y-54349500D01*
X170935929Y-54349500D01*
X170810261Y-54374497D01*
X170810255Y-54374499D01*
X170691875Y-54423533D01*
X170691866Y-54423538D01*
X170585331Y-54494723D01*
X170585327Y-54494726D01*
X170494726Y-54585327D01*
X170494723Y-54585331D01*
X170423538Y-54691866D01*
X170423533Y-54691875D01*
X170374499Y-54810255D01*
X170374497Y-54810261D01*
X170349500Y-54935928D01*
X170349500Y-54935931D01*
X170349500Y-55064069D01*
X170349500Y-55064071D01*
X170349499Y-55064071D01*
X162000500Y-55064071D01*
X162000500Y-53128543D01*
X162877288Y-53128543D01*
X162915736Y-53321829D01*
X162915739Y-53321839D01*
X162991153Y-53503907D01*
X162991160Y-53503920D01*
X163100649Y-53667781D01*
X163100652Y-53667785D01*
X163240003Y-53807136D01*
X163240007Y-53807139D01*
X163403868Y-53916628D01*
X163403881Y-53916635D01*
X163569730Y-53985331D01*
X163585954Y-53992051D01*
X163585958Y-53992051D01*
X163585959Y-53992052D01*
X163779245Y-54030500D01*
X163779248Y-54030500D01*
X164576332Y-54030500D01*
X164706371Y-54004632D01*
X164769624Y-53992051D01*
X164951703Y-53916632D01*
X165115571Y-53807139D01*
X165254928Y-53667782D01*
X165364421Y-53503914D01*
X165439840Y-53321835D01*
X165468948Y-53175500D01*
X165478289Y-53128543D01*
X166807288Y-53128543D01*
X166845736Y-53321829D01*
X166845739Y-53321839D01*
X166921153Y-53503907D01*
X166921160Y-53503920D01*
X167030649Y-53667781D01*
X167030652Y-53667785D01*
X167170003Y-53807136D01*
X167170007Y-53807139D01*
X167333868Y-53916628D01*
X167333880Y-53916635D01*
X167413226Y-53949500D01*
X167464604Y-53970781D01*
X167519008Y-54014621D01*
X167541073Y-54080915D01*
X167523794Y-54148615D01*
X167504836Y-54173020D01*
X167495703Y-54182153D01*
X167495699Y-54182158D01*
X167436126Y-54285339D01*
X167405289Y-54400427D01*
X167405289Y-54519572D01*
X167436126Y-54634660D01*
X167448620Y-54656299D01*
X167495699Y-54737842D01*
X167579947Y-54822090D01*
X167652660Y-54864071D01*
X167674128Y-54876466D01*
X167683130Y-54881663D01*
X167798216Y-54912500D01*
X167798218Y-54912500D01*
X167917360Y-54912500D01*
X167917362Y-54912500D01*
X168032448Y-54881663D01*
X168135631Y-54822090D01*
X168219879Y-54737842D01*
X168279452Y-54634659D01*
X168310289Y-54519573D01*
X168310289Y-54400427D01*
X168279452Y-54285341D01*
X168277948Y-54282736D01*
X168239707Y-54216500D01*
X168223234Y-54148600D01*
X168246086Y-54082573D01*
X168301008Y-54039382D01*
X168347094Y-54030500D01*
X169006332Y-54030500D01*
X169136371Y-54004632D01*
X169199624Y-53992051D01*
X169381703Y-53916632D01*
X169460366Y-53864071D01*
X181508999Y-53864071D01*
X181533997Y-53989738D01*
X181533999Y-53989744D01*
X181583033Y-54108124D01*
X181583038Y-54108133D01*
X181654223Y-54214668D01*
X181654226Y-54214672D01*
X181744827Y-54305273D01*
X181744831Y-54305276D01*
X181851366Y-54376461D01*
X181851372Y-54376464D01*
X181851373Y-54376465D01*
X181969756Y-54425501D01*
X181969760Y-54425501D01*
X181969761Y-54425502D01*
X182095428Y-54450500D01*
X182095431Y-54450500D01*
X182223571Y-54450500D01*
X182308115Y-54433682D01*
X182349244Y-54425501D01*
X182467627Y-54376465D01*
X182574169Y-54305276D01*
X182664776Y-54214669D01*
X182677084Y-54196249D01*
X184108600Y-54196249D01*
X184108600Y-54328950D01*
X184142947Y-54457137D01*
X184178941Y-54519480D01*
X184435822Y-54262599D01*
X184410561Y-54237338D01*
X184485600Y-54237338D01*
X184485600Y-54287862D01*
X184504935Y-54334540D01*
X184540660Y-54370265D01*
X184587338Y-54389600D01*
X184637862Y-54389600D01*
X184684540Y-54370265D01*
X184720265Y-54334540D01*
X184739600Y-54287862D01*
X184739600Y-54262599D01*
X184789376Y-54262599D01*
X185006300Y-54479523D01*
X185223223Y-54262601D01*
X185223223Y-54262600D01*
X185197961Y-54237338D01*
X185273000Y-54237338D01*
X185273000Y-54287862D01*
X185292335Y-54334540D01*
X185328060Y-54370265D01*
X185374738Y-54389600D01*
X185425262Y-54389600D01*
X185471940Y-54370265D01*
X185507665Y-54334540D01*
X185527000Y-54287862D01*
X185527000Y-54262599D01*
X185576776Y-54262599D01*
X185793700Y-54479523D01*
X186010623Y-54262601D01*
X186010623Y-54262600D01*
X185985361Y-54237338D01*
X186060400Y-54237338D01*
X186060400Y-54287862D01*
X186079735Y-54334540D01*
X186115460Y-54370265D01*
X186162138Y-54389600D01*
X186212662Y-54389600D01*
X186259340Y-54370265D01*
X186295065Y-54334540D01*
X186314400Y-54287862D01*
X186314400Y-54262599D01*
X186364176Y-54262599D01*
X186364176Y-54262600D01*
X186621057Y-54519481D01*
X186621058Y-54519481D01*
X186657050Y-54457142D01*
X186657051Y-54457141D01*
X186691400Y-54328950D01*
X186691400Y-54196249D01*
X186657051Y-54068059D01*
X186654748Y-54064071D01*
X199349499Y-54064071D01*
X199374497Y-54189738D01*
X199374499Y-54189744D01*
X199423533Y-54308124D01*
X199423538Y-54308133D01*
X199494723Y-54414668D01*
X199494726Y-54414672D01*
X199585327Y-54505273D01*
X199585331Y-54505276D01*
X199691866Y-54576461D01*
X199691875Y-54576466D01*
X199815850Y-54627818D01*
X199870253Y-54671659D01*
X199892318Y-54737953D01*
X199882960Y-54789828D01*
X199874499Y-54810256D01*
X199874497Y-54810261D01*
X199849500Y-54935928D01*
X199849500Y-54935931D01*
X199849500Y-55064069D01*
X199849500Y-55064071D01*
X199849499Y-55064071D01*
X199874497Y-55189738D01*
X199874499Y-55189744D01*
X199923533Y-55308124D01*
X199923538Y-55308133D01*
X199994723Y-55414668D01*
X199994726Y-55414672D01*
X200085327Y-55505273D01*
X200085331Y-55505276D01*
X200191866Y-55576461D01*
X200191875Y-55576466D01*
X200199729Y-55579719D01*
X200310256Y-55625501D01*
X200310260Y-55625501D01*
X200310261Y-55625502D01*
X200435928Y-55650500D01*
X200435931Y-55650500D01*
X200564071Y-55650500D01*
X200677774Y-55627882D01*
X200689744Y-55625501D01*
X200808127Y-55576465D01*
X200914669Y-55505276D01*
X201005276Y-55414669D01*
X201072493Y-55314071D01*
X202349499Y-55314071D01*
X202374497Y-55439738D01*
X202374499Y-55439744D01*
X202423533Y-55558124D01*
X202423538Y-55558133D01*
X202494723Y-55664668D01*
X202494726Y-55664672D01*
X202585327Y-55755273D01*
X202585331Y-55755276D01*
X202691866Y-55826461D01*
X202691872Y-55826464D01*
X202691873Y-55826465D01*
X202810256Y-55875501D01*
X202810260Y-55875501D01*
X202810261Y-55875502D01*
X202935928Y-55900500D01*
X202935931Y-55900500D01*
X203064069Y-55900500D01*
X203123885Y-55888601D01*
X203193474Y-55894827D01*
X203248652Y-55937689D01*
X203271898Y-56003578D01*
X203269693Y-56034409D01*
X203249500Y-56135926D01*
X203249500Y-56135931D01*
X203249500Y-56264069D01*
X203249500Y-56264071D01*
X203249499Y-56264071D01*
X203274497Y-56389738D01*
X203274499Y-56389744D01*
X203323533Y-56508124D01*
X203323538Y-56508133D01*
X203394723Y-56614668D01*
X203394726Y-56614672D01*
X203479121Y-56699067D01*
X203512606Y-56760390D01*
X203507622Y-56830082D01*
X203506002Y-56834199D01*
X203474499Y-56910256D01*
X203474497Y-56910261D01*
X203449500Y-57035928D01*
X203449500Y-57035931D01*
X203449500Y-57164069D01*
X203449500Y-57164071D01*
X203449499Y-57164071D01*
X203474497Y-57289738D01*
X203474499Y-57289744D01*
X203523533Y-57408124D01*
X203523538Y-57408133D01*
X203594723Y-57514668D01*
X203594726Y-57514672D01*
X203685327Y-57605273D01*
X203685331Y-57605276D01*
X203791866Y-57676461D01*
X203791872Y-57676464D01*
X203791873Y-57676465D01*
X203910256Y-57725501D01*
X203910260Y-57725501D01*
X203910261Y-57725502D01*
X204035928Y-57750500D01*
X204035931Y-57750500D01*
X204164071Y-57750500D01*
X204248615Y-57733682D01*
X204289744Y-57725501D01*
X204408127Y-57676465D01*
X204514669Y-57605276D01*
X204605276Y-57514669D01*
X204676465Y-57408127D01*
X204725501Y-57289744D01*
X204750500Y-57164069D01*
X204750500Y-57035931D01*
X204750500Y-57035928D01*
X204725502Y-56910261D01*
X204725501Y-56910260D01*
X204725501Y-56910256D01*
X204687574Y-56818692D01*
X204676466Y-56791875D01*
X204676461Y-56791866D01*
X204605276Y-56685331D01*
X204605273Y-56685327D01*
X204520878Y-56600932D01*
X204487393Y-56539609D01*
X204492377Y-56469917D01*
X204493998Y-56465798D01*
X204500335Y-56450500D01*
X204525501Y-56389744D01*
X204533682Y-56348615D01*
X204550500Y-56264071D01*
X204550500Y-56135928D01*
X204525502Y-56010261D01*
X204525501Y-56010260D01*
X204525501Y-56010256D01*
X204481385Y-55903750D01*
X204476466Y-55891875D01*
X204476461Y-55891866D01*
X204405276Y-55785331D01*
X204405273Y-55785327D01*
X204347998Y-55728052D01*
X204314513Y-55666729D01*
X204319497Y-55597037D01*
X204361369Y-55541104D01*
X204366780Y-55537274D01*
X204414669Y-55505276D01*
X204505276Y-55414669D01*
X204576465Y-55308127D01*
X204625501Y-55189744D01*
X204633682Y-55148615D01*
X204650500Y-55064071D01*
X204650500Y-54935928D01*
X204625502Y-54810261D01*
X204625501Y-54810260D01*
X204625501Y-54810256D01*
X204576465Y-54691873D01*
X204576464Y-54691872D01*
X204576461Y-54691866D01*
X204505276Y-54585331D01*
X204505273Y-54585327D01*
X204414672Y-54494726D01*
X204414668Y-54494723D01*
X204308133Y-54423538D01*
X204308124Y-54423533D01*
X204189744Y-54374499D01*
X204189738Y-54374497D01*
X204137323Y-54364071D01*
X205449499Y-54364071D01*
X205474497Y-54489738D01*
X205474499Y-54489744D01*
X205523533Y-54608124D01*
X205523538Y-54608133D01*
X205594723Y-54714668D01*
X205594726Y-54714672D01*
X205685327Y-54805273D01*
X205685331Y-54805276D01*
X205791866Y-54876461D01*
X205791875Y-54876466D01*
X205804422Y-54881663D01*
X205910256Y-54925501D01*
X205910260Y-54925501D01*
X205910261Y-54925502D01*
X206035928Y-54950500D01*
X206035931Y-54950500D01*
X206164071Y-54950500D01*
X206248615Y-54933682D01*
X206289744Y-54925501D01*
X206352546Y-54899486D01*
X206422015Y-54892017D01*
X206447451Y-54899486D01*
X206461422Y-54905273D01*
X206510250Y-54925499D01*
X206510253Y-54925499D01*
X206510256Y-54925501D01*
X206510260Y-54925501D01*
X206510261Y-54925502D01*
X206635928Y-54950500D01*
X206635931Y-54950500D01*
X206764071Y-54950500D01*
X206889739Y-54925502D01*
X206889739Y-54925501D01*
X206889744Y-54925501D01*
X206889746Y-54925499D01*
X206889750Y-54925499D01*
X206944935Y-54902640D01*
X207014404Y-54895170D01*
X207039843Y-54902640D01*
X207095027Y-54925499D01*
X207095038Y-54925502D01*
X207220706Y-54950500D01*
X207220709Y-54950500D01*
X207348849Y-54950500D01*
X207433393Y-54933682D01*
X207474522Y-54925501D01*
X207544936Y-54896333D01*
X207614404Y-54888864D01*
X207639836Y-54896331D01*
X207704218Y-54923000D01*
X207710256Y-54925501D01*
X207710261Y-54925502D01*
X207835928Y-54950500D01*
X207835931Y-54950500D01*
X207964071Y-54950500D01*
X208048615Y-54933682D01*
X208089744Y-54925501D01*
X208152546Y-54899486D01*
X208222015Y-54892017D01*
X208247451Y-54899486D01*
X208261422Y-54905273D01*
X208310250Y-54925499D01*
X208310253Y-54925499D01*
X208310256Y-54925501D01*
X208310260Y-54925501D01*
X208310261Y-54925502D01*
X208435928Y-54950500D01*
X208435931Y-54950500D01*
X208564071Y-54950500D01*
X208648615Y-54933682D01*
X208689744Y-54925501D01*
X208808127Y-54876465D01*
X208914669Y-54805276D01*
X209005276Y-54714669D01*
X209076465Y-54608127D01*
X209080039Y-54599500D01*
X209123849Y-54493732D01*
X209167690Y-54439328D01*
X209233984Y-54417263D01*
X209301683Y-54434542D01*
X209349294Y-54485679D01*
X209360027Y-54516992D01*
X209374497Y-54589738D01*
X209374499Y-54589744D01*
X209423533Y-54708124D01*
X209423538Y-54708133D01*
X209494723Y-54814668D01*
X209494726Y-54814672D01*
X209585327Y-54905273D01*
X209585331Y-54905276D01*
X209691866Y-54976461D01*
X209691875Y-54976466D01*
X209709217Y-54983649D01*
X209810256Y-55025501D01*
X209810260Y-55025501D01*
X209810261Y-55025502D01*
X209935928Y-55050500D01*
X209935931Y-55050500D01*
X210064071Y-55050500D01*
X210177246Y-55027987D01*
X210189744Y-55025501D01*
X210308127Y-54976465D01*
X210414669Y-54905276D01*
X210505276Y-54814669D01*
X210546898Y-54752377D01*
X210600509Y-54707572D01*
X210669834Y-54698865D01*
X210732862Y-54729019D01*
X210753103Y-54752378D01*
X210794725Y-54814671D01*
X210885327Y-54905273D01*
X210885331Y-54905276D01*
X210991866Y-54976461D01*
X210991875Y-54976466D01*
X211009217Y-54983649D01*
X211110256Y-55025501D01*
X211110260Y-55025501D01*
X211110261Y-55025502D01*
X211235928Y-55050500D01*
X211235931Y-55050500D01*
X211364071Y-55050500D01*
X211477246Y-55027987D01*
X211489744Y-55025501D01*
X211608127Y-54976465D01*
X211714669Y-54905276D01*
X211805276Y-54814669D01*
X211876465Y-54708127D01*
X211925501Y-54589744D01*
X211939459Y-54519573D01*
X211950500Y-54464071D01*
X211950500Y-54335928D01*
X211925502Y-54210261D01*
X211925501Y-54210260D01*
X211925501Y-54210256D01*
X211883200Y-54108133D01*
X211876466Y-54091875D01*
X211876461Y-54091866D01*
X211805276Y-53985331D01*
X211805273Y-53985327D01*
X211714672Y-53894726D01*
X211714668Y-53894723D01*
X211608133Y-53823538D01*
X211608124Y-53823533D01*
X211489744Y-53774499D01*
X211489738Y-53774497D01*
X211364071Y-53749500D01*
X211364069Y-53749500D01*
X211235931Y-53749500D01*
X211235929Y-53749500D01*
X211110261Y-53774497D01*
X211110255Y-53774499D01*
X210991875Y-53823533D01*
X210991866Y-53823538D01*
X210885331Y-53894723D01*
X210885327Y-53894726D01*
X210794726Y-53985327D01*
X210794723Y-53985331D01*
X210753102Y-54047622D01*
X210699490Y-54092427D01*
X210630165Y-54101134D01*
X210567137Y-54070979D01*
X210546898Y-54047622D01*
X210505276Y-53985331D01*
X210505273Y-53985327D01*
X210414672Y-53894726D01*
X210414668Y-53894723D01*
X210308133Y-53823538D01*
X210308124Y-53823533D01*
X210189744Y-53774499D01*
X210189738Y-53774497D01*
X210064071Y-53749500D01*
X210064069Y-53749500D01*
X209935931Y-53749500D01*
X209935929Y-53749500D01*
X209810261Y-53774497D01*
X209810255Y-53774499D01*
X209691875Y-53823533D01*
X209691866Y-53823538D01*
X209585331Y-53894723D01*
X209585327Y-53894726D01*
X209494726Y-53985327D01*
X209494723Y-53985331D01*
X209423538Y-54091866D01*
X209423533Y-54091876D01*
X209376150Y-54206268D01*
X209332308Y-54260672D01*
X209266014Y-54282736D01*
X209198315Y-54265456D01*
X209150705Y-54214319D01*
X209139972Y-54183006D01*
X209125501Y-54110256D01*
X209076465Y-53991873D01*
X209076464Y-53991872D01*
X209076461Y-53991866D01*
X209005276Y-53885331D01*
X209005273Y-53885327D01*
X208914672Y-53794726D01*
X208914668Y-53794723D01*
X208808133Y-53723538D01*
X208808124Y-53723533D01*
X208689744Y-53674499D01*
X208689738Y-53674497D01*
X208564071Y-53649500D01*
X208564069Y-53649500D01*
X208435931Y-53649500D01*
X208435929Y-53649500D01*
X208310261Y-53674497D01*
X208310256Y-53674499D01*
X208247451Y-53700513D01*
X208177982Y-53707981D01*
X208152549Y-53700513D01*
X208122474Y-53688056D01*
X208089744Y-53674499D01*
X208089742Y-53674498D01*
X208089738Y-53674497D01*
X207964071Y-53649500D01*
X207964069Y-53649500D01*
X207835931Y-53649500D01*
X207835929Y-53649500D01*
X207710261Y-53674497D01*
X207710251Y-53674500D01*
X207639841Y-53703665D01*
X207570372Y-53711134D01*
X207544937Y-53703665D01*
X207474526Y-53674500D01*
X207474516Y-53674497D01*
X207348849Y-53649500D01*
X207348847Y-53649500D01*
X207220709Y-53649500D01*
X207220707Y-53649500D01*
X207095039Y-53674497D01*
X207095029Y-53674500D01*
X207039841Y-53697360D01*
X206970372Y-53704829D01*
X206944937Y-53697360D01*
X206889748Y-53674500D01*
X206889738Y-53674497D01*
X206764071Y-53649500D01*
X206764069Y-53649500D01*
X206635931Y-53649500D01*
X206635929Y-53649500D01*
X206510261Y-53674497D01*
X206510256Y-53674499D01*
X206447451Y-53700513D01*
X206377982Y-53707981D01*
X206352549Y-53700513D01*
X206322474Y-53688056D01*
X206289744Y-53674499D01*
X206289742Y-53674498D01*
X206289738Y-53674497D01*
X206164071Y-53649500D01*
X206164069Y-53649500D01*
X206035931Y-53649500D01*
X206035929Y-53649500D01*
X205910261Y-53674497D01*
X205910255Y-53674499D01*
X205791875Y-53723533D01*
X205791866Y-53723538D01*
X205685331Y-53794723D01*
X205685327Y-53794726D01*
X205594726Y-53885327D01*
X205594723Y-53885331D01*
X205523538Y-53991866D01*
X205523533Y-53991875D01*
X205474499Y-54110255D01*
X205474497Y-54110261D01*
X205449500Y-54235928D01*
X205449500Y-54235931D01*
X205449500Y-54364069D01*
X205449500Y-54364071D01*
X205449499Y-54364071D01*
X204137323Y-54364071D01*
X204073904Y-54351456D01*
X204073903Y-54351456D01*
X204064070Y-54349500D01*
X204064069Y-54349500D01*
X203935931Y-54349500D01*
X203935929Y-54349500D01*
X203810261Y-54374497D01*
X203810255Y-54374499D01*
X203691875Y-54423533D01*
X203691866Y-54423538D01*
X203585331Y-54494723D01*
X203585327Y-54494726D01*
X203494726Y-54585327D01*
X203464631Y-54630368D01*
X203411018Y-54675172D01*
X203341693Y-54683879D01*
X203314264Y-54674635D01*
X203313755Y-54675866D01*
X203189744Y-54624499D01*
X203189738Y-54624497D01*
X203064071Y-54599500D01*
X203064069Y-54599500D01*
X202935931Y-54599500D01*
X202935929Y-54599500D01*
X202810261Y-54624497D01*
X202810255Y-54624499D01*
X202691875Y-54673533D01*
X202691866Y-54673538D01*
X202585331Y-54744723D01*
X202585327Y-54744726D01*
X202494726Y-54835327D01*
X202494723Y-54835331D01*
X202423538Y-54941866D01*
X202423533Y-54941875D01*
X202374499Y-55060255D01*
X202374497Y-55060261D01*
X202349500Y-55185928D01*
X202349500Y-55185931D01*
X202349500Y-55314069D01*
X202349500Y-55314071D01*
X202349499Y-55314071D01*
X201072493Y-55314071D01*
X201076465Y-55308127D01*
X201125501Y-55189744D01*
X201128142Y-55176466D01*
X201132284Y-55155647D01*
X201150500Y-55064071D01*
X201150500Y-54935928D01*
X201125502Y-54810261D01*
X201125501Y-54810260D01*
X201125501Y-54810256D01*
X201076465Y-54691873D01*
X201076464Y-54691872D01*
X201076461Y-54691866D01*
X201005276Y-54585331D01*
X201005273Y-54585327D01*
X200914672Y-54494726D01*
X200914668Y-54494723D01*
X200808133Y-54423538D01*
X200808123Y-54423533D01*
X200684149Y-54372181D01*
X200629746Y-54328340D01*
X200607681Y-54262045D01*
X200617040Y-54210169D01*
X200625501Y-54189744D01*
X200643127Y-54101134D01*
X200650500Y-54064071D01*
X200650500Y-53935928D01*
X200625502Y-53810261D01*
X200625501Y-53810260D01*
X200625501Y-53810256D01*
X200581832Y-53704829D01*
X200576466Y-53691875D01*
X200576461Y-53691866D01*
X200505276Y-53585331D01*
X200505273Y-53585327D01*
X200414672Y-53494726D01*
X200414668Y-53494723D01*
X200308133Y-53423538D01*
X200308124Y-53423533D01*
X200189744Y-53374499D01*
X200189738Y-53374497D01*
X200064071Y-53349500D01*
X200064069Y-53349500D01*
X199935931Y-53349500D01*
X199935929Y-53349500D01*
X199810261Y-53374497D01*
X199810255Y-53374499D01*
X199691875Y-53423533D01*
X199691866Y-53423538D01*
X199585331Y-53494723D01*
X199585327Y-53494726D01*
X199494726Y-53585327D01*
X199494723Y-53585331D01*
X199423538Y-53691866D01*
X199423533Y-53691875D01*
X199374499Y-53810255D01*
X199374497Y-53810261D01*
X199349500Y-53935928D01*
X199349500Y-53935931D01*
X199349500Y-54064069D01*
X199349500Y-54064071D01*
X199349499Y-54064071D01*
X186654748Y-54064071D01*
X186621057Y-54005717D01*
X186364176Y-54262599D01*
X186314400Y-54262599D01*
X186314400Y-54237338D01*
X186295065Y-54190660D01*
X186259340Y-54154935D01*
X186212662Y-54135600D01*
X186162138Y-54135600D01*
X186115460Y-54154935D01*
X186079735Y-54190660D01*
X186060400Y-54237338D01*
X185985361Y-54237338D01*
X185793700Y-54045676D01*
X185576776Y-54262599D01*
X185527000Y-54262599D01*
X185527000Y-54237338D01*
X185507665Y-54190660D01*
X185471940Y-54154935D01*
X185425262Y-54135600D01*
X185374738Y-54135600D01*
X185328060Y-54154935D01*
X185292335Y-54190660D01*
X185273000Y-54237338D01*
X185197961Y-54237338D01*
X185006300Y-54045676D01*
X184789376Y-54262599D01*
X184739600Y-54262599D01*
X184739600Y-54237338D01*
X184720265Y-54190660D01*
X184684540Y-54154935D01*
X184637862Y-54135600D01*
X184587338Y-54135600D01*
X184540660Y-54154935D01*
X184504935Y-54190660D01*
X184485600Y-54237338D01*
X184410561Y-54237338D01*
X184178941Y-54005718D01*
X184142947Y-54068062D01*
X184108600Y-54196249D01*
X182677084Y-54196249D01*
X182704689Y-54154935D01*
X182728545Y-54119233D01*
X182728546Y-54119231D01*
X182731528Y-54114766D01*
X182735965Y-54108127D01*
X182785001Y-53989744D01*
X182810000Y-53864069D01*
X182810000Y-53828941D01*
X184355718Y-53828941D01*
X184612599Y-54085822D01*
X184869479Y-53828941D01*
X185143118Y-53828941D01*
X185399999Y-54085822D01*
X185656879Y-53828941D01*
X185930518Y-53828941D01*
X186187399Y-54085822D01*
X186444280Y-53828940D01*
X186381937Y-53792947D01*
X186381938Y-53792947D01*
X186253750Y-53758600D01*
X186121050Y-53758600D01*
X185992862Y-53792947D01*
X185930518Y-53828941D01*
X185656879Y-53828941D01*
X185656880Y-53828940D01*
X185594537Y-53792947D01*
X185594538Y-53792947D01*
X185466350Y-53758600D01*
X185333650Y-53758600D01*
X185205462Y-53792947D01*
X185143118Y-53828941D01*
X184869479Y-53828941D01*
X184869480Y-53828940D01*
X184807137Y-53792947D01*
X184807138Y-53792947D01*
X184678950Y-53758600D01*
X184546250Y-53758600D01*
X184418062Y-53792947D01*
X184355718Y-53828941D01*
X182810000Y-53828941D01*
X182810000Y-53735931D01*
X182810000Y-53735928D01*
X182785002Y-53610261D01*
X182785001Y-53610260D01*
X182785001Y-53610256D01*
X182735965Y-53491873D01*
X182735964Y-53491872D01*
X182735961Y-53491866D01*
X182664776Y-53385331D01*
X182664773Y-53385327D01*
X182574172Y-53294726D01*
X182574168Y-53294723D01*
X182467633Y-53223538D01*
X182467624Y-53223533D01*
X182349244Y-53174499D01*
X182349238Y-53174497D01*
X182223571Y-53149500D01*
X182223569Y-53149500D01*
X182095431Y-53149500D01*
X182095429Y-53149500D01*
X181969761Y-53174497D01*
X181969755Y-53174499D01*
X181851375Y-53223533D01*
X181851366Y-53223538D01*
X181744831Y-53294723D01*
X181744827Y-53294726D01*
X181654226Y-53385327D01*
X181654223Y-53385331D01*
X181583038Y-53491866D01*
X181583033Y-53491875D01*
X181533999Y-53610255D01*
X181533997Y-53610261D01*
X181509000Y-53735928D01*
X181509000Y-53735931D01*
X181509000Y-53864069D01*
X181509000Y-53864071D01*
X181508999Y-53864071D01*
X169460366Y-53864071D01*
X169545571Y-53807139D01*
X169684928Y-53667782D01*
X169794421Y-53503914D01*
X169869840Y-53321835D01*
X169898948Y-53175500D01*
X169908289Y-53128543D01*
X169908289Y-52931456D01*
X169869841Y-52738170D01*
X169869840Y-52738169D01*
X169869840Y-52738165D01*
X169843468Y-52674497D01*
X169794424Y-52556092D01*
X169794417Y-52556079D01*
X169684928Y-52392218D01*
X169684925Y-52392214D01*
X169545574Y-52252863D01*
X169545570Y-52252860D01*
X169381709Y-52143371D01*
X169381696Y-52143364D01*
X169199628Y-52067950D01*
X169199618Y-52067947D01*
X169172343Y-52062522D01*
X169110432Y-52030137D01*
X169075858Y-51969421D01*
X169079598Y-51899652D01*
X169108854Y-51853223D01*
X169121789Y-51840289D01*
X169209394Y-51709179D01*
X169269737Y-51563497D01*
X169300500Y-51408842D01*
X169300500Y-51251158D01*
X169300500Y-51251155D01*
X169300499Y-51251153D01*
X169291942Y-51208133D01*
X169269737Y-51096503D01*
X169260225Y-51073538D01*
X169214883Y-50964071D01*
X173949499Y-50964071D01*
X173974497Y-51089738D01*
X173974499Y-51089744D01*
X174023533Y-51208124D01*
X174023538Y-51208133D01*
X174094723Y-51314668D01*
X174094726Y-51314672D01*
X174185327Y-51405273D01*
X174185331Y-51405276D01*
X174291866Y-51476461D01*
X174291875Y-51476466D01*
X174318692Y-51487574D01*
X174410256Y-51525501D01*
X174410260Y-51525501D01*
X174410261Y-51525502D01*
X174535928Y-51550500D01*
X174535931Y-51550500D01*
X174664071Y-51550500D01*
X174748615Y-51533682D01*
X174789744Y-51525501D01*
X174908127Y-51476465D01*
X175014669Y-51405276D01*
X175105276Y-51314669D01*
X175176465Y-51208127D01*
X175225501Y-51089744D01*
X175230608Y-51064071D01*
X176149499Y-51064071D01*
X176174497Y-51189738D01*
X176174499Y-51189744D01*
X176223533Y-51308124D01*
X176223538Y-51308133D01*
X176294723Y-51414668D01*
X176294726Y-51414672D01*
X176385327Y-51505273D01*
X176385331Y-51505276D01*
X176463184Y-51557296D01*
X176507989Y-51610908D01*
X176516696Y-51680233D01*
X176486542Y-51743260D01*
X176481975Y-51748079D01*
X176412112Y-51817942D01*
X176340927Y-51924477D01*
X176340922Y-51924486D01*
X176291888Y-52042866D01*
X176291886Y-52042872D01*
X176266889Y-52168539D01*
X176266889Y-52168542D01*
X176266889Y-52296680D01*
X176266889Y-52296682D01*
X176266888Y-52296682D01*
X176291886Y-52422349D01*
X176291888Y-52422355D01*
X176340922Y-52540735D01*
X176340927Y-52540744D01*
X176412112Y-52647279D01*
X176412115Y-52647283D01*
X176502716Y-52737884D01*
X176502720Y-52737887D01*
X176609255Y-52809072D01*
X176609261Y-52809075D01*
X176609262Y-52809076D01*
X176727645Y-52858112D01*
X176727649Y-52858112D01*
X176727650Y-52858113D01*
X176853317Y-52883111D01*
X176853320Y-52883111D01*
X176981460Y-52883111D01*
X177077186Y-52864069D01*
X177107133Y-52858112D01*
X177225516Y-52809076D01*
X177226941Y-52808124D01*
X177278227Y-52773856D01*
X177344904Y-52752978D01*
X177412284Y-52771462D01*
X177458975Y-52823441D01*
X177461679Y-52829505D01*
X177473533Y-52858123D01*
X177473538Y-52858133D01*
X177544723Y-52964668D01*
X177544726Y-52964672D01*
X177635327Y-53055273D01*
X177635331Y-53055276D01*
X177741866Y-53126461D01*
X177741875Y-53126466D01*
X177768692Y-53137574D01*
X177860256Y-53175501D01*
X177860260Y-53175501D01*
X177860261Y-53175502D01*
X177985928Y-53200500D01*
X177985931Y-53200500D01*
X178114071Y-53200500D01*
X178198615Y-53183682D01*
X178239744Y-53175501D01*
X178358127Y-53126465D01*
X178464669Y-53055276D01*
X178555276Y-52964669D01*
X178626465Y-52858127D01*
X178675501Y-52739744D01*
X178685448Y-52689738D01*
X178700500Y-52614071D01*
X178700500Y-52485928D01*
X178675502Y-52360261D01*
X178675501Y-52360260D01*
X178675501Y-52360256D01*
X178656370Y-52314071D01*
X185349499Y-52314071D01*
X185374497Y-52439738D01*
X185374499Y-52439744D01*
X185423533Y-52558124D01*
X185423538Y-52558133D01*
X185494723Y-52664668D01*
X185494726Y-52664672D01*
X185585327Y-52755273D01*
X185585331Y-52755276D01*
X185691866Y-52826461D01*
X185691872Y-52826464D01*
X185691873Y-52826465D01*
X185810256Y-52875501D01*
X185810260Y-52875501D01*
X185810261Y-52875502D01*
X185935928Y-52900500D01*
X185935931Y-52900500D01*
X186064071Y-52900500D01*
X186151487Y-52883111D01*
X186189744Y-52875501D01*
X186217338Y-52864071D01*
X187449499Y-52864071D01*
X187474497Y-52989738D01*
X187474499Y-52989744D01*
X187523533Y-53108124D01*
X187523538Y-53108133D01*
X187594723Y-53214668D01*
X187594726Y-53214672D01*
X187685327Y-53305273D01*
X187685331Y-53305276D01*
X187791866Y-53376461D01*
X187791872Y-53376464D01*
X187791873Y-53376465D01*
X187910256Y-53425501D01*
X187910260Y-53425501D01*
X187910261Y-53425502D01*
X188035928Y-53450500D01*
X188035931Y-53450500D01*
X188164071Y-53450500D01*
X188248615Y-53433682D01*
X188289744Y-53425501D01*
X188408127Y-53376465D01*
X188426676Y-53364071D01*
X194449499Y-53364071D01*
X194474497Y-53489738D01*
X194474499Y-53489744D01*
X194523533Y-53608124D01*
X194523538Y-53608133D01*
X194594723Y-53714668D01*
X194594726Y-53714672D01*
X194685327Y-53805273D01*
X194685331Y-53805276D01*
X194791866Y-53876461D01*
X194791872Y-53876464D01*
X194791873Y-53876465D01*
X194910256Y-53925501D01*
X194910260Y-53925501D01*
X194910261Y-53925502D01*
X195035928Y-53950500D01*
X195035931Y-53950500D01*
X195164071Y-53950500D01*
X195248615Y-53933682D01*
X195289744Y-53925501D01*
X195408127Y-53876465D01*
X195408133Y-53876461D01*
X195482551Y-53826737D01*
X195507208Y-53810261D01*
X195514669Y-53805276D01*
X195605276Y-53714669D01*
X195676465Y-53608127D01*
X195725501Y-53489744D01*
X195746271Y-53385331D01*
X195750500Y-53364071D01*
X195750500Y-53235928D01*
X195725502Y-53110261D01*
X195725501Y-53110260D01*
X195725501Y-53110256D01*
X195682017Y-53005276D01*
X195676466Y-52991875D01*
X195676461Y-52991866D01*
X195605276Y-52885331D01*
X195605273Y-52885327D01*
X195514672Y-52794726D01*
X195514668Y-52794723D01*
X195408133Y-52723538D01*
X195408124Y-52723533D01*
X195289744Y-52674499D01*
X195289738Y-52674497D01*
X195164071Y-52649500D01*
X195164069Y-52649500D01*
X195035931Y-52649500D01*
X195035929Y-52649500D01*
X194910261Y-52674497D01*
X194910255Y-52674499D01*
X194791875Y-52723533D01*
X194791866Y-52723538D01*
X194685331Y-52794723D01*
X194685327Y-52794726D01*
X194594726Y-52885327D01*
X194594723Y-52885331D01*
X194523538Y-52991866D01*
X194523533Y-52991875D01*
X194474499Y-53110255D01*
X194474497Y-53110261D01*
X194449500Y-53235928D01*
X194449500Y-53235931D01*
X194449500Y-53364069D01*
X194449500Y-53364071D01*
X194449499Y-53364071D01*
X188426676Y-53364071D01*
X188514669Y-53305276D01*
X188605276Y-53214669D01*
X188631447Y-53175502D01*
X188641172Y-53160948D01*
X188641173Y-53160946D01*
X188676458Y-53108138D01*
X188676461Y-53108133D01*
X188676465Y-53108127D01*
X188725501Y-52989744D01*
X188746271Y-52885331D01*
X188750500Y-52864071D01*
X188750500Y-52735928D01*
X188725502Y-52610261D01*
X188725501Y-52610260D01*
X188725501Y-52610256D01*
X188706370Y-52564071D01*
X196949499Y-52564071D01*
X196974497Y-52689738D01*
X196974499Y-52689744D01*
X197023533Y-52808124D01*
X197023538Y-52808133D01*
X197094723Y-52914668D01*
X197094726Y-52914672D01*
X197185327Y-53005273D01*
X197185331Y-53005276D01*
X197291866Y-53076461D01*
X197291872Y-53076464D01*
X197291873Y-53076465D01*
X197410256Y-53125501D01*
X197410260Y-53125501D01*
X197410261Y-53125502D01*
X197535928Y-53150500D01*
X197535931Y-53150500D01*
X197664071Y-53150500D01*
X197774461Y-53128541D01*
X197789744Y-53125501D01*
X197908127Y-53076465D01*
X198014669Y-53005276D01*
X198105276Y-52914669D01*
X198176465Y-52808127D01*
X198225501Y-52689744D01*
X198250500Y-52564069D01*
X198250500Y-52435931D01*
X198250500Y-52435928D01*
X198225502Y-52310261D01*
X198225501Y-52310260D01*
X198225501Y-52310256D01*
X198176465Y-52191873D01*
X198176464Y-52191872D01*
X198176461Y-52191866D01*
X198105276Y-52085331D01*
X198105273Y-52085327D01*
X198038052Y-52018106D01*
X198004567Y-51956783D01*
X198009551Y-51887091D01*
X198051423Y-51831158D01*
X198056843Y-51827322D01*
X198058123Y-51826466D01*
X198058127Y-51826465D01*
X198164669Y-51755276D01*
X198255276Y-51664669D01*
X198326465Y-51558127D01*
X198375501Y-51439744D01*
X198394969Y-51341875D01*
X198400500Y-51314071D01*
X198400500Y-51185928D01*
X198375502Y-51060261D01*
X198375501Y-51060260D01*
X198375501Y-51060256D01*
X198330174Y-50950827D01*
X198326466Y-50941875D01*
X198326461Y-50941866D01*
X198255276Y-50835331D01*
X198255273Y-50835327D01*
X198164672Y-50744726D01*
X198164668Y-50744723D01*
X198058133Y-50673538D01*
X198058124Y-50673533D01*
X197939744Y-50624499D01*
X197939738Y-50624497D01*
X197814071Y-50599500D01*
X197814069Y-50599500D01*
X197685931Y-50599500D01*
X197685929Y-50599500D01*
X197560261Y-50624497D01*
X197560255Y-50624499D01*
X197441875Y-50673533D01*
X197441866Y-50673538D01*
X197335331Y-50744723D01*
X197335327Y-50744726D01*
X197244726Y-50835327D01*
X197244723Y-50835331D01*
X197173538Y-50941866D01*
X197173533Y-50941875D01*
X197124499Y-51060255D01*
X197124497Y-51060261D01*
X197099500Y-51185928D01*
X197099500Y-51185931D01*
X197099500Y-51314069D01*
X197099500Y-51314071D01*
X197099499Y-51314071D01*
X197124497Y-51439738D01*
X197124499Y-51439744D01*
X197173533Y-51558124D01*
X197173538Y-51558133D01*
X197244723Y-51664668D01*
X197244726Y-51664672D01*
X197311947Y-51731893D01*
X197345432Y-51793216D01*
X197340448Y-51862908D01*
X197298576Y-51918841D01*
X197293157Y-51922676D01*
X197185331Y-51994723D01*
X197185327Y-51994726D01*
X197094726Y-52085327D01*
X197094723Y-52085331D01*
X197023538Y-52191866D01*
X197023533Y-52191875D01*
X196974499Y-52310255D01*
X196974497Y-52310261D01*
X196949500Y-52435928D01*
X196949500Y-52435931D01*
X196949500Y-52564069D01*
X196949500Y-52564071D01*
X196949499Y-52564071D01*
X188706370Y-52564071D01*
X188676465Y-52491873D01*
X188676460Y-52491866D01*
X188605276Y-52385331D01*
X188605273Y-52385327D01*
X188514672Y-52294726D01*
X188514668Y-52294723D01*
X188408133Y-52223538D01*
X188408124Y-52223533D01*
X188289744Y-52174499D01*
X188289738Y-52174497D01*
X188164071Y-52149500D01*
X188164069Y-52149500D01*
X188035931Y-52149500D01*
X188035929Y-52149500D01*
X187910261Y-52174497D01*
X187910255Y-52174499D01*
X187791875Y-52223533D01*
X187791866Y-52223538D01*
X187685331Y-52294723D01*
X187685327Y-52294726D01*
X187594726Y-52385327D01*
X187594723Y-52385331D01*
X187523538Y-52491866D01*
X187523533Y-52491875D01*
X187474499Y-52610255D01*
X187474497Y-52610261D01*
X187449500Y-52735928D01*
X187449500Y-52735931D01*
X187449500Y-52864069D01*
X187449500Y-52864071D01*
X187449499Y-52864071D01*
X186217338Y-52864071D01*
X186308127Y-52826465D01*
X186414669Y-52755276D01*
X186505276Y-52664669D01*
X186507667Y-52661091D01*
X186507765Y-52660945D01*
X186507765Y-52660944D01*
X186576461Y-52558133D01*
X186576461Y-52558132D01*
X186576465Y-52558127D01*
X186625501Y-52439744D01*
X186650500Y-52314069D01*
X186650500Y-52185931D01*
X186650500Y-52185928D01*
X186625502Y-52060261D01*
X186625501Y-52060260D01*
X186625501Y-52060256D01*
X186587574Y-51968692D01*
X186576466Y-51941875D01*
X186576461Y-51941866D01*
X186505276Y-51835331D01*
X186505273Y-51835327D01*
X186414672Y-51744726D01*
X186414668Y-51744723D01*
X186308133Y-51673538D01*
X186308124Y-51673533D01*
X186189744Y-51624499D01*
X186189738Y-51624497D01*
X186064071Y-51599500D01*
X186064069Y-51599500D01*
X185935931Y-51599500D01*
X185935929Y-51599500D01*
X185810261Y-51624497D01*
X185810255Y-51624499D01*
X185691875Y-51673533D01*
X185691866Y-51673538D01*
X185585331Y-51744723D01*
X185585327Y-51744726D01*
X185494726Y-51835327D01*
X185494723Y-51835331D01*
X185423538Y-51941866D01*
X185423533Y-51941875D01*
X185374499Y-52060255D01*
X185374497Y-52060261D01*
X185349500Y-52185928D01*
X185349500Y-52185931D01*
X185349500Y-52314069D01*
X185349500Y-52314071D01*
X185349499Y-52314071D01*
X178656370Y-52314071D01*
X178626465Y-52241873D01*
X178626464Y-52241872D01*
X178626461Y-52241866D01*
X178555276Y-52135331D01*
X178555273Y-52135327D01*
X178464672Y-52044726D01*
X178464668Y-52044723D01*
X178358133Y-51973538D01*
X178358124Y-51973533D01*
X178239744Y-51924499D01*
X178239738Y-51924497D01*
X178114071Y-51899500D01*
X178114069Y-51899500D01*
X177985931Y-51899500D01*
X177985929Y-51899500D01*
X177860261Y-51924497D01*
X177860255Y-51924499D01*
X177741875Y-51973533D01*
X177741863Y-51973540D01*
X177689159Y-52008755D01*
X177622481Y-52029632D01*
X177555101Y-52011146D01*
X177508412Y-51959167D01*
X177505719Y-51953130D01*
X177493854Y-51924484D01*
X177493852Y-51924481D01*
X177493850Y-51924477D01*
X177422665Y-51817942D01*
X177422662Y-51817938D01*
X177332061Y-51727337D01*
X177332057Y-51727334D01*
X177312208Y-51714071D01*
X183199499Y-51714071D01*
X183224497Y-51839738D01*
X183224499Y-51839744D01*
X183273533Y-51958124D01*
X183273538Y-51958133D01*
X183344723Y-52064668D01*
X183344726Y-52064672D01*
X183435327Y-52155273D01*
X183435331Y-52155276D01*
X183541866Y-52226461D01*
X183541872Y-52226464D01*
X183541873Y-52226465D01*
X183660256Y-52275501D01*
X183660260Y-52275501D01*
X183660261Y-52275502D01*
X183785928Y-52300500D01*
X183785931Y-52300500D01*
X183914071Y-52300500D01*
X183998615Y-52283682D01*
X184039744Y-52275501D01*
X184158127Y-52226465D01*
X184264669Y-52155276D01*
X184284618Y-52135327D01*
X184327788Y-52092158D01*
X184355273Y-52064672D01*
X184355276Y-52064669D01*
X184426465Y-51958127D01*
X184475501Y-51839744D01*
X184488089Y-51776461D01*
X184500500Y-51714071D01*
X184500500Y-51585928D01*
X184475502Y-51460261D01*
X184475501Y-51460260D01*
X184475501Y-51460256D01*
X184426465Y-51341873D01*
X184426464Y-51341872D01*
X184426461Y-51341866D01*
X184374480Y-51264071D01*
X187849499Y-51264071D01*
X187874497Y-51389738D01*
X187874499Y-51389744D01*
X187923533Y-51508124D01*
X187923538Y-51508133D01*
X187994723Y-51614668D01*
X187994726Y-51614672D01*
X188085327Y-51705273D01*
X188085331Y-51705276D01*
X188191866Y-51776461D01*
X188191872Y-51776464D01*
X188191873Y-51776465D01*
X188310256Y-51825501D01*
X188310260Y-51825501D01*
X188310261Y-51825502D01*
X188435928Y-51850500D01*
X188435931Y-51850500D01*
X188564071Y-51850500D01*
X188680589Y-51827322D01*
X188689744Y-51825501D01*
X188808127Y-51776465D01*
X188914669Y-51705276D01*
X189005276Y-51614669D01*
X189076465Y-51508127D01*
X189125501Y-51389744D01*
X189137615Y-51328844D01*
X189150500Y-51264071D01*
X189150500Y-51135928D01*
X189125502Y-51010261D01*
X189125501Y-51010260D01*
X189125501Y-51010256D01*
X189076465Y-50891873D01*
X189076464Y-50891872D01*
X189076461Y-50891866D01*
X189005276Y-50785331D01*
X189005273Y-50785327D01*
X188914672Y-50694726D01*
X188914668Y-50694723D01*
X188808133Y-50623538D01*
X188808124Y-50623533D01*
X188689744Y-50574499D01*
X188689738Y-50574497D01*
X188564071Y-50549500D01*
X188564069Y-50549500D01*
X188435931Y-50549500D01*
X188435929Y-50549500D01*
X188310261Y-50574497D01*
X188310255Y-50574499D01*
X188191875Y-50623533D01*
X188191866Y-50623538D01*
X188085331Y-50694723D01*
X188085327Y-50694726D01*
X187994726Y-50785327D01*
X187994723Y-50785331D01*
X187923538Y-50891866D01*
X187923533Y-50891875D01*
X187874499Y-51010255D01*
X187874497Y-51010261D01*
X187849500Y-51135928D01*
X187849500Y-51135931D01*
X187849500Y-51264069D01*
X187849500Y-51264071D01*
X187849499Y-51264071D01*
X184374480Y-51264071D01*
X184355276Y-51235331D01*
X184355273Y-51235327D01*
X184264672Y-51144726D01*
X184264668Y-51144723D01*
X184158133Y-51073538D01*
X184158124Y-51073533D01*
X184039744Y-51024499D01*
X184039738Y-51024497D01*
X183914071Y-50999500D01*
X183914069Y-50999500D01*
X183785931Y-50999500D01*
X183785929Y-50999500D01*
X183660261Y-51024497D01*
X183660255Y-51024499D01*
X183541875Y-51073533D01*
X183541866Y-51073538D01*
X183435331Y-51144723D01*
X183435327Y-51144726D01*
X183344726Y-51235327D01*
X183344723Y-51235331D01*
X183273538Y-51341866D01*
X183273533Y-51341875D01*
X183224499Y-51460255D01*
X183224497Y-51460261D01*
X183199500Y-51585928D01*
X183199500Y-51585931D01*
X183199500Y-51714069D01*
X183199500Y-51714071D01*
X183199499Y-51714071D01*
X177312208Y-51714071D01*
X177265619Y-51682941D01*
X177265619Y-51682940D01*
X177254206Y-51675315D01*
X177209400Y-51621704D01*
X177200691Y-51552379D01*
X177230845Y-51489351D01*
X177235395Y-51484549D01*
X177305276Y-51414669D01*
X177376465Y-51308127D01*
X177425501Y-51189744D01*
X177444047Y-51096510D01*
X177450500Y-51064071D01*
X177450500Y-50935928D01*
X177425502Y-50810261D01*
X177425501Y-50810260D01*
X177425501Y-50810256D01*
X177383233Y-50708213D01*
X177376466Y-50691875D01*
X177376461Y-50691866D01*
X177305276Y-50585331D01*
X177305273Y-50585327D01*
X177214672Y-50494726D01*
X177214668Y-50494723D01*
X177108133Y-50423538D01*
X177108124Y-50423533D01*
X176989744Y-50374499D01*
X176989738Y-50374497D01*
X176864071Y-50349500D01*
X176864069Y-50349500D01*
X176735931Y-50349500D01*
X176735929Y-50349500D01*
X176610261Y-50374497D01*
X176610255Y-50374499D01*
X176491875Y-50423533D01*
X176491866Y-50423538D01*
X176385331Y-50494723D01*
X176385327Y-50494726D01*
X176294726Y-50585327D01*
X176294723Y-50585331D01*
X176223538Y-50691866D01*
X176223533Y-50691875D01*
X176174499Y-50810255D01*
X176174497Y-50810261D01*
X176149500Y-50935928D01*
X176149500Y-50935931D01*
X176149500Y-51064069D01*
X176149500Y-51064071D01*
X176149499Y-51064071D01*
X175230608Y-51064071D01*
X175233682Y-51048615D01*
X175250500Y-50964071D01*
X175250500Y-50835928D01*
X175225502Y-50710261D01*
X175225501Y-50710260D01*
X175225501Y-50710256D01*
X175176465Y-50591873D01*
X175176464Y-50591872D01*
X175176461Y-50591866D01*
X175105276Y-50485331D01*
X175105273Y-50485327D01*
X175014672Y-50394726D01*
X175014668Y-50394723D01*
X174908133Y-50323538D01*
X174908124Y-50323533D01*
X174789744Y-50274499D01*
X174789738Y-50274497D01*
X174664071Y-50249500D01*
X174664069Y-50249500D01*
X174535931Y-50249500D01*
X174535929Y-50249500D01*
X174410261Y-50274497D01*
X174410255Y-50274499D01*
X174291875Y-50323533D01*
X174291866Y-50323538D01*
X174185331Y-50394723D01*
X174185327Y-50394726D01*
X174094726Y-50485327D01*
X174094723Y-50485331D01*
X174023538Y-50591866D01*
X174023533Y-50591875D01*
X173974499Y-50710255D01*
X173974497Y-50710261D01*
X173949500Y-50835928D01*
X173949500Y-50835931D01*
X173949500Y-50964069D01*
X173949500Y-50964071D01*
X173949499Y-50964071D01*
X169214883Y-50964071D01*
X169209397Y-50950827D01*
X169209395Y-50950823D01*
X169209394Y-50950821D01*
X169174588Y-50898730D01*
X169121789Y-50819710D01*
X169010292Y-50708213D01*
X169010288Y-50708210D01*
X168879185Y-50620609D01*
X168879172Y-50620602D01*
X168733501Y-50560264D01*
X168733489Y-50560261D01*
X168578845Y-50529500D01*
X168578842Y-50529500D01*
X168421158Y-50529500D01*
X168421155Y-50529500D01*
X168266510Y-50560261D01*
X168266498Y-50560264D01*
X168120827Y-50620602D01*
X168120814Y-50620609D01*
X167989711Y-50708210D01*
X167989707Y-50708213D01*
X167878213Y-50819707D01*
X167878210Y-50819711D01*
X167790609Y-50950814D01*
X167790602Y-50950827D01*
X167730264Y-51096498D01*
X167730261Y-51096510D01*
X167699500Y-51251153D01*
X167699500Y-51408846D01*
X167730261Y-51563489D01*
X167730264Y-51563501D01*
X167790602Y-51709172D01*
X167790609Y-51709185D01*
X167875752Y-51836609D01*
X167896630Y-51903286D01*
X167878146Y-51970666D01*
X167826167Y-52017357D01*
X167772650Y-52029500D01*
X167709246Y-52029500D01*
X167515959Y-52067947D01*
X167515949Y-52067950D01*
X167333881Y-52143364D01*
X167333868Y-52143371D01*
X167170007Y-52252860D01*
X167170003Y-52252863D01*
X167030652Y-52392214D01*
X167030649Y-52392218D01*
X166921160Y-52556079D01*
X166921153Y-52556092D01*
X166845739Y-52738160D01*
X166845736Y-52738170D01*
X166807289Y-52931456D01*
X166807289Y-52931459D01*
X166807289Y-53128541D01*
X166807289Y-53128543D01*
X166807288Y-53128543D01*
X165478289Y-53128543D01*
X165478289Y-52931456D01*
X165439841Y-52738170D01*
X165439840Y-52738169D01*
X165439840Y-52738165D01*
X165413468Y-52674497D01*
X165364424Y-52556092D01*
X165364417Y-52556079D01*
X165254928Y-52392218D01*
X165254925Y-52392214D01*
X165115574Y-52252863D01*
X165115570Y-52252860D01*
X165042541Y-52204063D01*
X164997736Y-52150450D01*
X164989029Y-52081125D01*
X165019184Y-52018098D01*
X165063978Y-51986400D01*
X165129179Y-51959394D01*
X165260289Y-51871789D01*
X165371789Y-51760289D01*
X165459394Y-51629179D01*
X165460918Y-51625501D01*
X165481229Y-51576465D01*
X165519737Y-51483497D01*
X165550500Y-51328842D01*
X165550500Y-51171158D01*
X165550500Y-51171155D01*
X165550499Y-51171153D01*
X165535649Y-51096498D01*
X165519737Y-51016503D01*
X165519735Y-51016498D01*
X165459397Y-50870827D01*
X165459390Y-50870814D01*
X165371789Y-50739711D01*
X165371786Y-50739707D01*
X165260292Y-50628213D01*
X165260288Y-50628210D01*
X165129185Y-50540609D01*
X165129172Y-50540602D01*
X164983501Y-50480264D01*
X164983489Y-50480261D01*
X164828845Y-50449500D01*
X164828842Y-50449500D01*
X164671158Y-50449500D01*
X164671155Y-50449500D01*
X164516510Y-50480261D01*
X164516498Y-50480264D01*
X164370827Y-50540602D01*
X164370814Y-50540609D01*
X164239711Y-50628210D01*
X164239707Y-50628213D01*
X164128213Y-50739707D01*
X164128210Y-50739711D01*
X164040609Y-50870814D01*
X164040602Y-50870827D01*
X163980264Y-51016498D01*
X163980261Y-51016510D01*
X163949500Y-51171153D01*
X163949500Y-51328846D01*
X163980261Y-51483489D01*
X163980264Y-51483501D01*
X164040602Y-51629172D01*
X164040609Y-51629185D01*
X164128210Y-51760288D01*
X164128213Y-51760292D01*
X164185740Y-51817819D01*
X164219225Y-51879142D01*
X164214241Y-51948834D01*
X164172369Y-52004767D01*
X164106905Y-52029184D01*
X164098059Y-52029500D01*
X163779246Y-52029500D01*
X163585959Y-52067947D01*
X163585949Y-52067950D01*
X163403881Y-52143364D01*
X163403868Y-52143371D01*
X163240007Y-52252860D01*
X163240003Y-52252863D01*
X163100652Y-52392214D01*
X163100649Y-52392218D01*
X162991160Y-52556079D01*
X162991153Y-52556092D01*
X162915739Y-52738160D01*
X162915736Y-52738170D01*
X162877289Y-52931456D01*
X162877289Y-52931459D01*
X162877289Y-53128541D01*
X162877289Y-53128543D01*
X162877288Y-53128543D01*
X162000500Y-53128543D01*
X162000500Y-46124500D01*
X162020185Y-46057461D01*
X162072989Y-46011706D01*
X162124500Y-46000500D01*
X172068059Y-46000500D01*
X172135098Y-46020185D01*
G37*
%TD.AperFunction*%
%TD*%
M02*
